<?xml version="1.0" encoding="UTF-8"?>
<svg width="18px" height="14px" viewBox="0 0 18 14" version="1.1" xmlns="http://www.w3.org/2000/svg" xmlns:xlink="http://www.w3.org/1999/xlink">
    <!-- Generator: Sketch 47 (45396) - http://www.bohemiancoding.com/sketch -->
    <title>arrow_back</title>
    <desc>Created with Sketch.</desc>
    <defs></defs>
    <g id="Page-1" stroke="none" stroke-width="1" fill="none" fill-rule="evenodd">
        <g id="assets" transform="translate(-70.000000, -113.000000)" fill-rule="nonzero" fill="#0D978E">
            <g id="arrow_back" transform="translate(70.000000, 113.000000)">
                <path d="M11.9278125,0.612956522 C11.6865,0.342695652 11.284875,0.342695652 11.035125,0.612956522 C10.7938125,0.874086957 10.7938125,1.30869565 11.035125,1.56921739 L15.5615625,6.4673913 L0.6249375,6.4673913 C0.27675,6.468 0,6.76747826 0,7.14426087 C0,7.52104348 0.27675,7.83026087 0.6249375,7.83026087 L15.5615625,7.83026087 L11.035125,12.7193043 C10.7938125,12.9895652 10.7938125,13.4247826 11.035125,13.6853043 C11.284875,13.9555652 11.6870625,13.9555652 11.9278125,13.6853043 L17.5258125,7.62756522 C17.7755625,7.36643478 17.7755625,6.93182609 17.5258125,6.67130435 L11.9278125,0.612956522 Z" id="Shape" transform="translate(8.856562, 7.149130) scale(-1, 1) translate(-8.856562, -7.149130) "></path>
            </g>
        </g>
    </g>
</svg>