<?xml version="1.0" encoding="UTF-8"?>
<svg width="14px" height="15px" viewBox="0 0 14 15" version="1.1" xmlns="http://www.w3.org/2000/svg" xmlns:xlink="http://www.w3.org/1999/xlink">
    <!-- Generator: Sketch 50.2 (55047) - http://www.bohemiancoding.com/sketch -->
    <title>Shape Copy 8</title>
    <desc>Created with Sketch.</desc>
    <defs></defs>
    <g id="Page-1" stroke="none" stroke-width="1" fill="none" fill-rule="evenodd">
        <g id="sample--19-06---Create-organization---Market-Place---view3" transform="translate(-1288.000000, -1021.000000)" fill="#A7A7A7" fill-rule="nonzero">
            <g id="Schedule-an-Appointment" transform="translate(324.000000, 80.000000)">
                <g id="tabs" transform="translate(30.000000, 78.000000)">
                    <g id="Group-5">
                        <g id="Group-9" transform="translate(16.000000, 833.000000)">
                            <g id="Group-11" transform="translate(0.000000, 22.000000)">
                                <path d="M926.238144,15.403996 L931.74347,9.75021384 C932.08551,9.39925016 932.08551,8.82979585 931.74347,8.47883216 C931.40143,8.12756877 930.847512,8.12756877 930.505472,8.47883216 L925.000146,14.1326143 L919.494528,8.47883216 C919.152488,8.12756877 918.59857,8.12756877 918.25653,8.47883216 C917.91449,8.82979585 917.91449,9.39925016 918.25653,9.75021384 L923.762148,15.403996 L918.25653,21.0577782 C917.91449,21.4087419 917.91449,21.9781962 918.25653,22.3291599 C918.42755,22.5044918 918.651685,22.5923077 918.875529,22.5923077 C919.099373,22.5923077 919.323508,22.5044918 919.494528,22.3288601 L925.000146,16.675078 L930.505472,22.3288601 C930.676492,22.5044918 930.900627,22.5923077 931.124471,22.5923077 C931.348315,22.5923077 931.57245,22.5044918 931.74347,22.3288601 C932.08551,21.9778965 932.08551,21.4084422 931.74347,21.0574785 L926.238144,15.403996 Z" id="Shape-Copy-8"></path>
                            </g>
                        </g>
                    </g>
                </g>
            </g>
        </g>
    </g>
</svg>