<?xml version="1.0" encoding="UTF-8"?>
<svg width="14px" height="14px" viewBox="0 0 14 14" version="1.1" xmlns="http://www.w3.org/2000/svg" xmlns:xlink="http://www.w3.org/1999/xlink">
    <!-- Generator: Sketch 50.2 (55047) - http://www.bohemiancoding.com/sketch -->
    <title>Shape Copy 8</title>
    <desc>Created with Sketch.</desc>
    <defs></defs>
    <g id="Page-1" stroke="none" stroke-width="1" fill="none" fill-rule="evenodd">
        <g id="sample--1-8-05---Schedule-an-Appointment---Patient-Name-Selection-Copy" transform="translate(-1288.000000, -227.000000)" fill="#A7A7A7" fill-rule="nonzero">
            <g id="Schedule-an-Appointment" transform="translate(324.000000, 80.000000)">
                <g id="Appointmnets-detail" transform="translate(46.000000, 78.000000)">
                    <g id="Patient-Name" transform="translate(0.000000, 39.000000)">
                        <g id="Patient-Name*">
                            <path d="M926.238144,37.0001459 L931.74347,31.4945903 C932.08551,31.1528279 932.08551,30.5983031 931.74347,30.2565407 C931.40143,29.9144864 930.847512,29.9144864 930.505472,30.2565407 L925.000146,35.7620964 L919.494528,30.2565407 C919.152488,29.9144864 918.59857,29.9144864 918.25653,30.2565407 C917.91449,30.5983031 917.91449,31.1528279 918.25653,31.4945903 L923.762148,37.0001459 L918.25653,42.5057016 C917.91449,42.847464 917.91449,43.4019888 918.25653,43.7437512 C918.42755,43.9144864 918.651685,44 918.875529,44 C919.099373,44 919.323508,43.9144864 919.494528,43.7434593 L925.000146,38.2379036 L930.505472,43.7434593 C930.676492,43.9144864 930.900627,44 931.124471,44 C931.348315,44 931.57245,43.9144864 931.74347,43.7434593 C932.08551,43.4016969 932.08551,42.8471721 931.74347,42.5054097 L926.238144,37.0001459 Z" id="Shape-Copy-8"></path>
                        </g>
                    </g>
                </g>
            </g>
        </g>
    </g>
</svg>