<?xml version="1.0" encoding="UTF-8"?>
<svg width="54px" height="54px" viewBox="0 0 40 40" version="1.1" xmlns="http://www.w3.org/2000/svg" xmlns:xlink="http://www.w3.org/1999/xlink">
    <!-- Generator: Sketch 47 (45396) - http://www.bohemiancoding.com/sketch -->
    <title>ic_location</title>
    <desc>Created with Sketch.</desc>
    <defs>
        <rect id="path-1" x="0" y="0" width="32" height="32"></rect>
        <filter x="-21.9%" y="-15.6%" width="143.8%" height="143.8%" filterUnits="objectBoundingBox" id="filter-2">
            <feOffset dx="0" dy="2" in="SourceAlpha" result="shadowOffsetOuter1"></feOffset>
            <feGaussianBlur stdDeviation="2" in="shadowOffsetOuter1" result="shadowBlurOuter1"></feGaussianBlur>
            <feComposite in="shadowBlurOuter1" in2="SourceAlpha" operator="out" result="shadowBlurOuter1"></feComposite>
            <feColorMatrix values="0 0 0 0 0   0 0 0 0 0   0 0 0 0 0  0 0 0 0.153900589 0" type="matrix" in="shadowBlurOuter1"></feColorMatrix>
        </filter>
    </defs>
    <g id="Page-1" stroke="none" stroke-width="1" fill="none" fill-rule="evenodd">
        <g id="assets" transform="translate(-236.000000, -188.000000)">
            <g id="ic_location" transform="translate(240.000000, 190.000000)">
                <g id="Rectangle-17">
                    <use fill="black" fill-opacity="1" filter="url(#filter-2)" xlink:href="#path-1"></use>
                    <use fill="#FFFFFF" fill-rule="evenodd" xlink:href="#path-1"></use>
                    <rect stroke="#C9C9C9" stroke-width="1" x="0.5" y="0.5" width="31" height="31"></rect>
                </g>
                <g id="interface" transform="translate(6.000000, 7.000000)" fill-rule="nonzero" fill="#9E9E9E">
                    <path d="M18.520202,8.7642298 L17.9828763,8.7642298 C17.6299848,4.66689899 14.333197,1.37015909 10.2357222,1.01712374 L10.2357222,0.47979798 C10.2357222,0.214853535 10.0208207,0 9.75592424,0 L9.24402778,0 C8.97908333,0 8.7642298,0.214853535 8.7642298,0.47979798 L8.7642298,1.01712374 C4.66689899,1.37011111 1.37015909,4.66689899 1.01712374,8.7642298 L0.47979798,8.7642298 C0.214853535,8.7642298 0,8.97908333 0,9.24402778 L0,9.75597222 C0,10.0209167 0.214853535,10.2357702 0.47979798,10.2357702 L1.01712374,10.2357702 C1.37011111,14.333053 4.66685101,17.6298409 8.7642298,17.9828763 L8.7642298,18.520202 C8.7642298,18.7850985 8.97908333,19 9.24402778,19 L9.75592424,19 C10.0208207,19 10.2357222,18.7850985 10.2357222,18.520202 L10.2357222,17.9828763 C14.333053,17.6299848 17.6298409,14.333197 17.9828763,10.2357702 L18.520202,10.2357702 C18.7851465,10.2357702 19,10.0209167 19,9.75597222 L19,9.24402778 C19,8.97908333 18.7851465,8.7642298 18.520202,8.7642298 Z M10.2357222,16.5046667 L10.2357222,14.582404 C12.4957626,14.2580126 14.2579646,12.4959066 14.582404,10.2357702 L16.5046667,10.2357702 C16.337649,11.8327778 15.6215025,13.3339217 14.4776641,14.4777121 C13.3338258,15.6215505 11.8326818,16.337697 10.2357222,16.5046667 Z M8.7642298,16.5046667 C7.16722222,16.337649 5.66607828,15.6215025 4.52228788,14.4777121 C3.37849747,13.3339217 2.66235101,11.8327778 2.49533333,10.2357702 L4.41759596,10.2357702 C4.74198737,12.4957626 6.50423737,14.2580126 8.7642298,14.582404 L8.7642298,16.5046667 L8.7642298,16.5046667 Z M8.7642298,2.49533333 L8.7642298,4.41759596 C6.50423737,4.74198737 4.74198737,6.50423737 4.41759596,8.7642298 L2.49533333,8.7642298 C2.66235101,7.16722222 3.37849747,5.66607828 4.52228788,4.52228788 C5.66607828,3.37849747 7.16722222,2.66235101 8.7642298,2.49533333 Z M5.95467677,9.5 C5.95467677,7.54511111 7.54506313,5.95467677 9.5,5.95467677 C11.4549369,5.95467677 13.0453232,7.54506313 13.0453232,9.5 C13.0453232,11.4549369 11.4548889,13.0453712 9.5,13.0453712 C7.54511111,13.0453712 5.95467677,11.4548889 5.95467677,9.5 Z M10.2357222,2.49533333 C11.8326818,2.66230303 13.3338258,3.37844949 14.4776641,4.52228788 C15.6215025,5.66607828 16.337649,7.16722222 16.5046667,8.7642298 L14.582404,8.7642298 C14.2579646,6.50423737 12.4958586,4.74198737 10.2357222,4.41759596 L10.2357222,2.49533333 L10.2357222,2.49533333 Z" id="Shape"></path>
                </g>
            </g>
        </g>
    </g>
</svg>