<?xml version="1.0" encoding="UTF-8"?>
<svg width="18px" height="18px" viewBox="0 0 18 18" version="1.1" xmlns="http://www.w3.org/2000/svg" xmlns:xlink="http://www.w3.org/1999/xlink">
    <!-- Generator: Sketch 51.2 (57519) - http://www.bohemiancoding.com/sketch -->
    <title>Icons/Info</title>
    <desc>Created with Sketch.</desc>
    <defs></defs>
    <g id="Icons/Info" stroke="none" stroke-width="1" fill="none" fill-rule="evenodd">
        <path d="M10.0234375,7.296875 L10.0234375,13.90625 L8.265625,13.90625 L8.265625,7.296875 L10.0234375,7.296875 Z M8,5.1328125 C8,4.8255193 8.11197805,4.55989695 8.3359375,4.3359375 C8.55989695,4.11197805 8.82812344,4 9.140625,4 C9.45833492,4 9.72916555,4.11197805 9.953125,4.3359375 C10.1770845,4.55468859 10.2890625,4.82291508 10.2890625,5.140625 C10.2890625,5.45833492 10.1770845,5.72916555 9.953125,5.953125 C9.73437391,6.17708445 9.46614742,6.2890625 9.1484375,6.2890625 C8.83072758,6.2890625 8.55989695,6.17708445 8.3359375,5.953125 C8.11197805,5.72916555 8,5.45573078 8,5.1328125 Z" id="Combined-Shape" fill="#7D7D7D" fill-rule="nonzero"></path>
        <path d="M2.38546255,15.6182769 L4.43412883,14.6510604 L5.13514064,15.1056708 C5.18752596,15.139643 5.24026973,15.1729148 5.2933636,15.2054814 C6.44562908,15.9122567 7.75087072,16.2796394 9.11223778,16.2796394 C11.0650832,16.2796394 12.9353952,15.5014595 14.3336371,14.1029134 C15.7272492,12.7304811 16.5,10.8707115 16.5,8.8898197 C16.5,6.91719617 15.7327933,5.0515732 14.3562694,3.67232675 C12.944923,2.26302311 11.10235,1.5 9.11223778,1.5 C7.13307309,1.5 5.27479526,2.27205195 3.89057331,3.67699562 C1.49408526,6.05346252 1.03168036,9.72581105 2.75403817,12.6326862 C2.80157477,12.7129152 2.85065676,12.79234 2.90126778,12.8709301 L3.35188307,13.5706569 L2.38546255,15.6182769 Z M1.46355514,13.3973126 C-0.603363613,9.90891158 -0.0585441382,5.4806429 2.83437159,2.61189566 C4.49221825,0.929056644 6.73718936,0 9.11223778,0 C11.499465,0 13.7233364,0.920524222 15.4161612,2.61089869 C17.0774267,4.27544623 18,6.52309699 18,8.8898197 C18,11.2666118 17.0702247,13.5131781 15.3861448,15.1716638 C13.7175154,16.840733 11.4666899,17.7796394 9.11223778,17.7796394 C7.47420365,17.7796394 5.89749102,17.3357351 4.50907852,16.4841123 C4.44527481,16.4449765 4.38190515,16.4050018 4.31898031,16.3641947 L0.985893046,17.937812 C0.640832779,18.1007219 0.22904162,17.9530598 0.0661317486,17.6079996 C-0.0220314651,17.4212606 -0.0220445102,17.2048757 0.0660961872,17.0181261 L1.64014891,13.6830749 C1.57943444,13.588796 1.52056397,13.4935282 1.46355514,13.3973126 Z" id="Path" fill="#7D7D7D" fill-rule="nonzero"></path>
    </g>
</svg>