<?xml version="1.0" encoding="UTF-8"?>
<svg width="200px" height="69px" viewBox="0 0 200 69" version="1.1" xmlns="http://www.w3.org/2000/svg" xmlns:xlink="http://www.w3.org/1999/xlink">
    <!-- Generator: Sketch 52.2 (67145) - http://www.bohemiancoding.com/sketch -->
    <title>Logo</title>
    <desc>Created with Sketch.</desc>
    <defs>
        <polygon id="path-1" points="0.0100166945 0.0129682152 199.897886 0.0129682152 199.897886 67.9900244 0.0100166945 67.9900244"></polygon>
        <polygon id="path-3" points="0.0100166945 0.0129682152 199.897886 0.0129682152 199.897886 67.9900244 0.0100166945 67.9900244"></polygon>
        <polygon id="path-5" points="0.0100166945 0.0129682152 199.897886 0.0129682152 199.897886 67.9900244 0.0100166945 67.9900244"></polygon>
    </defs>
    <g id="Logo" stroke="none" stroke-width="1" fill="none" fill-rule="evenodd">
        <g id="Simply-Connect-logo_RGB">
            <g id="Group-5">
                <g id="Fill-1-Clipped">
                    <mask id="mask-2" fill="white">
                        <use xlink:href="#path-1"></use>
                    </mask>
                    <g id="path-1"></g>
                    <path d="M184.245409,7.66571149 C184.245409,11.8921858 180.804674,15.3184548 176.560935,15.3184548 C172.317195,15.3184548 168.876461,11.8921858 168.876461,7.66571149 C168.876461,3.43923716 172.317195,0.0129682152 176.560935,0.0129682152 C180.804674,0.0129682152 184.245409,3.43923716 184.245409,7.66571149" id="Fill-1" fill="#FFB50F" mask="url(#mask-2)"></path>
                </g>
                <g id="Fill-3-Clipped">
                    <mask id="mask-4" fill="white">
                        <use xlink:href="#path-3"></use>
                    </mask>
                    <g id="path-1"></g>
                    <path d="M199.883139,7.39404401 C199.943239,7.15712469 199.814691,6.91288998 199.587646,6.81064059 L194.560935,4.55483619 C194.297162,4.43645966 193.984975,4.54502689 193.858097,4.79940342 C193.335559,5.84816626 191.821369,8.66659169 188.661102,13.0446944 C184.550918,18.7392372 180.559265,20.0571736 176.42571,20.0857702 C172.292154,20.0571736 168.300501,18.7392372 164.190317,13.0446944 C161.029883,8.66659169 159.515359,5.84816626 158.992821,4.79923716 C158.86611,4.54502689 158.554257,4.4362934 158.290484,4.55466993 L153.264274,6.81064059 C153.036394,6.91272372 152.907846,7.15712469 152.967947,7.39387775 C153.367613,8.96386308 155.216361,10.4359218 159.634057,18.9497213 C163.865943,27.1053985 166.179967,34.476665 163.717696,44.7255452 C161.208514,55.1699462 157.380801,63.176489 155.938898,67.314846 C155.821703,67.6513545 156.077462,68 156.442905,68 L163.647078,68 C163.866444,68 164.063272,67.8698191 164.142905,67.6709731 C164.809516,66.005555 168.008347,58.4154914 170.1202,54.0806161 C172.263773,49.6808998 174.001669,46.6032763 175.769616,45.8767237 C176.190317,45.7038142 176.662771,45.7038142 177.083472,45.8767237 C178.84975,46.6032763 180.587646,49.6808998 182.731219,54.0806161 C184.843072,58.4154914 188.041736,66.005555 188.709516,67.6709731 C188.78798,67.8698191 188.984975,68 189.203673,68 L196.409015,68 C196.774624,68 197.03005,67.6513545 196.913189,67.3150122 C195.470785,63.1766553 191.642738,55.1699462 189.133556,44.7255452 C186.671119,34.4768313 188.984975,27.1053985 193.217028,18.9498875 C197.63606,10.4359218 199.48414,8.96386308 199.883139,7.39404401" id="Fill-3" fill="#FFB50F" mask="url(#mask-4)"></path>
                </g>
                <g id="Fill-4-Clipped">
                    <mask id="mask-6" fill="white">
                        <use xlink:href="#path-5"></use>
                    </mask>
                    <g id="path-1"></g>
                    <path d="M0.422370618,40.4004792 C1.17128548,40.8593545 2.26560935,41.2417506 3.41769616,41.2417506 C5.1263773,41.2417506 6.12487479,40.3431198 6.12487479,39.0429731 C6.12487479,37.8382592 5.43355593,37.1499462 3.68631052,36.4807531 C1.57445743,35.7350807 0.268781302,34.6452518 0.268781302,32.8287042 C0.268781302,30.8211247 1.93923205,29.3296137 4.45442404,29.3296137 C5.77913189,29.3296137 6.73906511,29.6355306 7.31502504,29.9605672 L6.85442404,31.3180733 C6.43188648,31.088802 5.56794658,30.7062396 4.39682805,30.7062396 C2.63038397,30.7062396 1.95843072,31.7579951 1.95843072,32.6375061 C1.95843072,33.8420538 2.74557596,34.434934 4.5312187,35.1232469 C6.71986644,35.9645183 7.83355593,37.0161076 7.83355593,38.9091345 C7.83355593,40.8977604 6.35509182,42.6185428 3.30233723,42.6185428 C2.05442404,42.6185428 0.691318865,42.2552665 0,41.7962249 L0.422370618,40.4004792" id="Fill-4" fill="#3E8894" mask="url(#mask-6)"></path>
                </g>
            </g>
            <polygon id="Fill-6" fill="#3E8894" points="11.7687813 42.4273447 13.4392321 42.4273447 13.4392321 29.5399315 11.7687813 29.5399315"></polygon>
            <path d="M28.9135225,36.7675501 C28.8175292,34.9702885 28.7025042,32.8095844 28.7217028,31.2035208 L28.6639399,31.2035208 C28.2225376,32.7139853 27.684808,34.3202152 27.0320534,36.098357 L24.7472454,42.3508655 L23.4801336,42.3508655 L21.3873122,36.2130758 C20.7731219,34.3966944 20.254591,32.7331051 19.8898164,31.2035208 L19.851419,31.2035208 C19.8130217,32.8095844 19.7170284,34.9702885 19.6018364,36.9013888 L19.2562604,42.4273447 L17.6627713,42.4273447 L18.5651085,29.5399315 L20.6963272,29.5399315 L22.9041736,35.7733203 C23.4417362,37.3602641 23.8834725,38.7752958 24.2098497,40.1136822 L24.2672788,40.1136822 C24.5936561,38.8135355 25.054424,37.3985037 25.630384,35.7733203 L27.9343907,29.5399315 L30.0656093,29.5399315 L30.8719533,42.4273447 L29.2398998,42.4273447 L28.9135225,36.7675501" id="Fill-7" fill="#3E8894"></path>
            <path d="M36.7652755,35.9071589 C37.1300501,36.0027579 37.590818,36.0409976 38.1475793,36.0409976 C40.163606,36.0409976 41.3923205,35.0657213 41.3923205,33.2875795 C41.3923205,31.5859169 40.1826377,30.763599 38.3395659,30.763599 C37.6100167,30.763599 37.0532554,30.8211247 36.7652755,30.8976039 L36.7652755,35.9071589 Z M35.0948247,29.69289 C35.9013356,29.5590513 36.9572621,29.4443325 38.3011686,29.4443325 C39.9522538,29.4443325 41.1619366,29.8267286 41.9298831,30.5150416 C42.6402337,31.1270416 43.0626043,32.063912 43.0626043,33.2111002 C43.0626043,34.3774083 42.7170284,35.2953252 42.0642738,35.9645183 C41.1811352,36.9013888 39.7412354,37.3793839 38.109182,37.3793839 C37.6100167,37.3793839 37.1490818,37.3602641 36.7652755,37.2648313 L36.7652755,42.4273447 L35.0948247,42.4273447 L35.0948247,29.69289 Z" id="Fill-8" fill="#3E8894" fill-rule="nonzero"></path>
            <polyline id="Fill-9" fill="#3E8894" points="46.9595993 29.5399315 48.6300501 29.5399315 48.6300501 41.0314328 54.1594324 41.0314328 54.1594324 42.4273447 46.9595993 42.4273447 46.9595993 29.5399315"></polyline>
            <path d="M58.939399,42.4273447 L58.939399,36.9587482 L54.8499165,29.5399315 L56.7507513,29.5399315 L58.5744574,33.0963814 C59.0737896,34.0714914 59.4577629,34.8555697 59.8609349,35.7542005 L59.8993322,35.7542005 C60.2641068,34.9129291 60.7056761,34.0714914 61.2048414,33.0963814 L63.0672788,29.5399315 L64.9679466,29.5399315 L60.6288815,36.9396284 L60.6288815,42.4273447 L58.939399,42.4273447" id="Fill-10" fill="#3E8894"></path>
            <path d="M76.4487479,42.006709 C75.8342237,42.3126259 74.6055092,42.6185428 73.0312187,42.6185428 C69.3831386,42.6185428 66.6377295,40.324 66.6377295,36.098357 C66.6377295,32.063912 69.3831386,29.3296137 73.3959933,29.3296137 C75.0086811,29.3296137 76.0262104,29.6737702 76.4679466,29.9032078 L76.0646077,31.2608802 C75.4310518,30.9547971 74.5287145,30.7255257 73.4534224,30.7255257 C70.4198664,30.7255257 68.4040067,32.6566259 68.4040067,36.0409976 C68.4040067,39.1959315 70.2280467,41.2227971 73.3766277,41.2227971 C74.3943239,41.2227971 75.4310518,41.0124792 76.103005,40.6872763 L76.4487479,42.006709" id="Fill-11" fill="#3E8894"></path>
            <path d="M80.8063439,36.0601174 C80.8063439,38.8135355 82.3038397,41.2799902 84.9342237,41.2799902 C87.5838063,41.2799902 89.0814691,38.8517751 89.0814691,35.9262787 C89.0814691,33.3640587 87.7373957,30.6872861 84.9534224,30.6872861 C82.1888147,30.6872861 80.8063439,33.23022 80.8063439,36.0601174 Z M90.8477462,35.8497995 C90.8477462,40.2857604 88.1405676,42.6376626 84.8383973,42.6376626 C81.4207012,42.6376626 79.0208681,39.9989633 79.0208681,36.098357 C79.0208681,32.0065526 81.5742905,29.3296137 85.030217,29.3296137 C88.5629382,29.3296137 90.8477462,32.0256724 90.8477462,35.8497995 Z" id="Fill-12" fill="#3E8894" fill-rule="nonzero"></path>
            <path d="M94.6676127,42.4273447 L94.6676127,29.5399315 L96.4914858,29.5399315 L100.638564,36.0601174 C101.598664,37.5705819 102.347412,38.9282543 102.96177,40.2475208 L103.000167,40.228401 C102.846578,38.5076186 102.80818,36.9396284 102.80818,34.9320489 L102.80818,29.5399315 L104.382638,29.5399315 L104.382638,42.4273447 L102.692988,42.4273447 L98.5843072,35.8880391 C97.681803,34.4538875 96.8178631,32.9816626 96.1651085,31.5859169 L96.1076795,31.6050367 C96.2035058,33.23022 96.2419032,34.7790905 96.2419032,36.9205086 L96.2419032,42.4273447 L94.6676127,42.4273447" id="Fill-13" fill="#3E8894"></path>
            <path d="M108.951085,42.4273447 L108.951085,29.5399315 L110.775125,29.5399315 L114.922204,36.0601174 C115.882304,37.5705819 116.630885,38.9282543 117.245409,40.2475208 L117.283639,40.228401 C117.13005,38.5076186 117.09182,36.9396284 117.09182,34.9320489 L117.09182,29.5399315 L118.666277,29.5399315 L118.666277,42.4273447 L116.976461,42.4273447 L112.86778,35.8880391 C111.965442,34.4538875 111.101503,32.9816626 110.448748,31.5859169 L110.391152,31.6050367 C110.486978,33.23022 110.525543,34.7790905 110.525543,36.9205086 L110.525543,42.4273447 L108.951085,42.4273447" id="Fill-14" fill="#3E8894"></path>
            <polyline id="Fill-15" fill="#3E8894" points="129.935392 36.385154 124.905342 36.385154 124.905342 41.0314328 130.511519 41.0314328 130.511519 42.4273447 123.234891 42.4273447 123.234891 29.5399315 130.223539 29.5399315 130.223539 30.9358435 124.905342 30.9358435 124.905342 35.0085281 129.935392 35.0085281 129.935392 36.385154"></polyline>
            <path d="M143.374457,42.006709 C142.7601,42.3126259 141.531219,42.6185428 139.957095,42.6185428 C136.309015,42.6185428 133.563606,40.324 133.563606,36.098357 C133.563606,32.063912 136.309015,29.3296137 140.321703,29.3296137 C141.934558,29.3296137 142.952087,29.6737702 143.393823,29.9032078 L142.990484,31.2608802 C142.356928,30.9547971 141.454591,30.7255257 140.379299,30.7255257 C137.345743,30.7255257 135.329883,32.6566259 135.329883,36.0409976 C135.329883,39.1959315 137.153923,41.2227971 140.302504,41.2227971 C141.3202,41.2227971 142.356928,41.0124792 143.028881,40.6872763 L143.374457,42.006709" id="Fill-16" fill="#3E8894"></path>
            <polyline id="Fill-17" fill="#3E8894" points="150.112521 30.9547971 146.176628 30.9547971 146.176628 29.5399315 155.757095 29.5399315 155.757095 30.9547971 151.80217 30.9547971 151.80217 42.4273447 150.112521 42.4273447 150.112521 30.9547971"></polyline>
            <path d="M157.235225,41.4329487 C157.235225,40.7255159 157.715192,40.228401 158.387145,40.228401 C159.059265,40.228401 159.519866,40.7255159 159.519866,41.4329487 C159.519866,42.1214279 159.078297,42.6376626 158.367947,42.6376626 C157.695993,42.6376626 157.235225,42.1214279 157.235225,41.4329487" id="Fill-18" fill="#3E8894"></path>
            <path d="M176.490818,36.7675501 C176.395659,34.9702885 176.280467,32.8095844 176.298831,31.2035208 L176.24207,31.2035208 C175.799666,32.7139853 175.262104,34.3202152 174.609349,36.098357 L172.325543,42.3508655 L171.058431,42.3508655 L168.964942,36.2130758 C168.350584,34.3966944 167.833055,32.7331051 167.467446,31.2035208 L167.429048,31.2035208 C167.390651,32.8095844 167.295492,34.9702885 167.180301,36.9013888 L166.834224,42.4273447 L165.240568,42.4273447 L166.142905,29.5399315 L168.27379,29.5399315 L170.482471,35.7733203 C171.020033,37.3602641 171.460768,38.7752958 171.78798,40.1136822 L171.844741,40.1136822 C172.171953,38.8135355 172.632721,37.3985037 173.208681,35.7733203 L175.512521,29.5399315 L177.642738,29.5399315 L178.450751,42.4273447 L176.81803,42.4273447 L176.490818,36.7675501" id="Fill-19" fill="#FFFFFF"></path>
            <polyline id="Fill-20" fill="#FFFFFF" points="187.24207 36.385154 182.21202 36.385154 182.21202 41.0314328 187.81803 41.0314328 187.81803 42.4273447 180.540902 42.4273447 180.540902 29.5399315 187.530885 29.5399315 187.530885 30.9358435 182.21202 30.9358435 182.21202 35.0085281 187.24207 35.0085281 187.24207 36.385154"></polyline>
        </g>
    </g>
</svg>