<?xml version="1.0" encoding="UTF-8"?>
<svg width="16px" height="16px" viewBox="0 0 16 16" version="1.1" xmlns="http://www.w3.org/2000/svg" xmlns:xlink="http://www.w3.org/1999/xlink">
    <!-- Generator: Sketch 47 (45396) - http://www.bohemiancoding.com/sketch -->
    <title>phone</title>
    <desc>Created with Sketch.</desc>
    <defs></defs>
    <g id="Page-1" stroke="none" stroke-width="1" fill="none" fill-rule="evenodd">
        <g id="assets" transform="translate(-135.000000, -220.000000)" fill-rule="nonzero" fill="#999999">
            <g id="phone" transform="translate(135.000000, 220.000000)">
                <path d="M3.26436515,10.6269151 C4.84444813,12.5118012 6.74652282,13.9958592 8.91747718,15.0459627 C9.7440332,15.436853 10.8494274,15.9006211 12.0809627,15.9801242 C12.1573112,15.9834369 12.2303402,15.9867495 12.3066888,15.9867495 C13.1332448,15.9867495 13.7971452,15.7018634 14.3382241,15.115528 C14.3415436,15.1122153 14.3481826,15.1055901 14.3515021,15.0989648 C14.5440332,14.8670807 14.7631203,14.6583851 14.992166,14.4364389 C15.1481826,14.2873706 15.3075187,14.131677 15.4602158,13.9726708 C16.1672697,13.2372671 16.1672697,12.3031056 15.4535768,11.5908903 L13.458556,9.6 C13.1199668,9.24886128 12.7149876,9.06335404 12.2900913,9.06335404 C11.865195,9.06335404 11.4568963,9.24886128 11.1083485,9.59668737 L9.9199668,10.7826087 C9.81042324,10.7196687 9.69756017,10.663354 9.5913361,10.610352 C9.45855602,10.5440994 9.33573444,10.4811594 9.22619087,10.4115942 C8.1440332,9.72587992 7.16146058,8.83146998 6.22204149,7.68198758 C5.7473527,7.08240166 5.4286805,6.57888199 5.20627386,6.06542443 C5.51830705,5.78385093 5.81042324,5.48902692 6.09258091,5.20082816 C6.19216598,5.09813665 6.29507054,4.99544513 6.3979751,4.89275362 C6.75648133,4.53498965 6.94901245,4.12091097 6.94901245,3.70020704 C6.94901245,3.27950311 6.75980083,2.86542443 6.3979751,2.50766046 L5.40876349,1.52049689 C5.29258091,1.40455487 5.18303734,1.29192547 5.07017427,1.17598344 C4.85108714,0.950724638 4.62204149,0.71884058 4.39631535,0.510144928 C4.05440664,0.175569358 3.65274689,2.84217094e-14 3.22785062,2.84217094e-14 C2.80627386,2.84217094e-14 2.40129461,0.175569358 2.04610788,0.513457557 L0.804614108,1.75238095 C0.353161826,2.20289855 0.097560166,2.7494824 0.0444481328,3.38219462 C-0.0186224066,4.17391304 0.127435685,5.01532091 0.505858921,6.03229814 C1.08677178,7.6057971 1.96312033,9.06666667 3.26436515,10.6269151 Z M0.854406639,3.45175983 C0.894240664,3.01118012 1.06353527,2.64347826 1.38220747,2.32546584 L2.61706224,1.0931677 C2.80959336,0.907660455 3.02204149,0.811594203 3.22785062,0.811594203 C3.43034025,0.811594203 3.63614938,0.907660455 3.825361,1.09979296 C4.04776763,1.30517598 4.25689627,1.52049689 4.48262241,1.74906832 C4.59548548,1.86501035 4.71166805,1.98095238 4.82785062,2.10020704 L5.81706224,3.0873706 C6.02287137,3.29275362 6.12909544,3.50144928 6.12909544,3.7068323 C6.12909544,3.91221532 6.02287137,4.12091097 5.81706224,4.326294 C5.71415768,4.42898551 5.61125311,4.53498965 5.50834855,4.63768116 C5.19963485,4.94906832 4.91083817,5.24389234 4.59216598,5.52546584 C4.58552697,5.5320911 4.58220747,5.53540373 4.57556846,5.54202899 C4.30004979,5.81697723 4.34320332,6.07867495 4.40959336,6.27743271 C4.41291286,6.2873706 4.41623237,6.29399586 4.41955187,6.30393375 C4.67515353,6.91677019 5.03034025,7.49979296 5.5846971,8.19544513 C6.58054772,9.42111801 7.62951037,10.3718427 8.7846971,11.1039337 C8.92743568,11.1966874 9.08013278,11.2695652 9.22287137,11.3424431 C9.35565145,11.4086957 9.47847303,11.4716356 9.5880166,11.5412008 C9.60129461,11.5478261 9.61125311,11.5544513 9.62453112,11.5610766 C9.73407469,11.6173913 9.84029876,11.6438923 9.94652282,11.6438923 C10.212083,11.6438923 10.3846971,11.4749482 10.4411286,11.4186335 L11.6826224,10.1797101 C11.8751535,9.98757764 12.0842822,9.88488613 12.2900913,9.88488613 C12.5423734,9.88488613 12.7481826,10.0405797 12.8776432,10.1797101 L14.8793029,12.173913 C15.2776432,12.5714286 15.2743237,13.0020704 14.8693444,13.4227743 C14.7299253,13.5718427 14.5838672,13.7142857 14.4278506,13.863354 C14.1954855,14.0886128 13.9531618,14.3204969 13.7340747,14.5821946 C13.352332,14.9929607 12.8975602,15.1850932 12.3100083,15.1850932 C12.2535768,15.1850932 12.1938257,15.1817805 12.1373942,15.1784679 C11.0485975,15.1089027 10.0361494,14.6848861 9.2759834,14.3238095 C7.21125311,13.3267081 5.39880498,11.9122153 3.89507054,10.1167702 C2.65689627,8.62939959 1.82370124,7.2447205 1.2726639,5.76066253 C0.930755187,4.84968944 0.801294606,4.11759834 0.854406639,3.45175983 Z" id="Shape"></path>
            </g>
        </g>
    </g>
</svg>