<?xml version="1.0" encoding="UTF-8"?>
<svg width="23px" height="24px" viewBox="0 0 23 24" version="1.1" xmlns="http://www.w3.org/2000/svg" xmlns:xlink="http://www.w3.org/1999/xlink">
    <!-- Generator: Sketch 47 (45396) - http://www.bohemiancoding.com/sketch -->
    <title>phone_big</title>
    <desc>Created with Sketch.</desc>
    <defs></defs>
    <g id="Page-1" stroke="none" stroke-width="1" fill="none" fill-rule="evenodd">
        <g id="assets" transform="translate(-135.000000, -316.000000)" fill-rule="nonzero" fill="#999999">
            <g id="phone_big" transform="translate(135.000000, 316.000000)">
                <path d="M4.6925249,15.9403727 C6.96389419,18.7677019 9.69812656,20.9937888 12.8188734,22.5689441 C14.0070477,23.1552795 15.5960519,23.8509317 17.3663838,23.9701863 C17.4761349,23.9751553 17.5811141,23.9801242 17.6908651,23.9801242 C18.8790394,23.9801242 19.8333963,23.552795 20.6111971,22.6732919 C20.6159689,22.668323 20.6255124,22.6583851 20.6302842,22.6484472 C20.9070477,22.3006211 21.2219855,21.9875776 21.5512386,21.6546584 C21.7755124,21.4310559 22.0045581,21.1975155 22.2240602,20.9590062 C23.2404502,19.8559006 23.2404502,18.4546584 22.2145166,17.3863354 L19.3466743,14.4 C18.8599523,13.8732919 18.2777946,13.5950311 17.6670062,13.5950311 C17.0562178,13.5950311 16.4692884,13.8732919 15.968251,14.3950311 L14.2599523,16.173913 C14.1024834,16.0795031 13.9402427,15.9950311 13.7875456,15.915528 C13.5966743,15.8161491 13.4201183,15.7217391 13.2626494,15.6173913 C11.7070477,14.5888199 10.2945996,13.247205 8.94418465,11.5229814 C8.2618195,10.6236025 7.80372822,9.86832298 7.48401867,9.09813665 C7.93256639,8.6757764 8.3524834,8.23354037 8.75808506,7.80124224 C8.90123859,7.64720497 9.0491639,7.4931677 9.19708921,7.33913043 C9.71244191,6.80248447 9.98920539,6.18136646 9.98920539,5.55031056 C9.98920539,4.91925466 9.71721369,4.29813665 9.19708921,3.76149068 L7.77509751,2.28074534 C7.60808506,2.1068323 7.45061618,1.9378882 7.28837552,1.76397516 C6.97343776,1.42608696 6.64418465,1.07826087 6.31970332,0.765217391 C5.82820954,0.263354037 5.25082365,2.84217094e-14 4.64003527,2.84217094e-14 C4.03401867,2.84217094e-14 3.451861,0.263354037 2.94128008,0.770186335 L1.15663278,2.62857143 C0.507670124,3.30434783 0.140242739,4.1242236 0.0638941909,5.07329193 C-0.0267697095,6.26086957 0.183188797,7.52298137 0.727172199,9.0484472 C1.56223444,11.4086957 2.82198548,13.6 4.6925249,15.9403727 Z M1.22820954,5.17763975 C1.28547095,4.51677019 1.52883195,3.96521739 1.98692324,3.48819876 L3.76202697,1.63975155 C4.03879046,1.36149068 4.34418465,1.2173913 4.64003527,1.2173913 C4.93111411,1.2173913 5.22696473,1.36149068 5.49895643,1.64968944 C5.81866598,1.95776398 6.11928838,2.28074534 6.44376971,2.62360248 C6.60601037,2.79751553 6.77302282,2.97142857 6.94003527,3.15031056 L8.36202697,4.6310559 C8.65787759,4.93913043 8.81057469,5.25217391 8.81057469,5.56024845 C8.81057469,5.86832298 8.65787759,6.18136646 8.36202697,6.48944099 C8.21410166,6.64347826 8.06617635,6.80248447 7.91825104,6.95652174 C7.4744751,7.42360248 7.05932988,7.86583851 6.60123859,8.28819876 C6.59169502,8.29813665 6.58692324,8.30310559 6.57737967,8.31304348 C6.18132158,8.72546584 6.24335477,9.11801242 6.33879046,9.41614907 C6.34356224,9.4310559 6.34833402,9.44099379 6.35310581,9.45590062 C6.7205332,10.3751553 7.23111411,11.2496894 8.02800207,12.2931677 C9.45953734,14.131677 10.9674212,15.557764 12.6280021,16.6559006 C12.8331888,16.7950311 13.0526909,16.9043478 13.2578776,17.0136646 C13.448749,17.1130435 13.625305,17.2074534 13.7827739,17.3118012 C13.801861,17.3217391 13.8161763,17.331677 13.8352635,17.3416149 C13.9927324,17.426087 14.1454295,17.4658385 14.2981266,17.4658385 C14.6798693,17.4658385 14.9280021,17.2124224 15.0091224,17.1279503 L16.7937697,15.2695652 C17.0705332,14.9813665 17.3711556,14.8273292 17.6670062,14.8273292 C18.0296618,14.8273292 18.3255124,15.0608696 18.511612,15.2695652 L21.3889979,18.2608696 C21.961612,18.8571429 21.9568402,19.5031056 21.3746826,20.1341615 C21.1742676,20.357764 20.9643091,20.5714286 20.7400353,20.7950311 C20.4060104,21.1329193 20.0576701,21.4807453 19.7427324,21.8732919 C19.1939772,22.489441 18.5402427,22.7776398 17.6956369,22.7776398 C17.6145166,22.7776398 17.5286245,22.7726708 17.4475041,22.7677019 C15.8823589,22.663354 14.4269647,22.0273292 13.3342261,21.4857143 C10.3661763,19.9900621 7.76078216,17.868323 5.5991639,15.1751553 C3.81928838,12.9440994 2.62157054,10.8670807 1.82945436,8.64099379 C1.33796058,7.27453416 1.151861,6.17639752 1.22820954,5.17763975 Z" id="Shape"></path>
            </g>
        </g>
    </g>
</svg>