<?xml version="1.0" encoding="UTF-8"?>
<svg width="14px" height="18px" viewBox="0 0 14 18" version="1.1" xmlns="http://www.w3.org/2000/svg" xmlns:xlink="http://www.w3.org/1999/xlink">
    <!-- Generator: Sketch 47 (45396) - http://www.bohemiancoding.com/sketch -->
    <title>pin</title>
    <desc>Created with Sketch.</desc>
    <defs></defs>
    <g id="Page-1" stroke="none" stroke-width="1" fill="none" fill-rule="evenodd">
        <g id="assets" transform="translate(-135.000000, -174.000000)" fill-rule="nonzero" fill="#999999">
            <g id="pin" transform="translate(135.000000, 174.000000)">
                <path d="M7.01624,17.470125 C6.8796,17.470125 6.74912,17.413875 6.65448,17.3143125 C6.39296,17.03475 0.24136,10.4439375 0.24136,6.805125 C0.24136,3.0526875 3.28048,0 7.01624,0 C10.75144,0 13.79112,3.0526875 13.79112,6.805125 C13.79112,10.4445 7.64008,17.0353125 7.378,17.3143125 C7.28392,17.413875 7.15288,17.470125 7.01624,17.470125 Z M7.01624,0.997875 C3.82872,0.997875 1.23536,3.6028125 1.23536,6.8045625 C1.23536,9.324 5.11784,14.13675 7.01624,16.236 C8.9152,14.1361875 12.79712,9.3245625 12.79712,6.8045625 C12.79768,3.6028125 10.20376,0.997875 7.01624,0.997875 Z" id="Shape"></path>
                <path d="M7.01624,8.93475 C5.43592,8.93475 4.15072,7.6438125 4.15072,6.0564375 C4.15072,4.469625 5.43592,3.178125 7.01624,3.178125 C8.596,3.178125 9.88176,4.469625 9.88176,6.0564375 C9.88176,7.6438125 8.59656,8.93475 7.01624,8.93475 Z M7.01624,4.1765625 C5.9836,4.1765625 5.14416,5.01975 5.14416,6.0564375 C5.14416,7.0936875 5.9836,7.936875 7.01624,7.936875 C8.04832,7.936875 8.88776,7.0936875 8.88776,6.0564375 C8.88776,5.01975 8.04832,4.1765625 7.01624,4.1765625 Z" id="Shape"></path>
            </g>
        </g>
    </g>
</svg>