<?xml version="1.0" encoding="UTF-8"?>
<svg width="20px" height="26px" viewBox="0 0 20 26" version="1.1" xmlns="http://www.w3.org/2000/svg" xmlns:xlink="http://www.w3.org/1999/xlink">
    <!-- Generator: Sketch 47 (45396) - http://www.bohemiancoding.com/sketch -->
    <title>pin_big</title>
    <desc>Created with Sketch.</desc>
    <defs></defs>
    <g id="Page-1" stroke="none" stroke-width="1" fill="none" fill-rule="evenodd">
        <g id="assets" transform="translate(-135.000000, -264.000000)" fill-rule="nonzero" fill="#999999">
            <g id="pin_big" transform="translate(135.000000, 264.000000)">
                <path d="M10.0232,25.234625 C9.828,25.234625 9.6416,25.153375 9.5064,25.0095625 C9.1328,24.60575 0.3448,15.0856875 0.3448,9.829625 C0.3448,4.4094375 4.6864,0 10.0232,0 C15.3592,0 19.7016,4.4094375 19.7016,9.829625 C19.7016,15.0865 10.9144,24.6065625 10.54,25.0095625 C10.4056,25.153375 10.2184,25.234625 10.0232,25.234625 Z M10.0232,1.441375 C5.4696,1.441375 1.7648,5.2040625 1.7648,9.8288125 C1.7648,13.468 7.3112,20.41975 10.0232,23.452 C12.736,20.4189375 18.2816,13.4688125 18.2816,9.8288125 C18.2824,5.2040625 14.5768,1.441375 10.0232,1.441375 Z" id="Shape"></path>
                <path d="M10.0232,12.90575 C7.7656,12.90575 5.9296,11.0410625 5.9296,8.7481875 C5.9296,6.456125 7.7656,4.590625 10.0232,4.590625 C12.28,4.590625 14.1168,6.456125 14.1168,8.7481875 C14.1168,11.0410625 12.2808,12.90575 10.0232,12.90575 Z M10.0232,6.0328125 C8.548,6.0328125 7.3488,7.25075 7.3488,8.7481875 C7.3488,10.2464375 8.548,11.464375 10.0232,11.464375 C11.4976,11.464375 12.6968,10.2464375 12.6968,8.7481875 C12.6968,7.25075 11.4976,6.0328125 10.0232,6.0328125 Z" id="Shape"></path>
            </g>
        </g>
    </g>
</svg>