<?xml version="1.0" encoding="UTF-8"?>
<svg width="18px" height="18px" viewBox="0 0 18 18" version="1.1" xmlns="http://www.w3.org/2000/svg" xmlns:xlink="http://www.w3.org/1999/xlink">
    <!-- Generator: Sketch 50 (54983) - http://www.bohemiancoding.com/sketch -->
    <title>Combined Shape</title>
    <desc>Created with Sketch.</desc>
    <defs></defs>
    <g id="Page-1" stroke="none" stroke-width="1" fill="none" fill-rule="evenodd">
        <g id="sample-11-05-CCD---Accordions-List---Add-CCD---opt2" transform="translate(-1406.000000, -475.000000)" fill="#7D7D7D">
            <g id="Accordeons-list" transform="translate(116.000000, 396.000000)">
                <g id="detail" transform="translate(1290.000000, 78.000000)">
                    <g id="Group-6" transform="translate(0.000000, 1.000000)">
                        <path d="M9,18 C4.02943725,18 0,13.9705627 0,9 C0,4.02943725 4.02943725,0 9,0 C13.9705627,0 18,4.02943725 18,9 C18,13.9705627 13.9705627,18 9,18 Z M9,16.6 C13.1973641,16.6 16.6,13.1973641 16.6,9 C16.6,4.8026359 13.1973641,1.4 9,1.4 C4.8026359,1.4 1.4,4.8026359 1.4,9 C1.4,13.1973641 4.8026359,16.6 9,16.6 Z M9.80004883,8.25 L14.0500488,8.25 L14.0500488,9.75 L9.80004883,9.75 L9.80004883,14 L8.30004883,14 L8.30004883,9.75 L4.05004883,9.75 L4.05004883,8.25 L8.30004883,8.25 L8.30004883,4 L9.80004883,4 L9.80004883,8.25 Z" id="Combined-Shape"></path>
                    </g>
                </g>
            </g>
        </g>
    </g>
</svg>