<?xml version="1.0" encoding="UTF-8"?>
<svg width="18px" height="18px" viewBox="0 0 18 18" version="1.1" xmlns="http://www.w3.org/2000/svg" xmlns:xlink="http://www.w3.org/1999/xlink">
    <!-- Generator: Sketch 51.2 (57519) - http://www.bohemiancoding.com/sketch -->
    <title>Combined Shape</title>
    <desc>Created with Sketch.</desc>
    <defs></defs>
    <g id="Page-1" stroke="none" stroke-width="1" fill="none" fill-rule="evenodd">
        <g id="sample--15-08---Add-Comprehensive-Assessment---All-collapsed" transform="translate(-1283.000000, -65.000000)" fill="#FFFFFF" fill-rule="nonzero">
            <path d="M1286,81.5 L1286,75 C1286,74.4477153 1286.44772,74 1287,74 L1297,74 C1297.55228,74 1298,74.4477153 1298,75 L1298,81.5 L1299.5,81.5 L1299.5,69.8884102 L1296.11159,66.5 L1294,66.5 L1294,70 C1294,70.5522847 1293.55228,71 1293,71 L1287,71 C1286.44772,71 1286,70.5522847 1286,70 L1286,66.5 L1284.5,66.5 L1284.5,81.5 L1286,81.5 Z M1287.5,81.5 L1296.5,81.5 L1296.5,75.5 L1287.5,75.5 L1287.5,81.5 Z M1287.5,66.5 L1287.5,69.5 L1292.5,69.5 L1292.5,66.5 L1287.5,66.5 Z M1300.83521,69.1022949 C1300.94067,69.2077637 1301,69.3508606 1301,69.5 L1301,82.4375 C1301,82.7481384 1300.74814,83 1300.4375,83 L1283.5625,83 C1283.25186,83 1283,82.7481384 1283,82.4375 L1283,65.5625 C1283,65.2518616 1283.25186,65 1283.5625,65 L1296.5,65 C1296.64914,65 1296.79224,65.0593262 1296.89771,65.1647949 L1300.83521,69.1022949 Z" id="Combined-Shape"></path>
        </g>
    </g>
</svg>