<?xml version="1.0" encoding="UTF-8"?>
<svg width="18px" height="18px" viewBox="0 0 18 18" version="1.1" xmlns="http://www.w3.org/2000/svg" xmlns:xlink="http://www.w3.org/1999/xlink">
    <!-- Generator: Sketch 47 (45396) - http://www.bohemiancoding.com/sketch -->
    <title>ic_search</title>
    <desc>Created with Sketch.</desc>
    <defs></defs>
    <g id="Page-1" stroke="none" stroke-width="1" fill="none" fill-rule="evenodd">
        <g id="assets" transform="translate(-70.000000, -222.000000)" fill-rule="nonzero" fill="#9A9A9A">
            <g id="ic_search" transform="translate(70.000000, 222.000000)">
                <path d="M12.5023536,11.7501547 C13.6883778,10.5044185 14.4283036,8.83636973 14.4283036,6.99941832 C14.4283036,3.14603081 11.1966247,0 7.2141518,0 C3.23167886,0 0,3.14603081 0,6.99941832 C0,10.8528058 3.23167886,13.9988366 7.2141518,13.9988366 C8.83544456,13.9988366 10.326126,13.4815466 11.5339252,12.6052873 L16.8982817,17.8099705 C17.0288546,17.9366568 17.1920707,18 17.3552868,18 C17.5185029,18 17.6925873,17.9366568 17.8122919,17.8099705 C18.0625694,17.5671427 18.0625694,17.1659942 17.8122919,16.9126216 L12.5023536,11.7501547 Z M1.30572883,6.99941832 C1.30572883,3.84280548 3.94982972,1.26686304 7.2141518,1.26686304 C10.4676056,1.26686304 13.1225748,3.83226071 13.1225748,6.99941832 C13.1225748,10.1665759 10.4784739,12.7319736 7.2141518,12.7319736 C3.94982972,12.7319736 1.30572883,10.1560312 1.30572883,6.99941832 Z" id="Shape"></path>
            </g>
        </g>
    </g>
</svg>