<svg width="20" height="20" viewBox="0 0 20 20" fill="none" xmlns="http://www.w3.org/2000/svg">
    <rect width="20" height="20" rx="10" fill="white"/>
    <path d="M10.0096 1.30469C11.2114 1.30469 12.339 1.53389 13.3924 1.9924C14.4452 2.45199 15.3633 3.07177 16.1449 3.85392C16.9265 4.63509 17.5474 5.55623 18.0059 6.61647C18.4644 7.67563 18.6941 8.80586 18.6941 10.0084C18.6941 11.2098 18.4644 12.3378 18.0059 13.3907C17.5474 14.4445 16.9265 15.3615 16.1449 16.1437C15.3633 16.9258 14.4452 17.5456 13.3924 18.0041C12.339 18.4637 11.2114 18.6929 10.0096 18.6929C8.8076 18.6929 7.67737 18.4637 6.61713 18.0041C5.55796 17.5456 4.63671 16.9258 3.85512 16.1437C3.07299 15.3615 2.45265 14.4445 1.99414 13.3907C1.53509 12.3378 1.30591 11.2098 1.30591 10.0084C1.30591 8.80586 1.53509 7.67563 1.99414 6.61647C2.45265 5.55623 3.07297 4.63507 3.85512 3.85392C4.63671 3.07177 5.55796 2.45199 6.61713 1.9924C7.67737 1.53389 8.8076 1.30469 10.0096 1.30469Z" fill="#631AFF"/>
    <path d="M11.0549 4.42881C10.9697 4.46434 10.8925 4.51639 10.8275 4.58196L5.11676 10.2908C4.8426 10.565 4.5575 11.0958 4.47948 11.4764L4.25976 12.5478C4.24382 12.6256 4.24745 12.7062 4.27031 12.7823C4.29317 12.8584 4.33455 12.9276 4.39074 12.9838C4.44694 13.04 4.51619 13.0813 4.59229 13.1041C4.66839 13.127 4.74897 13.1305 4.8268 13.1146L5.89866 12.8949C6.28439 12.8159 6.80987 12.5312 7.08403 12.2576L12.7946 6.54826C12.9261 6.41663 13 6.23816 13 6.05207C13 5.86598 12.9261 5.6875 12.7946 5.55588L11.8199 4.58196C11.755 4.51639 11.6777 4.46434 11.5925 4.42881C11.5074 4.39329 11.416 4.375 11.3237 4.375C11.2314 4.375 11.1401 4.39329 11.0549 4.42881Z" fill="white"/>
    <path d="M8.125 14.3732L11.875 13.7482C12.5 13.5399 14.1159 12.2372 13.125 11.248C12.5 10.6242 11.25 11.2499 11.25 12.4982C11.25 13.1232 11.25 14.3755 13.125 14.3755C14.625 14.3755 15.4167 13.5422 15.625 13.1255" stroke="white" stroke-linecap="round"/>
</svg>
