<svg width="20" height="20" viewBox="0 0 20 20" fill="none" xmlns="http://www.w3.org/2000/svg">
    <rect width="20" height="20" rx="10" fill="white"/>
    <path d="M10.0096 1.30469C11.2114 1.30469 12.339 1.53389 13.3924 1.9924C14.4452 2.45199 15.3633 3.07177 16.1449 3.85392C16.9265 4.63509 17.5474 5.55623 18.0059 6.61647C18.4644 7.67563 18.6941 8.80586 18.6941 10.0084C18.6941 11.2098 18.4644 12.3378 18.0059 13.3907C17.5474 14.4445 16.9265 15.3615 16.1449 16.1437C15.3633 16.9258 14.4452 17.5456 13.3924 18.0041C12.339 18.4637 11.2114 18.6929 10.0096 18.6929C8.8076 18.6929 7.67737 18.4637 6.61713 18.0041C5.55796 17.5456 4.63671 16.9258 3.85512 16.1437C3.07299 15.3615 2.45265 14.4445 1.99414 13.3907C1.53509 12.3378 1.30591 11.2098 1.30591 10.0084C1.30591 8.80586 1.53509 7.67563 1.99414 6.61647C2.45265 5.55623 3.07297 4.63507 3.85512 3.85392C4.63671 3.07177 5.55796 2.45199 6.61713 1.9924C7.67737 1.53389 8.8076 1.30469 10.0096 1.30469ZM11.0566 8.80584C11.0566 8.49601 10.9562 8.23497 10.7562 8.02163C10.5556 7.8083 10.3072 7.70103 10.0096 7.70103C9.71245 7.70103 9.46032 7.8083 9.2534 8.02163C9.04692 8.23497 8.94345 8.49601 8.94345 8.80584V15.2999C8.94345 15.6098 9.04692 15.8593 9.2534 16.0471C9.46032 16.2339 9.71245 16.3272 10.0096 16.3272C10.3072 16.3272 10.5588 16.2307 10.7657 16.0375C10.9727 15.8433 11.0756 15.5907 11.0756 15.2809L11.0566 8.80584ZM10.0096 6.40203C10.3847 6.40203 10.7041 6.27042 10.9695 6.00514C11.2338 5.73986 11.3664 5.42036 11.3664 5.04575C11.3664 4.67115 11.2338 4.35054 10.9695 4.08636C10.7041 3.82098 10.3847 3.68839 10.0096 3.68839C9.63496 3.68839 9.31176 3.82098 9.04006 4.08636C8.76891 4.35056 8.63362 4.67115 8.63362 5.04575C8.63362 5.42036 8.76893 5.73986 9.04006 6.00514C9.31176 6.27044 9.63496 6.40203 10.0096 6.40203Z"
          fill="#F45640"/>
</svg>
