<svg width="10" height="6" viewBox="0 0 10 6" fill="none" xmlns="http://www.w3.org/2000/svg">
    <path d="M4.56746 5.49888L1.13846 1.52088C1.04629 1.42404 0.982519 1.30372 0.954128 1.17308C0.925737 1.04244 0.933817 0.906509 0.977485 0.780152C1.02115 0.653795 1.09873 0.541879 1.20172 0.456645C1.30471 0.37141 1.42916 0.316138 1.56146 0.296875H8.42846C8.56151 0.312869 8.68745 0.365675 8.79212 0.449353C8.89679 0.533031 8.97603 0.64426 9.02092 0.770522C9.06582 0.896784 9.07458 1.03307 9.04623 1.16404C9.01789 1.29502 8.95355 1.41548 8.86046 1.51187L5.43146 5.48987C5.3798 5.55444 5.31443 5.60671 5.24008 5.64292C5.16574 5.67912 5.08428 5.69835 5.00159 5.69921C4.91891 5.70007 4.83706 5.68254 4.76198 5.6479C4.6869 5.61325 4.62046 5.56235 4.56746 5.49888Z" fill="#4C4E51"/>
</svg>
