<svg width="6" height="10" viewBox="0 0 6 10" fill="none" xmlns="http://www.w3.org/2000/svg">
    <path d="M5.50083 5.43254L1.52283 8.86154C1.42599 8.95371 1.30567 9.01748 1.17503 9.04587C1.04439 9.07426 0.908462 9.06618 0.782105 9.02252C0.655748 8.97885 0.543833 8.90127 0.458598 8.79828C0.373363 8.69529 0.318091 8.57084 0.298828 8.43854L0.298828 1.57154C0.314822 1.43849 0.367628 1.31255 0.451306 1.20788C0.534984 1.10321 0.646213 1.02397 0.772475 0.979078C0.898737 0.934185 1.03502 0.925418 1.166 0.953767C1.29697 0.982115 1.41743 1.04645 1.51383 1.13954L5.49183 4.56854C5.55639 4.62021 5.60866 4.68557 5.64487 4.75992C5.68107 4.83426 5.7003 4.91572 5.70116 4.99841C5.70202 5.08109 5.68449 5.16294 5.64985 5.23802C5.6152 5.3131 5.5643 5.37954 5.50083 5.43254Z" fill="#4C4E51"/>
</svg>
