<svg width="20" height="20" viewBox="0 0 20 20" xmlns="http://www.w3.org/2000/svg">
    <path d="M5.8 2c.11 0 .2.09.2.2V3h8v-.8c0-.11.09-.2.2-.2h.6c.11 0 .2.09.2.2V3h2.5a.5.5 0 0 1 .5.5v13a.5.5 0 0 1-.5.5h-15a.5.5 0 0 1-.5-.5v-13a.5.5 0 0 1 .5-.5H5v-.8c0-.11.09-.2.2-.2zM12 14h-1v1h1v-1zm-3 0H8v1h1v-1zm-3 0H5v1h1v-1zm3-2H8v1h1v-1zm-3 0H5v1h1v-1zm9 0h-1v1h1v-1zm-3 0h-1v1h1v-1zm-3-2H8v1h1v-1zm-3 0H5v1h1v-1zm9 0h-1v1h1v-1zm-3 0h-1v1h1v-1zM9 8H8v1h1V8zm6 0h-1v1h1V8zm-3 0h-1v1h1V8zM5 4H3v2h14V4h-2v.8a.2.2 0 0 1-.2.2h-.6a.2.2 0 0 1-.2-.2V4H6v.8a.2.2 0 0 1-.2.2h-.6a.2.2 0 0 1-.2-.2V4z" fill="#FFF" fill-rule="nonzero"/>
</svg>
