<svg width="16" height="16" viewBox="0 0 16 16" xmlns="http://www.w3.org/2000/svg">
    <path d="M11.692 15a1.423 1.423 0 0 0 .981-.383c.125-.118.224-.257.296-.417.072-.16.108-.33.108-.512V3.624H14V2.75h-3.692v-.875a.81.81 0 0 0-.072-.342.889.889 0 0 0-.199-.277A.942.942 0 0 0 9.385 1h-2.77a.937.937 0 0 0-.652.256.889.889 0 0 0-.199.277.81.81 0 0 0-.072.342v.875H2v.875h.923v10.063c0 .182.036.353.108.512.072.16.17.299.296.417a1.423 1.423 0 0 0 .98.383h7.385zM9.385 2.75h-2.77v-.875h2.77v.875zm2.307 11.375H4.308a.456.456 0 0 1-.325-.13.41.41 0 0 1-.137-.307V3.624h8.308v10.063a.41.41 0 0 1-.137.307.456.456 0 0 1-.325.13zm-5.077-1.75v-7h-.923v7h.923zm1.847 0v-7h-.924v7h.924zm1.846 0v-7h-.923v7h.923z" fill="#222" fill-rule="nonzero"/>
</svg>
