<svg width="20" height="20" viewBox="0 0 20 20" xmlns="http://www.w3.org/2000/svg">
    <path d="m3.5 6.468 2.852-2.782L5.648 3 3.5 5.096l-.648-.633-.704.686L3.5 6.468zM18 5.294v-.976H8v.976h10zM4 12.122a2.023 2.023 0 0 0 1.414-.572c.182-.177.326-.384.43-.62.104-.236.156-.49.156-.759s-.052-.522-.156-.758a1.969 1.969 0 0 0-.43-.62 2.023 2.023 0 0 0-2.191-.42 2.023 2.023 0 0 0-.637.42 1.969 1.969 0 0 0-.43.62 1.859 1.859 0 0 0-.156.758c0 .27.052.523.156.759.104.236.248.443.43.62A2.023 2.023 0 0 0 4 12.123zm0-.853c-.156 0-.302-.03-.438-.088a1.134 1.134 0 0 1-.598-.583 1.021 1.021 0 0 1-.089-.427c0-.152.03-.294.09-.426A1.134 1.134 0 0 1 4 9.074c.156 0 .302.03.438.088a1.134 1.134 0 0 1 .598.583c.06.132.089.274.089.426 0 .153-.03.295-.09.427a1.134 1.134 0 0 1-1.035.67zm14-1.098v-.975H8v.975h10zM4 17a2.023 2.023 0 0 0 1.414-.572c.182-.177.326-.384.43-.62.104-.237.156-.49.156-.759 0-.27-.052-.522-.156-.758a1.969 1.969 0 0 0-.43-.621 2.023 2.023 0 0 0-2.191-.42 2.023 2.023 0 0 0-.637.42 1.969 1.969 0 0 0-.43.62A1.859 1.859 0 0 0 2 15.05c0 .27.052.522.156.758.104.237.248.444.43.621A2.023 2.023 0 0 0 4 17zm0-.854c-.156 0-.302-.029-.438-.087a1.134 1.134 0 0 1-.598-.583 1.021 1.021 0 0 1-.089-.427c0-.152.03-.295.09-.427A1.134 1.134 0 0 1 4 13.952c.156 0 .302.029.438.087a1.134 1.134 0 0 1 .598.583c.06.132.089.275.089.427 0 .152-.03.295-.09.427a1.134 1.134 0 0 1-1.035.67zm14-1.097v-.976H8v.976h10z" fill="#FFF" fill-rule="nonzero"/>
</svg>
