<svg width="20" height="20" viewBox="0 0 20 20" xmlns="http://www.w3.org/2000/svg">
    <path d="M4.922 11.978v-.346a7.556 7.556 0 0 0-.285-.011 1.554 1.554 0 0 1-.301-.036.481.481 0 0 1-.234-.121c-.063-.06-.094-.153-.094-.279 0-.115.032-.272.097-.47.066-.2.141-.406.227-.62.086-.215.175-.423.266-.625.09-.201.16-.362.207-.482h3.484a20.056 20.056 0 0 1 .438 1.106c.078.215.145.423.203.624.057.201.086.36.086.475 0 .13-.032.226-.094.286a.509.509 0 0 1-.23.126 1.06 1.06 0 0 1-.294.031c-.104-.002-.2-.004-.289-.004v.346h3.485v-.346c-.146 0-.292-.008-.438-.023a.685.685 0 0 1-.379-.169 1.592 1.592 0 0 1-.297-.345 3.095 3.095 0 0 1-.226-.42 13.731 13.731 0 0 1-.168-.392L7.102 3H6.46L3.43 10.204c-.032.073-.08.18-.145.318a7.13 7.13 0 0 1-.215.42 3.36 3.36 0 0 1-.246.384c-.086.115-.165.183-.238.204-.094.026-.19.046-.29.06a11.59 11.59 0 0 0-.296.042v.346h2.922zm2.906-3.995H5.141l1.312-2.966 1.375 2.966zM18 17V5.04h-7v.91h6.094v10.14H5v-2.103h-.906V17H18z" fill="#FFF" fill-rule="nonzero"/>
</svg>
