<svg width="20" height="20" viewBox="0 0 20 20" xmlns="http://www.w3.org/2000/svg">
    <path d="M10 18a7.88 7.88 0 0 0 2.125-.285 8.09 8.09 0 0 0 1.914-.805 7.944 7.944 0 0 0 1.621-1.25 7.944 7.944 0 0 0 1.25-1.62 8.09 8.09 0 0 0 .805-1.915A7.88 7.88 0 0 0 18 10a7.88 7.88 0 0 0-.285-2.125 8.09 8.09 0 0 0-.805-1.914 7.944 7.944 0 0 0-1.25-1.621 7.944 7.944 0 0 0-1.62-1.25 8.09 8.09 0 0 0-1.915-.805A7.88 7.88 0 0 0 10 2c-.74 0-1.45.095-2.129.285-.68.19-1.316.458-1.91.805A7.944 7.944 0 0 0 4.34 4.34a7.944 7.944 0 0 0-1.25 1.62 8.09 8.09 0 0 0-.805 1.915A7.88 7.88 0 0 0 2 10c0 .74.095 1.45.285 2.129.19.68.458 1.316.805 1.91a7.944 7.944 0 0 0 1.25 1.621 7.944 7.944 0 0 0 1.62 1.25 8.09 8.09 0 0 0 1.915.805A7.88 7.88 0 0 0 10 18zm0-1a6.848 6.848 0 0 1-1.86-.25 7.017 7.017 0 0 1-3.085-1.805 7 7 0 0 1-1.805-3.09A6.861 6.861 0 0 1 3 10c0-.64.083-1.26.25-1.855a7 7 0 0 1 1.805-3.09 7 7 0 0 1 3.09-1.805A6.861 6.861 0 0 1 10 3c.64 0 1.26.083 1.855.25a7 7 0 0 1 3.09 1.805 7 7 0 0 1 1.805 3.09c.167.596.25 1.214.25 1.855 0 .646-.083 1.266-.25 1.86a7.017 7.017 0 0 1-1.805 3.085 7 7 0 0 1-3.09 1.805A6.861 6.861 0 0 1 10 17zm0-1.75c.484 0 .95-.063 1.395-.188a5.294 5.294 0 0 0 2.316-1.351A5.26 5.26 0 0 0 15.25 10c0-.484-.063-.95-.188-1.395a5.294 5.294 0 0 0-1.351-2.316A5.26 5.26 0 0 0 10 4.75c-.484 0-.95.063-1.395.188A5.294 5.294 0 0 0 6.29 6.288 5.26 5.26 0 0 0 4.75 10c0 .484.063.95.188 1.395a5.294 5.294 0 0 0 1.351 2.316A5.26 5.26 0 0 0 10 15.25z" fill="#FFF" fill-rule="nonzero"/>
</svg>
