<svg width="24" height="24" viewBox="0 0 24 24" xmlns="http://www.w3.org/2000/svg">
    <path d="M12.175 7.365c1.852-1.82 4.855-1.82 6.707 0a4.6 4.6 0 0 1 .41 6.131l3.527 3.466a.6.6 0 0 1 0 .86.626.626 0 0 1-.875 0l-3.527-3.466c-1.86 1.406-4.538 1.272-6.242-.402a4.602 4.602 0 0 1 0-6.59zM6.67 13.91c.284 0 .515.231.515.516v.184c0 .285-.23.516-.515.516H1.516A.516.516 0 0 1 1 14.61v-.184c0-.285.23-.516.516-.516H6.67zm11.336-5.686a3.55 3.55 0 0 0-4.958 0 3.401 3.401 0 0 0 0 4.87 3.55 3.55 0 0 0 4.958 0 3.401 3.401 0 0 0 0-4.87zm-8.558 2.648a5.9 5.9 0 0 0 .171 1.214H1.516A.516.516 0 0 1 1 11.572v-.184c0-.285.23-.516.516-.516h7.933zm.718-3.04c-.213.39-.379.798-.498 1.216H1.516A.516.516 0 0 1 1 8.533v-.185c0-.285.23-.515.516-.515h8.65z" fill="#0064AD" fill-rule="nonzero"/>
</svg>
