<svg width="20" height="20" viewBox="0 0 20 20" xmlns="http://www.w3.org/2000/svg">
    <path d="M16 18v-5.031l-1 1V17H4V3h7v4h3.016l.078-.078.344-.344a2.503 2.503 0 0 1 .699-.496c.133-.065.29-.126.472-.184L11.711 2H3v16h13zM14.29 6H12V3.71L14.29 6zM9 16c.005 0 .077-.017.215-.05l.515-.13.676-.168a91.075 91.075 0 0 0 1.25-.312l.29-.074 5.6-5.618a1.567 1.567 0 0 0 0-2.203 1.5 1.5 0 0 0-.495-.328A1.598 1.598 0 0 0 16.438 7c-.204 0-.402.038-.594.113a1.468 1.468 0 0 0-.508.332l-5.602 5.61L9.25 15H5v1h4zm1.375-1.375.266-1.055 5.406-5.422a.468.468 0 0 1 .18-.113.64.64 0 0 1 .21-.035.56.56 0 0 1 .403.152.52.52 0 0 1 .16.395c0 .156-.055.289-.164.398L11.43 14.36l-1.055.266z" fill="#FFF" fill-rule="nonzero"/>
</svg>
