<svg width="24" height="24" viewBox="0 0 24 24" fill="none" xmlns="http://www.w3.org/2000/svg">
    <g clip-path="url(#clip0_9491_12621)">
        <path d="M13.7156 23H2C1.44771 23 1 22.5523 1 22V2C1 1.44772 1.44772 1 2 1H21.1927C21.7449 1 22.1927 1.44772 22.1927 2V12.3028"
              stroke="#0064AD"/>
        <path d="M1 6.85321H22.1927" stroke="#0064AD"/>
        <ellipse cx="12.9089" cy="4.22937" rx="0.807339" ry="0.807339" fill="#0064AD"/>
        <ellipse cx="15.7346" cy="4.22937" rx="0.807339" ry="0.807339" fill="#0064AD"/>
        <ellipse cx="18.5598" cy="4.22937" rx="0.807339" ry="0.807339" fill="#0064AD"/>
        <path d="M17.1575 17.5775C17.6427 16.9536 18.3221 15.4147 17.1575 14.2502C15.9929 13.0856 13.8302 10.9229 13.4143 10.507C12.9984 10.091 11.9586 9.88309 10.9188 10.9229C9.87904 11.9627 9.46313 12.7945 10.9188 14.2502C12.3745 15.7059 13.4836 16.815 14.0382 17.3695"
              stroke="#0064AD"/>
        <path d="M15.9089 15.0813C15.4237 15.7051 14.7444 17.244 15.9089 18.4086C17.0735 19.5731 19.2362 21.7359 19.6521 22.1518C20.068 22.5677 21.1078 22.7756 22.1476 21.7359C23.1874 20.6961 23.6033 19.8643 22.1476 18.4086C20.6919 16.9529 19.5828 15.8438 19.0282 15.2892"
              stroke="#0064AD"/>
    </g>
    <defs>
        <clipPath id="clip0_9491_12621">
            <rect width="24" height="24" fill="white"/>
        </clipPath>
    </defs>
</svg>
