<svg width="200" height="75" viewBox="0 0 200 75" fill="none" xmlns="http://www.w3.org/2000/svg">
    <rect width="200" height="75" fill="#F9F9F9"/>
    <path d="M68.25 47V29.8672H71.0625V44.6094H78.3398V47H68.25ZM96.5156 38.4102C96.5156 39.7305 96.3477 40.9336 96.0117 42.0195C95.6836 43.0977 95.1875 44.0273 94.5234 44.8086C93.8594 45.582 93.0273 46.1797 92.0273 46.6016C91.0273 47.0234 89.8555 47.2344 88.5117 47.2344C87.1445 47.2344 85.957 47.0234 84.9492 46.6016C83.9492 46.1797 83.1172 45.5781 82.4531 44.7969C81.7969 44.0156 81.3047 43.082 80.9766 41.9961C80.6484 40.9102 80.4844 39.707 80.4844 38.3867C80.4844 36.6211 80.7734 35.082 81.3516 33.7695C81.9375 32.4492 82.8242 31.4258 84.0117 30.6992C85.207 29.9648 86.7148 29.5977 88.5352 29.5977C90.3164 29.5977 91.7969 29.9609 92.9766 30.6875C94.1562 31.4141 95.0391 32.4375 95.625 33.7578C96.2188 35.0703 96.5156 36.6211 96.5156 38.4102ZM83.4375 38.4102C83.4375 39.7305 83.6172 40.875 83.9766 41.8438C84.3359 42.8047 84.8867 43.5469 85.6289 44.0703C86.3789 44.5859 87.3398 44.8438 88.5117 44.8438C89.6914 44.8438 90.6523 44.5859 91.3945 44.0703C92.1367 43.5469 92.6836 42.8047 93.0352 41.8438C93.3867 40.875 93.5625 39.7305 93.5625 38.4102C93.5625 36.4023 93.1602 34.832 92.3555 33.6992C91.5586 32.5586 90.2852 31.9883 88.5352 31.9883C87.3633 31.9883 86.3984 32.2461 85.6406 32.7617C84.8906 33.2773 84.3359 34.0156 83.9766 34.9766C83.6172 35.9297 83.4375 37.0742 83.4375 38.4102ZM107.109 37.6953H113.508V46.2969C112.609 46.5938 111.68 46.8242 110.719 46.9883C109.758 47.1523 108.68 47.2344 107.484 47.2344C105.742 47.2344 104.266 46.8906 103.055 46.2031C101.852 45.5078 100.938 44.5039 100.312 43.1914C99.6875 41.8711 99.375 40.2812 99.375 38.4219C99.375 36.6328 99.7227 35.082 100.418 33.7695C101.113 32.4492 102.125 31.4297 103.453 30.7109C104.781 29.9844 106.391 29.6211 108.281 29.6211C109.211 29.6211 110.109 29.7148 110.977 29.9023C111.852 30.082 112.652 30.332 113.379 30.6523L112.395 32.9727C111.816 32.6992 111.168 32.4688 110.449 32.2812C109.73 32.0938 108.984 32 108.211 32C106.984 32 105.926 32.2656 105.035 32.7969C104.152 33.3281 103.473 34.0781 102.996 35.0469C102.52 36.0078 102.281 37.1445 102.281 38.457C102.281 39.7305 102.473 40.8477 102.855 41.8086C103.238 42.7695 103.836 43.5195 104.648 44.0586C105.469 44.5898 106.527 44.8555 107.824 44.8555C108.473 44.8555 109.023 44.8203 109.477 44.75C109.93 44.6797 110.348 44.6016 110.73 44.5156V40.0977H107.109V37.6953ZM132.82 38.4102C132.82 39.7305 132.652 40.9336 132.316 42.0195C131.988 43.0977 131.492 44.0273 130.828 44.8086C130.164 45.582 129.332 46.1797 128.332 46.6016C127.332 47.0234 126.16 47.2344 124.816 47.2344C123.449 47.2344 122.262 47.0234 121.254 46.6016C120.254 46.1797 119.422 45.5781 118.758 44.7969C118.102 44.0156 117.609 43.082 117.281 41.9961C116.953 40.9102 116.789 39.707 116.789 38.3867C116.789 36.6211 117.078 35.082 117.656 33.7695C118.242 32.4492 119.129 31.4258 120.316 30.6992C121.512 29.9648 123.02 29.5977 124.84 29.5977C126.621 29.5977 128.102 29.9609 129.281 30.6875C130.461 31.4141 131.344 32.4375 131.93 33.7578C132.523 35.0703 132.82 36.6211 132.82 38.4102ZM119.742 38.4102C119.742 39.7305 119.922 40.875 120.281 41.8438C120.641 42.8047 121.191 43.5469 121.934 44.0703C122.684 44.5859 123.645 44.8438 124.816 44.8438C125.996 44.8438 126.957 44.5859 127.699 44.0703C128.441 43.5469 128.988 42.8047 129.34 41.8438C129.691 40.875 129.867 39.7305 129.867 38.4102C129.867 36.4023 129.465 34.832 128.66 33.6992C127.863 32.5586 126.59 31.9883 124.84 31.9883C123.668 31.9883 122.703 32.2461 121.945 32.7617C121.195 33.2773 120.641 34.0156 120.281 34.9766C119.922 35.9297 119.742 37.0742 119.742 38.4102Z"
          fill="#E0E0E0"/>
    <path d="M11 20.5V11H21" stroke="#E0E0E0" stroke-width="3"/>
    <path d="M189 20.5V11H179" stroke="#E0E0E0" stroke-width="3"/>
    <path d="M11 54.5V64H21" stroke="#E0E0E0" stroke-width="3"/>
    <path d="M189 54.5V64H179" stroke="#E0E0E0" stroke-width="3"/>
</svg>
