<svg width="75" height="75" viewBox="0 0 75 75" fill="none" xmlns="http://www.w3.org/2000/svg">
    <rect width="75" height="75" fill="#F9F9F9"/>
    <path d="M13.6875 44V31.1504H15.7969V42.207H21.2549V44H13.6875ZM34.8867 37.5576C34.8867 38.5479 34.7607 39.4502 34.5088 40.2646C34.2627 41.0732 33.8906 41.7705 33.3926 42.3564C32.8945 42.9365 32.2705 43.3848 31.5205 43.7012C30.7705 44.0176 29.8916 44.1758 28.8838 44.1758C27.8584 44.1758 26.9678 44.0176 26.2119 43.7012C25.4619 43.3848 24.8379 42.9336 24.3398 42.3477C23.8477 41.7617 23.4785 41.0615 23.2324 40.2471C22.9863 39.4326 22.8633 38.5303 22.8633 37.54C22.8633 36.2158 23.0801 35.0615 23.5137 34.0771C23.9531 33.0869 24.6182 32.3193 25.5088 31.7744C26.4053 31.2236 27.5361 30.9482 28.9014 30.9482C30.2373 30.9482 31.3477 31.2207 32.2324 31.7656C33.1172 32.3105 33.7793 33.0781 34.2188 34.0684C34.6641 35.0527 34.8867 36.2158 34.8867 37.5576ZM25.0781 37.5576C25.0781 38.5479 25.2129 39.4062 25.4824 40.1328C25.752 40.8535 26.165 41.4102 26.7217 41.8027C27.2842 42.1895 28.0049 42.3828 28.8838 42.3828C29.7686 42.3828 30.4893 42.1895 31.0459 41.8027C31.6025 41.4102 32.0127 40.8535 32.2764 40.1328C32.54 39.4062 32.6719 38.5479 32.6719 37.5576C32.6719 36.0518 32.3701 34.874 31.7666 34.0244C31.1689 33.1689 30.2139 32.7412 28.9014 32.7412C28.0225 32.7412 27.2988 32.9346 26.7305 33.3213C26.168 33.708 25.752 34.2617 25.4824 34.9824C25.2129 35.6973 25.0781 36.5557 25.0781 37.5576ZM42.832 37.0215H47.6309V43.4727C46.957 43.6953 46.2598 43.8682 45.5391 43.9912C44.8184 44.1143 44.0098 44.1758 43.1133 44.1758C41.8066 44.1758 40.6992 43.918 39.791 43.4023C38.8887 42.8809 38.2031 42.1279 37.7344 41.1436C37.2656 40.1533 37.0312 38.9609 37.0312 37.5664C37.0312 36.2246 37.292 35.0615 37.8135 34.0771C38.335 33.0869 39.0938 32.3223 40.0898 31.7832C41.0859 31.2383 42.293 30.9658 43.7109 30.9658C44.4082 30.9658 45.082 31.0361 45.7324 31.1768C46.3887 31.3115 46.9893 31.499 47.5342 31.7393L46.7959 33.4795C46.3623 33.2744 45.876 33.1016 45.3369 32.9609C44.7979 32.8203 44.2383 32.75 43.6582 32.75C42.7383 32.75 41.9443 32.9492 41.2764 33.3477C40.6143 33.7461 40.1045 34.3086 39.7471 35.0352C39.3896 35.7559 39.2109 36.6084 39.2109 37.5928C39.2109 38.5479 39.3545 39.3857 39.6416 40.1064C39.9287 40.8271 40.377 41.3896 40.9863 41.7939C41.6016 42.1924 42.3955 42.3916 43.3682 42.3916C43.8545 42.3916 44.2676 42.3652 44.6074 42.3125C44.9473 42.2598 45.2607 42.2012 45.5479 42.1367V38.8232H42.832V37.0215ZM62.1152 37.5576C62.1152 38.5479 61.9893 39.4502 61.7373 40.2646C61.4912 41.0732 61.1191 41.7705 60.6211 42.3564C60.123 42.9365 59.499 43.3848 58.749 43.7012C57.999 44.0176 57.1201 44.1758 56.1123 44.1758C55.0869 44.1758 54.1963 44.0176 53.4404 43.7012C52.6904 43.3848 52.0664 42.9336 51.5684 42.3477C51.0762 41.7617 50.707 41.0615 50.4609 40.2471C50.2148 39.4326 50.0918 38.5303 50.0918 37.54C50.0918 36.2158 50.3086 35.0615 50.7422 34.0771C51.1816 33.0869 51.8467 32.3193 52.7373 31.7744C53.6338 31.2236 54.7646 30.9482 56.1299 30.9482C57.4658 30.9482 58.5762 31.2207 59.4609 31.7656C60.3457 32.3105 61.0078 33.0781 61.4473 34.0684C61.8926 35.0527 62.1152 36.2158 62.1152 37.5576ZM52.3066 37.5576C52.3066 38.5479 52.4414 39.4062 52.7109 40.1328C52.9805 40.8535 53.3936 41.4102 53.9502 41.8027C54.5127 42.1895 55.2334 42.3828 56.1123 42.3828C56.9971 42.3828 57.7178 42.1895 58.2744 41.8027C58.8311 41.4102 59.2412 40.8535 59.5049 40.1328C59.7686 39.4062 59.9004 38.5479 59.9004 37.5576C59.9004 36.0518 59.5986 34.874 58.9951 34.0244C58.3975 33.1689 57.4424 32.7412 56.1299 32.7412C55.251 32.7412 54.5273 32.9346 53.959 33.3213C53.3965 33.708 52.9805 34.2617 52.7109 34.9824C52.4414 35.6973 52.3066 36.5557 52.3066 37.5576Z"
          fill="#E0E0E0"/>
    <path d="M11 20.5V11H21" stroke="#E0E0E0" stroke-width="3"/>
    <path d="M64 20.5V11H54" stroke="#E0E0E0" stroke-width="3"/>
    <path d="M11 54.5V64H21" stroke="#E0E0E0" stroke-width="3"/>
    <path d="M64 54.5V64H54" stroke="#E0E0E0" stroke-width="3"/>
</svg>
