<svg width="250" height="140" viewBox="0 0 250 140" fill="none" xmlns="http://www.w3.org/2000/svg">
    <rect width="250" height="140" fill="#F9F9F9"/>
    <path d="M147.029 97H103.938C100.366 97 97.4688 94.3059 97.4688 90.9993V51.0007C97.4688 47.6878 100.373 45 103.938 45H147.062C150.634 45 153.531 47.6941 153.531 51.0007L153.525 90.9743C153.525 94.2997 150.614 97 147.029 97ZM103.938 48.9942C102.745 48.9942 101.781 49.8943 101.781 50.9945V90.9993C101.781 92.1057 102.752 92.9995 103.938 92.9995H147.029C148.235 92.9995 149.212 92.0932 149.212 90.9743L149.219 51.0007C149.219 49.8943 148.248 49.0005 147.062 49.0005H103.938V48.9942Z"
          fill="#E0E0E0"/>
    <path d="M99.6248 88.1183C99.0722 88.1183 98.5197 87.9094 98.1019 87.4849C97.2596 86.6426 97.2596 85.2747 98.1019 84.4325L108.843 73.6984C110.81 71.7308 113.809 71.2389 116.302 72.4855L128 78.3343C128.828 78.7521 129.826 78.5904 130.479 77.93L149.845 58.5642C150.687 57.7219 152.055 57.7219 152.898 58.5642C153.74 59.4065 153.74 60.7744 152.898 61.6167L133.532 80.9825C131.564 82.95 128.566 83.4419 126.073 82.1953L114.375 76.3465C113.546 75.9288 112.549 76.0905 111.895 76.7508L101.148 87.4849C100.73 87.9094 100.177 88.1183 99.6248 88.1183Z"
          fill="#E0E0E0"/>
    <path d="M116.875 66.5558C113.31 66.5558 110.406 63.6516 110.406 60.087C110.406 56.5225 113.31 53.6183 116.875 53.6183C120.44 53.6183 123.344 56.5225 123.344 60.087C123.344 63.6516 120.44 66.5558 116.875 66.5558ZM116.875 57.9308C115.689 57.9308 114.719 58.9011 114.719 60.087C114.719 61.273 115.689 62.2433 116.875 62.2433C118.061 62.2433 119.031 61.273 119.031 60.087C119.031 58.9011 118.061 57.9308 116.875 57.9308Z"
          fill="#E0E0E0"/>
</svg>
