<svg width="24" height="24" viewBox="0 0 24 24" fill="none" xmlns="http://www.w3.org/2000/svg">
    <path d="M16.0929 3.41197C16.2222 3.28145 16.376 3.17783 16.5456 3.10712C16.7151 3.03641 16.897 3 17.0806 3C17.2643 3 17.4462 3.03641 17.6157 3.10712C17.7853 3.17783 17.9391 3.28145 18.0683 3.41197L20.0084 5.3506C20.2703 5.61261 20.4174 5.96787 20.4174 6.3383C20.4174 6.70872 20.2703 7.06399 20.0084 7.326L8.6413 18.6907C8.09556 19.2355 7.04957 19.802 6.28176 19.9593L4.14816 20.3966C3.99323 20.4284 3.83283 20.4213 3.68135 20.3758C3.52986 20.3304 3.39201 20.2481 3.28015 20.1363C3.1683 20.0245 3.08593 19.8866 3.04042 19.7352C2.99492 19.5837 2.98771 19.4233 3.01943 19.2684L3.45679 17.1357C3.61209 16.3781 4.1796 15.3214 4.72534 14.7757L16.0925 3.41149L16.0929 3.41197Z" stroke="#00ACE6" stroke-width="1.5"/>
    <path d="M15.0378 4.69531L18.809 8.36976" stroke="#00ACE6" stroke-width="1.5"/>
    <path d="M9.91296 19.6375C11.3529 19.6718 14.0134 19.5748 16.0048 19.0741M16.0048 19.0741C16.8216 18.8687 17.5258 18.5954 17.9871 18.2354C19.9693 16.6883 17.697 14.5125 16.3432 15.1895C14.911 15.9058 14.361 17.3652 16.0048 19.0741ZM16.0048 19.0741C16.73 19.6004 18.9444 20.0824 22 17.8004" stroke="#00ACE6" stroke-width="1.5"/>
</svg>
