<svg width="24" height="24" viewBox="0 0 24 24" fill="none" xmlns="http://www.w3.org/2000/svg">
    <path d="M21.2 2C21.6418 2 22 2.35818 22 2.8V21.2C22 21.6418 21.6418 22 21.2 22H2.8C2.35818 22 2 21.6418 2 21.2V2.8C2 2.35818 2.35818 2 2.8 2H21.2ZM20.4 3.6H3.6V20.4H20.4V3.6ZM13.5838 5.344C14.2218 5.344 14.7543 5.63278 15.1209 6.18065C15.3827 6.58567 15.5409 7.0488 15.5817 7.52933C15.5932 7.67368 15.6173 7.95905 15.6542 8.3854L15.6559 8.4049H14.0128C13.9802 8.08975 13.957 7.84125 13.9432 7.6594C13.9269 7.49245 13.8265 7.01218 13.5828 7.01218C13.4824 7.01218 13.3012 7.16477 13.0994 7.59385C12.9173 7.97827 12.7856 8.43393 12.7052 8.71295L12.701 8.72745L12.655 8.88415C12.6357 8.95208 12.5874 9.1344 12.4672 9.6099L12.4649 9.619H14.568C14.568 10.5027 13.8516 11.219 12.968 11.219H12.0742L12.0559 11.2937C11.6296 13.0486 11.2034 14.8257 10.7854 16.5809L10.696 16.9568L10.6939 16.966L10.6919 16.9711C10.5114 17.5905 9.89538 18.6355 8.72548 18.6563L8.68985 18.6567H8.68883C7.32785 18.6567 6.61 17.4124 6.40007 16.6762C6.35317 16.5116 6.29795 16.1698 6.2344 15.6508L6.23203 15.6313H7.87378C7.90402 15.8794 7.93883 16.0721 7.97813 16.2092C7.98018 16.2164 8.23413 16.9895 8.68985 16.9895C8.8881 16.9895 9.05035 16.6819 9.11155 16.5105L9.1138 16.5041L9.1783 16.2358C9.315 15.6619 9.66138 14.2074 10.0213 12.7099L10.0438 12.6162L10.0664 12.5225L10.095 12.4039L10.1235 12.2853C10.1976 11.9775 10.2716 11.6712 10.3436 11.3736L10.3632 11.2927L10.3812 11.219H8.293C8.293 10.3354 9.00935 9.619 9.893 9.619H10.7721C10.9325 8.97235 11.036 8.56525 11.0817 8.40953L11.083 8.4049L11.126 8.25845C11.2582 7.8007 11.4579 7.10743 11.8163 6.50733C12.2781 5.7352 12.8721 5.344 13.5838 5.344ZM18.0543 12.1114L18.076 12.1264L16.6766 14.125L18.076 16.1236L18.0543 16.1386C17.3395 16.622 16.3691 16.4508 15.8629 15.752L15.8477 15.7307L15.7 15.5197L15.5523 15.7307C15.0506 16.4473 14.0677 16.6269 13.3458 16.1386L13.324 16.1236L14.7234 14.125L13.324 12.1264L13.3458 12.1114C14.0605 11.628 15.0309 11.7992 15.5371 12.498L15.5523 12.5193L15.7 12.7303L15.8477 12.5193C16.3495 11.8027 17.3323 11.6231 18.0543 12.1114Z" fill="#00ACE6"/>
</svg>
