<svg t="1716859186376" class="icon" viewBox="0 0 1024 1024" version="1.1" xmlns="http://www.w3.org/2000/svg" p-id="2606"
     width="24" height="24">
    <path d="M859.3 442.4H509.8c-46.4 0.1-83.9 37.7-84.1 84V876c0.1 46.4 37.7 83.9 84.1 84h349.5c46.4-0.1 83.9-37.7 84.1-84V526.4c-0.2-46.3-37.7-83.9-84.1-84zM599.5 506h170.1v133H599.5V506z m279.8 370c-0.1 11-9 19.9-20 20H509.8c-11-0.1-19.9-9-20-20V526.4c0.1-11 9-19.9 20-20h25.7v196.7h298.2V506.4h25.7c11 0.1 19.9 9 20 20V876z m-549.6 11.2h-145c-17.7 0-32-14.4-32-32V168.1c0-17.7 14.4-32 32-32h619.4c17.7 0 32 14.4 32 32v154.1c0 20.2 16.5 37.1 36.7 36.7 19.6-0.4 35.3-16.4 35.3-36V148c0-46.4-37.6-84-84.1-84H164.6c-46.4 0-84 37.6-84 84.1v727.1c0 46.4 37.6 84.1 84 84.1h164.2c20.2 0 37.1-16.5 36.7-36.7-0.2-19.7-16.2-35.4-35.8-35.4zM238 287.8h512.3c17.7 0 32-14.3 32-32s-14.3-32-32-32H238c-17.7 0-32 14.3-32 32s14.3 32 32 32z m0 160.1h131.1c17.7 0 32-14.3 32-32s-14.3-32-32-32H238c-17.7 0-32 14.3-32 32s14.3 32 32 32z m0 0"
          fill="#909090" p-id="2607"></path>
</svg>