<svg width="25" height="24" viewBox="0 0 25 24" fill="none" xmlns="http://www.w3.org/2000/svg">
    <rect x="0.352295" width="23.7785" height="24" rx="11.8893" fill="white"/>
    <path d="M12.2533 1.5625C13.6822 1.5625 15.0229 1.83755 16.2753 2.38776C17.5269 2.93926 18.6184 3.683 19.5477 4.62158C20.477 5.55898 21.2152 6.66435 21.7603 7.93663C22.3054 9.20763 22.5786 10.5639 22.5786 12.0069C22.5786 13.4486 22.3054 14.8023 21.7603 16.0657C21.2152 17.3303 20.477 18.4307 19.5477 19.3693C18.6184 20.3079 17.5269 21.0516 16.2753 21.6018C15.0228 22.1533 13.6822 22.4284 12.2533 22.4284C10.8242 22.4284 9.48047 22.1533 8.21992 21.6018C6.96066 21.0516 5.86535 20.3079 4.9361 19.3693C4.0062 18.4307 3.26867 17.3303 2.72353 16.0657C2.17776 14.8023 1.90527 13.4486 1.90527 12.0069C1.90527 10.5639 2.17776 9.20763 2.72353 7.93663C3.26867 6.66435 4.00618 5.55896 4.9361 4.62158C5.86535 3.683 6.96066 2.93926 8.21992 2.38776C9.48047 1.83755 10.8242 1.5625 12.2533 1.5625ZM13.4981 10.5639C13.4981 10.1921 13.3788 9.87884 13.141 9.62284C12.9024 9.36683 12.6072 9.23811 12.2533 9.23811C11.9 9.23811 11.6003 9.36683 11.3543 9.62284C11.1088 9.87884 10.9857 10.1921 10.9857 10.5639V18.3568C10.9857 18.7287 11.1088 19.028 11.3543 19.2533C11.6003 19.4775 11.9 19.5895 12.2533 19.5895C12.6072 19.5895 12.9063 19.4737 13.1523 19.2419C13.3983 19.0088 13.5207 18.7057 13.5207 18.3339L13.4981 10.5639ZM12.2533 7.67931C12.6993 7.67931 13.079 7.52138 13.3946 7.20304C13.7088 6.88471 13.8664 6.5013 13.8664 6.05178C13.8664 5.60225 13.7088 5.21753 13.3946 4.90051C13.079 4.58205 12.6993 4.42294 12.2533 4.42294C11.8079 4.42294 11.4236 4.58205 11.1006 4.90051C10.7782 5.21755 10.6174 5.60225 10.6174 6.05178C10.6174 6.5013 10.7783 6.88471 11.1006 7.20304C11.4236 7.5214 11.8079 7.67931 12.2533 7.67931Z"
          fill="#F45640"/>
</svg>
