<svg width="17" height="17" viewBox="0 0 17 17" fill="none" xmlns="http://www.w3.org/2000/svg">
    <path d="M8.89648 7.55812L13.5346 2.91997C13.6016 2.85314 13.6923 2.81561 13.7869 2.81561C13.8815 2.81561 13.9722 2.85314 14.0391 2.91997L14.2919 3.17277C14.3589 3.23972 14.3965 3.33053 14.3965 3.4252C14.3965 3.51988 14.3589 3.61068 14.2919 3.67764L9.6538 8.31543L14.2919 12.9536C14.3588 13.0205 14.3963 13.1112 14.3963 13.2058C14.3963 13.3004 14.3588 13.3912 14.2919 13.4581L14.0391 13.7109C13.9722 13.7778 13.8814 13.8154 13.7867 13.8154C13.692 13.8154 13.6012 13.7778 13.5343 13.7109L8.89648 9.07274L4.25834 13.7109C4.1914 13.7777 4.10067 13.8153 4.00608 13.8153C3.91149 13.8153 3.82076 13.7777 3.75382 13.7109L3.50102 13.4581C3.43409 13.3911 3.39648 13.3003 3.39648 13.2057C3.39648 13.111 3.43409 13.0202 3.50102 12.9532L8.13917 8.31543L3.50102 3.67728C3.4342 3.61034 3.39666 3.51962 3.39666 3.42502C3.39666 3.33043 3.4342 3.23971 3.50102 3.17277L3.75382 2.91997C3.82078 2.85303 3.91158 2.81543 4.00626 2.81543C4.10094 2.81543 4.19174 2.85303 4.2587 2.91997L8.89648 7.55812Z" fill="#F55B19"/>
</svg>
