<svg width="17" height="17" viewBox="0 0 17 17" fill="none" xmlns="http://www.w3.org/2000/svg">
    <path d="M15.2416 4.4052C14.8489 4.01467 14.2122 4.01467 13.8195 4.4052L7.28583 10.9025L3.25279 6.90519C2.86008 6.51466 2.22338 6.51466 1.83066 6.90519C1.43796 7.2957 1.43796 7.92888 1.83066 8.31941L6.57032 13.0171C6.57218 13.019 6.57391 13.021 6.57579 13.0228C6.77218 13.2181 7.0296 13.3158 7.287 13.3157C7.54441 13.3158 7.80182 13.2181 7.99822 13.0228C8.00025 13.0208 8.0021 13.0187 8.0041 13.0167L15.2416 5.81941C15.6343 5.42889 15.6343 4.79572 15.2416 4.4052Z" fill="#00ACE6"/>
</svg>
