<svg t="1692776858116" class="icon" viewBox="0 0 1024 1024" version="1.1" xmlns="http://www.w3.org/2000/svg" p-id="1422" width="200" height="200"><path d="M968.106667 786.773333L600.32 144.213333c-18.346667-32-51.2-51.2-88.32-51.2s-69.973333 19.2-88.32 51.2L55.893333 786.773333c-18.346667 32-17.92 69.546667 0.426667 101.546667 18.346667 31.573333 51.2 50.346667 87.893333 50.346667h735.573334c36.693333 0 69.546667-18.773333 87.893333-50.773334 18.346667-31.573333 18.773333-69.546667 0.426667-101.12z m-74.24 58.453334c-1.706667 2.986667-5.973333 8.106667-14.08 8.106666H144.213333c-8.106667 0-12.373333-5.12-14.08-8.106666a15.317333 15.317333 0 0 1 0-16.213334l367.786667-642.56c4.266667-7.253333 10.666667-8.106667 14.08-8.106666s10.24 1.28 14.08 8.106666l367.786667 642.56c4.266667 7.253333 1.706667 13.226667 0 16.213334zM512 341.333333c-23.466667 0-42.666667 19.2-42.666667 42.666667v213.333333c0 23.466667 19.2 42.666667 42.666667 42.666667s42.666667-19.2 42.666667-42.666667V384c0-23.466667-19.2-42.666667-42.666667-42.666667z m0 341.333334c-23.466667 0-42.666667 19.2-42.666667 42.666666s19.2 42.666667 42.666667 42.666667 42.666667-19.2 42.666667-42.666667-19.2-42.666667-42.666667-42.666666z" p-id="1423" fill="#ffffff"></path></svg>

