<svg width="17" height="16" viewBox="0 0 17 16" fill="none" xmlns="http://www.w3.org/2000/svg">
    <g clip-path="url(#clip0_11089_3654)">
        <path d="M6.33325 0.761905C6.33325 0.713266 6.3468 0.665588 6.37237 0.624214C6.39794 0.582839 6.43453 0.549402 6.47803 0.52765C6.52153 0.505898 6.57023 0.496691 6.61868 0.501059C6.66712 0.505427 6.71339 0.523198 6.7523 0.552381L15.8952 7.40952C15.9277 7.43392 15.9541 7.46555 15.9723 7.50192C15.9905 7.53829 15.9999 7.57839 15.9999 7.61905C15.9999 7.65971 15.9905 7.69981 15.9723 7.73618C15.9541 7.77255 15.9277 7.80418 15.8952 7.82857L6.7523 14.6857C6.71339 14.7149 6.66712 14.7327 6.61868 14.737C6.57024 14.7414 6.52154 14.7322 6.47803 14.7104C6.43452 14.6887 6.39794 14.6553 6.37237 14.6139C6.3468 14.5725 6.33325 14.5248 6.33325 14.4762V0.761905Z" stroke="#0064AD"/>
        <line x1="2.01428" y1="0.228516" x2="2.01428" y2="15.2397" stroke="#0064AD"/>
    </g>
    <defs>
        <clipPath id="clip0_11089_3654">
            <rect width="16" height="16" fill="white" transform="translate(0.5)"/>
        </clipPath>
    </defs>
</svg>
