<?xml version="1.0" standalone="no"?><!DOCTYPE svg PUBLIC "-//W3C//DTD SVG 1.1//EN" "http://www.w3.org/Graphics/SVG/1.1/DTD/svg11.dtd"><svg t="1718261686007" class="icon" viewBox="0 0 1024 1024" version="1.1" xmlns="http://www.w3.org/2000/svg" p-id="1455" xmlns:xlink="http://www.w3.org/1999/xlink" width="200" height="200"><path d="M137.99619 299.934476a42.666667 42.666667 0 0 1 33.01181 69.729524h0.195048a256 256 0 0 0 203.190857 398.140952l9.606095 0.195048h213.333333v-80.164571c0-3.803429 0.828952-7.509333 2.438096-10.922667l1.852952-3.267048a25.6 25.6 0 0 1 35.498667-7.119238l184.222476 122.782476a25.6 25.6 0 0 1 0 42.617905l-184.271238 122.88a25.6 25.6 0 0 1-39.789715-21.357714v-80.213333l-213.284571 0.097523A341.333333 341.333333 0 0 1 102.936381 318.268952a42.666667 42.666667 0 0 1 35.108571-18.383238v0.048762z m284.379429-223.670857a25.6 25.6 0 0 1 4.291048 14.238476V170.666667h213.333333a341.333333 341.333333 0 0 1 284.281905 530.383238l-0.877715 1.267809a204.702476 204.702476 0 0 1-2.438095 3.510857 43.398095 43.398095 0 0 1-33.011809 15.36 42.666667 42.666667 0 0 1-31.451429-71.484952l-0.438857-0.341333a256 256 0 0 0-206.506667-393.167238l-9.557333-0.195048H426.666667v80.164571a25.6 25.6 0 0 1-39.789715 21.357715L202.654476 234.544762a25.6 25.6 0 0 1 0-42.569143l184.222476-122.88a25.6 25.6 0 0 1 35.498667 7.119238z" fill="#004192" p-id="1456"></path></svg>