<svg width="37" height="37" viewBox="0 0 37 37" fill="none" xmlns="http://www.w3.org/2000/svg">
    <circle cx="18.4957" cy="18.8477" r="17.875" fill="url(#paint0_linear_2558_20937)"/>
    <g clip-path="url(#clip0_2558_20937)">
        <path d="M18 30.0409C15.8165 30.0409 13.6821 29.3935 11.8665 28.1804C10.051 26.9673 8.63599 25.2431 7.8004 23.2258C6.96481 21.2085 6.74618 18.9887 7.17216 16.8471C7.59814 14.7056 8.6496 12.7385 10.1936 11.1945C11.7375 9.65051 13.7047 8.59905 15.8462 8.17307C17.9878 7.74709 20.2076 7.96572 22.2249 8.80131C24.2421 9.6369 25.9664 11.0519 27.1795 12.8674C28.3925 14.683 29.04 16.8174 29.04 19.0009C29.0369 21.928 27.8727 24.7342 25.803 26.8039C23.7333 28.8736 20.927 30.0378 18 30.0409ZM18 9.88094C16.1963 9.88094 14.433 10.4158 12.9332 11.4179C11.4335 12.4201 10.2645 13.8444 9.57425 15.5109C8.88397 17.1773 8.70337 19.0111 9.05527 20.7802C9.40716 22.5493 10.2758 24.1743 11.5512 25.4498C12.8267 26.7252 14.4517 27.5938 16.2208 27.9457C17.9899 28.2976 19.8236 28.117 21.4901 27.4267C23.1566 26.7365 24.5809 25.5675 25.583 24.0677C26.5851 22.568 27.12 20.8047 27.12 19.0009C27.12 16.5822 26.1592 14.2625 24.4488 12.5521C22.7385 10.8418 20.4188 9.88094 18 9.88094Z"
              fill="white"/>
        <path d="M12.6 17.38H14.52V23.5H12.6V17.38ZM17.22 13H19.14V23.5H17.22V13ZM21.84 15.22H23.76V23.5H21.84V15.22Z"
              fill="white"/>
    </g>
    <defs>
        <linearGradient id="paint0_linear_2558_20937" x1="18.4957" y1="0.972656" x2="18.4957" y2="36.7227"
                        gradientUnits="userSpaceOnUse">
            <stop stop-color="#F09865"/>
            <stop offset="1" stop-color="#FAD77E"/>
        </linearGradient>
        <clipPath id="clip0_2558_20937">
            <rect width="24" height="24" fill="white" transform="translate(6 7)"/>
        </clipPath>
    </defs>
</svg>
