<svg width="37" height="37" viewBox="0 0 37 37" fill="none" xmlns="http://www.w3.org/2000/svg">
    <circle cx="18.2137" cy="18.8164" r="17.875" fill="url(#paint0_linear_0_1)"/>
    <path d="M14.7137 18.8168C14.2531 18.8241 13.7958 18.7369 13.3701 18.5607C12.9444 18.3844 12.5594 18.1227 12.2387 17.7918C11.9079 17.4712 11.6462 17.0862 11.4699 16.6605C11.2936 16.2348 11.2064 15.7775 11.2137 15.3168C11.2137 14.3498 11.5557 13.5248 12.2387 12.8418C12.5594 12.511 12.9444 12.2493 13.3701 12.073C13.7958 11.8967 14.2531 11.8095 14.7137 11.8168C15.6807 11.8168 16.5057 12.1588 17.1887 12.8418C17.5196 13.1625 17.7813 13.5475 17.9576 13.9732C18.1339 14.3989 18.221 14.8561 18.2137 15.3168C18.2137 16.2838 17.8717 17.1088 17.1887 17.7918C16.8681 18.1227 16.4831 18.3844 16.0574 18.5607C15.6317 18.7369 15.1744 18.8241 14.7137 18.8168ZM14.7137 16.8168C15.1307 16.8168 15.4837 16.6708 15.7757 16.3788C16.0677 16.0878 16.2137 15.7338 16.2137 15.3168C16.2137 14.8998 16.0677 14.5468 15.7757 14.2548C15.6381 14.113 15.4728 14.001 15.2902 13.9257C15.1075 13.8503 14.9113 13.8133 14.7137 13.8168C14.2967 13.8168 13.9437 13.9628 13.6517 14.2548C13.51 14.3925 13.3979 14.5577 13.3226 14.7404C13.2472 14.9231 13.2102 15.1193 13.2137 15.3168C13.2137 15.7338 13.3597 16.0868 13.6517 16.3788C13.9427 16.6708 14.2967 16.8168 14.7137 16.8168ZM23.7137 27.8168C23.2531 27.8241 22.7958 27.7369 22.3701 27.5607C21.9444 27.3844 21.5594 27.1227 21.2387 26.7918C20.9079 26.4712 20.6462 26.0862 20.4699 25.6605C20.2936 25.2348 20.2064 24.7775 20.2137 24.3168C20.2137 23.3498 20.5557 22.5248 21.2387 21.8418C21.5594 21.511 21.9444 21.2493 22.3701 21.073C22.7958 20.8967 23.2531 20.8095 23.7137 20.8168C24.6807 20.8168 25.5057 21.1588 26.1887 21.8418C26.5196 22.1625 26.7813 22.5475 26.9576 22.9732C27.1339 23.3989 27.221 23.8561 27.2137 24.3168C27.2137 25.2838 26.8717 26.1088 26.1887 26.7918C25.8681 27.1227 25.4831 27.3844 25.0574 27.5607C24.6317 27.7369 24.1744 27.8241 23.7137 27.8168ZM23.7137 25.8168C24.1307 25.8168 24.4837 25.6708 24.7757 25.3788C25.0677 25.0878 25.2137 24.7338 25.2137 24.3168C25.2137 23.8998 25.0677 23.5468 24.7757 23.2548C24.6381 23.113 24.4728 23.001 24.2902 22.9257C24.1075 22.8503 23.9113 22.8133 23.7137 22.8168C23.2967 22.8168 22.9437 22.9628 22.6517 23.2548C22.51 23.3925 22.3979 23.5577 22.3226 23.7404C22.2472 23.9231 22.2102 24.1193 22.2137 24.3168C22.2137 24.7338 22.3597 25.0868 22.6517 25.3788C22.9427 25.6708 23.2967 25.8168 23.7137 25.8168ZM12.6137 27.8168L11.2137 26.4168L25.8137 11.8168L27.2137 13.2168L12.6137 27.8168Z"
          fill="white"/>
    <defs>
        <linearGradient id="paint0_linear_0_1" x1="18.2137" y1="0.941406" x2="18.2137" y2="36.6914"
                        gradientUnits="userSpaceOnUse">
            <stop stop-color="#EC6E88"/>
            <stop offset="1" stop-color="#F19DA7"/>
        </linearGradient>
    </defs>
</svg>
