<svg width="36" height="37" viewBox="0 0 36 37" fill="none" xmlns="http://www.w3.org/2000/svg">
    <circle cx="17.875" cy="18.4844" r="17.875" fill="url(#paint0_linear_0_1)"/>
    <path d="M22.65 8.96342C20.25 7.68842 17.475 7.42592 14.85 8.25092C12.225 9.07592 10.125 10.8384 8.85003 13.2384C8.40003 14.0634 8.10003 14.9634 7.91253 15.8634C7.80003 16.3884 8.13753 16.8759 8.62503 16.9884C9.15003 17.1009 9.63753 16.7634 9.75003 16.2759C9.90003 15.5259 10.1625 14.8134 10.5375 14.1384C11.5875 12.1509 13.3125 10.7259 15.45 10.0509C17.5875 9.37592 19.8375 9.60092 21.825 10.6509C23.8125 11.7009 25.2375 13.4259 25.9125 15.5634C26.5875 17.7009 26.3625 19.9509 25.3125 21.9384C23.175 26.0259 18.1125 27.6009 14.025 25.4259C12.825 24.7884 11.8125 23.8884 11.0625 22.8009H12.375C12.9 22.8009 13.3125 22.3884 13.3125 21.8634C13.3125 21.3384 12.9 20.9259 12.375 20.9259H9.00003C8.47503 20.9259 8.06253 21.3384 8.06253 21.8634V25.4259C8.06253 25.9509 8.47503 26.3634 9.00003 26.3634C9.52503 26.3634 9.93753 25.9509 9.93753 25.4259V24.4509C10.8 25.5384 11.8875 26.4384 13.125 27.0759C14.625 27.8634 16.275 28.2384 17.8875 28.2384C21.5625 28.2384 25.125 26.2509 26.9625 22.7634C29.5875 17.7759 27.6375 11.5884 22.65 8.96342Z"
          fill="white"/>
    <path d="M17.7 12.0742C17.175 12.0742 16.7625 12.4867 16.7625 13.0117V18.0367C16.7625 18.3367 16.9125 18.5992 17.1375 18.7867L21.2625 22.0117C21.45 22.1617 21.6375 22.1992 21.825 22.1992C22.0875 22.1992 22.3875 22.0867 22.575 21.8242C22.9125 21.4117 22.8375 20.8117 22.425 20.5117L18.675 17.5492V13.0117C18.6375 12.4867 18.1875 12.0742 17.7 12.0742Z"
          fill="white"/>
    <defs>
        <linearGradient id="paint0_linear_0_1" x1="17.875" y1="0.609375" x2="17.875" y2="36.3594"
                        gradientUnits="userSpaceOnUse">
            <stop stop-color="#9D71F7"/>
            <stop offset="1" stop-color="#D19DF1"/>
        </linearGradient>
    </defs>
</svg>
