<svg width="141" height="119" viewBox="0 0 141 119" fill="none" xmlns="http://www.w3.org/2000/svg">
    <path d="M6.56883 58.1126L33.1771 84.8729C31.6246 78.8208 33.1771 67.7637 35.7028 63.3844C38.2284 59.0052 48.0345 46.694 51.3751 44.4163C54.0475 42.5942 53.9058 40.4684 53.5009 39.6333C51.5016 36.9254 45.6658 30.1923 38.3165 24.923C30.9673 19.6537 22.044 21.804 18.501 23.5378C17.1808 24.1772 14.3487 25.3492 13.5816 24.923C13.9012 21.8331 24.8757 17.0384 29.2239 17.6684C42.1598 18.3877 53.2649 31.3482 57.2004 37.7386L61.9139 33.7854C56.2375 26.7912 42.6952 12.5595 33.9373 11.5864C22.99 10.3701 9.15363 14.7794 2.61564 29.984C-2.61476 42.1477 3.07177 53.8046 6.56883 58.1126Z" fill="#1CBAB0"/>
    <rect x="98.3873" y="3.75521" width="53.6297" height="102.583" rx="26.8148" transform="rotate(44 98.3873 3.75521)" fill="white" stroke="#00ACE6" stroke-width="5"/>
    <path fill-rule="evenodd" clip-rule="evenodd" d="M119.417 20.59C107.768 9.34147 89.2063 9.66773 77.9606 21.3187L58.3109 41.6765L100.486 82.4041L120.145 62.036C131.387 50.3891 131.061 31.8347 119.417 20.59ZM113.373 49.6011C119.865 40.5084 116.078 28.7006 113.373 23.9334C113.089 23.3706 112.816 22.3996 113.989 23.0182C116.714 24.052 120.849 32.4159 121.319 40.028C121.695 46.1177 118.093 51.8378 116.244 53.9366L101.665 71.3645C101.133 71.9597 99.5757 72.9317 97.7801 70.8524C96.6293 69.5197 97.1699 68.4411 97.7801 67.8463C100.273 65.5532 106.881 58.6938 113.373 49.6011ZM84.9318 43.3697C83.5669 42.1407 82.6401 40.8119 82.1515 39.3833C81.6864 37.9534 81.6457 36.5014 82.0296 35.027C82.4246 33.5403 83.2421 32.1083 84.4823 30.7309C85.4096 29.701 86.3909 28.9107 87.4261 28.3599C88.4724 27.7966 89.5373 27.4748 90.6208 27.3944C91.7155 27.3016 92.8058 27.4631 93.8916 27.8791C95.0011 28.2939 96.0645 28.9594 97.082 29.8755C97.7645 30.49 98.3563 31.1802 98.8575 31.9461C99.3588 32.7119 99.7123 33.4796 99.9182 34.2491C100.033 34.6451 100.028 35 99.903 35.314C99.7888 35.6155 99.6063 35.8557 99.3556 36.0343C99.116 36.2006 98.8485 36.2855 98.5531 36.2892C98.2702 36.304 97.9996 36.2177 97.7415 36.0302C97.507 35.8415 97.3314 35.5374 97.2149 35.1179C97.0537 34.5234 96.8 33.9692 96.4538 33.4553C96.1077 32.9414 95.7051 32.4778 95.246 32.0644C94.365 31.2711 93.4585 30.7807 92.5264 30.5931C91.5944 30.4055 90.6661 30.5133 89.7414 30.9164C88.8167 31.3196 87.9074 32.0175 87.0136 33.0101C86.131 33.9904 85.5319 34.9676 85.2165 35.9418C84.901 36.916 84.8853 37.8567 85.1693 38.764C85.4533 39.6713 86.0358 40.5216 86.9168 41.3149C87.3883 41.7394 87.9039 42.1025 88.4636 42.4043C89.0344 42.6936 89.6363 42.8985 90.2692 43.019C90.6875 43.1035 90.9909 43.2531 91.1795 43.4679C91.3916 43.6814 91.5107 43.9234 91.5367 44.194C91.5627 44.4645 91.5056 44.7276 91.3653 44.9833C91.2362 45.2265 91.0338 45.4263 90.7583 45.5826C90.4939 45.7265 90.1774 45.7785 89.8088 45.7387C88.9885 45.6517 88.1415 45.3946 87.2678 44.9675C86.4178 44.5391 85.6391 44.0065 84.9318 43.3697ZM97.1645 54.384C95.7996 53.155 94.8728 51.8262 94.3841 50.3976C93.9191 48.9678 93.8784 47.5157 94.2622 46.0414C94.6572 44.5546 95.4748 43.1226 96.715 41.7453C97.6423 40.7154 98.6236 39.925 99.6587 39.3742C100.705 38.811 101.77 38.4892 102.854 38.4088C103.948 38.3159 105.038 38.4775 106.124 38.8935C107.234 39.3083 108.297 39.9737 109.315 40.8899C109.997 41.5044 110.589 42.1946 111.09 42.9604C111.591 43.7263 111.945 44.494 112.151 45.2635C112.266 45.6594 112.261 46.0144 112.136 46.3283C112.021 46.6299 111.839 46.87 111.588 47.0487C111.349 47.2149 111.081 47.2999 110.786 47.3035C110.503 47.3184 110.232 47.2321 109.974 47.0446C109.74 46.8559 109.564 46.5518 109.448 46.1323C109.286 45.5378 109.033 44.9836 108.687 44.4697C108.34 43.9558 107.938 43.4921 107.479 43.0788C106.598 42.2855 105.691 41.7951 104.759 41.6075C103.827 41.4198 102.899 41.5276 101.974 41.9308C101.049 42.3339 100.14 43.0318 99.2463 44.0245C98.3637 45.0048 97.7646 45.982 97.4492 46.9562C97.1337 47.9303 97.118 48.8711 97.402 49.7784C97.686 50.6857 98.2685 51.536 99.1495 52.3292C99.621 52.7538 100.137 53.1169 100.696 53.4186C101.267 53.7079 101.869 53.9128 102.502 54.0334C102.92 54.1178 103.224 54.2675 103.412 54.4822C103.624 54.6957 103.743 54.9378 103.769 55.2083C103.795 55.4789 103.738 55.742 103.598 55.9976C103.469 56.2408 103.267 56.4406 102.991 56.5969C102.727 56.7408 102.41 56.7929 102.041 56.7531C101.221 56.666 100.374 56.4089 99.5005 55.9818C98.6505 55.5534 97.8718 55.0208 97.1645 54.384Z" fill="#00ACE6"/>
</svg>
