<svg width="25" height="25" viewBox="0 0 25 25" fill="none" xmlns="http://www.w3.org/2000/svg">
    <path d="M7.51647 18.7078C6.19359 19.2166 3.68797 19.5526 1.91392 17.0838C0.0820019 14.5346 1.36724 11.8421 2.60865 10.5742L11.3742 1.98755C12.3651 1.10137 15.4529 0.574327 17.6353 2.97144C18.9591 4.50989 18.7832 6.77284 18.5298 7.71201" stroke="#0064AD"/>
    <path d="M6.48041 6.85742L10.7895 11.0058" stroke="#0064AD"/>
    <path d="M24.4998 16.8486C24.4998 20.755 21.333 23.9218 17.4266 23.9218C13.5202 23.9218 10.3535 20.755 10.3535 16.8486C10.3535 12.9422 13.5202 9.77539 17.4266 9.77539C21.333 9.77539 24.4998 12.9422 24.4998 16.8486Z" stroke="#0064AD"/>
    <line x1="17.6943" y1="13.6074" x2="17.6943" y2="20.6074" stroke="#0064AD"/>
    <line x1="14.2363" y1="16.6348" x2="21.2363" y2="16.6348" stroke="#0064AD"/>
</svg>
