<svg width="34" height="33" viewBox="0 0 34 33" fill="none" xmlns="http://www.w3.org/2000/svg">
    <circle cx="14.7348" cy="14.2719" r="9.7463" stroke="#4C4E51"/>
    <path d="M23.2534 19.8149L28.0613 24.6229C28.8623 25.424 28.8623 26.7228 28.0612 27.5239V27.5239C27.2602 28.3249 25.9614 28.3249 25.1603 27.5239L20.2546 22.6182" stroke="#4C4E51"/>
    <path d="M24.5002 21.5342L21.8669 24.5547" stroke="#4C4E51"/>
    <circle cx="14.7346" cy="14.272" r="7.5" stroke="#4C4E51"/>
    <circle cx="10.939" cy="13.035" r="1.29815" stroke="#4C4E51"/>
    <circle cx="18.5923" cy="12.9739" r="1.29815" stroke="#4C4E51"/>
    <circle cx="14.939" cy="17.035" r="1.29815" stroke="#4C4E51"/>
    <circle cx="25.3179" cy="6.51031" r="1.29815" stroke="#4C4E51"/>
    <path d="M7.77905 12.9614H9.39917" stroke="#4C4E51"/>
    <path d="M12.053 14.3745L13.6731 16.2702" stroke="#4C4E51"/>
    <path d="M16.1199 15.96L17.4988 14.2021" stroke="#4C4E51"/>
    <path d="M19.6355 11.8584L20.9456 10.6865" stroke="#4C4E51"/>
    <path d="M23.0823 8.44626L23.9788 7.61905M27.0461 6.51611H28.7694" stroke="#4C4E51"/>
</svg>
