<svg width="22" height="22" viewBox="0 0 22 22" fill="none" xmlns="http://www.w3.org/2000/svg">
    <path fill-rule="evenodd" clip-rule="evenodd"
          d="M13.1922 4.2001C13.1434 4.72212 13.078 5.42328 13.1085 5.70258C13.1349 5.94381 13.1849 6.0294 13.2594 6.1568L13.2594 6.15681L13.2594 6.15682C13.2912 6.21118 13.3274 6.27315 13.3681 6.35807C13.604 6.85182 13.525 7.53285 13.4344 8.03086C13.3845 8.30327 13.2799 8.69122 13.12 8.91377C13.0384 9.02785 12.9188 9.08922 12.7985 9.15091C12.6598 9.22206 12.5202 9.29365 12.4372 9.44704C12.3993 9.51649 12.3714 9.59067 12.3506 9.66816C13.2683 9.1726 14.3186 8.8913 15.4347 8.8913C19.0246 8.8913 21.9347 11.8014 21.9347 15.3913C21.9347 18.9811 19.0246 21.8913 15.4347 21.8913C13.8576 21.8913 12.4116 21.3296 11.2859 20.3953H0.068562C0.063703 20.1536 0.0645813 19.8619 0.068562 19.5498L0.0707513 19.3953C0.0766358 19.0153 0.086335 18.6132 0.095353 18.2392C0.106832 17.7633 0.117207 17.3331 0.117207 17.0527C0.255152 16.6523 0.250758 16.3822 0.247435 16.178C0.242013 15.8448 0.239443 15.6869 0.862629 15.4237C1.29957 15.2396 1.75538 15.0437 2.21494 14.8462L2.21596 14.8457L2.21611 14.8457C2.91693 14.5445 3.62641 14.2396 4.2909 13.9668C4.50043 13.9101 4.70997 13.8528 4.9195 13.7955L5.23401 13.7096C5.57116 13.4773 5.90193 12.7609 6.1107 12.3088L6.1107 12.3087C6.13425 12.2578 6.15624 12.2101 6.17651 12.1669L6.62283 12.0587C6.61257 12.0014 6.59974 11.9494 6.58482 11.9019C6.51489 11.6794 6.39902 11.5547 6.28616 11.4332C6.2587 11.4037 6.23142 11.3743 6.20502 11.3438C6.15808 11.2895 6.11393 11.2315 6.07653 11.1622C6.05848 11.1287 6.042 11.0926 6.02754 11.0529L5.96714 10.417L5.96703 10.4158L5.95935 10.3348C5.79632 10.2033 5.63141 9.89741 5.47777 9.5135C5.44985 9.44373 5.42231 9.3714 5.39521 9.29706L5.39354 9.29249L5.39258 9.28985C5.04882 8.34413 4.77817 7.07948 4.74209 6.68217C4.73177 6.56842 4.78944 6.46291 4.85471 6.34351C4.95099 6.16737 5.0638 5.96099 4.9993 5.65332C4.36083 2.63002 5.27536 1.21566 6.71951 0.746235C7.72221 0.340047 9.59506 -0.413346 11.342 0.661106L11.775 1.06243L12.4767 1.18343C12.8281 1.38653 13.0525 2.05966 13.0525 2.05966L13.0599 2.08931C13.2379 2.80512 13.2554 2.87562 13.2386 3.62907C13.2364 3.72661 13.2163 3.94135 13.1922 4.2001ZM11.283 10.1857C11.2779 10.278 11.2741 10.3469 11.2704 10.4003C9.84291 11.5926 8.93475 13.3859 8.93475 15.3913C8.93475 16.9016 9.44987 18.2917 10.314 19.3953H1.07032C1.07591 19.0466 1.08501 18.6813 1.09372 18.332L1.09372 18.332C1.10409 17.916 1.11389 17.5226 1.11652 17.2067C1.21307 16.8665 1.24298 16.5557 1.25026 16.3455L1.25163 16.345C1.7034 16.1545 2.16424 15.9565 2.62494 15.7584L2.62531 15.7583L2.62548 15.7582L2.62574 15.7581L2.62576 15.7581L2.62582 15.758C3.29806 15.4691 3.97001 15.1803 4.61308 14.9155C4.8036 14.8639 4.99473 14.8116 5.18474 14.7597L5.49713 14.6743L5.66121 14.6296L5.80128 14.5331C6.02882 14.3764 6.19996 14.1719 6.31846 14.01C6.44436 13.8379 6.5553 13.6515 6.64878 13.4801C6.73145 13.3286 6.81009 13.1704 6.87947 13.0254L7.77305 12.8087L7.60717 11.8824C7.56385 11.6405 7.48844 11.4283 7.38426 11.2385C7.28207 11.0524 7.16738 10.9162 7.08521 10.8249L7.00151 10.7319L6.98554 10.5637C7.01017 10.4471 7.00953 10.3496 7.00937 10.3255L7.00935 10.3228C7.00903 10.2412 7.001 10.1574 6.99519 10.1027C6.98201 9.97868 6.95976 9.82282 6.93826 9.6814C6.91618 9.53612 6.89246 9.39025 6.87445 9.28088L6.85245 9.14777L6.84665 9.11178L6.84648 9.11073C6.84643 9.1104 6.84641 9.11024 6.8464 9.11024C6.84638 9.11025 6.84964 9.13236 6.85214 9.15817L6.42832 9.1964C6.32919 8.95663 6.22819 8.65853 6.13301 8.33493C5.94873 7.70846 5.81627 7.09182 5.76245 6.76735C5.77181 6.74988 5.78159 6.73138 5.79092 6.71325C5.92267 6.45716 6.09887 6.02454 5.97802 5.44812L5.97772 5.4467C5.68115 4.04237 5.77941 3.15954 6.00146 2.62679C6.20618 2.13561 6.55185 1.85224 7.02865 1.69725L7.06224 1.68634L7.09497 1.67307C8.13319 1.2525 9.49576 0.755791 10.7399 1.46649L11.0952 1.79581L11.3127 1.99747L11.605 2.04788L11.9847 2.11335C11.9922 2.12682 12 2.14125 12.0079 2.1566C12.0395 2.21784 12.0655 2.2778 12.0836 2.32288L12.0944 2.3506C12.183 2.70765 12.2133 2.83579 12.229 2.9611C12.2442 3.08208 12.2475 3.21886 12.2388 3.60643V3.60646L12.2385 3.61391L12.2374 3.63562C12.2362 3.6543 12.2345 3.67813 12.2322 3.70763C12.2276 3.76696 12.2211 3.84051 12.2132 3.92728L12.1969 4.10273C12.1845 4.23599 12.1706 4.38501 12.1577 4.53277C12.1239 4.92083 12.0784 5.48149 12.1144 5.8111L12.1144 5.81146C12.1438 6.07976 12.202 6.2928 12.309 6.50424C12.342 6.56956 12.3817 6.63709 12.402 6.67164L12.4104 6.68614C12.4316 6.72257 12.4481 6.75225 12.4661 6.78973L12.4507 7.85092C12.4321 7.95236 12.4038 8.07157 12.3687 8.17792C12.358 8.21061 12.3475 8.23911 12.3378 8.26332L12.312 8.27662L12.2993 8.28315C12.1589 8.35528 11.7892 8.54531 11.5591 8.96846C11.3272 9.39389 11.3016 9.85242 11.2881 10.0948L11.288 10.0962L11.283 10.1857V10.1857ZM12.4661 6.78973C12.493 6.84635 12.5249 6.97038 12.5237 7.18744C12.5226 7.39632 12.4918 7.62504 12.4507 7.85081L12.4661 6.78973ZM11.9114 2.00225C11.9094 2.00009 11.9085 1.99912 11.9085 1.99918L11.9101 2.001L11.9114 2.00225ZM15.4347 20.8913C18.4723 20.8913 20.9347 18.4289 20.9347 15.3913C20.9347 12.3537 18.4723 9.8913 15.4347 9.8913C12.3972 9.8913 9.93475 12.3537 9.93475 15.3913C9.93475 18.4289 12.3972 20.8913 15.4347 20.8913ZM18.4804 12.43C18.3943 12.3442 18.2782 12.2953 18.1567 12.2939H16.368C16.1102 12.2939 15.9076 12.5041 15.9076 12.7533V14.5388C15.9076 14.6609 15.9561 14.778 16.0424 14.8643C16.1288 14.9507 16.2459 14.9992 16.368 14.9992C16.4901 14.9992 16.6072 14.9507 16.6936 14.8643C16.7799 14.778 16.8285 14.6609 16.8285 14.5388V13.7609C17.4384 14.1812 17.8241 14.9039 17.7634 15.7088C17.7285 16.2733 17.4742 16.8017 17.0549 17.1813C16.6357 17.5608 16.0846 17.7614 15.5195 17.7402C14.9543 17.7189 14.4199 17.4776 14.0303 17.0677C13.6406 16.6578 13.4267 16.1118 13.4341 15.5463C13.4348 15.1067 13.5694 14.6777 13.82 14.3165C14.0707 13.9553 14.4255 13.6791 14.8372 13.5247C14.9695 13.4746 15.077 13.3748 15.1367 13.2465C15.1964 13.1182 15.2035 12.9716 15.1565 12.8381C15.1095 12.7046 15.0122 12.5948 14.8853 12.5322C14.7584 12.4696 14.612 12.4591 14.4775 12.503C13.8334 12.7384 13.2809 13.1725 12.8998 13.7426C12.5187 14.3126 12.3287 14.9891 12.3572 15.6742C12.3932 16.4894 12.7332 17.2615 13.3101 17.8386C13.887 18.4157 14.659 18.7559 15.4742 18.7922C15.9116 18.8103 16.3482 18.7398 16.7576 18.5848C17.1671 18.4298 17.5409 18.1936 17.8567 17.8904C18.1725 17.5871 18.4237 17.2231 18.5951 16.8203C18.7666 16.4175 18.8548 15.9841 18.8544 15.5463C18.8544 14.6265 18.4752 13.802 17.8718 13.2138H18.1567C18.4146 13.2138 18.6172 13.0036 18.6172 12.7533C18.6155 12.6318 18.5664 12.5158 18.4804 12.43Z"
          fill="#075AA0"/>
</svg>
