<svg width="20" height="20" viewBox="0 0 20 20" fill="#2493E5" xmlns="http://www.w3.org/2000/svg">
    <path d="M9.54.718 1.338 4.234c-.513.22-.798.77-.685 1.312.114.542.59.937 1.146.937v.293c0 .487.392.88.88.88h14.646a.877.877 0 0 0 .879-.88v-.293a1.172 1.172 0 0 0 .461-2.249L10.463.718a1.186 1.186 0 0 0-.923 0zm-4.225 8.11H2.97v7.189c-.022.01-.044.025-.066.04l-1.757 1.172c-.429.285-.623.82-.473 1.315.15.494.608.831 1.124.831h16.405a1.17 1.17 0 0 0 .648-2.146l-1.758-1.172c-.022-.015-.044-.026-.066-.04v-7.19h-2.34v7.032h-1.464V8.827H10.88v7.032H9.123V8.827H6.779v7.032H5.315V8.827zm4.687-3.517A1.17 1.17 0 0 1 8.83 4.14a1.17 1.17 0 1 1 2.343 0 1.17 1.17 0 0 1-1.171 1.172z" fill-rule="evenodd"/>
</svg>
