<svg width="32" height="32" viewBox="0 0 32 32" fill="none" xmlns="http://www.w3.org/2000/svg">
    <path fill-rule="evenodd" clip-rule="evenodd" d="M12.754 31.9623C13.0928 31.9007 13.4137 31.7646 13.6936 31.5639C14.3661 31.082 15.1727 30.8229 16 30.8229C16.8273 30.8229 17.6339 31.082 18.3064 31.5639C18.5863 31.7646 18.9072 31.9007 19.246 31.9623C19.5848 32.024 19.9331 32.0098 20.2658 31.9207C20.5984 31.8315 20.9071 31.6697 21.1697 31.4469C21.4323 31.2241 21.6422 30.9458 21.7843 30.6321C22.1256 29.8783 22.6946 29.2503 23.4112 28.8365C24.1279 28.4227 24.9561 28.2438 25.7797 28.325C26.1223 28.3588 26.4682 28.3162 26.7924 28.2002C27.1167 28.0843 27.4111 27.8979 27.6546 27.6544C27.8981 27.411 28.0846 27.1166 28.2007 26.7924C28.3167 26.4682 28.3594 26.1224 28.3257 25.7797C28.2445 24.9562 28.4233 24.128 28.8369 23.4114C29.2506 22.6948 29.8784 22.1258 30.6321 21.7843C30.9458 21.6422 31.2241 21.4323 31.4469 21.1697C31.6697 20.9071 31.8315 20.5984 31.9207 20.2658C32.0098 19.9331 32.024 19.5848 31.9623 19.246C31.9007 18.9072 31.7646 18.5863 31.5639 18.3064C31.082 17.6339 30.8229 16.8273 30.8229 16C30.8229 15.1727 31.082 14.3661 31.5639 13.6936C31.7646 13.4137 31.9007 13.0928 31.9623 12.754C32.024 12.4152 32.0098 12.0669 31.9207 11.7342C31.8315 11.4016 31.6697 11.0929 31.4469 10.8303C31.2241 10.5677 30.9458 10.3578 30.6321 10.2157C29.8783 9.87436 29.2503 9.30538 28.8365 8.58875C28.4227 7.87212 28.2438 7.04385 28.325 6.22031C28.3588 5.87765 28.3162 5.53177 28.2002 5.20756C28.0843 4.88335 27.8979 4.58888 27.6544 4.34538C27.411 4.10187 27.1166 3.91539 26.7924 3.79935C26.4682 3.68331 26.1224 3.64061 25.7797 3.67433C24.9562 3.75553 24.128 3.57674 23.4114 3.16305C22.6948 2.74937 22.1258 2.12159 21.7843 1.3679C21.6422 1.05419 21.4323 0.775903 21.1697 0.553084C20.9071 0.330266 20.5984 0.168464 20.2658 0.0793364C19.9331 -0.00979155 19.5848 -0.0240262 19.246 0.0376578C18.9072 0.0993419 18.5863 0.235409 18.3064 0.436055C17.6339 0.917955 16.8273 1.1771 16 1.1771C15.1727 1.1771 14.3661 0.917955 13.6936 0.436055C13.4137 0.235409 13.0928 0.0993419 12.754 0.0376578C12.4152 -0.0240262 12.0669 -0.00979155 11.7342 0.0793364C11.4016 0.168464 11.0929 0.330266 10.8303 0.553084C10.5677 0.775903 10.3578 1.05419 10.2157 1.3679C9.87436 2.12172 9.30538 2.74966 8.58875 3.16347C7.87212 3.57729 7.04385 3.75619 6.22031 3.67504C5.87765 3.64123 5.53177 3.68383 5.20756 3.79978C4.88335 3.91573 4.58888 4.10213 4.34538 4.34557C4.10187 4.589 3.91539 4.88341 3.79935 5.20759C3.68331 5.53177 3.64061 5.87765 3.67433 6.22031C3.75553 7.04377 3.57674 7.87198 3.16305 8.5886C2.74937 9.30522 2.12159 9.87425 1.3679 10.2157C1.05419 10.3578 0.775903 10.5677 0.553084 10.8303C0.330266 11.0929 0.168464 11.4016 0.0793364 11.7342C-0.00979155 12.0669 -0.0240262 12.4152 0.0376578 12.754C0.0993419 13.0928 0.235409 13.4137 0.436055 13.6936C0.917955 14.3661 1.1771 15.1727 1.1771 16C1.1771 16.8273 0.917955 17.6339 0.436055 18.3064C0.235409 18.5863 0.0993419 18.9072 0.0376578 19.246C-0.0240262 19.5848 -0.00979155 19.9331 0.0793364 20.2658C0.168464 20.5984 0.330266 20.9071 0.553084 21.1697C0.775903 21.4323 1.05419 21.6422 1.3679 21.7843C2.12172 22.1256 2.74966 22.6946 3.16347 23.4112C3.57729 24.1279 3.75619 24.9561 3.67504 25.7797C3.64123 26.1223 3.68383 26.4682 3.79978 26.7924C3.91573 27.1167 4.10213 27.4111 4.34557 27.6546C4.589 27.8981 4.88341 28.0846 5.20759 28.2007C5.53177 28.3167 5.87765 28.3594 6.22031 28.3257C7.04377 28.2445 7.87198 28.4233 8.5886 28.8369C9.30522 29.2506 9.87425 29.8784 10.2157 30.6321C10.3578 30.9458 10.5677 31.2241 10.8303 31.4469C11.0929 31.6697 11.4016 31.8315 11.7342 31.9207C12.0669 32.0098 12.4152 32.024 12.754 31.9623ZM23.4263 12.8778C25.4167 12.0654 26.8282 13.3178 27.2852 14.0456L25.965 15.2642C25.8465 15.0442 25.5588 14.6549 25.0003 14.401C24.0864 14.1979 24.0525 14.8749 24.2387 15.1626C25.2542 15.9412 26.9297 17.3967 27.2852 18.1583C27.6913 19.123 27.1328 21.3571 24.8988 21.5094C23.1115 21.6313 22.1569 20.2401 21.9031 19.5292L23.3755 18.6661C23.4075 18.6981 23.444 18.7357 23.4844 18.7773C23.8284 19.1319 24.455 19.7778 25.0003 19.7323C25.8533 19.5699 25.5927 18.8522 25.3557 18.5137C25.0511 18.2091 24.1981 17.4069 23.2232 16.6351C22.0046 15.6704 21.9031 13.741 23.4263 12.8778ZM11.2399 14.4012C10.4952 13.5042 8.54886 11.8625 5.35008 13.1318C2.1513 14.4012 2.20208 19.9356 5.5024 21.1542C8.34577 22.204 10.1736 21.0526 11.2399 19.9356L9.97056 18.5647C9.32406 19.3094 7.52534 20.423 5.5024 18.9201C4.08074 17.4476 4.79157 14.5027 7.53339 14.4012C8.58949 14.4012 9.59821 15.1797 9.97056 15.569L11.2399 14.4012ZM11.7467 21.3064L13.1684 12.7763H14.9455L16.7733 18.26L18.5504 12.7763H20.2768L21.6984 21.3064H19.9213L19.109 16.5844L17.4842 21.3064H15.9102L14.3362 16.5844L13.473 21.3064H11.7467Z" fill="#56BCE3"/>
</svg>
