<svg width="20" height="20" viewBox="0 0 20 20" fill="#2493E5" xmlns="http://www.w3.org/2000/svg">
    <path d="M10 3.125c-.253 0-.503.043-.74.126L.494 6.359A.74.74 0 0 0 0 7.053c0 .31.197.586.494.693l1.81.642A4.985 4.985 0 0 0 1.5 11.1v.863c0 .871-.337 1.77-.696 2.479A8.106 8.106 0 0 1 .1 15.596a.487.487 0 0 0 .279.773l2 .491c.13.034.271.01.387-.061a.48.48 0 0 0 .222-.32 7.772 7.772 0 0 0-.066-3.335c-.1-.436-.234-.88-.422-1.289V11.1c0-.926.32-1.801.872-2.5.403-.476.925-.86 1.538-1.096L9.816 5.61a.502.502 0 0 1 .647.276.487.487 0 0 1-.282.635L5.275 8.415c-.387.15-.728.38-1.006.663l4.988 1.768a2.247 2.247 0 0 0 1.48 0l8.77-3.1A.737.737 0 0 0 20 7.053a.74.74 0 0 0-.494-.694l-8.765-3.108a2.247 2.247 0 0 0-.74-.126zM4 14.663c0 1.083 2.688 2.21 6 2.21 3.313 0 6-1.127 6-2.21l-.478-4.462-4.444 1.577a3.235 3.235 0 0 1-2.156 0l-4.444-1.577L4 14.663z" fill-rule="evenodd"/>
</svg>
