<svg width="20" height="20" viewBox="0 0 20 20" fill="#2493E5" xmlns="http://www.w3.org/2000/svg">
    <path d="M17.5 0c-.625 0-5 1.25-5 6.875v4.375c0 1.379 1.121 2.5 2.5 2.5h1.25v5c0 .691.559 1.25 1.25 1.25s1.25-.559 1.25-1.25V1.25C18.75.559 18.191 0 17.5 0zM3.75.625a.623.623 0 0 0-.559-.621.622.622 0 0 0-.675.484L1.332 5.813a3.438 3.438 0 0 0 3.043 4.171v8.766c0 .691.559 1.25 1.25 1.25s1.25-.559 1.25-1.25V9.984a3.44 3.44 0 0 0 3.043-4.171L8.734.487A.625.625 0 0 0 7.5.625v5.242a.383.383 0 0 1-.766.031L6.246.57A.622.622 0 0 0 5.625 0a.622.622 0 0 0-.621.57L4.52 5.898a.383.383 0 0 1-.766-.031V.625H3.75zm1.935 5.99h-.06l.03-.07.03.07z" fill-rule="evenodd"/>
</svg>
