<svg width="20" height="20" viewBox="0 0 20 20" fill="#2493E5" xmlns="http://www.w3.org/2000/svg">
    <path d="M19.4 17.054c.331 0 .6.264.6.589C20 18.944 18.925 20 17.6 20H2.4C1.075 20 0 18.944 0 17.643c0-.325.269-.59.6-.59zM16 6.25c1.103 0 2 .88 2 1.964v7.857h-2V8.214H4v7.857H2V8.214c0-1.083.897-1.964 2-1.964zM7.724 8.77c-.096.263-.145.54-.145.82v.249c0 .857.459 1.648 1.204 2.077a2.415 2.415 0 0 0 2.407 0 2.397 2.397 0 0 0 1.203-2.077V9.59c0-.28-.049-.558-.145-.82h2.03a.598.598 0 0 1 .57.593v.708a.6.6 0 0 1-.598.597h-.613c-.077.34-.201.668-.37.973l.404.399a.595.595 0 0 1 0 .842l-.488.496a.602.602 0 0 1-.847 0l-.372-.372a3.693 3.693 0 0 1-1.011.437v.506a.601.601 0 0 1-.599.596h-.706a.601.601 0 0 1-.6-.596v-.5a3.697 3.697 0 0 1-1.02-.433l-.363.362a.6.6 0 0 1-.844 0l-.498-.496a.595.595 0 0 1 0-.842l.39-.39c-.173-.31-.3-.643-.377-.988h-.588a.6.6 0 0 1-.597-.597v-.702a.598.598 0 0 1 .57-.594h2.003zm3.7.007c.168.264.256.57.255.882 0 .924-.752 1.673-1.68 1.673-.927 0-1.68-.749-1.68-1.673 0-.312.088-.618.255-.882h2.85zm4.066-5.918c.487.092.838.52.83 1.014a1.022 1.022 0 0 1-1.988.32h-.987v1.55h-.695V3.846A.345.345 0 0 1 13 3.499h1.344c.176-.463.66-.733 1.147-.64zM5.664 4.087h1.155c.092 0 .181.037.246.102a.348.348 0 0 1 .096.247v1.307h-.698v-.96h-.8a1.023 1.023 0 0 1-1.982-.348 1.023 1.023 0 0 1 1.983-.348zM5.385.625c.453.002.851.3.977.735h2.347a.347.347 0 0 1 .348.348v4.035H8.36v-3.69H6.316a1.023 1.023 0 0 1-1.948-.55A1.02 1.02 0 0 1 5.38.625zm5.657.016a1.018 1.018 0 0 1 .35 1.977v3.125h-.698V2.618a1.018 1.018 0 0 1 .348-1.977z" fill-rule="evenodd"/>
</svg>
