<svg width="21" height="20" viewBox="0 0 21 20" fill="#2493E5" xmlns="http://www.w3.org/2000/svg">
    <path d="M8.403 1.475v1.982H6.458a.84.84 0 0 0-.833.85v1.699c0 .47.372.85.833.85h1.945v1.982c0 .47.371.85.833.85h1.667a.84.84 0 0 0 .833-.85V6.855h1.945a.84.84 0 0 0 .833-.85V4.308a.84.84 0 0 0-.833-.85h-1.945V1.475a.84.84 0 0 0-.833-.85H9.236a.84.84 0 0 0-.833.85zm11.656 13.034c.618-.464.75-1.349.295-1.979a1.37 1.37 0 0 0-1.94-.3l-4.157 3.122H10.07a.563.563 0 0 1-.556-.567c0-.311.25-.566.556-.566h2.777a1.12 1.12 0 0 0 1.111-1.133 1.12 1.12 0 0 0-1.11-1.133H7.35c-1.01 0-1.989.35-2.777.991l-1.56 1.275H1.737a1.12 1.12 0 0 0-1.111 1.133v2.265a1.12 1.12 0 0 0 1.111 1.133H12.865c1.007 0 1.99-.33 2.802-.938l4.396-3.303h-.004zm-12.74-.258h.09-.09z" fill-rule="evenodd"/>
</svg>
