<svg width="20" height="20" viewBox="0 0 20 20" fill="#2493E5" xmlns="http://www.w3.org/2000/svg">
    <path d="M2.188 1.875c-.863 0-1.563.709-1.563 1.582v6.856h4.688c.286 0 .52.237.52.527 0 .29-.234.527-.52.527H.625v2.11h4.688c.286 0 .52.237.52.527 0 .29-.234.527-.52.527H.625v2.637c0 .873.7 1.582 1.563 1.582H9.28a2.212 2.212 0 0 1-.323-1.157 4.13 4.13 0 0 1 2.084-3.599V3.457c0-.873-.7-1.582-1.563-1.582H2.188zm3.385 2.11h.52c.287 0 .522.237.522.527v.79h.78c.287 0 .522.238.522.528v.527c0 .29-.235.528-.521.528h-.781v.79c0 .29-.235.528-.521.528h-.521a.526.526 0 0 1-.52-.527v-.791H4.27a.526.526 0 0 1-.521-.528V5.83c0-.29.234-.527.52-.527h.782v-.791c0-.29.234-.528.52-.528zm11.719 6.855c0-1.457-1.166-2.637-2.605-2.637-1.438 0-2.604 1.18-2.604 2.637s1.166 2.637 2.604 2.637c1.44 0 2.605-1.18 2.605-2.637zM10 17.6c0 .636.508 1.15 1.136 1.15h7.103c.628 0 1.136-.514 1.136-1.15 0-1.694-1.357-3.069-3.03-3.069H13.03C11.357 14.531 10 15.906 10 17.6z" fill-rule="evenodd"/>
</svg>
