<svg width="20" height="20" viewBox="0 0 20 20" fill="#2493E5" xmlns="http://www.w3.org/2000/svg">
    <path d="M10.018 1.25c.243 0 .521.068.73.24l3.698 3.202V3.437c0-.604.496-1.093 1.11-1.093h1.112c.615 0 1.111.489 1.111 1.094v4.135l1.834 1.59c.278.239.416.512.382.82 0 .619-.521 1.097-1.111 1.097v-.003h-1.112l.025 5.475c0 .096-.007.188-.018.277v.554c0 .755-.621 1.367-1.389 1.367h-.555c-.039 0-.077 0-.115-.003-.049.003-.097.003-.146.003h-1.962a1.378 1.378 0 0 1-1.389-1.367v-3.008c0-.605-.496-1.094-1.11-1.094H8.89c-.615 0-1.112.489-1.112 1.094v3.008c0 .755-.621 1.367-1.389 1.367H4.445c-.052 0-.104-.003-.156-.007-.042.004-.084.007-.125.007h-.556a1.378 1.378 0 0 1-1.39-1.367v-3.825c0-.034 0-.065.004-.096V11.08h-1.11A1.091 1.091 0 0 1 0 9.983c0-.308.104-.581.347-.82l8.907-7.64c.243-.239.521-.273.764-.273zm.538 3.452h-1.11a.553.553 0 0 0-.556.547v1.64H7.223a.553.553 0 0 0-.556.548V8.53c0 .301.25.547.556.547H8.89v1.64c0 .302.25.548.555.548h1.111a.553.553 0 0 0 .556-.547v-1.64h1.667a.553.553 0 0 0 .555-.548V7.437c0-.301-.25-.547-.555-.547h-1.667V5.249c0-.3-.25-.547-.556-.547z" fill-rule="evenodd"/>
</svg>
