<svg width="20" height="20" viewBox="0 0 20 20" fill="#2493E5" xmlns="http://www.w3.org/2000/svg">
    <path d="M7.363 3h5.274c.16 0 .293.131.293.292V4.75H7.07V3.292c0-.16.132-.292.293-.292zm-2.05.292V4.75H2.969A2.34 2.34 0 0 0 .625 7.083v9.334a2.34 2.34 0 0 0 2.344 2.333H17.03a2.34 2.34 0 0 0 2.344-2.333V7.083a2.34 2.34 0 0 0-2.344-2.333h-2.343V3.292c0-1.127-.92-2.042-2.051-2.042H7.363c-1.131 0-2.05.915-2.05 2.042zm3.515 5.541c0-.32.264-.583.586-.583h1.172c.322 0 .586.262.586.583v1.75h1.758c.322 0 .586.263.586.584v1.166c0 .321-.264.584-.586.584h-1.758v1.75c0 .32-.264.583-.586.583H9.414a.586.586 0 0 1-.586-.583v-1.75H7.07a.586.586 0 0 1-.586-.584v-1.166c0-.321.264-.584.586-.584h1.758v-1.75z" fill-rule="evenodd"/>
</svg>
