<svg width="20" height="20" viewBox="0 0 20 20" fill="#2493E5" xmlns="http://www.w3.org/2000/svg">
    <path d="M18.75 7.5c.691 0 1.25.56 1.25 1.25 0 .692-.559 1.25-1.25 1.25 0 3.223-1.695 5.77-4.836 6.883.434.547.758 1.184.934 1.879.168.668-.407 1.238-1.098 1.238h-7.5c-.691 0-1.266-.57-1.094-1.238.176-.695.5-1.336.934-1.879-3.145-1.113-4.84-3.66-4.84-6.882C.559 10 0 9.442 0 8.75 0 8.059.559 7.5 1.25 7.5zm-8.125 1.485h-1.25a.627.627 0 0 0-.625.625v1.875H6.875a.627.627 0 0 0-.625.625v1.25c0 .343.281.625.625.625H8.75v1.875c0 .343.281.625.625.625h1.25a.627.627 0 0 0 .625-.625v-1.875h1.875a.627.627 0 0 0 .625-.625v-1.25a.627.627 0 0 0-.625-.625H11.25V9.61a.627.627 0 0 0-.625-.625zM18.008.243a1.254 1.254 0 0 1 1.691.192 1.252 1.252 0 0 1-.066 1.699L15.52 6.25H9.855z" fill-rule="evenodd"/>
</svg>
