<svg width="124" height="108" viewBox="0 0 124 108" fill="none" xmlns="http://www.w3.org/2000/svg">
    <g clip-path="url(#clip0_93_444)">
        <path d="M88.5472 92.0417L106.994 106.535V29.9049L106.849 28.8179L106.447 27.8517L105.786 26.9821L104.909 26.3138L103.942 25.9112L102.855 25.7662H28.2945L27.1672 25.9273L26.201 26.3299L25.3636 26.974L24.7113 27.8195L24.3087 28.7857L24.1558 29.9049V87.895L24.3087 89.0223L24.7113 89.9885L25.3636 90.8259L26.201 91.4781L27.1672 91.8807L28.2945 92.0417H88.5472Z" fill="#E2E5F1" fill-opacity="0.8"/>
        <path d="M45.0828 80.3664L48.4646 78.4098L50.4212 81.7916L16.595 101.318L14.6464 97.9358L18.0282 95.9872L11.1921 84.1508L10.0005 81.5501L9.30798 78.9251L9.09863 76.2519L9.34824 73.5786L10.0246 71.0423L11.1519 68.6025L12.6656 66.3883L14.574 64.4638L16.909 62.8132L19.5098 61.6135L22.1347 60.929L24.808 60.7197L27.4812 60.9613L30.0176 61.6457L32.4573 62.7649L34.6716 64.2867L36.596 66.195L38.2467 68.5301L45.0828 80.3664ZM30.388 97.8713L40.5334 92.0095L42.49 95.3913L32.3365 101.253L30.388 97.8713Z" fill="#4991DF"/>
        <path d="M119.475 83.5309L118.291 83.3618L117.269 82.935L116.383 82.2506L115.69 81.3569L115.264 80.3423L115.103 79.1506L115.264 77.967L115.69 76.9444L116.383 76.0587L117.269 75.3662L118.291 74.9394L119.475 74.7784L120.666 74.9394L121.689 75.3662L122.575 76.0587L123.259 76.9444L123.686 77.967L123.855 79.1506L123.678 80.3343L123.251 81.3569L122.567 82.2426L121.681 82.927L120.658 83.3537L119.475 83.5309ZM119.475 76.2761L118.347 76.5096L117.446 77.1215L116.834 78.0233L116.6 79.1506L116.834 80.2779L117.446 81.1797L118.347 81.7917L119.475 82.0252L120.602 81.7917L121.512 81.1797L122.124 80.2779L122.349 79.1506L122.116 78.0314L121.504 77.1215L120.602 76.5096L119.475 76.2761Z" fill="#A4BFFF" fill-opacity="0.8"/>
        <path d="M49.1249 12.5288L62.7407 33.9309L63.0709 34.2529L63.5057 34.3979L64.029 34.3254L64.3511 34.1L69.4883 28.9145L69.9955 28.6568L70.5592 28.7535L75.4709 31.3301L75.9057 31.4509L76.3566 31.3623L76.6626 31.161L76.9685 30.6135L76.9122 29.9854L74.9475 25.3556L74.6093 24.8322L74.1181 24.4537L54.9948 14.3727L76.6465 21.3537L76.8961 21.3618L77.1135 21.241L81.8078 16.4984L82.1057 15.9992L82.0574 15.4195L81.7353 14.9444L81.1958 14.735L50.1314 10.9345L49.5919 10.9989L49.1249 11.4015L48.9478 11.9652L49.1249 12.5288Z" fill="#CED3E0"/>
        <path d="M82.0815 30.227L83.7885 31.0483L88.0158 33.2384L93.4106 36.3706L96.1563 38.1742L98.6282 40.0262L100.826 41.9989L102.324 43.7945L103.025 45.0748L103.274 46.2101L103.153 47.2488L102.445 48.6901L101.672 49.5436L100.826 49.9784L99.8602 50.1153L98.9423 49.9784L98.0405 49.5516L97.2594 48.9075L96.7038 48.1506L96.3415 47.2407L96.269 46.3067L96.5508 45.3566L97.2594 44.342L98.2901 43.5771L99.4979 43.1181L100.947 42.9571L102.405 43.1181L103.91 43.6093L105.497 44.4709L106.89 45.5981L108.178 47.1119L109.353 49.0766L110.191 51.2023L110.746 53.8111L110.972 56.9916L110.875 59.5682L110.537 62.2817L109.933 65.1402L109.08 67.9261L107.872 70.7926L106.278 73.7477L104.401 76.5256L102.026 79.3438L99.1114 82.2022L95.9469 84.7788L92.1223 87.3394L87.5568 89.8918L82.8223 92.0739L77.2423 94.1835L70.7202 96.1884" stroke="#C2C8D8" stroke-opacity="0.8" stroke-dasharray="2 2"/>
        <path d="M24.2366 47.8769L17.5776 41.2179L24.2366 34.5589L30.8875 41.2179L24.2366 47.8769ZM19.9046 41.2179L24.301 45.6143L28.6893 41.2179L24.301 36.8215L19.9046 41.2179Z" fill="#C2C8D8" fill-opacity="0.8"/>
        <path d="M92.1787 13.7286L91.607 13.487L91.3735 12.9234V11.1278H89.586L89.0143 10.8943L88.7808 10.3226V10.2018L89.0143 9.63013L89.586 9.39662H91.3735V7.60909L91.607 7.0374L92.1787 6.80389H92.2995L92.8711 7.0374L93.1047 7.60909V9.39662H94.9002L95.4639 9.63013L95.7054 10.2018V10.3226L95.4639 10.8943L94.9002 11.1278H93.1047V12.9234L92.8711 13.487L92.2995 13.7286H92.1787Z" fill="#417AFF" fill-opacity="0.8"/>
        <path d="M53.8919 108.089L53.3202 107.848L53.0867 107.284V104.369H50.1719L49.6002 104.128L49.3667 103.564V102.686L49.6002 102.123L50.1719 101.881H53.0867V98.9745L53.3202 98.4028L53.8919 98.1693H54.7615L55.3251 98.4028L55.5667 98.9745V101.881H58.4815L59.0451 102.123L59.2867 102.686V103.564L59.0451 104.128L58.4815 104.369H55.5667V107.284L55.3251 107.856L54.7615 108.089H53.8919Z" fill="#C2C8D8" fill-opacity="0.8"/>
        <path d="M12.5689 24.7436L11.9972 24.5101L11.7637 23.9384V21.8771H9.71047L9.13878 21.6436L8.90527 21.0719V20.774L9.13878 20.2023L9.71047 19.9688H11.7637V17.9156L11.9972 17.3439L12.5689 17.1104H12.8668L13.4385 17.3439L13.672 17.9156V19.9688H15.7333L16.305 20.2023L16.5385 20.774V21.0719L16.305 21.6436L15.7333 21.8771H13.672V23.9384L13.4385 24.5101L12.8668 24.7436H12.5689Z" fill="#F1F3F8" fill-opacity="0.8"/>
        <path d="M72.0406 62.3865L78.8767 55.5584L82.2907 58.9724L75.4546 65.8085L72.0406 62.3865ZM49.1167 58.5698L52.5307 55.1558L59.3588 61.9839L55.9448 65.4059L49.1167 58.5698ZM63.2881 60.3896V50.7272H68.1193V60.3896H63.2881Z" fill="white" fill-opacity="0.8"/>
    </g>
    <defs>
        <clipPath id="clip0_93_444">
            <rect width="124" height="107.896" fill="white"/>
        </clipPath>
    </defs>
</svg>
