<svg width="231" height="51" viewBox="0 0 231 51" fill="none" xmlns="http://www.w3.org/2000/svg">
    <g clip-path="url(#clip0_8583_13370)">
        <path d="M99.8923 34.8372L79.4733 13.4361V34.3677H74.7894V2.05566H75.1671L95.5808 23.4568V2.52513H100.265V34.8372H99.8923Z"
              fill="#474B55"/>
        <path d="M133.721 30.126C130.567 33.1188 126.386 34.7873 122.038 34.7873C117.691 34.7873 113.509 33.1188 110.356 30.126C107.186 27.025 105.602 23.1308 105.602 18.4434C105.602 13.7559 107.186 9.86169 110.356 6.76071C113.51 3.77033 117.692 2.10352 122.038 2.10352C126.385 2.10352 130.566 3.77033 133.721 6.76071C136.894 9.86889 138.478 13.7631 138.475 18.4434C138.471 23.1236 136.887 27.0178 133.721 30.126ZM113.96 26.8883C115.021 27.9492 116.28 28.7907 117.666 29.3649C119.052 29.939 120.538 30.2346 122.038 30.2346C123.538 30.2346 125.024 29.939 126.41 29.3649C127.796 28.7907 129.055 27.9492 130.116 26.8883C132.224 24.6543 133.278 21.8358 133.278 18.4326C133.278 15.0294 132.224 12.2126 130.116 9.98221C129.055 8.92134 127.796 8.0798 126.41 7.50566C125.024 6.93151 123.538 6.636 122.038 6.636C120.538 6.636 119.052 6.93151 117.666 7.50566C116.28 8.0798 115.021 8.92134 113.96 9.98221C111.856 12.2162 110.804 15.033 110.804 18.4326C110.804 21.8322 111.856 24.6543 113.96 26.8991V26.8883Z"
              fill="#474B55"/>
        <path d="M149.154 34.3681V6.97183H139.705V2.52539H163.632V6.97183H154.161V34.3681H149.154Z" fill="#474B55"/>
        <path d="M168.353 34.3675V2.53027H173.361V34.3675H168.353Z" fill="#474B55"/>
        <path d="M180.43 34.3676V2.53027H200.288V6.9767H185.443V16.9974H198.977V21.4492H185.443V34.3999L180.43 34.3676Z"
              fill="#474B55"/>
        <path d="M214.285 21.6763L203.191 2.52539H208.717L216.87 16.809L224.878 2.52539H230.123L219.331 21.6277V34.3681H214.318L214.285 21.6763Z"
              fill="#474B55"/>
        <path d="M39.6822 0.814453H22.8193C21.5044 0.845606 20.2554 1.39614 19.3453 2.34566C18.4352 3.29518 17.9381 4.56643 17.9627 5.88143V44.8525C17.9381 46.1675 18.4352 47.4387 19.3453 48.3882C20.2554 49.3378 21.5044 49.8883 22.8193 49.9194H39.6822C40.3356 49.9075 40.9802 49.767 41.5793 49.5058C42.1783 49.2447 42.7201 48.8681 43.1736 48.3976C43.6271 47.9271 43.9834 47.3718 44.2223 46.7635C44.4612 46.1552 44.5779 45.5058 44.5657 44.8525V5.88143C44.5779 5.22804 44.4612 4.57867 44.2223 3.97038C43.9834 3.3621 43.6271 2.80682 43.1736 2.33629C42.7201 1.86575 42.1783 1.48916 41.5793 1.22804C40.9802 0.96692 40.3356 0.826389 39.6822 0.814453ZM31.2426 47.6153C30.8157 47.6153 30.3984 47.4887 30.0435 47.2515C29.6885 47.0144 29.4118 46.6772 29.2485 46.2828C29.0851 45.8884 29.0424 45.4544 29.1256 45.0357C29.2089 44.617 29.4145 44.2324 29.7164 43.9306C30.0182 43.6287 30.4028 43.4231 30.8215 43.3398C31.2402 43.2566 31.6742 43.2993 32.0686 43.4627C32.463 43.626 32.8001 43.9027 33.0373 44.2577C33.2745 44.6126 33.4011 45.0299 33.4011 45.4568C33.4011 46.0293 33.1737 46.5783 32.7689 46.9831C32.3641 47.3879 31.8151 47.6153 31.2426 47.6153ZM42.0349 9.72889V38.4796C42.0413 38.8063 41.9834 39.1311 41.8643 39.4353C41.7452 39.7396 41.5673 40.0175 41.3408 40.253C41.1143 40.4885 40.8436 40.6771 40.5442 40.808C40.2448 40.9389 39.9225 41.0095 39.5958 41.0158H22.9218C22.5951 41.0095 22.2728 40.9389 21.9734 40.808C21.674 40.6771 21.4033 40.4885 21.1768 40.253C20.9503 40.0175 20.7725 39.7396 20.6534 39.4353C20.5343 39.1311 20.4763 38.8063 20.4827 38.4796V5.98396C20.4763 5.65726 20.5343 5.3325 20.6534 5.02822C20.7725 4.72394 20.9503 4.4461 21.1768 4.21058C21.4033 3.97506 21.674 3.78647 21.9734 3.65559C22.2728 3.5247 22.5951 3.45408 22.9218 3.44776H39.5958C39.9225 3.45408 40.2448 3.5247 40.5442 3.65559C40.8436 3.78647 41.1143 3.97506 41.3408 4.21058C41.5673 4.4461 41.7452 4.72394 41.8643 5.02822C41.9834 5.3325 42.0413 5.65726 42.0349 5.98396V9.72889Z"
              fill="#20B4E9"/>
        <path d="M56.7502 34.0119C56.4937 34.0081 56.244 33.9292 56.0319 33.7848C55.8198 33.6405 55.6547 33.4372 55.5571 33.1999C55.4595 32.9627 55.4335 32.7021 55.4825 32.4503C55.5316 32.1985 55.6534 31.9666 55.8328 31.7833C57.0859 30.5306 58.0799 29.0433 58.7581 27.4063C59.4363 25.7694 59.7853 24.0149 59.7853 22.243C59.7853 20.4711 59.4363 18.7166 58.7581 17.0796C58.0799 15.4427 57.0859 13.9553 55.8328 12.7026C55.7041 12.5832 55.6008 12.439 55.5291 12.2787C55.4573 12.1184 55.4187 11.9453 55.4154 11.7697C55.4121 11.5942 55.4443 11.4197 55.5099 11.2569C55.5756 11.094 55.6735 10.9461 55.7976 10.8219C55.9218 10.6978 56.0697 10.5999 56.2326 10.5342C56.3955 10.4685 56.5699 10.4364 56.7455 10.4397C56.921 10.443 57.0941 10.4816 57.2544 10.5534C57.4147 10.6251 57.5589 10.7284 57.6783 10.8571C60.6954 13.8782 62.39 17.9733 62.39 22.243C62.39 26.5126 60.6954 30.6077 57.6783 33.6288C57.4317 33.8709 57.1011 34.0082 56.7556 34.0119"
              fill="#20B4E9"/>
        <path d="M50.8199 28.3728C50.5622 28.373 50.3103 28.2966 50.0961 28.1534C49.8819 28.0102 49.7151 27.8065 49.6168 27.5684C49.5185 27.3302 49.4932 27.0681 49.5441 26.8155C49.595 26.5629 49.7197 26.3311 49.9026 26.1496C50.9363 25.111 51.5166 23.7054 51.5166 22.2401C51.5166 20.7748 50.9363 19.3691 49.9026 18.3306C49.7818 18.2097 49.6859 18.0663 49.6205 17.9084C49.5551 17.7506 49.5215 17.5814 49.5215 17.4105C49.5215 17.2396 49.5551 17.0705 49.6205 16.9126C49.6859 16.7547 49.7818 16.6113 49.9026 16.4905C50.0234 16.3696 50.1668 16.2738 50.3247 16.2084C50.4826 16.143 50.6518 16.1094 50.8226 16.1094C50.9935 16.1094 51.1627 16.143 51.3205 16.2084C51.4784 16.2738 51.6218 16.3696 51.7427 16.4905C53.2663 18.0171 54.1221 20.0859 54.1221 22.2428C54.1221 24.3997 53.2663 26.4684 51.7427 27.9951C51.6216 28.1161 51.4777 28.2119 51.3193 28.2767C51.1608 28.3416 50.9911 28.3742 50.8199 28.3728Z"
              fill="#20B4E9"/>
        <path d="M5.74587 34.012C5.40165 34.0122 5.0708 33.8787 4.82312 33.6396C1.81 30.6164 0.118103 26.5221 0.118103 22.2537C0.118103 17.9854 1.81 13.8911 4.82312 10.8679C4.94256 10.7391 5.08673 10.6358 5.24702 10.5641C5.40731 10.4924 5.58042 10.4537 5.75599 10.4504C5.93156 10.4471 6.10599 10.4793 6.26885 10.545C6.4317 10.6107 6.57964 10.7085 6.70381 10.8327C6.82798 10.9568 6.92583 11.1048 6.99151 11.2676C7.05719 11.4305 7.08935 11.6049 7.08607 11.7805C7.08278 11.9561 7.04412 12.1292 6.97239 12.2895C6.90066 12.4497 6.79735 12.5939 6.66862 12.7134C5.41554 13.9661 4.42153 15.4534 3.74335 17.0904C3.06517 18.7273 2.71611 20.4819 2.71611 22.2537C2.71611 24.0256 3.06517 25.7801 3.74335 27.4171C4.42153 29.0541 5.41554 30.5414 6.66862 31.7941C6.8526 31.9753 6.97822 32.2073 7.02938 32.4604C7.08053 32.7135 7.05487 32.9761 6.95568 33.2144C6.8565 33.4528 6.68833 33.6561 6.47276 33.7982C6.25718 33.9403 6.00405 34.0148 5.74587 34.012Z"
              fill="#20B4E9"/>
        <path d="M11.6816 28.3725C11.5105 28.3733 11.341 28.3404 11.1826 28.2756C11.0243 28.2108 10.8803 28.1154 10.7589 27.9948C9.23486 26.4672 8.37897 24.3976 8.37897 22.2398C8.37897 20.082 9.23486 18.0123 10.7589 16.4848C11.0036 16.2408 11.3352 16.104 11.6808 16.1045C12.0264 16.105 12.3577 16.2428 12.6017 16.4875C12.8457 16.7322 12.9825 17.0639 12.982 17.4094C12.9815 17.755 12.8437 18.0863 12.599 18.3303C11.5626 19.3674 10.9805 20.7736 10.9805 22.2398C10.9805 23.706 11.5626 25.1121 12.599 26.1493C12.7199 26.2701 12.8158 26.4135 12.8812 26.5714C12.9467 26.7292 12.9803 26.8985 12.9803 27.0693C12.9803 27.2402 12.9467 27.4094 12.8812 27.5673C12.8158 27.7252 12.7199 27.8686 12.599 27.9894C12.4794 28.1112 12.3366 28.2079 12.1791 28.2737C12.0215 28.3395 11.8524 28.3731 11.6816 28.3725Z"
              fill="#20B4E9"/>
        <path d="M116.664 44.8039C116.648 44.0828 116.779 43.366 117.049 42.6969C117.318 42.0279 117.721 41.4205 118.232 40.9115C118.743 40.4025 119.352 40.0025 120.022 39.7356C120.692 39.4688 121.409 39.3407 122.13 39.3592C124.008 39.3592 125.449 40.0607 126.355 41.4259L125.492 42.0518C125.12 41.5099 124.616 41.0715 124.028 40.7779C123.44 40.4844 122.787 40.3452 122.13 40.3736C120.955 40.3736 119.828 40.8404 118.998 41.6712C118.167 42.502 117.7 43.6289 117.7 44.8039C117.7 45.9788 118.167 47.1057 118.998 47.9365C119.828 48.7673 120.955 49.2341 122.13 49.2341C122.817 49.255 123.498 49.1028 124.111 48.7917C124.724 48.4805 125.249 48.0203 125.638 47.4534L126.512 48.0631C126.023 48.7661 125.366 49.335 124.601 49.7178C123.835 50.1006 122.986 50.285 122.13 50.254C121.409 50.2724 120.691 50.1442 120.02 49.877C119.35 49.6099 118.741 49.2093 118.23 48.6998C117.719 48.1902 117.316 47.5821 117.047 46.9124C116.778 46.2428 116.648 45.5254 116.664 44.8039Z"
              fill="#808284"/>
        <path d="M127.996 46.8862C127.984 46.2068 128.174 45.5393 128.543 44.9684C128.912 44.3975 129.442 43.9491 130.066 43.6802C130.69 43.4112 131.38 43.3339 132.048 43.458C132.716 43.5822 133.332 43.9021 133.818 44.3773C134.303 44.8524 134.637 45.4613 134.776 46.1264C134.915 46.7916 134.853 47.4831 134.598 48.1129C134.343 48.7428 133.906 49.2826 133.344 49.6637C132.781 50.0448 132.118 50.2501 131.438 50.2534C130.99 50.2635 130.544 50.1838 130.127 50.0191C129.709 49.8544 129.329 49.608 129.008 49.2943C128.688 48.9806 128.433 48.606 128.259 48.1925C128.085 47.779 127.996 47.3349 127.996 46.8862ZM133.743 46.8862C133.721 46.4318 133.567 45.9937 133.299 45.6262C133.031 45.2588 132.66 44.9783 132.234 44.8196C131.808 44.6609 131.344 44.6311 130.901 44.7337C130.458 44.8364 130.055 45.0671 129.742 45.3971C129.428 45.7271 129.219 46.1418 129.14 46.5897C129.061 47.0377 129.115 47.499 129.296 47.9165C129.476 48.3339 129.776 48.689 130.157 48.9375C130.538 49.1861 130.984 49.3172 131.438 49.3145C131.755 49.3227 132.07 49.2648 132.363 49.1443C132.656 49.0239 132.921 48.8437 133.14 48.6151C133.36 48.3866 133.529 48.1148 133.637 47.8171C133.746 47.5194 133.791 47.2023 133.77 46.8862H133.743Z"
              fill="#808284"/>
        <path d="M136.823 43.649H137.903L137.87 44.8685C138.032 44.4626 138.313 44.1153 138.676 43.8725C139.039 43.6297 139.468 43.5028 139.905 43.5087C140.336 43.4854 140.763 43.6064 141.117 43.8527C141.472 44.099 141.735 44.4564 141.863 44.8685C142.073 44.4568 142.393 44.1115 142.787 43.8713C143.182 43.6312 143.636 43.5056 144.098 43.5087C145.522 43.5087 146.402 44.4476 146.402 45.9801V50.1297H145.322V46.1204C145.322 45.0898 144.912 44.5016 143.898 44.5016C142.883 44.5016 142.16 45.2085 142.16 46.4928V50.1243H141.081V46.115C141.081 45.0844 140.671 44.4962 139.673 44.4962C138.674 44.4962 137.919 45.2031 137.919 46.4874V50.119H136.84L136.823 43.649Z"
              fill="#808284"/>
        <path d="M148.727 43.6489H149.807L149.774 44.8684C149.936 44.4625 150.217 44.1152 150.58 43.8724C150.943 43.6296 151.372 43.5028 151.809 43.5086C152.239 43.4856 152.665 43.6069 153.019 43.8532C153.373 44.0995 153.634 44.4567 153.762 44.8684C153.973 44.4571 154.294 44.1123 154.69 43.8723C155.085 43.6322 155.539 43.5064 156.001 43.5086C157.426 43.5086 158.306 44.4475 158.306 45.98V50.1297H157.226V46.1203C157.226 45.0897 156.822 44.5015 155.807 44.5015C154.793 44.5015 154.07 45.2084 154.07 46.4927V50.1243H152.99V46.1149C152.99 45.0843 152.58 44.4961 151.577 44.4961C150.573 44.4961 149.828 45.203 149.828 46.4873V50.1189H148.749L148.727 43.6489Z"
              fill="#808284"/>
        <path d="M160.578 47.621V43.6495H161.657V47.5023C161.657 48.6301 162.196 49.2561 163.276 49.2561C163.548 49.274 163.821 49.2331 164.077 49.1359C164.332 49.0388 164.563 48.8877 164.755 48.6931C164.946 48.4985 165.093 48.2649 165.186 48.0081C165.28 47.7514 165.316 47.4777 165.294 47.2055V43.6387H166.373V50.114H165.294L165.326 48.7974C165.125 49.2411 164.798 49.6159 164.385 49.875C163.973 50.1341 163.493 50.266 163.006 50.2543C161.56 50.2705 160.578 49.283 160.578 47.621Z"
              fill="#808284"/>
        <path d="M168.758 43.6491H169.837L169.805 44.9765C170.005 44.5286 170.333 44.15 170.748 43.8887C171.163 43.6274 171.646 43.4952 172.136 43.5088C173.577 43.5088 174.559 44.4909 174.559 46.2068V50.1514H173.48V46.3309C173.48 45.187 172.94 44.5286 171.861 44.5286C171.588 44.5097 171.315 44.5501 171.059 44.6469C170.804 44.7437 170.572 44.8947 170.38 45.0896C170.188 45.2844 170.041 45.5184 169.948 45.7755C169.856 46.0327 169.82 46.3068 169.843 46.5792V50.1514H168.764L168.758 43.6491Z"
              fill="#808284"/>
        <path d="M176.696 41.0266C176.694 40.8714 176.738 40.7191 176.822 40.589C176.907 40.4589 177.028 40.357 177.171 40.2961C177.314 40.2352 177.472 40.2182 177.624 40.2471C177.777 40.2761 177.917 40.3498 178.028 40.4587C178.138 40.5677 178.214 40.7071 178.245 40.8592C178.276 41.0112 178.261 41.1691 178.202 41.3127C178.143 41.4563 178.043 41.5792 177.914 41.6656C177.785 41.7521 177.633 41.7983 177.478 41.7983C177.376 41.7997 177.274 41.7808 177.18 41.7427C177.085 41.7045 176.998 41.6479 176.926 41.5761C176.853 41.5043 176.795 41.4188 176.756 41.3244C176.716 41.2301 176.696 41.1289 176.696 41.0266ZM176.928 43.6761H178.007V50.1515H176.928V43.6761Z"
              fill="#808284"/>
        <path d="M180.025 46.8868C180.018 46.4402 180.1 45.9968 180.268 45.5829C180.436 45.1691 180.686 44.7933 181.002 44.478C181.318 44.1627 181.695 43.9144 182.109 43.7479C182.524 43.5813 182.967 43.5 183.414 43.5088C183.9 43.4876 184.384 43.5811 184.828 43.7817C185.271 43.9823 185.661 44.2844 185.966 44.6636L185.184 45.3057C184.979 45.0329 184.711 44.8145 184.402 44.6696C184.094 44.5247 183.754 44.4578 183.414 44.4747C182.038 44.4747 181.174 45.5108 181.174 46.8868C181.174 48.2628 182.038 49.2988 183.414 49.2988C183.769 49.313 184.122 49.2438 184.445 49.0966C184.769 48.9495 185.053 48.7286 185.275 48.4517L186.004 49.1208C185.691 49.4987 185.293 49.798 184.843 49.9947C184.394 50.1915 183.904 50.2803 183.414 50.254C182.968 50.2642 182.524 50.1843 182.11 50.0189C181.696 49.8536 181.319 49.6063 181.002 49.2919C180.686 48.9775 180.436 48.6023 180.268 48.1891C180.1 47.7758 180.018 47.3328 180.025 46.8868Z"
              fill="#808284"/>
        <path d="M191.826 46.1687C191.826 44.9168 191.287 44.4312 190.31 44.4312C189.941 44.4167 189.574 44.4951 189.243 44.6591C188.912 44.8232 188.628 45.0676 188.416 45.3701L187.731 44.7604C188.032 44.3482 188.432 44.0178 188.894 43.7992C189.356 43.5806 189.865 43.4807 190.375 43.5084C191.816 43.5084 192.911 44.3502 192.911 46.1525V50.1295H191.832L191.88 49.1582C191.647 49.5122 191.325 49.7984 190.946 49.9879C190.567 50.1774 190.145 50.2635 189.722 50.2374C188.34 50.2374 187.342 49.6115 187.342 48.2624C187.342 46.9134 188.421 46.309 189.797 46.309H191.816L191.826 46.1687ZM189.889 47.1508C189.058 47.1508 188.416 47.453 188.416 48.2301C188.416 49.0071 188.956 49.3525 189.981 49.3525C191.006 49.3525 191.826 48.8128 191.826 47.9603V47.1454L189.889 47.1508Z"
              fill="#808284"/>
        <path d="M195.615 48.171V44.5718H194.611V43.649H195.615V40.2656H196.694V43.649H198.523V44.5718H196.71V48.1872C196.71 49.0452 197.007 49.315 197.476 49.315C197.641 49.3165 197.805 49.2837 197.956 49.2187C198.107 49.1537 198.244 49.0578 198.356 48.9372L198.95 49.6279C198.745 49.8395 198.499 50.0059 198.227 50.1165C197.955 50.2271 197.662 50.2794 197.369 50.2701C196.365 50.2701 195.615 49.7035 195.615 48.171Z"
              fill="#808284"/>
        <path d="M200.353 41.0266C200.353 40.9238 200.373 40.8221 200.412 40.7272C200.452 40.6322 200.509 40.546 200.582 40.4733C200.655 40.4007 200.741 40.343 200.836 40.3037C200.931 40.2644 201.032 40.2441 201.135 40.2441C201.238 40.2441 201.34 40.2644 201.435 40.3037C201.53 40.343 201.616 40.4007 201.688 40.4733C201.761 40.546 201.819 40.6322 201.858 40.7272C201.897 40.8221 201.918 40.9238 201.918 41.0266C201.918 41.2341 201.835 41.4331 201.688 41.5799C201.542 41.7266 201.343 41.809 201.135 41.809C200.928 41.809 200.729 41.7266 200.582 41.5799C200.435 41.4331 200.353 41.2341 200.353 41.0266ZM200.59 43.6761H201.669V50.1515H200.59V43.6761Z"
              fill="#808284"/>
        <path d="M203.688 46.8871C203.675 46.2073 203.864 45.5391 204.232 44.9671C204.599 44.3952 205.129 43.9453 205.752 43.6745C206.376 43.4038 207.066 43.3243 207.735 43.4463C208.404 43.5683 209.021 43.8862 209.509 44.3597C209.997 44.8332 210.333 45.4409 210.475 46.1058C210.617 46.7707 210.559 47.4628 210.307 48.0943C210.055 48.7258 209.621 49.2682 209.06 49.6528C208.499 50.0373 207.837 50.2467 207.157 50.2543C206.707 50.2673 206.258 50.1898 205.838 50.0265C205.418 49.8632 205.035 49.6173 204.711 49.3034C204.388 48.9895 204.131 48.6139 203.955 48.1989C203.779 47.7839 203.688 47.3378 203.688 46.8871ZM209.434 46.8871C209.413 46.4327 209.259 45.9945 208.991 45.6271C208.723 45.2597 208.352 44.9792 207.926 44.8205C207.5 44.6618 207.036 44.6319 206.593 44.7346C206.15 44.8373 205.747 45.0679 205.433 45.3979C205.12 45.7279 204.911 46.1427 204.832 46.5906C204.753 47.0385 204.807 47.4999 204.987 47.9173C205.168 48.3348 205.468 48.6898 205.849 48.9384C206.23 49.187 206.675 49.318 207.13 49.3154C207.445 49.3198 207.757 49.259 208.047 49.1369C208.336 49.0148 208.598 48.834 208.814 48.6059C209.031 48.3777 209.198 48.1072 209.304 47.8114C209.411 47.5156 209.455 47.2009 209.434 46.8871Z"
              fill="#808284"/>
        <path d="M212.516 43.6491H213.595L213.563 44.9765C213.762 44.5286 214.09 44.15 214.505 43.8887C214.92 43.6274 215.403 43.4952 215.894 43.5088C217.334 43.5088 218.322 44.4909 218.322 46.2068V50.1514H217.243V46.3309C217.243 45.187 216.703 44.5286 215.624 44.5286C215.351 44.5107 215.078 44.5516 214.823 44.6488C214.568 44.7459 214.337 44.897 214.145 45.0916C213.953 45.2862 213.806 45.5198 213.713 45.7765C213.62 46.0333 213.583 46.307 213.606 46.5792V50.1514H212.526L212.516 43.6491Z"
              fill="#808284"/>
        <path d="M220.054 48.7488L220.901 48.2632C221.083 48.5996 221.355 48.8787 221.687 49.0693C222.019 49.2599 222.397 49.3545 222.779 49.3424C223.659 49.3424 224.155 48.9701 224.155 48.3765C224.155 47.6696 223.616 47.5131 222.466 47.1839C221.452 46.8872 220.513 46.4824 220.513 45.2575C220.513 44.1297 221.452 43.493 222.639 43.493C223.057 43.4734 223.474 43.5589 223.851 43.7417C224.228 43.9246 224.554 44.199 224.797 44.5398L224.047 45.1172C223.892 44.8871 223.682 44.6994 223.436 44.5712C223.19 44.443 222.916 44.3784 222.639 44.3833C221.937 44.3833 221.511 44.7125 221.511 45.2144C221.511 45.8241 221.905 45.9968 223.049 46.326C224.193 46.6551 225.207 47.0598 225.207 48.3117C225.207 49.391 224.474 50.2382 222.844 50.2382C222.286 50.2775 221.728 50.1586 221.235 49.8952C220.741 49.6317 220.332 49.2344 220.054 48.7488Z"
              fill="#808284"/>
    </g>
    <defs>
        <clipPath id="clip0_8583_13370">
            <rect width="230" height="49.4503" fill="white" transform="translate(0.117676 0.814453)"/>
        </clipPath>
    </defs>
</svg>
