<svg width="201" height="73" viewBox="0 0 201 73" fill="none" xmlns="http://www.w3.org/2000/svg">
    <g clip-path="url(#clip0_8583_13336)">
        <path d="M77.871 9.69043H66.4506L67.8135 13.3966H77.871C83.1496 13.3966 85.3829 15.7686 85.3829 19.7713C85.3829 23.6258 83.1496 26.0472 77.871 26.0472H71.0695V17.0045H66.4506V44.1334H71.0695V29.7534H77.871C86.6518 29.7534 90.1033 25.0094 90.1033 19.7714C90.1033 14.138 86.195 9.69043 77.871 9.69043Z"
              fill="#33363C"/>
        <path d="M99.0893 13.3468H112.1L113.462 9.64062H94.4705V21.2058H99.0893V13.3468ZM99.0893 40.4266V28.5669H110.319L111.682 24.8605L94.4705 24.8514V44.1328H112.17L113.504 40.5041V40.4266L99.0893 40.4266Z"
              fill="#33363C"/>
        <path d="M141.911 19.7713C141.911 14.138 138.002 9.69043 129.678 9.69043H118.258V44.1333H122.877V29.7534H129.678C138.459 29.7534 141.911 25.0094 141.911 19.7713ZM129.678 26.0472H122.877V13.3966H129.678C134.957 13.3966 137.19 15.7686 137.19 19.7713C137.19 23.6258 134.957 26.0472 129.678 26.0472ZM135.967 33.6951H130.615L136.86 44.1333H142.393L135.967 33.6951Z"
              fill="#33363C"/>
        <path d="M171.755 9.69043H166.577L144.803 44.1333H149.929L157.999 30.6922L166.476 44.1333H171.704L160.842 26.9366L171.755 9.69043ZM156.168 19.5609L149.929 9.69043H144.752L153.494 23.5708L156.168 19.5609Z"
              fill="#33363C"/>
        <path d="M200.119 9.69043H194.942L173.167 44.1333H178.293L186.364 30.6922L194.84 44.1333H200.068L189.206 26.9366L200.119 9.69043ZM184.532 19.5609L178.293 9.69043H173.116L181.858 23.5708L184.532 19.5609Z"
              fill="#33363C"/>
        <path d="M70.6565 53.4988C70.6565 53.1903 70.5829 52.9173 70.4357 52.68C70.2886 52.4426 70.075 52.2623 69.7949 52.1388C69.5149 52.0154 69.1755 51.9537 68.7767 51.9537H68.2356L67.787 55.1863H68.7198C69.1232 55.1863 69.471 55.1139 69.7629 54.9691C70.0548 54.8244 70.2767 54.6274 70.4286 54.3782C70.5805 54.129 70.6565 53.8358 70.6565 53.4988ZM72.3796 53.4846C72.3796 54.0684 72.2395 54.593 71.9595 55.0581C71.6794 55.5233 71.2819 55.8877 70.7668 56.1511C70.2518 56.4146 69.6668 56.5463 69.0117 56.5463H67.5948L67.0394 60.5407H65.3376L66.719 50.5938H69.1256C69.5386 50.5938 69.9409 50.6448 70.3325 50.7468C70.7241 50.8489 71.0706 51.0138 71.3721 51.2417C71.6735 51.4695 71.9168 51.7674 72.1019 52.1353C72.287 52.5032 72.3796 52.9529 72.3796 53.4846Z"
              fill="#33363C"/>
        <path d="M77.4991 56.7032C77.4991 56.219 77.3875 55.8238 77.1644 55.5177C76.9413 55.2115 76.6399 55.0584 76.2601 55.0584C75.9184 55.0584 75.6122 55.183 75.3416 55.4322C75.071 55.6814 74.8574 56.0232 74.7008 56.4576C74.5441 56.8919 74.4658 57.3345 74.4658 57.7855C74.4658 58.094 74.5204 58.3729 74.6296 58.6221C74.7388 58.8713 74.8871 59.0636 75.0746 59.1988C75.2621 59.3341 75.4674 59.4018 75.6905 59.4018C76.0275 59.4018 76.3349 59.2831 76.6126 59.0458C76.8903 58.8084 77.1074 58.4821 77.2641 58.0667C77.4207 57.6514 77.4991 57.1969 77.4991 56.7032ZM79.1154 56.7815C79.1154 57.5078 78.9682 58.1735 78.6739 58.7788C78.3796 59.384 77.9702 59.8587 77.4457 60.2028C76.9211 60.5469 76.3456 60.719 75.719 60.719C75.1636 60.719 74.6676 60.5909 74.2309 60.3345C73.7941 60.0782 73.4571 59.7163 73.2198 59.2487C72.9824 58.7811 72.8638 58.2554 72.8638 57.6716C72.8638 56.9643 73.0169 56.3092 73.323 55.7064C73.6292 55.1035 74.0481 54.6336 74.5798 54.2966C75.1114 53.9595 75.6858 53.791 76.3029 53.791C76.8487 53.791 77.3353 53.9144 77.7625 54.1613C78.1897 54.4081 78.522 54.7606 78.7593 55.2186C78.9967 55.6767 79.1154 56.1977 79.1154 56.7815Z"
              fill="#33363C"/>
        <path d="M89.7317 53.9619L86.1787 60.6692H85.2886L84.5125 56.632H84.484L82.412 60.6692H81.5362L80.0339 53.9619H81.5647L82.3408 58.1059H82.3693L84.4413 53.9619H85.3029L86.0718 58.1059H86.1003L88.1296 53.9619H89.7317Z"
              fill="#33363C"/>
        <path d="M93.249 53.791C93.7427 53.791 94.183 53.9061 94.5699 54.1363C94.9567 54.3666 95.2558 54.6929 95.467 55.1154C95.6782 55.5379 95.7839 56.0149 95.7839 56.5466C95.7839 56.7839 95.7601 57.0355 95.7127 57.3013H91.5259C91.4975 57.4674 91.4832 57.6193 91.4832 57.757C91.4832 58.1083 91.5532 58.4156 91.6933 58.6791C91.8333 58.9425 92.0291 59.1443 92.2807 59.2843C92.5323 59.4243 92.8147 59.4943 93.128 59.4943C93.4365 59.4943 93.7759 59.4291 94.1462 59.2985C94.5165 59.168 94.9365 58.9698 95.4065 58.704L95.143 60.0924C94.3835 60.5102 93.6383 60.719 92.9073 60.719C92.3139 60.719 91.7906 60.5885 91.3373 60.3274C90.8839 60.0663 90.535 59.6913 90.2906 59.2024C90.0461 58.7135 89.9239 58.1534 89.9239 57.522C89.9239 56.8432 90.071 56.2155 90.3653 55.6387C90.6596 55.062 91.0619 54.6098 91.5722 54.2823C92.0825 53.9548 92.6415 53.791 93.249 53.791ZM94.2672 56.3258V56.2119C94.2672 55.8322 94.1735 55.5307 93.986 55.3076C93.7985 55.0845 93.5315 54.973 93.185 54.973C92.5014 54.973 92.0101 55.4239 91.7111 56.3258H94.2672Z"
              fill="#33363C"/>
        <path d="M101.024 55.7274C100.92 55.6087 100.818 55.5209 100.718 55.464C100.619 55.407 100.495 55.3785 100.348 55.3785C99.8685 55.3785 99.3986 55.8295 98.9381 56.7314L98.397 60.5407H96.8376L97.7562 53.9616H99.3297L99.1375 55.1435C99.4698 54.6926 99.7676 54.3639 100.031 54.1574C100.295 53.9509 100.571 53.8477 100.861 53.8477C101.022 53.8477 101.18 53.8797 101.334 53.9438C101.488 54.0079 101.627 54.1016 101.751 54.225L101.024 55.7274Z"
              fill="#33363C"/>
        <path d="M104.435 53.9619L103.502 60.541H101.936L102.854 53.9619H104.435ZM104.727 52.011C104.727 52.1581 104.689 52.297 104.613 52.4275C104.537 52.558 104.431 52.6625 104.296 52.7408C104.161 52.8191 104.017 52.8583 103.865 52.8583C103.713 52.8583 103.571 52.8191 103.438 52.7408C103.305 52.6625 103.202 52.558 103.128 52.4275C103.055 52.297 103.018 52.1581 103.018 52.011C103.018 51.8591 103.055 51.7167 103.128 51.5837C103.202 51.4508 103.304 51.3452 103.435 51.2669C103.565 51.1886 103.709 51.1494 103.865 51.1494C104.022 51.1494 104.168 51.1886 104.303 51.2669C104.438 51.3452 104.543 51.4508 104.617 51.5837C104.69 51.7167 104.727 51.8591 104.727 52.011Z"
              fill="#33363C"/>
        <path d="M110.893 60.5407H109.334L109.839 56.8809C109.877 56.6103 109.902 56.4157 109.914 56.297C109.926 56.1784 109.932 56.0478 109.932 55.9054C109.932 55.6633 109.871 55.464 109.75 55.3073C109.629 55.1507 109.467 55.0723 109.263 55.0723C109.054 55.0723 108.79 55.1708 108.472 55.3678C108.154 55.5648 107.803 55.884 107.418 56.3255L106.827 60.5407H105.261L106.179 53.9616H107.746L107.596 55.0154C107.981 54.6309 108.356 54.3401 108.721 54.1431C109.087 53.9462 109.46 53.8477 109.839 53.8477C110.2 53.8477 110.507 53.9284 110.761 54.0897C111.015 54.2511 111.208 54.4719 111.338 54.7519C111.469 55.032 111.534 55.3524 111.534 55.7132C111.534 55.7986 111.533 55.8793 111.53 55.9553C111.528 56.0312 111.523 56.1119 111.516 56.1973C111.509 56.2828 111.498 56.3801 111.484 56.4893C111.47 56.5984 111.453 56.7337 111.434 56.8951L110.893 60.5407Z"
              fill="#33363C"/>
        <path d="M119.16 53.9619L119.01 55.1439H117.828C117.961 55.3717 118.054 55.5747 118.106 55.7527C118.158 55.9307 118.184 56.1217 118.184 56.3258C118.184 56.9477 117.999 57.4722 117.629 57.8994C117.259 58.3266 116.748 58.6043 116.098 58.7325C115.884 58.7705 115.672 58.8025 115.461 58.8286C115.249 58.8547 115.06 58.8879 114.891 58.9283C114.723 58.9686 114.587 59.0232 114.485 59.0921C114.383 59.1609 114.332 59.2546 114.332 59.3733C114.332 59.473 114.388 59.5525 114.499 59.6118C114.611 59.6712 114.757 59.7246 114.937 59.772C115.118 59.8195 115.324 59.8622 115.557 59.9002C116.454 60.0616 117.101 60.3013 117.497 60.6194C117.893 60.9374 118.092 61.3622 118.092 61.8939C118.092 62.2974 117.972 62.6498 117.732 62.9512C117.492 63.2527 117.145 63.4853 116.689 63.649C116.233 63.8128 115.699 63.8947 115.087 63.8947C114.484 63.8947 113.96 63.8247 113.513 63.6846C113.067 63.5446 112.723 63.3488 112.481 63.0972C112.239 62.8456 112.118 62.5584 112.118 62.2356C112.118 61.9129 112.263 61.6364 112.552 61.4061C112.842 61.1759 113.283 60.9849 113.876 60.833V60.8045C113.188 60.5339 112.844 60.1399 112.844 59.6225C112.844 59.4469 112.899 59.2748 113.008 59.1063C113.117 58.9378 113.264 58.8001 113.449 58.6933C113.634 58.5865 113.869 58.4928 114.154 58.4121C113.376 57.9991 112.986 57.3678 112.986 56.5181C112.986 56.0576 113.103 55.6292 113.335 55.2329C113.568 54.8365 113.891 54.5256 114.304 54.3001C114.717 54.0747 115.168 53.9619 115.657 53.9619H119.16ZM116.71 56.2546C116.71 55.9129 116.613 55.6375 116.418 55.4287C116.224 55.2198 115.97 55.1154 115.657 55.1154C115.433 55.1154 115.229 55.1783 115.044 55.3041C114.859 55.4299 114.715 55.6079 114.613 55.8381C114.511 56.0683 114.46 56.3235 114.46 56.6035C114.46 56.9406 114.558 57.2147 114.752 57.4259C114.947 57.6372 115.206 57.7428 115.528 57.7428C115.77 57.7428 115.979 57.6799 116.155 57.5541C116.331 57.4283 116.467 57.2527 116.564 57.0272C116.662 56.8017 116.71 56.5442 116.71 56.2546ZM116.618 62.0719C116.618 61.8915 116.5 61.7337 116.265 61.5984C116.03 61.4631 115.614 61.329 115.016 61.1961C114.569 61.2625 114.212 61.3753 113.944 61.5343C113.676 61.6933 113.542 61.8725 113.542 62.0719C113.542 62.3092 113.678 62.492 113.951 62.6201C114.224 62.7483 114.629 62.8124 115.165 62.8124C116.134 62.8124 116.618 62.5656 116.618 62.0719Z"
              fill="#33363C"/>
        <path d="M129.199 53.4988C129.199 53.1903 129.126 52.9173 128.978 52.68C128.831 52.4426 128.618 52.2623 128.338 52.1388C128.058 52.0154 127.718 51.9537 127.319 51.9537H126.778L126.33 55.1863H127.262C127.666 55.1863 128.014 55.1139 128.306 54.9691C128.598 54.8244 128.819 54.6274 128.971 54.3782C129.123 54.129 129.199 53.8358 129.199 53.4988ZM130.922 53.4846C130.922 54.0684 130.782 54.593 130.502 55.0581C130.222 55.5233 129.825 55.8877 129.31 56.1511C128.795 56.4146 128.209 56.5463 127.554 56.5463H126.137L125.582 60.5407H123.88L125.262 50.5938H127.668C128.081 50.5938 128.484 50.6448 128.875 50.7468C129.267 50.8489 129.613 51.0138 129.915 51.2417C130.216 51.4695 130.459 51.7674 130.645 52.1353C130.83 52.5032 130.922 52.9529 130.922 53.4846Z"
              fill="#33363C"/>
        <path d="M134.732 53.791C135.225 53.791 135.666 53.9061 136.052 54.1363C136.439 54.3666 136.738 54.6929 136.95 55.1154C137.161 55.5379 137.266 56.0149 137.266 56.5466C137.266 56.7839 137.243 57.0355 137.195 57.3013H133.009C132.98 57.4674 132.966 57.6193 132.966 57.757C132.966 58.1083 133.036 58.4156 133.176 58.6791C133.316 58.9425 133.512 59.1443 133.763 59.2843C134.015 59.4243 134.297 59.4943 134.611 59.4943C134.919 59.4943 135.259 59.4291 135.629 59.2985C135.999 59.168 136.419 58.9698 136.889 58.704L136.626 60.0924C135.866 60.5102 135.121 60.719 134.39 60.719C133.797 60.719 133.273 60.5885 132.82 60.3274C132.367 60.0663 132.018 59.6913 131.773 59.2024C131.529 58.7135 131.406 58.1534 131.406 57.522C131.406 56.8432 131.554 56.2155 131.848 55.6387C132.142 55.062 132.545 54.6098 133.055 54.2823C133.565 53.9548 134.124 53.791 134.732 53.791ZM135.75 56.3258V56.2119C135.75 55.8322 135.656 55.5307 135.469 55.3076C135.281 55.0845 135.014 54.973 134.668 54.973C133.984 54.973 133.493 55.4239 133.194 56.3258H135.75Z"
              fill="#33363C"/>
        <path d="M142.507 55.7274C142.403 55.6087 142.3 55.5209 142.201 55.464C142.101 55.407 141.978 55.3785 141.831 55.3785C141.351 55.3785 140.881 55.8295 140.421 56.7314L139.88 60.5407H138.32L139.239 53.9616H140.812L140.62 55.1435C140.952 54.6926 141.25 54.3639 141.514 54.1574C141.777 53.9509 142.054 53.8477 142.343 53.8477C142.505 53.8477 142.662 53.8797 142.817 53.9438C142.971 54.0079 143.11 54.1016 143.233 54.225L142.507 55.7274Z"
              fill="#33363C"/>
        <path d="M149.314 52.1676C148.868 51.9445 148.469 51.8329 148.118 51.8329C147.586 51.8329 147.171 52.0109 146.872 52.3669C146.573 52.7229 146.395 53.2546 146.338 53.9619H147.634L147.463 55.215H146.145L145.056 63.3677H143.511L144.6 55.215H143.418L143.596 53.9619H144.778C144.873 52.8701 145.194 52.0145 145.74 51.395C146.285 50.7756 147.014 50.4658 147.925 50.4658C148.196 50.4658 148.458 50.4931 148.712 50.5477C148.966 50.6023 149.236 50.6818 149.52 50.7862L149.314 52.1676Z"
              fill="#33363C"/>
        <path d="M152.568 56.7032C152.568 56.219 152.456 55.8238 152.233 55.5177C152.01 55.2115 151.709 55.0584 151.329 55.0584C150.987 55.0584 150.681 55.183 150.41 55.4322C150.14 55.6814 149.926 56.0232 149.77 56.4576C149.613 56.8919 149.535 57.3345 149.535 57.7855C149.535 58.094 149.589 58.3729 149.698 58.6221C149.808 58.8713 149.956 59.0636 150.143 59.1988C150.331 59.3341 150.536 59.4018 150.759 59.4018C151.096 59.4018 151.404 59.2831 151.681 59.0458C151.959 58.8084 152.176 58.4821 152.333 58.0667C152.49 57.6514 152.568 57.1969 152.568 56.7032ZM154.184 56.7815C154.184 57.5078 154.037 58.1735 153.743 58.7788C153.448 59.384 153.039 59.8587 152.515 60.2028C151.99 60.5469 151.414 60.719 150.788 60.719C150.232 60.719 149.736 60.5909 149.3 60.3345C148.863 60.0782 148.526 59.7163 148.289 59.2487C148.051 58.7811 147.933 58.2554 147.933 57.6716C147.933 56.9643 148.086 56.3092 148.392 55.7064C148.698 55.1035 149.117 54.6336 149.649 54.2966C150.18 53.9595 150.755 53.791 151.372 53.791C151.918 53.791 152.404 53.9144 152.831 54.1613C153.259 54.4081 153.591 54.7606 153.828 55.2186C154.066 55.6767 154.184 56.1977 154.184 56.7815Z"
              fill="#33363C"/>
        <path d="M159.396 55.7274C159.292 55.6087 159.19 55.5209 159.09 55.464C158.99 55.407 158.867 55.3785 158.72 55.3785C158.24 55.3785 157.77 55.8295 157.31 56.7314L156.769 60.5407H155.209L156.128 53.9616H157.702L157.509 55.1435C157.842 54.6926 158.139 54.3639 158.403 54.1574C158.666 53.9509 158.943 53.8477 159.232 53.8477C159.394 53.8477 159.552 53.8797 159.706 53.9438C159.86 54.0079 159.999 54.1016 160.122 54.225L159.396 55.7274Z"
              fill="#33363C"/>
        <path d="M169.948 60.5407H168.389L168.959 56.4608C168.982 56.2567 168.994 56.0977 168.994 55.9837C168.994 55.6704 168.937 55.4355 168.823 55.2788C168.709 55.1222 168.555 55.0439 168.361 55.0439C168.109 55.0439 167.827 55.1483 167.513 55.3571C167.2 55.566 166.865 55.8935 166.509 56.3397L165.911 60.5407H164.338L164.893 56.5605C164.921 56.3753 164.936 56.1878 164.936 55.998C164.936 55.6704 164.878 55.4295 164.761 55.2753C164.645 55.121 164.468 55.0439 164.231 55.0439C164.065 55.0439 163.882 55.0996 163.683 55.2112C163.483 55.3227 163.273 55.4818 163.052 55.6882C162.832 55.8947 162.631 56.1119 162.451 56.3397L161.86 60.5407H160.293L161.226 53.9616H162.793L162.643 54.9727L162.671 55.0011C163.393 54.2321 164.117 53.8477 164.843 53.8477C165.275 53.8477 165.629 53.9675 165.904 54.2072C166.179 54.4469 166.353 54.778 166.424 55.2005C166.894 54.7021 167.321 54.352 167.706 54.1503C168.09 53.9485 168.475 53.8477 168.859 53.8477C169.386 53.8477 169.804 54.0197 170.112 54.3639C170.421 54.708 170.575 55.1863 170.575 55.7986C170.575 55.9837 170.561 56.1689 170.532 56.354L169.948 60.5407Z"
              fill="#33363C"/>
        <path d="M177.304 60.541H175.73L175.83 59.8575L175.823 59.8504L175.801 59.8432C175.213 60.3939 174.61 60.6692 173.993 60.6692C173.58 60.6692 173.202 60.5505 172.861 60.3132C172.519 60.0758 172.251 59.7495 172.056 59.3341C171.861 58.9188 171.764 58.4619 171.764 57.9635C171.764 57.128 171.956 56.3875 172.341 55.742C172.725 55.0964 173.264 54.6098 173.957 54.2823C174.65 53.9548 175.455 53.791 176.371 53.791C176.993 53.791 177.61 53.8622 178.222 54.0046L177.304 60.541ZM176.499 55.1296C176.357 55.1154 176.219 55.1083 176.086 55.1083C175.692 55.1083 175.334 55.1676 175.011 55.2863C174.688 55.4049 174.408 55.5841 174.171 55.8238C173.933 56.0636 173.742 56.3697 173.598 56.7424C173.453 57.115 173.38 57.4959 173.38 57.8852C173.38 58.3551 173.484 58.7325 173.69 59.0173C173.897 59.3021 174.173 59.4445 174.52 59.4445C174.743 59.4445 174.987 59.3709 175.253 59.2238C175.519 59.0766 175.77 58.8796 176.008 58.6328L176.499 55.1296Z"
              fill="#33363C"/>
        <path d="M184.801 60.5407H183.242L183.747 56.8809C183.785 56.6103 183.81 56.4157 183.822 56.297C183.834 56.1784 183.84 56.0478 183.84 55.9054C183.84 55.6633 183.779 55.464 183.658 55.3073C183.537 55.1507 183.375 55.0723 183.171 55.0723C182.962 55.0723 182.698 55.1708 182.38 55.3678C182.062 55.5648 181.711 55.884 181.327 56.3255L180.736 60.5407H179.169L180.088 53.9616H181.654L181.505 55.0154C181.889 54.6309 182.264 54.3401 182.63 54.1431C182.995 53.9462 183.368 53.8477 183.747 53.8477C184.108 53.8477 184.416 53.9284 184.67 54.0897C184.923 54.2511 185.116 54.4719 185.246 54.7519C185.377 55.032 185.442 55.3524 185.442 55.7132C185.442 55.7986 185.441 55.8793 185.439 55.9553C185.436 56.0312 185.431 56.1119 185.424 56.1973C185.417 56.2828 185.406 56.3801 185.392 56.4893C185.378 56.5984 185.361 56.7337 185.342 56.8951L184.801 60.5407Z"
              fill="#33363C"/>
        <path d="M192.107 55.3646C191.912 55.2981 191.717 55.2495 191.523 55.2186C191.328 55.1878 191.093 55.1723 190.818 55.1723C190.353 55.1723 189.924 55.2803 189.533 55.4963C189.141 55.7123 188.828 56.0102 188.593 56.3899C188.358 56.7697 188.24 57.1755 188.24 57.6075C188.24 58.1676 188.395 58.6019 188.703 58.9105C189.012 59.219 189.446 59.3733 190.006 59.3733C190.329 59.3733 190.622 59.3353 190.885 59.2594C191.149 59.1834 191.463 59.0576 191.829 58.882L191.651 60.3488C191.034 60.5956 190.393 60.719 189.728 60.719C189.121 60.719 188.581 60.5909 188.109 60.3345C187.636 60.0782 187.271 59.7115 187.012 59.2344C186.753 58.7574 186.624 58.2151 186.624 57.6075C186.624 56.9097 186.808 56.2665 187.176 55.6779C187.544 55.0893 188.054 54.6276 188.707 54.293C189.359 53.9583 190.08 53.791 190.868 53.791C191.1 53.791 191.347 53.8064 191.608 53.8373C191.869 53.8682 192.102 53.9097 192.306 53.9619L192.107 55.3646Z"
              fill="#33363C"/>
        <path d="M196.222 53.791C196.716 53.791 197.156 53.9061 197.543 54.1363C197.93 54.3666 198.229 54.6929 198.44 55.1154C198.651 55.5379 198.757 56.0149 198.757 56.5466C198.757 56.7839 198.733 57.0355 198.686 57.3013H194.499C194.471 57.4674 194.456 57.6193 194.456 57.757C194.456 58.1083 194.526 58.4156 194.666 58.6791C194.806 58.9425 195.002 59.1443 195.254 59.2843C195.505 59.4243 195.788 59.4943 196.101 59.4943C196.41 59.4943 196.749 59.4291 197.119 59.2985C197.49 59.168 197.91 58.9698 198.38 58.704L198.116 60.0924C197.357 60.5102 196.611 60.719 195.88 60.719C195.287 60.719 194.764 60.5885 194.31 60.3274C193.857 60.0663 193.508 59.6913 193.264 59.2024C193.019 58.7135 192.897 58.1534 192.897 57.522C192.897 56.8432 193.044 56.2155 193.338 55.6387C193.633 55.062 194.035 54.6098 194.545 54.2823C195.056 53.9548 195.615 53.791 196.222 53.791ZM197.24 56.3258V56.2119C197.24 55.8322 197.147 55.5307 196.959 55.3076C196.772 55.0845 196.505 54.973 196.158 54.973C195.475 54.973 194.983 55.4239 194.684 56.3258H197.24Z"
              fill="#33363C"/>
        <path fill-rule="evenodd" clip-rule="evenodd"
              d="M28.4191 0.388672C40.3107 0.388672 49.9508 10.0287 49.9508 21.9203C49.9508 33.8119 40.3107 43.452 28.4191 43.452H0.735596V24.9963C0.735596 11.4059 11.7528 0.388672 25.3432 0.388672H28.4191ZM26.1122 15.7684C22.2899 15.7684 19.1913 18.867 19.1913 22.6893C19.1913 26.5116 22.2899 29.6102 26.1122 29.6102C29.9345 29.6102 33.0331 26.5116 33.0331 22.6893C33.0331 18.867 29.9345 15.7684 26.1122 15.7684Z"
              fill="#4062AE"/>
        <path fill-rule="evenodd" clip-rule="evenodd" d="M0.735596 45.5029V72.1612L15.09 45.5029H0.735596Z"
              fill="#FF8731"/>
    </g>
    <defs>
        <clipPath id="clip0_8583_13336">
            <rect width="199.595" height="72" fill="white" transform="translate(0.735596 0.388672)"/>
        </clipPath>
    </defs>
</svg>
