<svg width="20" height="20" viewBox="0 0 20 20" fill="#2493E5" xmlns="http://www.w3.org/2000/svg">
    <path d="M17.5 10c0-4.14-3.36-7.5-7.5-7.5-4.14 0-7.5 3.36-7.5 7.5 0 4.14 3.36 7.5 7.5 7.5 4.14 0 7.5-3.36 7.5-7.5zm2.5 0c0 5.523-4.477 10-10 10S0 15.523 0 10 4.477 0 10 0s10 4.477 10 10zm-10 3.125a3.124 3.124 0 1 0 0-6.25 3.124 3.124 0 1 0 0 6.25zm0 2.5A5.626 5.626 0 0 1 4.375 10 5.626 5.626 0 0 1 10 4.375 5.626 5.626 0 0 1 15.625 10 5.626 5.626 0 0 1 10 15.625zM11.25 10c0 .691-.559 1.25-1.25 1.25S8.75 10.691 8.75 10 9.309 8.75 10 8.75s1.25.559 1.25 1.25z" fill-rule="evenodd"/>
</svg>
