<svg width="20" height="20" viewBox="0 0 20 20" fill="#2493E5" xmlns="http://www.w3.org/2000/svg">
    <path d="M7.19 11.557c0-.258.04-.515.117-.762h5.387c.318 1.004-.013 2.093-.844 2.783-.832.69-2.01.853-3.015.417-1.004-.435-1.647-1.388-1.645-2.438zm1.626-5.043c-.276-.234-.495-.403-.541-.888h-.03a.41.41 0 0 1-.196-.05.507.507 0 0 1-.215-.248c-.1-.218-.179-.789.072-.953l-.047-.03v-.063c-.01-.115-.011-.254-.014-.4 0-.537-.021-1.189-.482-1.32l-.192-.056.128-.153a7.307 7.307 0 0 1 1.14-1.098 2.981 2.981 0 0 1 1.319-.61c.46-.071.929.054 1.284.341.125.098.24.208.343.328.412.043.786.25 1.027.57.151.194.264.411.334.643.072.236.103.481.09.726-.011.446-.2.871-.53 1.189.056.002.11.015.16.04.19.095.196.305.147.481a5.99 5.99 0 0 1-.172.458c-.072.194-.177.23-.379.21-.011.477-.242.61-.555.889.013.718-2.706.634-2.69 0l-.001-.006zm-.142.592.81 2.02.415-1.102-.2-.206c-.15-.209-.099-.445.18-.488.1-.007.2-.007.3 0 .111-.008.222-.004.331.012.259.053.286.291.16.48l-.2.207.392 1.097.732-2.02c.528.457 2.086.543 2.672.85.802.43.783 1.258.962 2.025H5.043c.175-.762.16-1.602.963-2.024.715-.379 2.086-.35 2.672-.851h-.004zm-4.952-.528c-.138-.208-.393-.489-.393-.731a.395.395 0 0 1 .276-.356 9.892 9.892 0 0 1-.023-.618v-.366c.013-.074.032-.147.058-.218.1-.31.318-.572.612-.737.104-.062.214-.113.33-.152.21-.074.11-.41.339-.414.537-.014 1.422.458 1.765.81.22.231.345.53.353.841l-.029.896c.104.02.19.089.227.183.073.283-.235.634-.38.86-.059.093-.193.28-.32.458a3.834 3.834 0 0 0-.847.285l-.044.021c-.963.507-1.105 1.294-1.248 2.092-.021.118-.042.235-.073.368a.68.68 0 0 0-.024.181H1.875c0-2.04 1.64-1.393 2.423-2.418.039-.053.056-.082.056-.107 0-.024-.58-.794-.632-.878zm12.56 0c.136-.208.392-.489.392-.731a.395.395 0 0 0-.276-.356c.013-.204.021-.412.021-.618v-.366a1.372 1.372 0 0 0-.05-.218 1.32 1.32 0 0 0-.611-.737 1.745 1.745 0 0 0-.332-.152c-.21-.074-.108-.41-.339-.414-.537-.014-1.422.458-1.765.81-.22.231-.345.53-.352.841l.021.896a.307.307 0 0 0-.226.183c-.072.283.236.634.379.86.053.083.16.241.282.4.417.07.821.193 1.204.364.963.512 1.1 1.287 1.242 2.085.022.128.045.257.079.404a.69.69 0 0 1 .017.152h2.157c0-2.04-1.64-1.393-2.425-2.418-.038-.053-.056-.082-.056-.107 0-.024.583-.794.642-.872l-.005-.006zm1.837 5.08v.565c-.005.522-.45.944-.999.947h-1.027a5.745 5.745 0 0 1-.616 1.552l.68.65a.925.925 0 0 1 0 1.347l-.832.792c-.392.37-1.025.37-1.417 0l-.625-.594a6.44 6.44 0 0 1-1.691.697v.809c-.002.525-.45.95-1.001.952H9.417c-.552-.002-1-.427-1-.952v-.798a6.37 6.37 0 0 1-1.71-.691l-.608.577a1.04 1.04 0 0 1-1.416 0l-.834-.792a.925.925 0 0 1 0-1.347l.656-.623a5.774 5.774 0 0 1-.634-1.579h-.985c-.55-.002-.997-.424-1.001-.947v-1.125c0-.104.019-.207.054-.305h4.072c-.041.222-.062.446-.061.671v.397c0 2.116 1.804 3.831 4.03 3.831 2.225 0 4.029-1.715 4.029-3.83v-.398c0-.225-.02-.45-.061-.67h4.114a.875.875 0 0 1 .057.304v.56z" fill-rule="evenodd"/>
</svg>
