<svg width="20" height="20" viewBox="0 0 20 20" fill="#2493E5" xmlns="http://www.w3.org/2000/svg">
    <path d="M3.071.196a.936.936 0 0 0-1.234.078L.275 1.836a.94.94 0 0 0-.082 1.235l3.124 4.062c.176.23.453.367.742.367h2.114l4.257 4.258a3.017 3.017 0 0 0 .559 3.5l4.375 4.375a1.252 1.252 0 0 0 1.769 0l2.5-2.5a1.252 1.252 0 0 0 0-1.77l-4.375-4.375a3.023 3.023 0 0 0-3.5-.558L7.501 6.172v-2.11a.933.933 0 0 0-.367-.741L3.07.196zM.778 15.473a2.652 2.652 0 0 0 3.75 3.75L9.13 14.62a4.286 4.286 0 0 1-.141-2.543l-2.41-2.41-5.8 5.805zM20 5.625c0-.41-.043-.808-.125-1.191-.094-.438-.629-.55-.945-.234l-2.496 2.496a.627.627 0 0 1-.442.183H13.75a.627.627 0 0 1-.625-.625V4.008c0-.164.067-.324.184-.441l2.496-2.496c.316-.317.203-.852-.234-.946A5.745 5.745 0 0 0 14.375 0a5.626 5.626 0 0 0-5.624 5.625v.032l3.331 3.332a4.262 4.262 0 0 1 4.063 1.12l.613.614A5.632 5.632 0 0 0 20 5.625zM4.063 16.875c0 .52-.418.938-.937.938a.935.935 0 0 1-.938-.938c0-.52.418-.937.938-.937s.937.418.937.937z" fill-rule="evenodd"/>
</svg>
