<svg xmlns="http://www.w3.org/2000/svg" width="24" height="24" viewBox="0 0 24 24">
    <g fill="#0064ad" fill-rule="nonzero">
        <path d="M17.867.122c.028.018.055.04.08.065l3.893 3.94c.02.021.039.043.055.066A.498.498 0 0 1 22 4.5v19a.5.5 0 0 1-.5.5h-19a.5.5 0 0 1-.5-.5V.5a.5.5 0 0 1 .5-.5h15.04c.125 0 .24.046.327.122zm.173 1.582V4h2.268L18.04 1.704zM3 1v22h18V5h-3.46a.5.5 0 0 1-.5-.5V1H3z"/>
        <path d="M12.672 18h-1.297V9.437h1.297V18zM11.266 7.117c0-.297.073-.514.218-.652a.764.764 0 0 1 .547-.207c.209 0 .388.07.54.21.15.141.226.358.226.65 0 .29-.076.508-.227.652a.757.757 0 0 1-.539.214.75.75 0 0 1-.547-.214c-.145-.144-.218-.361-.218-.653z"/>
    </g>
</svg>
