<svg xmlns="http://www.w3.org/2000/svg" width="24" height="24" viewBox="0 0 24 24">
    <g fill="none" fill-rule="evenodd">
        <g>
            <g>
                <g>
                    <g>
                        <g fill-rule="nonzero">
                            <path fill="#FFDFBA" d="M15.6 21.556v2.03c0 .229-.181.414-.405.414H.405C.181 24 0 23.815 0 23.586v-2.03c0-2.13 1.691-3.856 3.778-3.857.737 0 1.387-.388 1.76-.975.376-.59.337-1.102.337-1.516l.008-.02c-1.818-.768-3.097-2.597-3.097-4.731v-.162c-.722 0-1.267-.583-1.267-1.27V6.877c-.016-.748.018-3.387 1.885-5.225C5.574-.485 9.014-.31 11.507.832c.08.038.078.156-.004.19l-.65.274c-.097.04-.076.187.028.198l.316.035c1.51.165 2.914 1.003 3.784 2.397.023.038.017.095-.013.128-.537.58-.837 1.35-.837 2.15v2.822c0 .7-.556 1.269-1.243 1.269h-.074v.162c0 2.134-1.279 3.963-3.097 4.732l.008.019c0 .402-.042.922.336 1.516.374.587 1.024.975 1.761.975 2.087 0 3.778 1.727 3.778 3.857z" transform="translate(-1212.000000, -136.000000) translate(501.000000, 128.000000) translate(703.000000, 0.000000) translate(8.000000, 8.000000) translate(3.600000, 0.000000)"/>
                            <path fill="#FFB602" d="M15.6 21.556v2.03c0 .229-.181.414-.405.414H.405C.181 24 0 23.815 0 23.586v-2.03c0-2.13 1.691-3.856 3.778-3.857.737 0 1.387-.388 1.76-.975 1.305 1.138 3.218 1.138 4.523 0 .374.587 1.024.975 1.761.975 2.087.001 3.778 1.727 3.778 3.857z" transform="translate(-1212.000000, -136.000000) translate(501.000000, 128.000000) translate(703.000000, 0.000000) translate(8.000000, 8.000000) translate(3.600000, 0.000000)"/>
                            <path fill="#4C4E51" d="M14.98 3.926c.024.038.018.095-.012.128-.537.58-.837 1.35-.837 2.15v2.822c0 .64-.473 1.269-1.317 1.269V7.1c0-1.37-1.088-2.482-2.43-2.482H5.216c-1.343 0-2.431 1.111-2.431 2.482v3.195c-.722 0-1.267-.583-1.267-1.27V6.877c-.016-.748.018-3.387 1.885-5.225C5.574-.485 9.014-.31 11.506.833c.081.037.08.155-.003.19l-.65.273c-.097.04-.077.187.028.198l.316.035c1.51.165 2.914 1.003 3.784 2.397z" transform="translate(-1212.000000, -136.000000) translate(501.000000, 128.000000) translate(703.000000, 0.000000) translate(8.000000, 8.000000) translate(3.600000, 0.000000)"/>
                            <path fill="#FFEBD2" d="M12.814 10.457c0 2.828-2.246 5.12-5.014 5.12-2.608 0-5.014-2.07-5.014-5.282V7.1c0-1.37 1.088-2.482 2.43-2.482h5.167c1.343 0 2.431 1.111 2.431 2.482v3.357z" transform="translate(-1212.000000, -136.000000) translate(501.000000, 128.000000) translate(703.000000, 0.000000) translate(8.000000, 8.000000) translate(3.600000, 0.000000)"/>
                            <path fill="#FFF" d="M11.903 23.12h-1.216c-.224 0-.405-.184-.405-.413 0-.228.181-.414.405-.414h1.216c.223 0 .405.186.405.414 0 .229-.182.414-.405.414z" transform="translate(-1212.000000, -136.000000) translate(501.000000, 128.000000) translate(703.000000, 0.000000) translate(8.000000, 8.000000) translate(3.600000, 0.000000)"/>
                            <path fill="#FFF3E4" d="M6.665 13.763c.824.527.174 1.818-.728 1.448-1.856-.76-3.151-2.607-3.151-4.754V7.1c0-.521.157-1.005.426-1.405.33-.49 1.093-.273 1.093.37v3.357c0 1.888.972 3.455 2.36 4.34z" transform="translate(-1212.000000, -136.000000) translate(501.000000, 128.000000) translate(703.000000, 0.000000) translate(8.000000, 8.000000) translate(3.600000, 0.000000)"/>
                            <path fill="#FFD6A6" d="M9.782 16.057c-1.248.534-2.62.575-3.964 0 .069-.29.057-.48.057-.849l.008-.02c1.22.518 2.612.519 3.834 0l.008.02c0 .37-.012.558.057.85z" transform="translate(-1212.000000, -136.000000) translate(501.000000, 128.000000) translate(703.000000, 0.000000) translate(8.000000, 8.000000) translate(3.600000, 0.000000)"/>
                            <path fill="#FFF" d="M5.819 18.949c-.188.06-.388.093-.604.095-2.091.019-3.797 1.707-3.797 3.843v.389c0 .4-.317.724-.709.724H.405C.181 24 0 23.815 0 23.586v-2.03c0-2.13 1.691-3.856 3.778-3.857.737 0 1.387-.388 1.76-.975.151.131.312.25.482.353.748.454.628 1.605-.201 1.872z" opacity=".329" transform="translate(-1212.000000, -136.000000) translate(501.000000, 128.000000) translate(703.000000, 0.000000) translate(8.000000, 8.000000) translate(3.600000, 0.000000)"/>
                            <path fill="#F36C32" d="M9.781 18.949c.188.06.388.093.604.095 2.091.019 3.797 1.707 3.797 3.843v.389c0 .4.317.724.709.724h.304c.224 0 .405-.185.405-.414v-2.03c0-2.13-1.691-3.856-3.778-3.857-.737 0-1.387-.388-1.76-.975-.151.131-.312.25-.482.353-.747.454-.628 1.605.201 1.872z" transform="translate(-1212.000000, -136.000000) translate(501.000000, 128.000000) translate(703.000000, 0.000000) translate(8.000000, 8.000000) translate(3.600000, 0.000000)"/>
                            <path fill="#FFF" d="M11.503 1.023c-.596.25-.68.305-.887.273C7.29.769 4.371 2.174 3.38 5.474c-.37.436-.594 1.004-.594 1.626v1.94c0 .838-1.267.896-1.267-.014v-2.15c-.016-.748.018-3.387 1.885-5.225C5.574-.485 9.014-.31 11.507.832c.08.038.078.156-.004.19z" opacity=".172" transform="translate(-1212.000000, -136.000000) translate(501.000000, 128.000000) translate(703.000000, 0.000000) translate(8.000000, 8.000000) translate(3.600000, 0.000000)"/>
                        </g>
                        <g fill-rule="nonzero">
                            <path fill="#0064ad" d="M4.8 0c2.647 0 4.8 2.153 4.8 4.8S7.447 9.6 4.8 9.6 0 7.447 0 4.8 2.153 0 4.8 0z" transform="translate(-1212.000000, -136.000000) translate(501.000000, 128.000000) translate(703.000000, 0.000000) translate(8.000000, 8.000000) translate(14.400000, 14.400000)"/>
                            <path fill="#FFF" d="M4.689 1.929c-.326.053-.575.336-.575.677v1.508H2.606c-.379 0-.686.307-.686.686l.009.111c.053.326.336.575.677.575l1.508-.001v1.51c0 .378.307.685.686.685l.111-.009c.326-.053.575-.336.575-.677l-.001-1.51 1.51.002c.378 0 .685-.307.685-.686l-.009-.111c-.053-.326-.336-.575-.677-.575h-1.51l.002-1.508c0-.379-.307-.686-.686-.686l-.111.009z" transform="translate(-1212.000000, -136.000000) translate(501.000000, 128.000000) translate(703.000000, 0.000000) translate(8.000000, 8.000000) translate(14.400000, 14.400000)"/>
                        </g>
                    </g>
                </g>
            </g>
        </g>
    </g>
</svg>
