<svg xmlns="http://www.w3.org/2000/svg" width="24" height="24" viewBox="0 0 24 24">
    <g fill-rule="evenodd">
        <g>
            <g>
                <g>
                    <g>
                        <path fill-rule="nonzero" d="M9.55 0c1.723 0 3.014.43 3.843 1.281l.121.131c.62.706.796 1.511.838 2.045l.01.176.001.15-.006.17-.006.069V6.15l.09.113c.171.233.277.507.303.793l.007.144v1.6l-.006.132c-.036.436-.25.836-.593 1.112-.238.943-.645 1.735-.975 2.27l-.146.228-.129.19-.151.207v1.323l.005.105c.03.307.194.585.447.762l.1.061 1.216.662-.02.03.01-.015c.085-.125.176-.246.272-.363.027-.034.054-.065.08-.095l.063-.072.076-.083.082-.086.063-.063.095-.092.064-.059c.043-.04.088-.079.133-.117l.028-.024.117-.095.07-.054c.115-.088.234-.171.357-.25l.077-.048c.04-.025.082-.05.123-.073l.062-.035c.047-.027.094-.052.141-.077l.053-.027c.045-.023.091-.045.137-.066.03-.014.059-.028.088-.04l.14-.06.059-.024c.055-.022.112-.044.17-.064l.047-.017.123-.04c.069-.022.138-.043.208-.062.035-.01.07-.019.106-.027l.088-.022.131-.028.096-.019.161-.027.054-.007.172-.022.081-.008.193-.014.032-.001c.083-.004.166-.006.249-.006 2.867 0 5.2 2.333 5.2 5.2S21.667 24 18.8 24l-.095-.003-.124-.002-.038-.001.257.006c-.11 0-.217-.003-.325-.01l-.192-.015-.063-.007c-.063-.007-.127-.015-.19-.025l-.071-.011c-.08-.013-.16-.028-.24-.045l-.054-.012c-.055-.012-.11-.025-.165-.04-.044-.01-.088-.023-.131-.035-.037-.01-.074-.022-.11-.033l-.09-.03c-.064-.02-.127-.042-.189-.066l-.043-.016c-.072-.028-.143-.057-.214-.088l-.078-.035c-.052-.023-.103-.048-.154-.073l-.058-.03c-.055-.028-.11-.057-.164-.088l-.046-.026c-.142-.08-.28-.168-.412-.262l-.051-.037c-.05-.036-.1-.072-.147-.11l-.05-.04c-.046-.036-.092-.074-.136-.112l-.054-.046c-.06-.053-.118-.106-.175-.161l-.147-.147H.4c-.2 0-.364-.145-.395-.335L0 22v-1.696c0-1.263.66-2.429 1.732-3.081l.148-.086L5.45 15.19c.309-.168.512-.478.546-.823L6 14.262v-1.323l-.151-.207-.13-.19-.145-.228c-.33-.535-.737-1.327-.975-2.27-.344-.276-.557-.676-.594-1.112L4 8.8V7.2c0-.337.11-.665.31-.937l.09-.113V4.022l-.009-.118-.004-.192.006-.164c.028-.53.188-1.388.844-2.136C6.058.475 7.392 0 9.2 0l.175.002L9.551 0zm9.25 15.1l-.203.006c-.025 0-.05.002-.074.004l-.14.013.14-.013c-.066.005-.132.012-.197.02l.057-.007c-.068.008-.136.018-.203.03l.146-.023c-.074.01-.148.022-.22.036l.074-.014c-.065.011-.128.024-.192.038l.117-.024c-.068.013-.136.028-.203.044l.086-.02c-.068.015-.136.033-.204.052l.118-.032c-.063.016-.126.034-.188.053l.07-.021c-.066.019-.131.04-.196.062l.126-.041c-.066.02-.132.043-.197.067l.07-.026c-.056.02-.112.04-.167.063l.097-.037c-.063.023-.126.049-.188.075l.09-.038c-.1.041-.2.087-.298.136-.083.043-.164.089-.243.137l-.061.038.061-.038c-.05.031-.1.063-.15.097l.089-.06c-.056.036-.11.073-.164.111l.075-.051c-.052.035-.102.071-.152.108l.077-.057c-.057.04-.112.083-.166.126l.09-.069c-.054.04-.106.082-.157.125l.067-.056c-.05.04-.1.082-.147.125l.08-.07c-.052.045-.103.09-.152.137l.072-.067c-.05.044-.098.09-.146.137l.074-.07c-.047.044-.093.09-.138.136l.064-.066c-.036.036-.072.073-.107.111l.043-.045c-.067.07-.13.142-.192.217-.025.03-.05.061-.074.093l-.108.148c-.414.597-.656 1.321-.656 2.1 0 1.15.528 2.178 1.353 2.858l.103.082-.103-.082c.052.042.104.083.158.123l-.055-.041c.047.036.095.07.144.104l-.089-.063c.064.047.13.092.196.135l-.107-.072c.052.037.106.072.16.105l-.053-.033c.052.033.106.065.16.096l-.107-.063c.06.037.12.073.182.106l-.075-.043c.058.034.118.066.18.097l-.105-.054c.049.027.098.052.148.076l-.044-.022c.057.028.115.056.173.081l.177.073.101.036-.101-.036c.062.023.124.045.187.065l-.086-.029c.07.024.14.046.21.065l-.124-.036c.062.02.125.038.189.054l-.065-.018c.062.018.125.034.188.048l-.123-.03c.067.018.135.033.203.047l-.08-.017c.062.013.124.026.186.036l-.106-.02c.077.016.155.03.234.04l-.128-.02c.066.011.131.02.197.028l-.07-.008c.065.008.13.015.194.02l-.124-.012c.073.008.146.015.22.019l.202.005c2.039 0 3.7-1.661 3.7-3.7 0-1.973-1.556-3.592-3.504-3.695L18.8 15.1zm0 1.45c.296 0 .536.24.536.536l-.001 1.178h1.18c.265 0 .486.195.528.45l.007.086c0 .296-.24.536-.536.536l-1.179-.001v1.18c0 .265-.194.486-.448.528l-.087.007c-.296 0-.536-.24-.536-.536v-1.179h-1.178c-.266 0-.487-.194-.529-.448l-.007-.087c0-.296.24-.536.536-.536h1.178v-1.178c0-.266.195-.487.45-.529zM9.57 1.5l-.214.002L9.2 1.5c-1.412 0-2.333.328-2.835.9-.267.305-.412.674-.459 1.04l-.014.156-.005.086v.11l.013.23v2.656l-.38.472-.015.026L5.5 7.2 5.5 8.738l.001.07c.002.017.007.032.018.046l.02.02.392.314.123.488c.142.563.371 1.106.645 1.593l.14.239.121.19.1.148.441.603-.002 1.887-.01.179c-.078.78-.509 1.48-1.165 1.9l-.156.092-3.537 1.93-.119.067c-.58.353-.95.96-1.004 1.631l-.007.17-.001.595 12.544.001c-.285-.643-.443-1.354-.443-2.101 0-.705.141-1.378.396-1.991l-.194.36-1.289-.703-.168-.107c-.561-.391-.94-.99-1.06-1.717l-.027-.201-.007-.179v-1.813l.412-.562.104-.151.133-.208c.29-.472.535-.987.705-1.526l.093-.326.123-.488.393-.314.026-.023c.002-.002.004-.002.006.001v.018l.005-.07.001-1.53-.002-.09c.001 0 .003 0 .007.004l-.406-.506V4.022l.012-.224.001-.083-.007-.14c-.03-.371-.14-.725-.338-1.009l-.106-.136-.094-.102c-.479-.491-1.3-.787-2.504-.824L9.57 1.5z" transform="translate(-1212.000000, -136.000000) translate(501.000000, 128.000000) translate(703.000000, 0.000000) translate(8.000000, 8.000000)"/>
                    </g>
                </g>
            </g>
        </g>
    </g>
</svg>
