<svg xmlns="http://www.w3.org/2000/svg" width="28" height="28" viewBox="0 0 28 28">
    <g fill="none" fill-rule="evenodd">
        <g fill="#FFF">
            <g>
                <g>
                    <path d="M21.933 15.867c3.345 0 6.067 2.721 6.067 6.066C28 25.278 25.278 28 21.933 28s-6.066-2.722-6.066-6.067 2.721-6.066 6.066-6.066zm0 1.5c-2.516 0-4.566 2.05-4.566 4.566 0 2.517 2.05 4.567 4.566 4.567 2.517 0 4.567-2.05 4.567-4.567 0-2.516-2.05-4.566-4.567-4.566zM11.267 0c2.11 0 3.665.554 4.623 1.647.714.815.924 1.741.976 2.364l.01.128.005.192-.004.224-.01.137v2.483l.106.132c.199.272.321.592.352.925l.008.168v1.867l-.006.154c-.042.508-.291.975-.692 1.297-.25.99-.66 1.837-1.02 2.452l-.118.196-.17.267-.15.221-.177.241v1.544l.006.122c.036.359.226.684.522.89l.115.07.446.243c-.771 1.132-1.222 2.499-1.222 3.97 0 1.571.515 3.025 1.386 4.2H.467c-.233 0-.425-.17-.46-.392L0 25.667v-1.978c0-1.475.769-2.834 2.02-3.596l.174-.1 4.163-2.271c.36-.197.597-.557.637-.96L7 16.638v-1.544l-.176-.24-.151-.222-.17-.267c-.385-.624-.86-1.548-1.138-2.648-.4-.322-.65-.789-.692-1.297l-.006-.154V8.4c0-.393.128-.776.36-1.093l.106-.132V4.692l-.01-.137-.004-.224.006-.192c.033-.618.22-1.619.985-2.492C7.068.554 8.624 0 10.733 0l.205.003L11 0l.062.002.205-.003zm10.666 18.69c.38 0 .694.282.743.648l.007.102v1.75h1.75c.415 0 .75.336.75.75 0 .38-.282.693-.648.743l-.102.007h-1.75v1.75c0 .414-.335.75-.75.75-.38 0-.693-.282-.743-.648l-.007-.102v-1.75h-1.75c-.414 0-.75-.336-.75-.75 0-.38.282-.693.649-.743l.101-.007h1.75v-1.75c0-.414.336-.75.75-.75zM11.274 1.499l-.25.003.015-.002-.12.003-.186-.003c-1.713 0-2.857.407-3.495 1.136-.353.403-.54.888-.598 1.37l-.016.181-.006.114.001.142.01.138.004.111v3.011l-.33.412-.066.079c-.03.042-.052.088-.062.135l-.008.071-.002 1.805.003.092c.006.073.034.141.082.198l.054.052.392.315.124.488c.171.68.447 1.333.778 1.921l.17.289.144.228.122.18.466.637-.002 2.108-.011.196c-.083.834-.544 1.582-1.245 2.031l-.167.098-4.132 2.254-.143.082c-.753.459-1.233 1.252-1.293 2.126l-.007.189-.001.944 12.303.001c-.25-.757-.396-1.546-.428-2.353l-.007-.348c0-1.159.232-2.286.671-3.326l.097-.218c-.31-.375-.518-.836-.602-1.356l-.025-.198-.008-.196v-2.034l.437-.596.125-.183.149-.232.11-.181c.312-.535.574-1.108.758-1.703l.101-.36.124-.488.392-.315c.06-.048.102-.11.121-.153l.011-.035.005-.092.002-1.797-.003-.099-.007-.045-.021-.08-.437-.543v-3.01l.004-.112.006-.056.005-.147-.003-.136-.007-.106c-.046-.55-.234-1.072-.61-1.5-.6-.686-1.65-1.087-3.199-1.132l-.289-.005z" transform="translate(-887 -597) translate(877 587) translate(10 10)"/>
                </g>
            </g>
        </g>
    </g>
</svg>
