<svg xmlns="http://www.w3.org/2000/svg" width="32" height="32" viewBox="0 0 32 32">
    <g fill="none" fill-rule="evenodd">
        <g fill="#0064ad" fill-rule="nonzero">
            <g>
                <path d="M12.939 1c2.152 0 3.767.538 4.802 1.602l.152.163c.774.883.995 1.889 1.047 2.556l.012.22.002.189-.008.21-.007.088v2.66l.113.14c.214.292.345.635.378.992l.009.18v2l-.007.165c-.045.545-.312 1.045-.742 1.39-.298 1.178-.807 2.168-1.219 2.838l-.182.285-.161.237-.19.259v1.654l.007.13c.038.385.243.733.559.953l.124.076 1.519.83-.032.046C20.285 19.137 22.262 18 24.5 18c3.584 0 6.5 2.916 6.5 6.5S28.084 31 24.5 31c-1.855 0-3.53-.78-4.716-2.03l.03.031H1.5c-.249 0-.455-.182-.493-.42L1 28.501v-2.12c0-1.58.824-3.037 2.165-3.853l.186-.107 4.46-2.434c.386-.21.64-.596.683-1.029l.006-.13v-1.654l-.189-.259-.162-.237-.182-.285c-.412-.67-.92-1.66-1.218-2.838-.43-.345-.697-.845-.742-1.39L6 12v-2c0-.421.137-.832.387-1.171l.113-.141v-2.66l-.01-.147-.006-.241.007-.205c.036-.662.235-1.735 1.055-2.67C8.573 1.593 10.24 1 12.5 1l.219.003.22-.003zM24.5 19c-3.032 0-5.5 2.468-5.5 5.5s2.468 5.5 5.5 5.5 5.5-2.468 5.5-5.5-2.468-5.5-5.5-5.5zM12.951 2l-.245.003L12.5 2c-1.996 0-3.388.496-4.202 1.424-.473.54-.717 1.18-.79 1.827l-.018.216-.006.153.002.186.014.222V9.04l-.307.38c-.1.137-.164.295-.185.457L7 10v1.959l.003.124c.02.232.12.447.284.613l.087.078.262.21.082.326c.202.8.527 1.563.92 2.254l.173.29.165.261.142.21.382.522-.001 2.03-.01.18c-.07.704-.457 1.336-1.047 1.718l-.152.09-4.44 2.422-.166.095c-.984.6-1.607 1.64-1.677 2.783L2 26.381 1.997 28l17.03.003.031.049C18.39 27.03 18 25.81 18 24.5c0-1.01.231-1.966.644-2.82l-1.542-.842-.17-.107c-.506-.352-.848-.89-.96-1.529l-.026-.194-.007-.18v-1.981l.362-.495.145-.212.174-.272c.419-.68.77-1.429 1.007-2.218l.094-.34.082-.326.261-.21c.18-.144.302-.34.35-.534l.019-.116.006-.124v-1.954l-.004-.133c-.014-.14-.058-.278-.116-.384l-.046-.074-.334-.415.003-3.097.005-.041.007-.162v-.144l-.01-.197c-.05-.635-.25-1.25-.633-1.766l-.153-.19-.133-.144c-.776-.797-2.024-1.244-3.756-1.294L12.951 2zM24.5 21c.276 0 .5.224.5.5V24h2.5c.276 0 .5.224.5.5s-.224.5-.5.5H25v2.5c0 .276-.224.5-.5.5s-.5-.224-.5-.5V25h-2.5c-.276 0-.5-.224-.5-.5s.224-.5.5-.5H24v-2.5c0-.276.224-.5.5-.5z" transform="translate(-1212 -135) translate(1212 135)"/>
            </g>
        </g>
    </g>
</svg>
