<svg xmlns="http://www.w3.org/2000/svg" width="32" height="32" viewBox="0 0 32 32">
    <g fill="none" fill-rule="evenodd">
        <g fill="#0064ad" fill-rule="nonzero">
            <g>
                <g>
                    <path d="M20.889 1c.118 0 .232.037.326.103l.067.056 5.555 5.416c.084.082.138.186.156.298l.007.085.001 11.542-.038-.015C29.329 19.457 31 21.787 31 24.5c0 3.584-2.916 6.5-6.5 6.5-1.853 0-3.528-.78-4.713-2.028l.028.03L7.222 29c-1.172 0-2.135-.889-2.216-2.012L5 26.833V3.167c0-1.143.912-2.082 2.064-2.162L7.222 1H20.89zM24.5 19c-3.032 0-5.5 2.468-5.5 5.5s2.468 5.5 5.5 5.5 5.5-2.468 5.5-5.5-2.468-5.5-5.5-5.5zm0 2c.276 0 .5.224.5.5V24h2.5c.276 0 .5.224.5.5s-.224.5-.5.5H25v2.5c0 .276-.224.5-.5.5s-.5-.224-.5-.5V25h-2.5c-.276 0-.5-.224-.5-.5s.224-.5.5-.5H24v-2.5c0-.276.224-.5.5-.5zM20.333 2.083H7.223c-.572 0-1.045.424-1.105.966l-.007.118v23.666c0 .558.434 1.018.99 1.077l.121.007h11.75l-.008-.014c-.611-.99-.964-2.156-.964-3.403 0-3.584 2.916-6.5 6.5-6.5.467 0 .924.05 1.363.144l.026.005V7.5h-3.333c-1.173 0-2.136-.889-2.217-2.012l-.006-.155v-3.25zM17.5 18c.276 0 .5.224.5.5s-.224.5-.5.5h-7c-.276 0-.5-.224-.5-.5s.224-.5.5-.5h7zm4-4c.276 0 .5.224.5.5s-.224.5-.5.5h-11c-.276 0-.5-.224-.5-.5s.224-.5.5-.5h11zm0-4c.276 0 .5.224.5.5s-.224.5-.5.5h-11c-.276 0-.5-.224-.5-.5s.224-.5.5-.5h11zm-.056-7.15v2.483c0 .558.435 1.018.99 1.077l.122.007h2.547l-3.659-3.568z" transform="translate(-609 -689) translate(501 678) translate(108 11)"/>
                </g>
            </g>
        </g>
    </g>
</svg>
