<svg xmlns="http://www.w3.org/2000/svg" width="32" height="32" viewBox="0 0 32 32">
    <path fill-rule="evenodd" d="M28.837 5.575c.104.102.163.24.163.383v23.875C29 31.028 28.003 32 26.778 32H5.222C3.997 32 3 31.028 3 29.833V2.167C3 .972 3.997 0 5.222 0H22.89c.147 0 .288.057.393.159l5.555 5.416zm-1.734-.158l-3.659-3.568v2.484c0 .598.499 1.084 1.112 1.084h2.547zm.786 24.416V6.5h-3.333c-1.226 0-2.223-.972-2.223-2.167v-3.25H5.223c-.613 0-1.112.486-1.112 1.084v27.666c0 .598.499 1.084 1.111 1.084h21.556c.612 0 1.11-.486 1.11-1.084zM15.6 10.1v5.5h-5.5v.8h5.5v5.5h.8v-5.5h5.5v-.8h-5.5v-5.5h-.8zm1.9 4.4H22a1 1 0 0 1 1 1v1a1 1 0 0 1-1 1h-4.5V22a1 1 0 0 1-1 1h-1a1 1 0 0 1-1-1v-4.5H10a1 1 0 0 1-1-1v-1a1 1 0 0 1 1-1h4.5V10a1 1 0 0 1 1-1h1a1 1 0 0 1 1 1v4.5z"/>
</svg>
