<?xml version="1.0" encoding="UTF-8"?>
<svg width="48px" height="48px" viewBox="0 0 48 48" version="1.1" xmlns="http://www.w3.org/2000/svg" xmlns:xlink="http://www.w3.org/1999/xlink">
    <g id="Symbols" stroke="none" stroke-width="1" fill="none" fill-rule="evenodd">
        <g id="Icons/Alert-yellow" fill="#ffb602">
            <path d="M46.186101,38.6792354 L26.4972425,6.37153099 C25.9762709,5.51671111 25.0148668,4.97949548 23.9999062,4.97949548 C22.9849339,4.97949548 22.0235222,5.51672295 21.5024955,6.37159216 L1.81379502,38.6790984 C1.27728226,39.5595205 1.26139125,40.6628643 1.77214651,41.5577838 C2.28596438,42.4578484 3.26001397,43.0204118 4.31109375,43.0204118 L43.6887187,43.0204118 C44.7398358,43.0204118 45.7139413,42.4578191 46.2276656,41.5578559 C46.7385142,40.6627108 46.7226063,39.5594182 46.186101,38.6792354 Z M47.3815312,37.9505747 C48.1832812,39.265914 48.207,40.9140769 47.4435937,42.2517715 C46.68,43.5894661 45.2412187,44.4204118 43.6887187,44.4204118 L4.31109375,44.4204118 C2.75859375,44.4204118 1.31990625,43.5894661 0.5563125,42.2518643 C-0.20709375,40.9142624 -0.183375,39.2660995 0.61828125,37.9505747 L20.307,5.64303846 C21.0827812,4.37018326 22.49775,3.57949548 23.9999062,3.57949548 C25.5020625,3.57949548 26.9170312,4.37018326 27.6927187,5.6429457 L47.3815312,37.9505747 Z M24.0144375,16.0013688 C23.1194131,16.0013688 22.5979375,16.4092569 22.5979375,17.0513824 C22.5979375,18.4579785 22.6484419,19.7764696 22.8000279,22.8838112 C22.9528231,26.0159384 23.0037812,27.346315 23.0037812,28.7844511 C23.0038187,29.1396376 23.3196276,29.3467127 24.0145312,29.3467127 C24.5621207,29.3467127 24.996125,29.0806708 24.996125,28.7845249 C24.996125,27.3463247 25.0470795,26.0160836 25.1998783,22.8838807 C25.3514608,19.776613 25.4019687,18.457989 25.4019687,17.0513824 C25.4019687,16.4206399 24.8659612,16.0013688 24.0144375,16.0013688 Z M24.0144375,14.6013688 C25.5742722,14.6013688 26.8019687,15.5616868 26.8019687,17.0513824 C26.8019687,18.4895922 26.7510106,19.8199688 26.5982249,22.9519021 C26.4466294,26.0594376 26.396125,27.3779288 26.396125,28.7845249 C26.396125,30.0355811 25.2360286,30.7467127 24.0145312,30.7467127 C22.63973,30.7467127 21.6039165,30.0675326 21.6037812,28.7845249 C21.6037812,27.3779183 21.5532733,26.0592942 21.4017003,22.9522205 C21.248892,19.8198237 21.1979375,18.4895825 21.1979375,17.0513824 C21.1979375,15.5502891 22.4111101,14.6013688 24.0144375,14.6013688 Z M24.0435938,33.7261222 C23.1755788,33.7261222 22.5110313,34.3955783 22.5110313,35.2351131 C22.5110313,36.0573721 23.1866613,36.7441041 24.0435938,36.7441041 C24.8393521,36.7441041 25.5471875,36.0311343 25.5471875,35.2351131 C25.5471875,34.421609 24.8505093,33.7261222 24.0435938,33.7261222 Z M24.0435938,32.3261222 C25.623172,32.3261222 26.9471875,33.6478734 26.9471875,35.2351131 C26.9471875,36.802077 25.6148248,38.1441041 24.0435938,38.1441041 C22.4083091,38.1441041 21.1110313,36.8255093 21.1110313,35.2351131 C21.1110313,33.6246765 22.4000644,32.3261222 24.0435938,32.3261222 Z" id="Combined-Shape"></path>
        </g>
    </g>
</svg>