<?xml version="1.0" encoding="UTF-8"?>
<svg width="48px" height="48px" viewBox="0 0 48 48" version="1.1" xmlns="http://www.w3.org/2000/svg" xmlns:xlink="http://www.w3.org/1999/xlink">
    <g id="Symbols" stroke="none" stroke-width="1" fill="none" fill-rule="evenodd">
        <g id="Icons/Alert-red" fill="#f33232">
            <path d="M34.8401406,5.29383439 C31.5310391,3.36288558 27.9273236,2.4 24.0007343,2.4 C20.0741538,2.4 16.4693875,3.36308761 13.161232,5.29382916 C9.84583108,7.2284868 7.22931901,9.84488857 5.29409506,13.1605532 C3.36315113,16.468913 2.4,20.0736329 2.4,24 C2.4,27.9258098 3.36308889,31.5301002 5.29376598,34.8392124 C7.22885155,38.1545129 9.84537168,40.7709965 13.1608079,42.7061682 C16.4695637,44.6369317 20.0740921,45.6 24.0003147,45.6 C27.926667,45.6 31.5315819,44.6368678 34.8400491,42.7061578 C38.154661,40.7720428 40.7712945,38.1551507 42.7065543,34.8393824 C44.6370304,31.5309104 45.6,27.926208 45.6,23.9999648 C45.6000987,20.073673 44.6371833,16.4687515 42.7070183,13.1604839 C40.7718164,9.84519834 38.1553059,7.22876579 34.8401406,5.29383439 Z M43.9161794,12.4548427 C45.9720248,15.9784737 47.0001049,19.8270693 47,24 C47,28.1725111 45.9720248,32.0208969 43.9157599,35.5449475 C41.8591802,39.0685785 39.0693815,41.8592036 35.5456295,43.9153543 C32.0216677,45.9718197 28.1730546,47 24.0003147,47 C19.8275747,47 15.9793812,45.9718197 12.4552097,43.9153543 C8.93124789,41.8584694 6.1413443,39.0685785 4.08465973,35.5449475 C2.02839474,32.0205822 1,28.1727209 1,24 C1,19.8274889 2.02808005,15.9789982 4.08497441,12.4548427 C6.14176388,8.93089703 8.93166747,6.14100617 12.4556292,4.08464566 C15.9793812,2.02807536 19.8278894,1 24.0007343,1 C28.1739987,1 32.0213531,2.02807536 35.5457344,4.08464566 C39.0694864,6.14132086 41.85939,8.93121172 43.9161794,12.4548427 Z M28.1646261,24 L33.5815682,29.3836921 C33.8603055,29.6609131 34,30.006449 34,30.4223209 C34,30.8530686 33.8607942,31.207255 33.5815682,31.4843143 L31.4652987,33.5614912 C31.1703519,33.8538304 30.821971,34 30.4186083,34 C30.0152456,34 29.6663759,33.8537495 29.3719179,33.5614912 L24,28.222367 L18.6280821,33.5614912 C18.3336241,33.8537495 17.9847544,34 17.5813917,34 C17.178029,34 16.8296481,33.8538304 16.5347013,33.5614912 L14.4184318,31.4843143 C14.1392058,31.207255 14,30.8530686 14,30.4223209 C14,30.006449 14.1396945,29.6609131 14.4184318,29.3836921 L19.8353739,24 L14.4184318,18.6163079 C14.1396945,18.3390869 14,17.993551 14,17.5776791 C14,17.1469314 14.1392058,16.792745 14.4184318,16.5156857 L16.5347013,14.4385088 C16.8296481,14.1461696 17.178029,14 17.5813917,14 C17.9847544,14 18.3336241,14.1462505 18.6280821,14.4385088 L24,19.777633 L29.3719179,14.4385088 C29.6663759,14.1462505 30.0152456,14 30.4186083,14 C30.821971,14 31.1703519,14.1461696 31.4652987,14.4385088 L33.5815682,16.5156857 C33.8607942,16.792745 34,17.1469314 34,17.5776791 C34,17.993551 33.8603055,18.3390869 33.5815682,18.6163079 L28.1646261,24 Z M27.182293,23.0250617 L32.5839433,17.6565463 C32.6000309,17.6405451 32.6,17.6406217 32.6,17.5776791 C32.6,17.4957787 32.5971569,17.4885584 32.5840581,17.4755612 L30.4731346,15.4036602 C30.4332491,15.3641506 30.4424277,15.3679973 30.4186083,15.3679973 C30.3947923,15.3679973 30.4038805,15.3641892 30.3695713,15.3982422 L24.9374503,20.7971179 L24,21.6965027 L23.0625497,20.7971179 L17.6304287,15.3982422 C17.5961195,15.3641892 17.6052077,15.3679973 17.5813917,15.3679973 C17.5575723,15.3679973 17.5667509,15.3641506 17.5268654,15.4036602 L15.4159419,17.4755612 C15.4028431,17.4885584 15.4,17.4957787 15.4,17.5776791 C15.4,17.6406217 15.3999691,17.6405451 15.4160567,17.6565463 L20.817707,23.0250617 L21.8000401,24 L20.817707,24.9749383 L15.4160567,30.3434537 C15.3999691,30.3594549 15.4,30.3593783 15.4,30.4223209 C15.4,30.5042213 15.4028431,30.5114416 15.4159419,30.5244388 L17.5268654,32.5963398 C17.5667509,32.6358494 17.5575723,32.6320027 17.5813917,32.6320027 C17.6052077,32.6320027 17.5961195,32.6358108 17.6304287,32.6017578 L23.0625497,27.2028821 L24,26.2735596 L24.9374503,27.2028821 L30.3695713,32.6017578 C30.4038805,32.6358108 30.3947923,32.6320027 30.4186083,32.6320027 C30.4424277,32.6320027 30.4332491,32.6358494 30.4731346,32.5963398 L32.5840581,30.5244388 C32.5971569,30.5114416 32.6,30.5042213 32.6,30.4223209 C32.6,30.3593783 32.6000309,30.3594549 32.5839433,30.3434537 L27.182293,24.9749383 L26.1999599,24 L27.182293,23.0250617 Z" id="Combined-Shape"></path>
        </g>
    </g>
</svg>