<?xml version="1.0" encoding="UTF-8"?>
<svg width="48px" height="48px" viewBox="0 0 48 48" version="1.1" xmlns="http://www.w3.org/2000/svg" xmlns:xlink="http://www.w3.org/1999/xlink">
    <g id="Symbols" stroke="none" stroke-width="1" fill="none" fill-rule="evenodd">
        <g id="Icons/Alert-green" fill="#0064ad">
            <path d="M34.8401406,5.29383439 C31.5310391,3.36288558 27.9273236,2.4 24.0007343,2.4 C20.0741538,2.4 16.4693875,3.36308761 13.161232,5.29382916 C9.84583108,7.2284868 7.22931901,9.84488857 5.29409506,13.1605532 C3.36315113,16.468913 2.4,20.0736329 2.4,24 C2.4,27.9258098 3.36308889,31.5301002 5.29376598,34.8392124 C7.22885155,38.1545129 9.84537168,40.7709965 13.1608079,42.7061682 C16.4695637,44.6369317 20.0740921,45.6 24.0003147,45.6 C27.926667,45.6 31.5315819,44.6368678 34.8400491,42.7061578 C38.154661,40.7720428 40.7712945,38.1551507 42.7065543,34.8393824 C44.6370304,31.5309104 45.6,27.926208 45.6,23.9999648 C45.6000987,20.073673 44.6371833,16.4687515 42.7070183,13.1604839 C40.7718164,9.84519834 38.1553059,7.22876579 34.8401406,5.29383439 Z M43.9161794,12.4548427 C45.9720248,15.9784737 47.0001049,19.8270693 47,24 C47,28.1725111 45.9720248,32.0208969 43.9157599,35.5449475 C41.8591802,39.0685785 39.0693815,41.8592036 35.5456295,43.9153543 C32.0216677,45.9718197 28.1730546,47 24.0003147,47 C19.8275747,47 15.9793812,45.9718197 12.4552097,43.9153543 C8.93124789,41.8584694 6.1413443,39.0685785 4.08465973,35.5449475 C2.02839474,32.0205822 1,28.1727209 1,24 C1,19.8274889 2.02808005,15.9789982 4.08497441,12.4548427 C6.14176388,8.93089703 8.93166747,6.14100617 12.4556292,4.08464566 C15.9793812,2.02807536 19.8278894,1 24.0007343,1 C28.1739987,1 32.0213531,2.02807536 35.5457344,4.08464566 C39.0694864,6.14132086 41.85939,8.93121172 43.9161794,12.4548427 Z M19.2164752,25.3490611 L15.6304287,21.7066515 C15.5961195,21.6718019 15.6052077,21.6756991 15.5813917,21.6756991 C15.5575723,21.6756991 15.5667509,21.6717624 15.5268654,21.7121963 L13.4159419,23.8325669 C13.4028431,23.8458682 13.4,23.8532574 13.4,23.9370737 C13.4,24.0014888 13.3999691,24.0014104 13.4160567,24.0177859 L21.8351684,32.5689924 C21.8696401,32.6040263 21.8602575,32.6 21.8836898,32.6 C21.9269216,32.6 21.9237964,32.6013119 21.9558567,32.5687199 L34.5847769,19.7408285 C34.6003363,19.72507 34.6,19.7259242 34.6,19.6612918 C34.6,19.577771 34.5974718,19.5712061 34.5890829,19.5626863 L32.4669936,17.4307039 C32.4330168,17.3961634 32.4419623,17.4 32.4186083,17.4 C32.3951269,17.4 32.4043447,17.396045 32.3686078,17.4323432 L24.5522573,25.3522987 L23.1612956,26.7616974 L21.8827241,28.0572163 L20.6057256,26.7601468 L19.2164752,25.3490611 Z M21.8839341,26.0629263 L31.3721622,16.4489327 C31.6667832,16.1496718 32.0154899,16 32.4186083,16 C32.8214008,16 33.1706777,16.1496718 33.4650543,16.4489327 L35.5813238,18.5750336 C35.8608757,18.8583261 36,19.2204674 36,19.6612918 C36,20.0866444 35.8608757,20.4410083 35.580998,20.7244663 L22.9535132,33.5509018 C22.6588923,33.8504109 22.3025288,34 21.8836898,34 C21.4806529,34 21.1319461,33.8504109 20.8372437,33.5509018 L12.4184318,25 C12.1396945,24.7162937 12,24.3626744 12,23.9370737 C12,23.4962492 12.1392058,23.1337771 12.4184318,22.8502363 L14.5347013,20.7244663 C14.8296481,20.4252882 15.178029,20.2756991 15.5813917,20.2756991 C15.9847544,20.2756991 16.3336241,20.4253709 16.6280821,20.7244663 L21.8839341,26.0629263 Z" id="Combined-Shape"></path>
        </g>
    </g>
</svg>