<svg xmlns="http://www.w3.org/2000/svg" viewBox="0 0 7 12">
    <g fill="none" fill-rule="evenodd">
        <g fill="#4C4E51">
            <g>
                <path d="M12.136 16.312c-.088-.082-.136-.193-.136-.31 0-.118.048-.228.136-.31l5.79-5.564c.088-.083.205-.128.33-.128.125 0 .241.045.33.128l.278.262c.088.082.136.192.136.31 0 .117-.048.226-.136.309l-5.184 4.993 5.18 4.99c.182.17.182.447 0 .618l-.278.262c-.088.083-.205.128-.33.128-.124 0-.241-.045-.329-.128l-5.787-5.56z" transform="translate(-31 -521) translate(19 511)"/>
            </g>
        </g>
    </g>
</svg>
