<svg xmlns="http://www.w3.org/2000/svg" width="24" height="24" viewBox="0 0 24 24">
    <path fill="#0064ad" fill-rule="nonzero" d="M13.1 10.572a.576.576 0 0 1 .831 0c1.41 1.441 1.41 3.79 0 5.231L8.929 20.92a3.565 3.565 0 0 1-5.115 0l-.753-.77A3.702 3.702 0 0 1 2 17.534c0-.988.378-1.917 1.061-2.616l5.002-5.116c.23-.235.6-.235.831 0 .23.236.23.614 0 .85l-5.002 5.116a2.54 2.54 0 0 0 0 3.532l.753.77a2.406 2.406 0 0 0 3.453 0l5.002-5.116a2.54 2.54 0 0 0 0-3.532.608.608 0 0 1 0-.85zm8.843-6.721A3.717 3.717 0 0 1 23 6.466c0 .988-.378 1.917-1.061 2.616l-5.002 5.116a.567.567 0 0 1-.827 0 .608.608 0 0 1 0-.85l5.002-5.116a2.54 2.54 0 0 0 0-3.532l-.752-.77a2.406 2.406 0 0 0-3.454 0l-5.002 5.116a2.54 2.54 0 0 0 0 3.532c.23.236.23.614 0 .85a.576.576 0 0 1-.83 0c-1.41-1.441-1.41-3.79 0-5.231l5.001-5.116a3.566 3.566 0 0 1 5.116 0l.752.77z"/>
</svg>
