<svg xmlns="http://www.w3.org/2000/svg" width="44" height="44" viewBox="0 0 44 44">
    <path fill-rule="evenodd" d="M31 6v1a1 1 0 0 1-1 1H14a1 1 0 0 1-1-1V6H8a1 1 0 0 0-1 1v33a1 1 0 0 0 1 1h28a1 1 0 0 0 1-1V7a1 1 0 0 0-1-1h-5zm0-1h5a2 2 0 0 1 2 2v33a2 2 0 0 1-2 2H8a2 2 0 0 1-2-2V7a2 2 0 0 1 2-2h5V4a1 1 0 0 1 1-1h3v-.518a1 1 0 0 1 1-1h8a1 1 0 0 1 1 1V3h3a1 1 0 0 1 1 1v1zM18 2.482V4h-4v3h16V4h-4V2.482h-8zm9.29 25.102l5.428 5.426a.5.5 0 1 1-.708.708l-5.426-5.427a7 7 0 1 1 .707-.707zM22 29a6 6 0 1 0 0-12 6 6 0 0 0 0 12zm2.93-9L26 21.138 21.43 26 19 23.414l1.07-1.138 1.36 1.447L24.93 20z"/>
</svg>
