<svg width="24" height="24" viewBox="0 0 24 24" xmlns="http://www.w3.org/2000/svg">
    <path d="m17.738 3.339 1.434 1.912h3.234c.468 0 .844.376.844.844a.842.842 0 0 1-.844.843H18.75a.844.844 0 0 1-.675-.337l-.847-1.128-1.653 3.511a.843.843 0 0 1-1.462.11l-1.438-2.156H8.344a.842.842 0 0 1-.844-.843c0-.468.376-.844.844-.844h4.781c.281 0 .545.14.703.376l.858 1.287L16.3 3.486a.85.85 0 0 1 .678-.481.83.83 0 0 1 .76.334zM12 8.626h.446l.728 1.093a1.969 1.969 0 0 0 3.417-.253l.398-.84h2.886A3.376 3.376 0 0 1 23.25 12v7.874a1.124 1.124 0 1 1-2.25 0V18.75H3v1.125a1.124 1.124 0 1 1-2.25 0V6.376a1.124 1.124 0 1 1 2.25 0v9h7.875V9.75c0-.622.503-1.125 1.125-1.125zM6.937 14.25a2.812 2.812 0 1 1 0-5.624 2.812 2.812 0 1 1 0 5.624z" fill="#2493E5" fill-rule="evenodd"/>
</svg>
