<?xml version="1.0" encoding="UTF-8"?>
<svg width="28px" height="32px" viewBox="0 0 28 32" version="1.1" xmlns="http://www.w3.org/2000/svg" xmlns:xlink="http://www.w3.org/1999/xlink">
    <g id="Page-1" stroke="none" stroke-width="1" fill="none" fill-rule="evenodd">
        <g id="SimplyConnect-Dashboard-Full-release--opt5" transform="translate(-1078.000000, -24.000000)" fill="#4C4E51" fill-rule="nonzero">
            <g id="notification" transform="translate(1078.000000, 24.000000)">
                <path d="M8,27 L20,27 L26.7247234,27 L24.6508617,23.7078787 C23.4405775,21.787826 22.7999574,19.5857542 22.7999574,17.3426488 L22.7999574,13.9999688 C22.7999574,10.3103614 20.2240349,7.07421963 16.525945,6.02179906 L15.7996617,5.8151098 L15.7996617,2.66668155 C15.7996617,1.75949913 15.0021547,1 13.9995303,1 C12.996906,1 12.1993989,1.75949913 12.1993989,2.66668155 L12.1993989,5.81510645 L11.4731197,6.02179789 C7.7750815,7.07422083 5.1991688,10.3103716 5.1991688,13.9999688 L5.1991688,17.3426488 C5.1991688,19.5846839 4.55913409,21.7853186 3.34979237,23.7063288 L1.27495426,27 L8,27 Z M19.5724953,28 C18.3851797,30.3998482 16.3386494,32 13.9999553,32 C11.6612613,32 9.61480056,30.3998482 8.4275013,28 L0.699053755,28 C0.447043896,28 0.21603486,27.8706253 0.0914081092,27.6613133 C-0.0332186411,27.4520012 -0.0303966557,27.1960018 0.0998084378,26.9893148 L2.5036806,23.1733233 C3.61252398,21.4119522 4.1991688,19.3959567 4.1991688,17.3426488 L4.1991688,13.9999688 C4.1991688,9.77997817 7.15608447,6.21067364 11.1993989,5.05998871 L11.1993989,2.66668155 C11.1993989,1.19599733 12.455248,0 13.9995303,0 C15.5438126,0 16.7996617,1.19599733 16.7996617,2.66668155 L16.7996617,5.05998871 C20.8430418,6.21067364 23.7999574,9.77997817 23.7999574,13.9999688 L23.7999574,17.3426488 C23.7999574,19.3959567 24.3866023,21.4133272 25.4968238,23.1746358 L27.900696,26.9906273 C28.0295229,27.1959393 28.0337231,27.4546262 27.9090963,27.6626883 C27.7844696,27.8706878 27.5520824,28 27.3000725,28 L19.5724953,28 Z M18.4414048,28 L9.55858736,28 C10.6275543,29.8728985 12.2631843,31 13.9999553,31 C15.7367428,31 17.3724243,29.8728836 18.4414048,28 Z" id="Combined-Shape"></path>
            </g>
        </g>
    </g>
</svg>