<svg width="120" height="120" viewBox="0 0 120 120" xmlns="http://www.w3.org/2000/svg">
    <path d="M103.552 82.385 86.662 59.29V46.932c2.368-.838 4.052-3.09 4.052-5.708 0-3.352-2.736-6.127-6.103-6.127H72.193c-3.367 0-6.103 2.775-6.103 6.127 0 2.618 1.736 4.87 4.104 5.708V59.29l-7.84 10.736a23.616 23.616 0 0 0-.736-3.456c0-.42-.106-.734-.316-1.048-2.21-6.546-7.261-11.94-13.89-14.401V34.73c2.314-.839 3.999-3.09 3.999-5.709 0-3.3-2.684-6.022-6.052-6.022H33.153c-3.367 0-6.051 2.723-6.051 6.022 0 2.618 1.631 4.87 3.999 5.708v16.39C22.103 54.474 16 63.166 16 72.802 16 85.58 26.418 96 39.256 96c7.945 0 14.996-4.032 19.205-10.107h43.302c.842 0 1.632-.471 2-1.205a2.16 2.16 0 0 0-.21-2.303m-31.36-42.837h12.418c.947 0 1.684.733 1.684 1.676 0 .89-.737 1.623-1.684 1.623h-.158c-1.263 0-2.262.995-2.262 2.2v6.284h-7.577v-6.285c0-1.204-1-2.199-2.21-2.199h-.21c-.896 0-1.631-.734-1.631-1.623 0-.943.735-1.676 1.63-1.676M33.942 54.839c.947-.262 1.631-1.1 1.631-2.095v-19.9c0-1.204-1-2.199-2.262-2.199h-.158c-.895 0-1.631-.733-1.631-1.623s.736-1.57 1.63-1.57H45.36c.895 0 1.632.68 1.632 1.57s-.737 1.623-1.632 1.623h-.157c-1.263 0-2.263.995-2.263 2.2v19.9c0 .994.684 1.832 1.631 2.094 6.05 1.78 10.681 6.494 12.576 12.254a2.84 2.84 0 0 1-2.842 2.409 2.82 2.82 0 0 1-2.789-2.409c-.157-1.047-1.104-1.833-2.21-1.833-1.104 0-1.998.786-2.209 1.833-.21 1.414-1.368 2.409-2.789 2.409-1.42 0-2.578-.995-2.841-2.409-.158-1.047-1.105-1.833-2.157-1.833-1.105 0-2.052.786-2.21 1.833-.21 1.414-1.42 2.409-2.841 2.409a2.82 2.82 0 0 1-2.79-2.409c-.157-1.047-1.104-1.833-2.209-1.833s-1.999.786-2.21 1.833c-.21 1.414-1.368 2.409-2.788 2.409a2.82 2.82 0 0 1-2.842-2.618 19.009 19.009 0 0 1 12.523-12.045" fill="#FFFFFE" fill-rule="evenodd"/>
</svg>
