<svg width="120" height="120" viewBox="0 0 120 120" xmlns="http://www.w3.org/2000/svg">
    <g fill="#FFFFFE" fill-rule="evenodd">
        <path d="M29.35 88.2h61.3V46.155h-61.3V88.2zm60.445-56.544h-5.25v3.867c0 3.056-2.528 5.558-5.618 5.558-3.09 0-5.617-2.502-5.617-5.558v-3.867H47.178v3.867c0 3.056-2.527 5.558-5.617 5.558s-5.617-2.502-5.617-5.558v-3.867h-5.74c-3.962 0-7.204 3.208-7.204 7.129v48.087C23 90.792 26.242 94 30.205 94h59.59C93.758 94 97 90.792 97 86.872V38.785c0-3.921-3.242-7.129-7.205-7.129z"/>
        <path d="M40.956 39.313c2.095 0 3.809-1.623 3.809-3.606v-8.1c0-1.984-1.714-3.607-3.809-3.607s-3.809 1.623-3.809 3.607v8.1c0 1.983 1.714 3.605 3.81 3.605M79.044 39.313c2.095 0 3.809-1.623 3.809-3.606v-8.1c0-1.984-1.714-3.607-3.809-3.607s-3.809 1.623-3.809 3.607v8.1c0 1.983 1.714 3.605 3.81 3.605M52.382 59h15.236v-9.844H52.382zM71.97 59h15.236v-9.844H71.97zM32.794 72.125H48.03v-9.844H32.794zM52.382 72.125h15.236v-9.844H52.382zM71.97 72.125h15.236v-9.844H71.97zM32.794 85.25H48.03v-9.844H32.794zM52.382 85.25h15.236v-9.844H52.382z"/>
        <path d="m97 79.781-2.044 7.13-1.841 2.567H27.88l-2.104-2.568L23 80.68V94h74z"/>
    </g>
</svg>
