<svg xmlns="http://www.w3.org/2000/svg" width="30" height="30" viewBox="10 10 28 30">
    <g fill="none" fill-rule="evenodd">
        <g fill-rule="nonzero">
            <g>
                <g>
                    <path fill="#FFF" d="M19.536 19.945l-5.543-5.544 2.146-2.15c.332-.33.867-.336 1.2-.009l4.319 4.322c.33.33.33.873-.005 1.206l-.946.944-.88.88c-.108.11-.207.226-.29.351zm4.561 9.032c-.907-.78-1.778-1.61-2.623-2.453-.844-.85-1.67-1.717-2.453-2.628-.64-.74-.765-1.81-.43-2.712l-5.69-5.69c-1.325 1.361-1.156 4.736.295 7.7.623 1.283 1.431 2.44 2.266 3.542.834 1.092 1.749 2.124 2.712 3.094.966.968 1.993 1.887 3.088 2.72 1.101.838 2.262 1.64 3.537 2.261 2.97 1.45 6.347 1.609 7.707.283l-5.692-5.69c-.902.335-1.974.211-2.717-.427zm11.658 1.68l-4.319-4.32c-.331-.327-.875-.327-1.206.005h-.003l-.949.947-.875.879c-.108.108-.226.203-.351.291l5.542 5.543c.717-.718 1.433-1.432 2.151-2.147.335-.331.342-.867.01-1.199z"/>
                </g>
            </g>
        </g>
    </g>
</svg>
