<svg xmlns="http://www.w3.org/2000/svg" width="16" height="16" viewBox="0 0 16 16">
    <g fill="none" fill-rule="evenodd">
        <g fill="#4C4E51">
            <g>
                <g>
                    <g>
                        <g>
                            <g>
                                <path d="M14 7.352v-1h-3.29l4.642-4.649L14.648 1 10 5.64V2.353H9v5h5zm-2.617 8c.39 0 .726-.036 1.008-.106.28-.07.537-.176.77-.316.23-.14.454-.313.667-.516.214-.203.453-.437.719-.703.146-.146.258-.315.336-.508.078-.193.117-.39.117-.594 0-.177-.033-.349-.098-.515-.065-.167-.152-.327-.261-.48-.11-.154-.232-.304-.368-.45-.135-.146-.276-.285-.421-.418-.146-.133-.288-.26-.426-.383-.138-.122-.262-.238-.371-.347-.146-.146-.315-.258-.508-.336-.193-.078-.39-.117-.594-.117-.208 0-.392.033-.55.101-.16.068-.304.152-.434.254-.13.102-.249.21-.356.328-.106.117-.208.227-.304.328-.097.102-.193.186-.29.254-.096.068-.199.102-.308.102-.151 0-.281-.055-.39-.164-.068-.068-.176-.172-.325-.313l-.516-.492c-.195-.188-.406-.39-.632-.61-.227-.218-.453-.44-.68-.664-.227-.223-.445-.445-.656-.664-.211-.218-.397-.419-.559-.601-.161-.182-.29-.343-.387-.48-.096-.139-.144-.239-.144-.301 0-.11.034-.213.101-.309.068-.096.153-.194.254-.293.102-.099.211-.202.328-.309.118-.106.227-.223.329-.351.101-.128.186-.272.253-.434.068-.161.102-.343.102-.547 0-.203-.039-.4-.117-.593-.078-.193-.19-.362-.336-.508-.162-.162-.339-.354-.531-.578-.193-.224-.399-.438-.617-.64-.22-.204-.45-.376-.692-.517-.242-.14-.493-.21-.754-.21-.203 0-.4.039-.594.117-.192.078-.362.19-.507.336-.271.265-.508.506-.711.722-.203.216-.374.44-.512.668-.138.23-.242.485-.313.766-.07.281-.105.62-.105 1.016 0 .552.087 1.123.262 1.714.174.592.415 1.183.722 1.774.308.591.675 1.17 1.102 1.738.427.568.894 1.107 1.402 1.617.508.51 1.046.982 1.614 1.414.567.433 1.148.805 1.742 1.118.593.312 1.19.557 1.789.734.599.177 1.182.266 1.75.266zm0-1c-.485 0-.99-.08-1.516-.239-.526-.159-1.055-.381-1.586-.668-.531-.286-1.056-.625-1.574-1.015-.518-.39-1.01-.817-1.473-1.278-.463-.46-.893-.949-1.289-1.464-.396-.516-.738-1.042-1.027-1.579-.29-.536-.514-1.071-.676-1.605C2.081 5.97 2 5.454 2 4.954c0-.313.03-.576.09-.79.06-.213.147-.407.262-.582.114-.174.255-.342.421-.504.167-.161.357-.349.57-.562.11-.11.243-.164.4-.164.067 0 .163.041.288.125.125.083.265.188.418.316.154.128.31.27.469.43.159.159.302.315.43.468.127.154.233.293.316.418.083.125.125.222.125.29 0 .109-.034.212-.101.308-.068.096-.153.194-.254.293-.102.099-.211.202-.329.309-.117.106-.226.225-.328.355-.101.13-.186.275-.254.434-.067.159-.101.34-.101.543 0 .208.04.407.121.597.08.19.194.358.34.504l3.726 3.727c.146.146.314.259.504.34.19.08.39.12.598.12.203 0 .384-.033.543-.1.159-.069.303-.153.434-.255.13-.101.248-.21.355-.328.107-.117.208-.226.305-.328.096-.102.194-.186.293-.254.099-.068.203-.101.312-.101.068 0 .165.041.293.124.128.084.267.19.418.32.151.131.306.274.465.43.159.157.302.312.43.465.127.154.233.295.316.422.083.128.125.225.125.293 0 .151-.055.281-.164.39-.214.214-.402.404-.566.571-.165.167-.332.307-.504.422-.172.115-.366.202-.582.262-.217.06-.483.09-.801.09z" transform="translate(-105 -436) translate(35 128) translate(0 277) translate(10) translate(60) translate(0 31)"/>
                            </g>
                        </g>
                    </g>
                </g>
            </g>
        </g>
    </g>
</svg>
