<svg xmlns="http://www.w3.org/2000/svg" width="28" height="28" viewBox="0 0 28 28">
    <g fill="none" fill-rule="evenodd">
        <g fill="#FFF">
            <g>
                <g>
                    <path d="M25.534 2.454c.266.267.29.683.072.977l-.072.084-7.664 7.664v8.655c0 1.681-1.332 3.067-2.997 3.161l-.18.005H6.052l-2.506 2.507c-.292.293-.767.293-1.06 0-.267-.266-.29-.683-.073-.977l.073-.084L3.93 23h-.753C1.49 23 .099 21.672.005 20.013L0 19.834V9.166c0-1.681 1.333-3.067 2.997-3.161L3.177 6h11.517c1.687 0 3.078 1.299 3.172 2.984l.001.076 6.606-6.605c.293-.293.768-.293 1.06 0zM3.219 7.5l-.137.004c-.83.046-1.503.707-1.576 1.518l-.006.145v10.626l.003.136c.046.824.71 1.494 1.528 1.566l.146.006h2.252l10.942-10.943v-1.35l-.003-.14c-.047-.835-.698-1.49-1.526-1.56l-.148-.007H3.219zm13.152 5.18l-8.821 8.82 7.102.002.137-.004c.83-.046 1.503-.707 1.575-1.518l.007-.145V12.68zm9.717-4.989c1.003-.003 1.833.78 1.907 1.748l.005.14v9.781c0 .349-.095.665-.254.95-.342.582-.926.922-1.543.956l-.154.003c-.259-.007-.52-.068-.768-.188l-.14-.074-4.988-2.85v-7.344l4.956-2.85c.159-.094.35-.19.54-.22.1-.024.198-.039.294-.046l.145-.006zm-.092 1.515l-.078.012c.007.004.004.007-.002.01l-4.263 2.452v5.606l4.192 2.396.086.047c.188.09.402.024.505-.15.03-.054.049-.102.057-.149l.007-.07.001-9.725-.004-.094-.01-.056c-.048-.173-.23-.301-.491-.279z" transform="translate(-695 -597) translate(685 587) translate(10 10)"/>
                </g>
            </g>
        </g>
    </g>
</svg>
