<svg width="16" height="16" viewBox="0 0 16 16" xmlns="http://www.w3.org/2000/svg">
    <path d="M16 14V2h-4.29l-1-1H5.29l-1 1H0v12h16zm-1-1H1V3h3.71l1-1h4.58l1 1H15v10zm-7-1a3.92 3.92 0 0 0 1.559-.313 4.014 4.014 0 0 0 1.273-.855c.362-.362.647-.786.855-1.273A3.92 3.92 0 0 0 12 8a3.92 3.92 0 0 0-.313-1.559 4.014 4.014 0 0 0-.855-1.273 4.014 4.014 0 0 0-1.273-.856A3.92 3.92 0 0 0 8 4a3.92 3.92 0 0 0-1.559.313 4.014 4.014 0 0 0-1.273.855 4.014 4.014 0 0 0-.856 1.273A3.92 3.92 0 0 0 4 8c0 .552.104 1.072.313 1.559.208.487.493.911.855 1.273.362.362.786.647 1.273.855A3.92 3.92 0 0 0 8 12zM2.5 5a.48.48 0 0 0 .352-.148A.48.48 0 0 0 3 4.5a.48.48 0 0 0-.148-.352A.48.48 0 0 0 2.5 4a.48.48 0 0 0-.352.148A.48.48 0 0 0 2 4.5c0 .135.05.253.148.352A.48.48 0 0 0 2.5 5zM8 11c-.411 0-.8-.08-1.164-.238a3.065 3.065 0 0 1-.953-.645 3.065 3.065 0 0 1-.645-.953A2.882 2.882 0 0 1 5 8c0-.411.08-.8.238-1.164.16-.365.374-.682.645-.953.27-.271.588-.486.953-.645A2.882 2.882 0 0 1 8 5c.411 0 .8.08 1.164.238.365.16.682.374.953.645.271.27.486.588.645.953C10.92 7.2 11 7.589 11 8c0 .411-.08.8-.238 1.164a3.065 3.065 0 0 1-.645.953c-.27.271-.588.486-.953.645A2.882 2.882 0 0 1 8 11z" fill="#4C4E51" fill-rule="evenodd"/>
</svg>
