<svg xmlns="http://www.w3.org/2000/svg" width="28" height="28" viewBox="0 0 28 28">
    <g fill="none" fill-rule="evenodd">
        <g fill="#FFF">
            <g>
                <g>
                    <path d="M14.694 6c1.687 0 3.078 1.299 3.172 2.984l.005.182v10.668c0 1.681-1.333 3.067-2.998 3.161l-.18.005H3.178C1.49 23 .099 21.672.005 20.013L0 19.834V9.166c0-1.681 1.333-3.067 2.997-3.161L3.177 6h11.517zM3.219 7.5l-.137.003c-.83.046-1.503.707-1.576 1.518l-.006.145v10.626l.003.136c.046.824.71 1.494 1.528 1.566l.146.006h11.475l.137-.003c.83-.046 1.503-.707 1.575-1.518l.007-.145V9.207l-.003-.14c-.047-.835-.698-1.49-1.526-1.56l-.148-.007H3.219zm24.776 1.938l.005.14v9.781c0 .349-.095.665-.254.95-.342.582-.926.922-1.543.956l-.154.003c-.259-.007-.52-.068-.768-.188l-.14-.074-4.988-2.85v-7.344l4.956-2.85c.159-.094.35-.19.54-.22.1-.024.198-.039.294-.046l.145-.006c1.003-.003 1.833.78 1.907 1.748zm-2.1-.217c.032-.005.037-.004.021.006l-4.263 2.452v5.606l4.192 2.396.086.047c.188.09.402.024.505-.15.03-.054.049-.102.057-.149l.007-.07.001-9.725-.004-.094-.01-.056c-.048-.173-.23-.301-.491-.279l-.101.016z" transform="translate(-725 -571) translate(715 561) translate(10 10)"/>
                </g>
            </g>
        </g>
    </g>
</svg>
