<svg xmlns="http://www.w3.org/2000/svg" width="44" height="44" viewBox="0 0 44 44">
    <path fill-rule="evenodd" d="M21.932 25.14l-4.951 4.95a8 8 0 1 1-.556-.858l5.075-5.075V18h1v6.293l5.018 5.018A8 8 0 1 1 26 34c0-1.385.352-2.688.97-3.823l-5.038-5.039zm-7.957 14.623a20.788 20.788 0 0 0-.007-.275c-.09-.693-.364-1.159-.83-1.535a3.84 3.84 0 0 0-.623-.4c-.244-.129-1.126-.527-1.134-.53a4.228 4.228 0 0 1-.616-.35l-1.488-.03a4.093 4.093 0 0 1-.658.379c-.008.004-.89.402-1.134.53-.882.467-1.327.994-1.452 1.925l-.007.286A6.968 6.968 0 0 0 10 41a6.968 6.968 0 0 0 3.975-1.237zm-8.872-.761c.552-2.473 3.161-2.559 3.793-3.367l2.245.045c.45.5 1.675.728 2.626 1.495.51.412.941.98 1.13 1.827a7 7 0 1 0-9.794 0zM10 34a2 2 0 1 0 0-4 2 2 0 0 0 0 4zm0 1a3 3 0 1 1 0-6 3 3 0 0 1 0 6zm15.975-19.237a20.788 20.788 0 0 0-.007-.275c-.09-.693-.364-1.159-.83-1.535a3.84 3.84 0 0 0-.623-.4c-.244-.129-1.126-.527-1.134-.53a4.228 4.228 0 0 1-.616-.35l-1.488-.03a4.093 4.093 0 0 1-.658.379c-.008.004-.89.402-1.134.53-.882.467-1.327.994-1.452 1.925l-.007.286A6.968 6.968 0 0 0 22 17a6.968 6.968 0 0 0 3.975-1.237zm-8.872-.761c.552-2.473 3.161-2.559 3.793-3.367l2.245.045c.45.5 1.675.728 2.626 1.495.51.412.941.98 1.13 1.827a7 7 0 1 0-9.794 0zM22 10a2 2 0 1 0 0-4 2 2 0 0 0 0 4zm0 1a3 3 0 1 1 0-6 3 3 0 0 1 0 6zm0 7a8 8 0 1 1 0-16 8 8 0 0 1 0 16zm15.975 21.763a20.788 20.788 0 0 0-.007-.275c-.09-.693-.364-1.159-.83-1.535a3.84 3.84 0 0 0-.623-.4c-.244-.129-1.126-.527-1.134-.53a4.228 4.228 0 0 1-.616-.35l-1.488-.03a4.093 4.093 0 0 1-.658.379c-.008.004-.89.402-1.134.53-.882.467-1.327.994-1.452 1.925l-.007.286A6.968 6.968 0 0 0 34 41a6.968 6.968 0 0 0 3.975-1.237zm-8.872-.761c.552-2.473 3.161-2.559 3.793-3.367l2.245.045c.45.5 1.675.728 2.626 1.495.51.412.941.98 1.13 1.827a7 7 0 1 0-9.794 0zM34 34a2 2 0 1 0 0-4 2 2 0 0 0 0 4zm0 1a3 3 0 1 1 0-6 3 3 0 0 1 0 6z"/>
</svg>
