<svg width="114" height="25" viewBox="0 0 114 25" fill="none" xmlns="http://www.w3.org/2000/svg">
    <path d="M12.674 18.484H11.4V5.87H12.674V18.484Z" fill="#C4C9D1"/>
    <path d="M25.8735 12.114C25.8735 11.162 26.0882 10.308 26.5175 9.552C26.9468 8.78667 27.5302 8.18933 28.2675 7.76C29.0142 7.33067 29.8402 7.116 30.7455 7.116C31.8095 7.116 32.7382 7.37267 33.5315 7.886C34.3248 8.39933 34.9035 9.12733 35.2675 10.07H33.7415C33.4708 9.482 33.0788 9.02933 32.5655 8.712C32.0615 8.39467 31.4548 8.236 30.7455 8.236C30.0642 8.236 29.4528 8.39467 28.9115 8.712C28.3702 9.02933 27.9455 9.482 27.6375 10.07C27.3295 10.6487 27.1755 11.33 27.1755 12.114C27.1755 12.8887 27.3295 13.57 27.6375 14.158C27.9455 14.7367 28.3702 15.1847 28.9115 15.502C29.4528 15.8193 30.0642 15.978 30.7455 15.978C31.4548 15.978 32.0615 15.824 32.5655 15.516C33.0788 15.1987 33.4708 14.746 33.7415 14.158H35.2675C34.9035 15.0913 34.3248 15.8147 33.5315 16.328C32.7382 16.832 31.8095 17.084 30.7455 17.084C29.8402 17.084 29.0142 16.874 28.2675 16.454C27.5302 16.0247 26.9468 15.432 26.5175 14.676C26.0882 13.92 25.8735 13.066 25.8735 12.114ZM36.6879 13.136C36.6879 12.352 36.8466 11.666 37.1639 11.078C37.4813 10.4807 37.9153 10.0187 38.4659 9.692C39.0259 9.36533 39.6466 9.202 40.3279 9.202C40.9999 9.202 41.5833 9.34667 42.0779 9.636C42.5726 9.92533 42.9413 10.2893 43.1839 10.728V9.328H44.4719V17H43.1839V15.572C42.9319 16.02 42.5539 16.3933 42.0499 16.692C41.5553 16.9813 40.9766 17.126 40.3139 17.126C39.6326 17.126 39.0166 16.958 38.4659 16.622C37.9153 16.286 37.4813 15.8147 37.1639 15.208C36.8466 14.6013 36.6879 13.9107 36.6879 13.136ZM43.1839 13.15C43.1839 12.5713 43.0673 12.0673 42.8339 11.638C42.6006 11.2087 42.2833 10.882 41.8819 10.658C41.4899 10.4247 41.0559 10.308 40.5799 10.308C40.1039 10.308 39.6699 10.42 39.2779 10.644C38.8859 10.868 38.5733 11.1947 38.3399 11.624C38.1066 12.0533 37.9899 12.5573 37.9899 13.136C37.9899 13.724 38.1066 14.2373 38.3399 14.676C38.5733 15.1053 38.8859 15.4367 39.2779 15.67C39.6699 15.894 40.1039 16.006 40.5799 16.006C41.0559 16.006 41.4899 15.894 41.8819 15.67C42.2833 15.4367 42.6006 15.1053 42.8339 14.676C43.0673 14.2373 43.1839 13.7287 43.1839 13.15ZM47.8989 10.574C48.1229 10.1353 48.4402 9.79467 48.8509 9.552C49.2709 9.30933 49.7795 9.188 50.3769 9.188V10.504H50.0409C48.6129 10.504 47.8989 11.2787 47.8989 12.828V17H46.6249V9.328H47.8989V10.574ZM58.8475 12.87C58.8475 13.1127 58.8335 13.3693 58.8055 13.64H52.6735C52.7202 14.396 52.9769 14.9887 53.4435 15.418C53.9195 15.838 54.4935 16.048 55.1655 16.048C55.7162 16.048 56.1735 15.922 56.5375 15.67C56.9109 15.4087 57.1722 15.0633 57.3215 14.634H58.6935C58.4882 15.3713 58.0775 15.9733 57.4615 16.44C56.8455 16.8973 56.0802 17.126 55.1655 17.126C54.4375 17.126 53.7842 16.9627 53.2055 16.636C52.6362 16.3093 52.1882 15.8473 51.8615 15.25C51.5349 14.6433 51.3715 13.9433 51.3715 13.15C51.3715 12.3567 51.5302 11.6613 51.8475 11.064C52.1649 10.4667 52.6082 10.0093 53.1775 9.692C53.7562 9.36533 54.4189 9.202 55.1655 9.202C55.8935 9.202 56.5375 9.36067 57.0975 9.678C57.6575 9.99533 58.0869 10.434 58.3855 10.994C58.6935 11.5447 58.8475 12.17 58.8475 12.87ZM57.5315 12.604C57.5315 12.1187 57.4242 11.7033 57.2095 11.358C56.9949 11.0033 56.7009 10.7373 56.3275 10.56C55.9635 10.3733 55.5575 10.28 55.1095 10.28C54.4655 10.28 53.9149 10.4853 53.4575 10.896C53.0095 11.3067 52.7529 11.876 52.6875 12.604H57.5315ZM70.2676 7.242V8.278H67.6076V17H66.3336V8.278H63.6596V7.242H70.2676ZM78.8358 12.87C78.8358 13.1127 78.8218 13.3693 78.7938 13.64H72.6618C72.7085 14.396 72.9651 14.9887 73.4318 15.418C73.9078 15.838 74.4818 16.048 75.1538 16.048C75.7045 16.048 76.1618 15.922 76.5258 15.67C76.8991 15.4087 77.1605 15.0633 77.3098 14.634H78.6818C78.4765 15.3713 78.0658 15.9733 77.4498 16.44C76.8338 16.8973 76.0685 17.126 75.1538 17.126C74.4258 17.126 73.7725 16.9627 73.1938 16.636C72.6245 16.3093 72.1765 15.8473 71.8498 15.25C71.5231 14.6433 71.3598 13.9433 71.3598 13.15C71.3598 12.3567 71.5185 11.6613 71.8358 11.064C72.1531 10.4667 72.5965 10.0093 73.1658 9.692C73.7445 9.36533 74.4071 9.202 75.1538 9.202C75.8818 9.202 76.5258 9.36067 77.0858 9.678C77.6458 9.99533 78.0751 10.434 78.3738 10.994C78.6818 11.5447 78.8358 12.17 78.8358 12.87ZM77.5198 12.604C77.5198 12.1187 77.4125 11.7033 77.1978 11.358C76.9831 11.0033 76.6891 10.7373 76.3158 10.56C75.9518 10.3733 75.5458 10.28 75.0978 10.28C74.4538 10.28 73.9031 10.4853 73.4458 10.896C72.9978 11.3067 72.7411 11.876 72.6758 12.604H77.5198ZM80.0415 13.136C80.0415 12.352 80.2001 11.666 80.5175 11.078C80.8348 10.4807 81.2688 10.0187 81.8195 9.692C82.3795 9.36533 83.0001 9.202 83.6815 9.202C84.3535 9.202 84.9368 9.34667 85.4315 9.636C85.9261 9.92533 86.2948 10.2893 86.5375 10.728V9.328H87.8255V17H86.5375V15.572C86.2855 16.02 85.9075 16.3933 85.4035 16.692C84.9088 16.9813 84.3301 17.126 83.6675 17.126C82.9861 17.126 82.3701 16.958 81.8195 16.622C81.2688 16.286 80.8348 15.8147 80.5175 15.208C80.2001 14.6013 80.0415 13.9107 80.0415 13.136ZM86.5375 13.15C86.5375 12.5713 86.4208 12.0673 86.1875 11.638C85.9541 11.2087 85.6368 10.882 85.2355 10.658C84.8435 10.4247 84.4095 10.308 83.9335 10.308C83.4575 10.308 83.0235 10.42 82.6315 10.644C82.2395 10.868 81.9268 11.1947 81.6935 11.624C81.4601 12.0533 81.3435 12.5573 81.3435 13.136C81.3435 13.724 81.4601 14.2373 81.6935 14.676C81.9268 15.1053 82.2395 15.4367 82.6315 15.67C83.0235 15.894 83.4575 16.006 83.9335 16.006C84.4095 16.006 84.8435 15.894 85.2355 15.67C85.6368 15.4367 85.9541 15.1053 86.1875 14.676C86.4208 14.2373 86.5375 13.7287 86.5375 13.15ZM99.2044 9.188C99.8017 9.188 100.334 9.314 100.8 9.566C101.267 9.80867 101.636 10.1773 101.906 10.672C102.177 11.1667 102.312 11.7687 102.312 12.478V17H101.052V12.66C101.052 11.8947 100.861 11.3113 100.478 10.91C100.105 10.4993 99.5964 10.294 98.9524 10.294C98.2897 10.294 97.7624 10.5087 97.3704 10.938C96.9784 11.358 96.7824 11.9693 96.7824 12.772V17H95.5224V12.66C95.5224 11.8947 95.3311 11.3113 94.9484 10.91C94.5751 10.4993 94.0664 10.294 93.4224 10.294C92.7597 10.294 92.2324 10.5087 91.8404 10.938C91.4484 11.358 91.2524 11.9693 91.2524 12.772V17H89.9784V9.328H91.2524V10.434C91.5044 10.0327 91.8404 9.72467 92.2604 9.51C92.6897 9.29533 93.1611 9.188 93.6744 9.188C94.3184 9.188 94.8877 9.33267 95.3824 9.622C95.8771 9.91133 96.2457 10.336 96.4884 10.896C96.7031 10.3547 97.0577 9.93467 97.5524 9.636C98.0471 9.33733 98.5977 9.188 99.2044 9.188Z"
          fill="#075AA0"/>
</svg>
