<svg xmlns="http://www.w3.org/2000/svg" width="24" height="24" viewBox="0 0 24 24">
    <path fill="#F33232" fill-rule="evenodd" d="M11.996 18.953a.89.89 0 0 1-.89-.89v-6.75h1.78v6.75a.89.89 0 0 1-.89.89zM11 9.023c0-.328.087-.58.261-.757.175-.177.423-.266.747-.266.313 0 .556.089.73.266.175.177.262.43.262.757 0 .313-.087.559-.261.739-.175.18-.418.27-.731.27-.324 0-.572-.09-.747-.27-.174-.18-.261-.426-.261-.739zm1.914-6.436a1.022 1.022 0 0 0-1.828 0L2.13 20.5a1.022 1.022 0 0 0 .914 1.48h17.912a1.022 1.022 0 0 0 .914-1.48L12.914 2.587zm.914-.457l8.956 17.912A2.044 2.044 0 0 1 20.956 23H3.044a2.044 2.044 0 0 1-1.828-2.958L10.172 2.13a2.044 2.044 0 0 1 3.656 0z"/>
</svg>
