<svg width="120" height="120" viewBox="0 0 120 120" xmlns="http://www.w3.org/2000/svg">
    <g fill="#FFFFFE" fill-rule="evenodd">
        <path d="M101 46.58V26a5 5 0 0 0-5-5H63a5 5 0 0 0-5 5v9.107h13.716a7 7 0 0 1 7 7v9.474h.987C81.987 56.73 87.117 65.696 95.882 68c0 0-8.622-7.856-6.526-16.42H96a5 5 0 0 0 5-5z"/>
        <path d="M24.567 64.94H69.1v-2.258H24.567v2.259zm0-6.776H69.1v-2.259H24.567v2.259zm0-6.776H69.1v-2.259H24.567v2.259zM25 77.34h9.436C37.214 88.637 25.786 99 25.786 99c11.617-3.04 18.417-14.867 21.445-21.66H70a6 6 0 0 0 6-6V43a6 6 0 0 0-6-6H25a6 6 0 0 0-6 6v28.34a6 6 0 0 0 6 6z"/>
    </g>
</svg>
