<?xml version="1.0" encoding="UTF-8"?>
<svg width="12px" height="12px" viewBox="0 0 12 12" version="1.1" xmlns="http://www.w3.org/2000/svg" xmlns:xlink="http://www.w3.org/1999/xlink">
    <title>bullet</title>
    <g id="Market-restored-(the-right-one)" stroke="none" stroke-width="1" fill="none" fill-rule="evenodd">
        <g id="1--SimplyConnect-MarketPlace-Community-details-UPD" transform="translate(-55.000000, -1671.000000)">
            <g id="Group-16" transform="translate(35.000000, 1123.000000)">
                <g id="bullet" transform="translate(20.000000, 548.000000)">
                    <path d="M6,12 C9.3140625,12 12,9.3140625 12,6 C12,2.6859375 9.3140625,0 6,0 C2.6859375,0 0,2.6859375 0,6 C0,9.3140625 2.6859375,12 6,12 Z" fill="#2493E5"></path>
                    <path d="M8.6484375,4.8984375 L5.6484375,7.8984375 C5.428125,8.11875 5.071875,8.11875 4.85390625,7.8984375 L3.35390625,6.3984375 C3.13359375,6.178125 3.13359375,5.821875 3.35390625,5.60390625 C3.57421875,5.3859375 3.93046875,5.38359375 4.1484375,5.60390625 L5.25,6.70546875 L7.8515625,4.1015625 C8.071875,3.88125 8.428125,3.88125 8.64609375,4.1015625 C8.8640625,4.321875 8.86640625,4.678125 8.64609375,4.89609375 L8.6484375,4.8984375 Z" id="Path" fill="#FFFFFF"></path>
                </g>
            </g>
        </g>
    </g>
</svg>