<svg xmlns="http://www.w3.org/2000/svg" width="44" height="44" viewBox="0 0 44 44">
    <path d="M5 10a2 2 0 0 0-2 2v22a2 2 0 0 0 2 2h34a2 2 0 0 0 2-2V12a2 2 0 0 0-2-2H5zm0-1h34a3 3 0 0 1 3 3v22a3 3 0 0 1-3 3H5a3 3 0 0 1-3-3V12a3 3 0 0 1 3-3zm5.361 7.791v2.289l-.376.332c-.01.009-.01.009-.01.003v1.51c0-.003.002 0 .016.01l.385.243.104.442c.11.47.292.933.526 1.377.247.468.49.811.634.979l.267.311v1.79a2.48 2.48 0 0 1-1.323 2.188L7.137 30.1a1.905 1.905 0 0 0-1.026 1.677v.11H20.89v-.036a1.91 1.91 0 0 0-1.09-1.71l-3.69-1.801a2.483 2.483 0 0 1-1.402-2.229v-1.84l.285-.317c.079-.087.174-.206.276-.348a7.1 7.1 0 0 0 .991-1.953l.181-.55.555-.167c.023-.007.03-.016.03-.012v-1.51c0 .006 0 .006-.01-.003l-.376-.332v-2.684l.01-.148a1.861 1.861 0 0 0-.228-1.008c-.384-.687-1.242-1.129-2.921-1.129-2.404 0-3.121.815-3.15 1.995 0 .187.003.406.011.685zm-1.123-.698C9.256 15.261 9.658 13 13.5 13c4.709 0 4.25 3.396 4.25 3.396v2.182c.235.208.386.505.386.837v1.51c0 .507-.348.934-.821 1.077a8.213 8.213 0 0 1-1.148 2.258 5.409 5.409 0 0 1-.349.438v1.414c0 .521.302.997.778 1.23l3.69 1.803A3.02 3.02 0 0 1 22 31.852V33H5v-1.222c0-1.108.62-2.127 1.615-2.657l3.447-1.837a1.37 1.37 0 0 0 .733-1.207v-1.379s-1.011-1.181-1.397-2.824a1.126 1.126 0 0 1-.534-.95v-1.509c0-.332.15-.629.386-.837v-1.787a24.174 24.174 0 0 1-.012-.698zM25.5 16h13a.5.5 0 1 1 0 1h-13a.5.5 0 1 1 0-1zm0 4h13a.5.5 0 1 1 0 1h-13a.5.5 0 1 1 0-1zm0 4h13a.5.5 0 1 1 0 1h-13a.5.5 0 1 1 0-1zm0 4h7a.5.5 0 1 1 0 1h-7a.5.5 0 1 1 0-1z"/>
</svg>
