<svg xmlns="http://www.w3.org/2000/svg" width="44" height="44" viewBox="0 0 44 44">
    <path fill-rule="evenodd" d="M5 14h34V9a2 2 0 0 0-2-2h-5v3.5a1.5 1.5 0 1 1-1-1.415V7H14v3.5a1.5 1.5 0 1 1-1-1.415V7H7a2 2 0 0 0-2 2v5zm0 1v20a2 2 0 0 0 2 2h18.516A9 9 0 0 1 39 25.292V15H5zm27-9h5a3 3 0 0 1 3 3v17.343A9 9 0 0 1 26.292 38H7a3 3 0 0 1-3-3V9a3 3 0 0 1 3-3h6V4.5a.5.5 0 1 1 1 0V6h17V4.5a.5.5 0 1 1 1 0V6zm1 34a8 8 0 1 0 0-16 8 8 0 0 0 0 16zm.5-8.5h4a.5.5 0 1 1 0 1h-4v4a.5.5 0 1 1-1 0v-4h-4a.5.5 0 1 1 0-1h4v-4a.5.5 0 1 1 1 0v4z"/>
</svg>
