<svg width="120" height="120" viewBox="0 0 120 120" xmlns="http://www.w3.org/2000/svg">
    <g fill="#FFFFFE" fill-rule="evenodd">
        <path d="M84.657 28.548h-1.519v60.757h-46.68V28.548h-2.115C30.82 28.548 28 31.34 28 34.713v57.122C28 95.26 30.82 98 34.343 98h50.314C88.18 98 91 95.26 91 91.835V34.713c0-3.372-2.82-6.165-6.343-6.165"/>
        <path d="M70.362 23.411h-4.651c-.885 0-1.66-.401-2.048-1.103C62.777 20.903 61.117 20 59.344 20c-1.77 0-3.432.903-4.318 2.308-.388.702-1.162 1.103-2.048 1.103h-5.426v7.274h22.81v-7.274zM44.294 49.918H73.62v-4.274H44.294zM44.294 60.603H73.62V55.26H44.294zM44.294 70.22H73.62v-4.275H44.294zM59.5 80.904h14.12V76.63H59.5z"/>
    </g>
</svg>
