<svg width="22" height="30" viewBox="0 0 22 30" fill="none" xmlns="http://www.w3.org/2000/svg">
<path d="M1 0.543215C6.33328 0.486612 12.4042 0.49591 16.5467 0.513564C19.2913 0.525262 21.5 2.75601 21.5 5.50071C21.5 12.3746 21.5 17.6326 21.5 24.4997C21.5 27.2612 19.2614 29.5 16.5 29.5H1" stroke="#898989"/>
<path fill-rule="evenodd" clip-rule="evenodd" d="M6.01348 15.3122L12.6393 21.8722C12.7248 21.9546 12.8389 22 12.9606 22C13.0824 22 13.1965 21.9546 13.282 21.8722L13.5543 21.6101C13.7315 21.4393 13.7315 21.1617 13.5543 20.9912L7.52109 15.0017L13.5577 9.00884C13.6433 8.92643 13.6905 8.81658 13.6905 8.69944C13.6905 8.58217 13.6433 8.47232 13.5577 8.38985L13.2855 8.1278C13.1999 8.0454 13.0858 8 12.9641 8C12.8424 8 12.7282 8.0454 12.6427 8.1278L6.01348 14.6911C5.92776 14.7738 5.88068 14.8841 5.88095 15.0015C5.88068 15.1193 5.92776 15.2296 6.01348 15.3122Z" fill="#898989"/>
</svg>
