<svg xmlns="http://www.w3.org/2000/svg" width="15" height="15" viewBox="9 9 30 31">
    <g fill="none" fill-rule="evenodd">
        <g>
            <g>
                <g>
                    <g fill="#FFF">
                        <path d="M5.518 4.12l.095.08L14 12.583 22.387 4.2c.237-.236.604-.262.87-.078l.096.08.45.455c.264.266.263.696-.003.96L15.415 14l8.385 8.383c.236.236.263.601.081.867l-.078.094-.452.456c-.237.237-.604.263-.87.08l-.094-.08-8.389-8.386L5.613 23.8c-.237.236-.604.262-.87.078l-.096-.08-.45-.455c-.264-.266-.263-.696.003-.961L12.584 14 4.2 5.617c-.236-.236-.263-.601-.081-.867l.078-.094.452-.456c.237-.237.604-.263.87-.08z" transform="translate(10.5 10)"/>
                    </g>
                </g>
            </g>
        </g>
    </g>
</svg>
