<svg width="49" height="30" viewBox="0 0 49 30" fill="none" xmlns="http://www.w3.org/2000/svg">
<path fill-rule="evenodd" clip-rule="evenodd" d="M32.8642 15.3122L26.0768 21.8722C25.9892 21.9546 25.8723 22 25.7476 22C25.6229 22 25.506 21.9546 25.4184 21.8722L25.1395 21.6101C24.958 21.4393 24.958 21.1617 25.1395 20.9912L31.3199 15.0017L25.136 9.00884C25.0484 8.92643 25 8.81658 25 8.69944C25 8.58217 25.0484 8.47232 25.136 8.38985L25.4149 8.1278C25.5025 8.0454 25.6194 8 25.7441 8C25.8688 8 25.9857 8.0454 26.0733 8.1278L32.8642 14.6911C32.952 14.7738 33.0003 14.8841 33 15.0015C33.0003 15.1193 32.952 15.2296 32.8642 15.3122Z" fill="#ffffff"/>
<path fill-rule="evenodd" clip-rule="evenodd" d="M26.8642 15.3122L20.0768 21.8722C19.9892 21.9546 19.8723 22 19.7476 22C19.6229 22 19.506 21.9546 19.4184 21.8722L19.1395 21.6101C18.958 21.4393 18.958 21.1617 19.1395 20.9912L25.3199 15.0017L19.136 9.00884C19.0484 8.92643 19 8.81658 19 8.69944C19 8.58217 19.0484 8.47232 19.136 8.38985L19.4149 8.1278C19.5025 8.0454 19.6194 8 19.7441 8C19.8688 8 19.9857 8.0454 20.0733 8.1278L26.8642 14.6911C26.952 14.7738 27.0003 14.8841 27 15.0015C27.0003 15.1193 26.952 15.2296 26.8642 15.3122Z" fill="#ffffff"/>
<rect x="0.5" y="0.5" width="48" height="29" rx="4.5" stroke="#ffffff"/>
</svg>
