<svg xmlns="http://www.w3.org/2000/svg" width="24" height="24" viewBox="0 0 24 24">
    <path fill-rule="evenodd" d="M18.928 9.146a3.55 3.55 0 0 1 .568-3.61 9.796 9.796 0 0 0-.972-.984c-.99.819-2.45 1.064-3.645.566a3.543 3.543 0 0 1-2.152-2.992 9.877 9.877 0 0 0-1.381-.003A3.546 3.546 0 0 1 9.171 5.06c-1.184.484-2.632.235-3.615-.576a9.841 9.841 0 0 0-1.002.988 3.537 3.537 0 0 1 .563 3.646c-.501 1.194-1.643 1.99-2.99 2.136a9.93 9.93 0 0 0-.003 1.418 3.525 3.525 0 0 1 2.947 2.18c.501 1.22.268 2.615-.567 3.612.3.35.625.679.972.983.991-.82 2.45-1.065 3.64-.566a3.538 3.538 0 0 1 2.157 2.992 9.86 9.86 0 0 0 1.38.003 3.544 3.544 0 0 1 2.175-2.938c1.188-.485 2.634-.235 3.616.576a9.86 9.86 0 0 0 1.001-.989 3.535 3.535 0 0 1-.563-3.644 3.567 3.567 0 0 1 2.992-2.153c.034-.467.035-.938.002-1.409a3.536 3.536 0 0 1-2.948-2.174zm4.003 1.633a11.01 11.01 0 0 1-.005 2.501.612.612 0 0 1-.644.54l-.136-.004c-.972 0-1.876.599-2.25 1.491-.398.948-.15 2.05.616 2.744a.61.61 0 0 1 .066.836 10.951 10.951 0 0 1-1.78 1.76.615.615 0 0 1-.83-.07c-.654-.719-1.819-.99-2.724-.62a2.445 2.445 0 0 0-1.505 2.346.612.612 0 0 1-.545.63 10.914 10.914 0 0 1-2.474-.007.611.611 0 0 1-.54-.642 2.44 2.44 0 0 0-1.489-2.388c-.906-.38-2.084-.11-2.742.617a.612.612 0 0 1-.837.067 10.925 10.925 0 0 1-1.74-1.761.611.611 0 0 1 .066-.829c.753-.69 1-1.782.616-2.72-.386-.939-1.306-1.532-2.264-1.507-.315 0-.687-.23-.721-.541a11.019 11.019 0 0 1 .005-2.502.598.598 0 0 1 .635-.54c1.075 0 2.014-.583 2.394-1.487a2.438 2.438 0 0 0-.616-2.744.612.612 0 0 1-.065-.836c.52-.65 1.12-1.242 1.78-1.76a.613.613 0 0 1 .83.07c.654.72 1.823.987 2.723.62a2.447 2.447 0 0 0 1.506-2.347.612.612 0 0 1 .545-.63 10.983 10.983 0 0 1 2.474.007.61.61 0 0 1 .54.643 2.443 2.443 0 0 0 1.486 2.388c.91.38 2.088.11 2.744-.616a.612.612 0 0 1 .836-.068c.64.513 1.226 1.105 1.742 1.76a.61.61 0 0 1-.067.83 2.45 2.45 0 0 0-.615 2.72 2.443 2.443 0 0 0 2.278 1.507c.312 0 .672.232.707.542zM12.001 16C14.204 16 16 14.205 16 12s-1.795-4-4-4-4 1.795-4 4 1.795 4 4 4zm0 1C9.242 17 7 14.757 7 12s2.243-5 5-5 5 2.243 5 5-2.243 5-5 5z"/>
</svg>
