<?xml version="1.0" encoding="UTF-8"?>
<svg width="44px" height="44px" viewBox="0 0 44 44" version="1.1" xmlns="http://www.w3.org/2000/svg" xmlns:xlink="http://www.w3.org/1999/xlink">
    <g id="Icons/leftnavigation/contacе-us" stroke="none" stroke-width="1" fill="none" fill-rule="evenodd">
        <rect id="Rectangle" opacity="0" x="0" y="0" width="44" height="44"></rect>
        <path d="M22.7225237,4.37224476 L39.5583329,15.7027577 C39.8344332,15.8885734 40,16.1995702 40,16.5323747 L40,38 C40,38.0924127 39.9874646,38.1818976 39.9640013,38.2668471 C39.9875965,38.3518267 40,38.4412838 40,38.5323747 L40,38.9998617 L4,38.9998617 L4,38.5379629 C4,38.4453799 4.01281164,38.3545014 4.03724176,38.2675455 C4.01273441,38.1833122 4,38.0931433 4,38 L4,16.5379629 C4,16.2020803 4.16862314,15.8886327 4.44889587,15.7035264 L21.6130867,4.36742528 C21.9499666,4.14493273 22.3875895,4.14683379 22.7225237,4.37224476 Z M22.1641908,27.2018617 L5.815,37.9998617 L38.209,37.9998617 L22.1641908,27.2018617 Z M5,21.5128617 L5,37.3378617 L17.558,29.0448617 L5,21.5128617 Z M39,21.5468617 L26.602,28.9828617 L39,37.3258617 L39,21.5468617 Z M22.1641908,5.20186176 L5,16.5379629 L5,20.3458617 L18.484,28.4328617 L21.6130867,26.3674253 C21.9499666,26.1449327 22.3875895,26.1468338 22.7225237,26.3722448 L25.685,28.3658617 L39,20.3808617 L39,16.5323747 L22.1641908,5.20186176 Z M22.5484766,9.88085938 C23.7382552,9.88085938 24.7966048,10.1312663 25.7235254,10.6320801 C26.650446,11.1328939 27.3670801,11.8439941 27.8734277,12.7653809 C28.3797754,13.6867676 28.6329492,14.7478841 28.6329492,15.9487305 C28.6329492,16.7345378 28.5112044,17.4539388 28.2677148,18.1069336 C28.0242253,18.7599284 27.6811263,19.266276 27.238418,19.6259766 C26.7957096,19.9856771 26.2865951,20.1655273 25.7110742,20.1655273 C25.2351628,20.1655273 24.8339583,20.0216471 24.5074609,19.7338867 C24.1809635,19.4461263 23.9872786,19.078125 23.9264063,18.6298828 L23.9264063,18.6298828 L23.86,18.6298828 L23.7592895,18.8297792 C23.5461796,19.2166972 23.2629367,19.5263672 22.9095605,19.7587891 C22.4972884,20.0299479 22.0089258,20.1655273 21.4444727,20.1655273 C20.6143945,20.1655273 19.9655501,19.8819173 19.4979395,19.3146973 C19.0303288,18.7474772 18.7965234,17.976888 18.7965234,17.0029297 C18.7965234,15.8740234 19.1230208,14.9567871 19.7760156,14.2512207 C20.4290104,13.5456543 21.2867578,13.1928711 22.3492578,13.1928711 C22.7255599,13.1928711 23.1516667,13.2274577 23.6275781,13.2966309 C24.1034896,13.365804 24.5323633,13.461263 24.9141992,13.5830078 L24.9141992,13.5830078 L24.7066797,17.484375 L24.7066797,17.6669922 L24.7109922,17.8459129 C24.7541174,18.7116585 25.1206812,19.1445313 25.8106836,19.1445313 C26.3142643,19.1445313 26.7237695,18.8470866 27.0391992,18.2521973 C27.3546289,17.6573079 27.5123438,16.8839518 27.5123438,15.9321289 C27.5123438,14.9305013 27.3075911,14.0533854 26.8980859,13.3007813 C26.4885807,12.5481771 25.9061426,11.9685059 25.1507715,11.5617676 C24.3954004,11.1550293 23.5279688,10.9516602 22.5484766,10.9516602 C21.3144271,10.9516602 20.2408594,11.2076009 19.3277734,11.7194824 C18.4146875,12.2313639 17.7174219,12.9618327 17.2359766,13.9108887 C16.7545313,14.8599447 16.5138086,15.9570313 16.5138086,17.2021484 C16.5138086,18.889974 16.9592839,20.1876628 17.8502344,21.0952148 C18.7411849,22.0027669 20.0250391,22.456543 21.7017969,22.456543 C22.8639063,22.456543 24.0702865,22.2185872 25.3209375,21.7426758 L25.3209375,21.7426758 L25.3209375,22.8466797 L24.9978711,22.9791602 C24.0157227,23.3556836 22.9170313,23.5439453 21.7017969,23.5439453 C19.6930078,23.5439453 18.1338444,22.9919434 17.0243066,21.8879395 C15.9147689,20.7839355 15.36,19.2413737 15.36,17.2602539 C15.36,15.8214518 15.6560612,14.5403646 16.2481836,13.4169922 C16.840306,12.2936198 17.6842188,11.4234212 18.7799219,10.8063965 C19.875625,10.1893717 21.1318099,9.88085938 22.5484766,9.88085938 Z M22.3492578,14.2138672 C21.6298568,14.2138672 21.0667871,14.4628906 20.6600488,14.9609375 C20.2533105,15.4589844 20.0499414,16.1507161 20.0499414,17.0361328 C20.0499414,18.4417318 20.5894922,19.1445313 21.6685938,19.1445313 C22.8141016,19.1445313 23.4366602,18.2784831 23.5362695,16.5463867 L23.5362695,16.5463867 L23.6524805,14.3798828 L23.4091016,14.3201172 C23.0788411,14.2492839 22.7255599,14.2138672 22.3492578,14.2138672 Z" id="Combined-Shape" fill="#BFBDBD"></path>
    </g>
</svg>