<svg width="21" height="20" viewBox="0 0 21 20" fill="none" xmlns="http://www.w3.org/2000/svg">
	<path d="M10.0036 0C4.48885 0.000106334 0.00260973 4.48667 0.00271607 10.0013C0.00271607 15.516 4.48906 20.0026 10.0036 20.0027C15.5185 20.0026 20.0052 15.5161 20.0052 10.0014C20.0051 4.48656 15.5185 0 10.0036 0ZM10.0036 18.4076C5.36855 18.4075 1.59773 14.6365 1.59773 10.0012C1.59762 5.36605 5.36845 1.59512 10.0036 1.59501C14.639 1.59501 18.4102 5.36605 18.4102 10.0014C18.4101 14.6365 14.639 18.4075 10.0036 18.4076Z" fill="#1E9AEA"/>
	<path d="M10.0037 5.4072C7.47068 5.40741 5.40982 7.46838 5.40982 10.0013C5.40982 12.5346 7.47068 14.5955 10.0038 14.5955C12.537 14.5955 14.598 12.5346 14.598 10.0014C14.598 7.46806 12.537 5.4072 10.0037 5.4072ZM10.0038 13.0005C8.35017 13.0005 7.00483 11.6551 7.00483 10.0013C7.00483 8.34776 8.35017 7.00232 10.0038 7.00221C11.6576 7.00221 13.0029 8.34766 13.0029 10.0014C13.0029 11.6551 11.6575 13.0005 10.0038 13.0005Z" fill="#1E9AEA"/>
	<path d="M10.0039 11.7271C10.9569 11.7271 11.7296 10.9545 11.7296 10.0014C11.7296 9.0483 10.9569 8.27568 10.0039 8.27568C9.05079 8.27568 8.27817 9.0483 8.27817 10.0014C8.27817 10.9545 9.05079 11.7271 10.0039 11.7271Z" fill="#1E9AEA"/>
</svg>
