<svg xmlns="http://www.w3.org/2000/svg" width="30" height="30" viewBox="10 10 28 30">
    <g fill="none" fill-rule="evenodd">
        <g>
            <g>
                <g>
                    <path fill="#FFF" fill-rule="nonzero" d="M30.08 26.055l7.919.001.001 3.076c0 .475-.378.862-.85.866l-6.17-.002c-.471 0-.859-.389-.858-.866l.002-2.615c-.001-.156-.014-.31-.044-.46zm-9.706-3.201c1.205-.091 2.42-.121 3.625-.122 1.208.003 2.418.033 3.628.125.985.071 1.84.749 2.244 1.634h8.127c-.026-1.924-2.557-4.22-5.71-5.304-1.361-.472-2.765-.722-4.147-.913-1.376-.185-2.766-.27-4.147-.274-1.38-.002-2.77.076-4.148.264-1.384.188-2.786.445-4.14.913-3.156 1.09-5.681 3.394-5.706 5.317l8.128-.001c.405-.885 1.26-1.565 2.246-1.64zM10.849 30h6.168c.47-.003.859-.392.859-.867l.002-.002.001-1.358-.003-1.256c0-.155.017-.308.043-.46l-7.916-.001L10 29.134c-.002.477.376.866.85.866z"/>
                </g>
            </g>
        </g>
    </g>
</svg>
