<svg width="120" height="120" viewBox="0 0 120 120" xmlns="http://www.w3.org/2000/svg">
    <path d="M91.776 26H30.224C25.672 26 22 29.755 22 34.343V72.88c0 4.589 3.672 8.292 8.224 8.292h21v8.396h-9.517V94h38.586v-4.432h-9.517v-8.396h21c4.552 0 8.224-3.703 8.224-8.292V34.343C100 29.755 96.328 26 91.776 26zm-1.19 9.49v16.427H64.672c-.982 0-1.81.574-2.069 1.46l-1.654 4.798-5.018-15.8c-.31-.835-1.086-1.46-1.965-1.513-.88-.053-1.759.417-2.121 1.252l-4.655 9.803H31.414V35.491h59.172zM31.414 71.68V56.299h17.172a2.16 2.16 0 0 0 1.966-1.252l2.896-5.997 5.328 16.792c.31.886 1.138 1.512 2.069 1.512h.051c.931 0 1.76-.574 2.07-1.46l3.258-9.595h24.362V71.68H31.414z" fill="#FFFFFE" fill-rule="evenodd"/>
</svg>
