<svg xmlns="http://www.w3.org/2000/svg" width="44" height="44" viewBox="0 0 44 44">
    <path fill-rule="evenodd" d="M31 6v1a1 1 0 0 1-1 1H14a1 1 0 0 1-1-1V6H8a1 1 0 0 0-1 1v33a1 1 0 0 0 1 1h28a1 1 0 0 0 1-1V7a1 1 0 0 0-1-1h-5zm0-1h5a2 2 0 0 1 2 2v33a2 2 0 0 1-2 2H8a2 2 0 0 1-2-2V7a2 2 0 0 1 2-2h5V4a1 1 0 0 1 1-1h3v-.518a1 1 0 0 1 1-1h8a1 1 0 0 1 1 1V3h3a1 1 0 0 1 1 1v1zM18 2.482V4h-4v3h16V4h-4V2.482h-8zM13 23v3h3v-3h-3zm0-1h3a1 1 0 0 1 1 1v3a1 1 0 0 1-1 1h-3a1 1 0 0 1-1-1v-3a1 1 0 0 1 1-1zm0 9v3h3v-3h-3zm0-1h3a1 1 0 0 1 1 1v3a1 1 0 0 1-1 1h-3a1 1 0 0 1-1-1v-3a1 1 0 0 1 1-1zm0-15v3h3v-3h-3zm0-1h3a1 1 0 0 1 1 1v3a1 1 0 0 1-1 1h-3a1 1 0 0 1-1-1v-3a1 1 0 0 1 1-1zm6.5 2h11a.5.5 0 1 1 0 1h-11a.5.5 0 1 1 0-1zm0 8h11a.5.5 0 1 1 0 1h-11a.5.5 0 1 1 0-1zm0 8h11a.5.5 0 1 1 0 1h-11a.5.5 0 1 1 0-1z"/>
</svg>
