<?xml version="1.0" encoding="UTF-8"?>
<svg width="3px" height="14px" viewBox="0 0 3 14" version="1.1" xmlns="http://www.w3.org/2000/svg" xmlns:xlink="http://www.w3.org/1999/xlink">
    <g id="Chat" stroke="none" stroke-width="1" fill="none" fill-rule="evenodd">
        <g id="SimplyConnect-Messages--dots" transform="translate(-1235.000000, -405.000000)" fill="#3863AB" fill-rule="nonzero">
            <g id="Group-18" transform="translate(501.000000, -15.000000)">
                <path d="M731.611111,427 C731.611111,427.827679 730.914722,428.5 730.055556,428.5 C729.196389,428.5 728.5,427.827679 728.5,427 C728.5,426.172321 729.196389,425.5 730.055556,425.5 C730.914722,425.5 731.611111,426.172321 731.611111,427 Z M737.055556,427 C737.055556,427.827679 736.358333,428.5 735.5,428.5 C734.641667,428.5 733.944444,427.827679 733.944444,427 C733.944444,426.172321 734.641667,425.5 735.5,425.5 C736.358333,425.5 737.055556,426.172321 737.055556,427 Z M739.388889,427 C739.388889,426.172321 740.086111,425.5 740.944444,425.5 C741.802778,425.5 742.5,426.172321 742.5,427 C742.5,427.827679 741.802778,428.5 740.944444,428.5 C740.086111,428.5 739.388889,427.827679 739.388889,427 Z" id="Shape-Copy" transform="translate(735.500000, 427.000000) rotate(90.000000) translate(-735.500000, -427.000000) "></path>
            </g>
        </g>
    </g>
</svg>