<svg xmlns="http://www.w3.org/2000/svg" width="32" height="32" viewBox="0 0 32 32">
    <path fill-rule="evenodd" d="M28.837 5.575c.104.102.163.24.163.383v23.875C29 31.028 28.003 32 26.778 32H5.222C3.997 32 3 31.028 3 29.833V2.167C3 .972 3.997 0 5.222 0H22.89c.147 0 .288.057.393.159l5.555 5.416zm-1.734-.158l-3.659-3.568v2.484c0 .598.499 1.084 1.112 1.084h2.547zm.786 24.416V6.5h-3.333c-1.226 0-2.223-.972-2.223-2.167v-3.25H5.223c-.613 0-1.112.486-1.112 1.084v27.666c0 .598.499 1.084 1.111 1.084h21.556c.612 0 1.11-.486 1.11-1.084zm-8.965-12.485c.905-.149 1.596-.223 1.854-.223.83 0 2.555 0 2.555 1.478 0 .751-.332 1.647-1.916 1.647-.572 0-1.754-.77-2.823-1.574-1.334.243-3.025.632-4.385 1.157C12.899 22.448 11.105 24 9.917 24 8.995 24 8 23.445 8 22.55c0-1.235 1.348-1.86 3.388-2.805.447-.207.93-.43 1.437-.68.141-.068.287-.135.438-.2.184-.404.36-.84.52-1.313.335-.983.632-1.855.885-2.611-1.035-1.316-1.557-2.449-1.557-3.381 0-2.116 1.043-2.56 1.917-2.56 1.15 0 1.916.425 1.916 2.5 0 .488-.257 1.404-.845 3.181.377.44.81.901 1.297 1.377.375.366.937.834 1.528 1.29zM9.917 22.75c.362 0 1.311-.631 2.27-1.992l-.252.116c-1.306.606-2.657 1.232-2.657 1.675.027.033.274.201.639.201zm4.472-11.19c0 .489.268 1.136.77 1.892.328-1.03.508-1.688.508-1.952 0-1.25-.187-1.25-.64-1.25-.223 0-.638 0-.638 1.31zm.49 6.717a28.049 28.049 0 0 1 2.426-.624c-.395-.33-.692-.594-.812-.711-.307-.3-.592-.592-.857-.878-.19.563-.404 1.188-.641 1.884-.038.11-.076.22-.116.33zm7.177.326c-.067-.138-.334-.228-1.278-.228a4.2 4.2 0 0 0-.388.03c.496.33.899.562 1.073.599.593-.004.593-.12.593-.401z"/>
</svg>
