<svg xmlns="http://www.w3.org/2000/svg" width="24" height="24" viewBox="0 0 24 24">
    <g fill-rule="evenodd">
        <g>
            <g>
                <g>
                    <path fill-rule="nonzero" d="M14.894 2.482l-1.501 1.5H2.483c-.504 0-.92.38-.976.869l-.007.115v16.551c0 .504.38.92.868.976l.115.007h16.551c.504 0 .92-.38.977-.868l.006-.115V10.608l1.5-1.5v12.41c0 1.37-1.111 2.482-2.483 2.482H2.483C1.112 24 0 22.888 0 21.517V4.966c0-1.372 1.112-2.483 2.483-2.483l12.411-.001zM22.346.654l.133.125.744.743c.993.996 1.034 2.582.124 3.627l-.125.133-11.308 11.309c-.036.036-.078.065-.123.086l-.071.027-5.37 1.487c-.152.042-.316 0-.428-.113-.09-.09-.135-.213-.128-.336l.015-.093 1.487-5.368c.014-.05.036-.095.065-.136l.048-.058L18.72.779c.995-.995 2.582-1.037 3.627-.125zM8.363 14.042l-.609 2.203 2.201-.61-1.592-1.593zM17.97 3.648l-8.94 8.938 2.382 2.383 8.941-8.937-2.383-2.384zm1.915-1.901l-.105.092-.75.748 2.384 2.384.713-.712.09-.095c.37-.425.377-1.052.032-1.485l-.086-.096-.708-.708-.099-.094-.097-.076c-.415-.288-.975-.272-1.374.042z" transform="translate(-432.000000, -136.000000) translate(424.000000, 128.000000) translate(8.000000, 8.000000)"/>
                </g>
            </g>
        </g>
    </g>
</svg>
