<svg xmlns="http://www.w3.org/2000/svg" width="24" height="24" viewBox="0 0 24 24">
    <g fill="none" fill-rule="evenodd">
        <g fill-rule="nonzero">
            <g>
                <g>
                    <g>
                        <path fill="#ECF0F1" d="M6.15 0.664L6.15 15.396 6.15 16.309 6.15 17.613 8.758 20.22 11.365 17.613 11.365 16.309 11.365 15.396 11.365 0.664z" transform="translate(-432.000000, -136.000000) translate(424.000000, 128.000000) translate(8.000000, 8.000000) translate(2.400000, 2.400000) translate(8.757915, 10.442085) rotate(45.000000) translate(-8.757915, -10.442085)"/>
                        <path fill="#BDC3C7" d="M8.376 1.586L8.376 21.142 10.984 18.535 10.984 17.231 10.984 16.318 10.984 1.586z" transform="translate(-432.000000, -136.000000) translate(424.000000, 128.000000) translate(8.000000, 8.000000) translate(2.400000, 2.400000) translate(9.679800, 11.363971) rotate(45.000000) translate(-9.679800, -11.363971)"/>
                        <path fill="#FFB602" d="M7.072 2.35L12.287 2.35 12.287 16.691 7.072 16.691z" transform="translate(-432.000000, -136.000000) translate(424.000000, 128.000000) translate(8.000000, 8.000000) translate(2.400000, 2.400000) translate(9.679800, 9.520200) rotate(45.000000) translate(-9.679800, -9.520200)"/>
                        <path fill="#999CA0" d="M18.438.762c-1.019-1.018-2.674-1.014-3.688 0l-.922.922 3.688 3.688.922-.922c1.014-1.014 1.018-2.669 0-3.688z" transform="translate(-432.000000, -136.000000) translate(424.000000, 128.000000) translate(8.000000, 8.000000) translate(2.400000, 2.400000)"/>
                        <path fill="#676A6E" d="M1.838 14.769L0.106 19.094 4.431 17.362z" transform="translate(-432.000000, -136.000000) translate(424.000000, 128.000000) translate(8.000000, 8.000000) translate(2.400000, 2.400000)"/>
                        <path fill="#4C4E51" d="M3.134 16.066L0.106 19.094 4.431 17.362z" transform="translate(-432.000000, -136.000000) translate(424.000000, 128.000000) translate(8.000000, 8.000000) translate(2.400000, 2.400000)"/>
                        <path fill="#B5B7BA" d="M18.438.762c-1.019-1.018-2.674-1.014-3.688 0l-.922.922 1.844 1.844L18.438.762z" transform="translate(-432.000000, -136.000000) translate(424.000000, 128.000000) translate(8.000000, 8.000000) translate(2.400000, 2.400000)"/>
                        <path fill="#F36C32" d="M9.298 3.271L11.905 3.271 11.905 17.613 9.298 17.613z" transform="translate(-432.000000, -136.000000) translate(424.000000, 128.000000) translate(8.000000, 8.000000) translate(2.400000, 2.400000) translate(10.601686, 10.442085) rotate(45.000000) translate(-10.601686, -10.442085)"/>
                    </g>
                </g>
            </g>
        </g>
    </g>
</svg>
