<svg xmlns="http://www.w3.org/2000/svg" width="32" height="32" viewBox="0 0 32 32">
    <path fill="#0064ad" fill-rule="nonzero" d="M23.618 2.94a3.213 3.213 0 0 1 4.544 0l.899.9a3.216 3.216 0 0 1 0 4.543L17.395 20.047a.532.532 0 0 1-.234.137l-6.488 1.797a.533.533 0 0 1-.655-.655l1.797-6.487a.532.532 0 0 1 .137-.234L23.618 2.94zm-.978 2.483l-9.515 9.514 3.938 3.938 9.515-9.514-3.938-3.938zm-6.573 13.96l-3.45-3.45-1.321 4.772 4.77-1.322zM28.309 7.63a2.151 2.151 0 0 0 0-3.04l-.9-.898a2.149 2.149 0 0 0-3.038 0l-.813.812-.166.166 3.939 3.938.978-.978zM18 .54c0 .3-.243.542-.542.542H5.222c-.612 0-1.11.486-1.11 1.084v27.666c0 .598.498 1.084 1.11 1.084h21.556c.612 0 1.11-.486 1.11-1.084V17.556a.556.556 0 0 1 1.112 0v12.277C29 31.028 28.003 32 26.778 32H5.222C3.997 32 3 31.028 3 29.833V2.167C3 .972 3.997 0 5.222 0h12.236c.3 0 .542.243.542.542z"/>
</svg>
