<svg width="120" height="120" viewBox="0 0 120 120" xmlns="http://www.w3.org/2000/svg">
    <g fill="#FFFFFE" fill-rule="evenodd">
        <path d="M93 35.004h-7.678V27h-10.42v8.004h-7.677v10.862h7.677v8.004h10.42v-8.004H93zM89.188 80.23c-1.626-1.854-9.752-10.034-9.752-10.034s-2.383-2.89-5.092-.873c-.433.327-.975.763-1.516 1.255l15.71 15.76c.433-.654.867-1.364 1.354-2.071 0 0 .867-2.128-.704-4.037M67.429 74.978 45.616 52.915c.165-.169.663-.786 1.38-1.516L30.762 34.837c-1.546 2.246-2.65 5.558-2.761 10.948 0 10.218 8.394 21.278 16.898 29.98C54.12 85.083 63.343 93.054 74.277 93c5.411-.113 8.67-1.236 10.878-2.863L68.865 73.63a20.848 20.848 0 0 1-1.436 1.347M51.644 45.54c2.132-2.637-.923-5.004-.923-5.004s-8.645-8.07-10.604-9.683c-1.96-1.614-4.266-.7-4.266-.7-.749.485-1.499.916-2.248 1.4l16.657 15.6c.519-.592 1.038-1.13 1.384-1.614"/>
    </g>
</svg>
