<svg width="24" height="24" viewBox="0 0 24 24" xmlns="http://www.w3.org/2000/svg">
    <g fill="none" fill-rule="evenodd">
        <path d="M11.999 1C5.925 1 1 5.927 1 12c0 6.077 4.925 11 10.999 11C18.075 23 23 18.077 23 12c0-6.073-4.925-11-11.001-11" fill="#00C853"/>
        <path d="M17.604 10.337a1.384 1.384 0 0 0 0-1.937 1.348 1.348 0 0 0-1.916 0l-5.236 5.294-2.139-2.163a1.348 1.348 0 0 0-1.916 0 1.381 1.381 0 0 0 0 1.938L9.494 16.6a1.348 1.348 0 0 0 1.916 0l6.194-6.263z" fill="#FFF"/>
    </g>
</svg>
