<svg width="24" height="24" viewBox="0 0 24 24" xmlns="http://www.w3.org/2000/svg">
    <path d="M13.444 21c.909 0 1.76-.17 2.556-.508a6.598 6.598 0 0 0 2.085-1.39 6.533 6.533 0 0 0 1.403-2.066A6.305 6.305 0 0 0 20 14.503a6.44 6.44 0 0 0-1.915-4.6 6.454 6.454 0 0 0-2.131-1.41 6.6 6.6 0 0 0-2.51-.488H6.51l4.117-4.091L9.706 3 4 8.655l5.706 5.655.921-.914L6.51 9.305h6.934c.724 0 1.404.137 2.039.41.635.275 1.19.647 1.664 1.117a5.3 5.3 0 0 1 1.127 1.65c.277.63.415 1.303.415 2.02 0 .718-.138 1.391-.415 2.02a5.3 5.3 0 0 1-1.127 1.65c-.474.471-1.03.843-1.664 1.117a5.088 5.088 0 0 1-2.039.412V21z" fill="#4C4E51" fill-rule="nonzero"/>
</svg>
