<svg width="24" height="24" viewBox="0 0 24 24" xmlns="http://www.w3.org/2000/svg">
    <g fill="none" fill-rule="evenodd">
        <path d="M11.999 1C5.925 1 1 5.927 1 12c0 6.077 4.925 11 10.999 11C18.075 23 23 18.077 23 12c0-6.073-4.925-11-11.001-11" fill="#F33232"/>
        <path d="M15.618 7c.438 0 .789.379.789.844 0 .467-.351.845-.789.845l.855.007c.524 0 .948.454.948 1.016 0 .56-.424 1.013-.948 1.013h.857c.522 0 .945.454.945 1.016 0 .56-.423 1.014-.945 1.014h.723c.524 0 .947.456.947 1.013 0 .562-.42.966-.947 1.016l-4.393.643 2.115 2.344c.471.502.929 1.74.281 2.122-.281.167-.629.167-1.131-.207a155.397 155.397 0 0 1-3.718-2.846c-.95-.756-1.811-1.538-2.397-2.027-.111-.093-.314-.201-.422-.406-.13-.248-.157-.602-.157-.778V9.354c0-.72.435-1.164.945-1.284 2.204-.523 3.45-.672 6.442-1.07zM6.615 8.108c.298 0 .539.24.539.538v5.569a.538.538 0 0 1-.539.538H5.538A.538.538 0 0 1 5 14.215V8.646c0-.297.241-.538.538-.538h1.077z" fill="#FFFFFE"/>
    </g>
</svg>
