<svg width="24" height="24" viewBox="0 0 24 24" xmlns="http://www.w3.org/2000/svg">
    <g fill="none" fill-rule="evenodd">
        <path d="M1 12C1 5.924 5.924 1 12 1s11 4.924 11 11-4.924 11-11 11S1 18.076 1 12z" fill="#FCCE00"/>
        <path d="M7.08 14.918a.688.688 0 0 1 .971.068c.77.89 2.084 1.826 3.91 1.826 1.904 0 3.214-.936 3.988-1.826a.688.688 0 1 1 1.04.903c-.959 1.1-2.621 2.299-5.028 2.299-2.329 0-3.996-1.2-4.95-2.3a.688.688 0 0 1 .07-.97zm1.5-6.355c.756 0 1.375.614 1.375 1.374 0 .761-.62 1.376-1.375 1.376-.76 0-1.375-.615-1.375-1.376 0-.76.614-1.374 1.375-1.374zm6.875 0c.756 0 1.375.614 1.375 1.374 0 .761-.62 1.376-1.375 1.376-.76 0-1.375-.615-1.375-1.376 0-.76.614-1.374 1.375-1.374z" fill="#222" fill-rule="nonzero"/>
    </g>
</svg>
