<?xml version="1.0" encoding="UTF-8"?>
<svg width="24px" height="24px" viewBox="0 0 24 24" version="1.1" xmlns="http://www.w3.org/2000/svg" xmlns:xlink="http://www.w3.org/1999/xlink">
    <g id="Client-documents" stroke="none" stroke-width="1" fill="none" fill-rule="evenodd">
        <g id="Artboard-Copy" transform="translate(-79.000000, -541.000000)">
            <g id="Combined-Shape" transform="translate(79.000000, 541.000000)">
                <path d="M11.5461877,0.167487848 L21.5461877,6.8947444 C21.7610428,7.03928296 21.911162,7.26137489 21.9710545,7.51247559 L21.9845902,7.51288657 L21.9797057,7.55209493 C21.9930765,7.61949665 22,7.68876232 22,7.75898484 L22,16 L21,16 L21,9.04695774 L12.0923754,15.0400354 C11.4758806,15.4547672 10.6929739,15.4843909 10.052706,15.1289065 L9.90762464,15.0400354 L1,9.04795774 L1,20.9682717 L7,20.968 L7,22 L1,22 C0.44771525,22 0,21.5380795 0,20.9682717 L0,7.75898484 C0,7.68876232 0.00692353141,7.61949665 0.0202942878,7.55209493 L0.0154097811,7.51288657 L0.0289455081,7.51247559 C0.0888380039,7.26137489 0.238957193,7.03928296 0.453812322,6.8947444 L10.4538123,0.167487848 C10.785771,-0.0558292827 11.214229,-0.0558292827 11.5461877,0.167487848 Z M11,1.03172829 L1.09517953,7.69633029 C1.15558365,7.8287441 1.24310791,7.9475479 1.35303098,8.04375033 L1.45381232,8.12126409 L10.4538123,14.175795 L10.5677745,14.241963 C10.8407903,14.3770561 11.1592097,14.3770561 11.4322255,14.241963 L11.5461877,14.175795 L20.5461877,8.12126409 L20.646969,8.04375033 C20.7571683,7.94730618 20.844856,7.82814696 20.9052753,7.69533194 L11,1.03172829 Z" fill="#333333"></path>
                <path d="M18.1046521,17 C18.2053502,17 18.2926694,17.0349234 18.3662636,17.104751 L18.895331,17.6008412 C18.9652189,17.6669428 19,17.7514424 19,17.8543014 C19,17.9535504 18.9652189,18.0362353 18.8952495,18.1023755 L12.7383783,23.8952104 C12.6647231,23.9650959 12.5756322,24 12.4709224,24 C12.3701632,24 12.2829865,23.9650959 12.2093109,23.8952104 L8.10460795,20.0333333 C8.03492362,19.9671352 8,19.884624 8,19.7853172 C8,19.6824582 8.03480144,19.5978813 8.10460795,19.5317218 L8.63367533,19.0357088 C8.70741202,18.9659006 8.79450725,18.9309965 8.89534793,18.9309965 C8.99618861,18.9309965 9.08340602,18.9659199 9.15702053,19.0357088 L12.4709835,22.1480161 L17.8430406,17.104751 C17.9166958,17.0349234 18.0038725,17 18.1046521,17 Z M23.1046521,17 C23.2053502,17 23.2926694,17.0349234 23.3662636,17.104751 L23.895331,17.6008412 C23.9652189,17.6669428 24,17.7514424 24,17.8543014 C24,17.9535504 23.9652189,18.0362353 23.8952495,18.1023755 L17.7383783,23.8952104 C17.6647231,23.9650959 17.5756322,24 17.4709224,24 C17.3701632,24 17.2829865,23.9650959 17.2093109,23.8952104 C16.5069761,23.2344243 15.9281901,22.6898781 15.4729528,22.2615717 L16.5315876,21.2657828 C16.7968857,21.5149374 17.1100177,21.8090152 17.4709835,22.1480161 L22.8430406,17.104751 C22.9166958,17.0349234 23.0038725,17 23.1046521,17 Z" fill="#448993" fill-rule="nonzero"></path>
            </g>
        </g>
    </g>
</svg>