<?xml version="1.0" encoding="UTF-8"?>
<svg width="24px" height="18px" viewBox="0 0 24 18" version="1.1" xmlns="http://www.w3.org/2000/svg" xmlns:xlink="http://www.w3.org/1999/xlink">
    <g id="Client-documents" stroke="none" stroke-width="1" fill="none" fill-rule="evenodd">
        <g id="Artboard-Copy" transform="translate(-79.000000, -482.000000)">
            <g id="Combined-Shape" transform="translate(79.000000, 478.000000)">
                <path d="M21,4 C21.5522847,4 22,4.44771525 22,5 L22,14 L21,14 L21,7.384 L12.0923754,13.192567 C11.4758806,13.5945448 10.6929739,13.6232575 10.052706,13.2787051 L9.90762464,13.192567 L1,7.385 L1,18 L7,18 L7,19 L1,19 C0.44771525,19 0,18.5522847 0,18 L0,5 C0,4.44771525 0.44771525,4 1,4 L21,4 Z M21,5 L1,5 L1,5.64890282 L1.00788809,5.77435869 C1.03921267,6.0222857 1.16246084,6.24978153 1.35303098,6.41143564 L1.45381232,6.48656565 L10.4538123,12.3549042 L10.5677745,12.4190374 C10.8407903,12.549976 11.1592097,12.549976 11.4322255,12.4190374 L11.5461877,12.3549042 L20.5461877,6.48656565 L20.646969,6.41143564 C20.8375392,6.24978153 20.9607873,6.0222857 20.9921119,5.77435869 L21,5.64890282 L21,5 Z" fill="#333333"></path>
                <path d="M18.1046521,15 C18.2053502,15 18.2926694,15.0349234 18.3662636,15.104751 L18.895331,15.6008412 C18.9652189,15.6669428 19,15.7514424 19,15.8543014 C19,15.9535504 18.9652189,16.0362353 18.8952495,16.1023755 L12.7383783,21.8952104 C12.6647231,21.9650959 12.5756322,22 12.4709224,22 C12.3701632,22 12.2829865,21.9650959 12.2093109,21.8952104 L8.10460795,18.0333333 C8.03492362,17.9671352 8,17.884624 8,17.7853172 C8,17.6824582 8.03480144,17.5978813 8.10460795,17.5317218 L8.63367533,17.0357088 C8.70741202,16.9659006 8.79450725,16.9309965 8.89534793,16.9309965 C8.99618861,16.9309965 9.08340602,16.9659199 9.15702053,17.0357088 L12.4709835,20.1480161 L17.8430406,15.104751 C17.9166958,15.0349234 18.0038725,15 18.1046521,15 Z M23.1046521,15 C23.2053502,15 23.2926694,15.0349234 23.3662636,15.104751 L23.895331,15.6008412 C23.9652189,15.6669428 24,15.7514424 24,15.8543014 C24,15.9535504 23.9652189,16.0362353 23.8952495,16.1023755 L17.7383783,21.8952104 C17.6647231,21.9650959 17.5756322,22 17.4709224,22 C17.3701632,22 17.2829865,21.9650959 17.2093109,21.8952104 C16.5069761,21.2344243 15.9281901,20.6898781 15.4729528,20.2615717 L16.5315876,19.2657828 C16.7968857,19.5149374 17.1100177,19.8090152 17.4709835,20.1480161 L22.8430406,15.104751 C22.9166958,15.0349234 23.0038725,15 23.1046521,15 Z" fill="#448993" fill-rule="nonzero"></path>
            </g>
        </g>
    </g>
</svg>