<svg xmlns="http://www.w3.org/2000/svg" width="48" height="48" viewBox="0 0 48 48">
    <path fill-rule="evenodd" d="M34.84 5.294C31.531 3.363 27.927 2.4 24 2.4c-3.926 0-7.53.963-10.839 2.894-3.315 1.934-5.932 4.55-7.867 7.867C3.364 16.469 2.4 20.074 2.4 24s.963 7.53 2.894 10.84a21.504 21.504 0 0 0 7.867 7.866C16.47 44.636 20.074 45.6 24 45.6c3.926 0 7.53-.963 10.839-2.894 3.315-1.934 5.931-4.55 7.867-7.867C44.637 31.531 45.6 27.926 45.6 24s-.963-7.531-2.893-10.84a21.504 21.504 0 0 0-7.867-7.866zm9.076 7.16C45.972 15.979 47 19.828 47 24c0 4.173-1.028 8.02-3.084 11.545-2.057 3.524-4.847 6.314-8.37 8.37C32.022 45.972 28.173 47 24 47c-4.172 0-8.02-1.028-11.545-3.085a22.903 22.903 0 0 1-8.37-8.37C2.028 32.02 1 28.173 1 24s1.028-8.021 3.085-11.545c2.057-3.524 4.847-6.314 8.37-8.37C15.98 2.028 19.829 1 24.002 1c4.173 0 8.02 1.028 11.545 3.085a22.903 22.903 0 0 1 8.37 8.37zM28.165 24l5.417 5.384c.278.277.418.622.418 1.038 0 .431-.14.785-.418 1.062l-2.117 2.077A1.436 1.436 0 0 1 30.42 34c-.404 0-.753-.146-1.047-.439L24 28.222l-5.372 5.34a1.436 1.436 0 0 1-1.047.438c-.403 0-.751-.146-1.046-.439l-2.117-2.077c-.279-.277-.418-.63-.418-1.062 0-.416.14-.761.418-1.038L19.835 24l-5.417-5.384A1.405 1.405 0 0 1 14 17.578c0-.431.14-.785.418-1.062l2.117-2.077A1.436 1.436 0 0 1 17.58 14c.404 0 .753.146 1.047.439L24 19.778l5.372-5.34A1.436 1.436 0 0 1 30.419 14c.403 0 .751.146 1.046.439l2.117 2.077c.279.277.418.63.418 1.062 0 .416-.14.761-.418 1.038L28.165 24zm-.983-.975l5.402-5.368c.016-.016.016-.016.016-.08 0-.081-.003-.088-.016-.101l-2.11-2.072c-.04-.04-.032-.036-.055-.036-.024 0-.015-.004-.05.03l-5.432 5.4-.937.899-.937-.9-5.433-5.399c-.034-.034-.025-.03-.049-.03-.023 0-.014-.004-.054.036l-2.111 2.072c-.013.013-.016.02-.016.102 0 .063 0 .063.016.079l5.402 5.368.982.975-.982.975-5.402 5.368c-.016.016-.016.016-.016.08 0 .081.003.088.016.101l2.11 2.072c.04.04.032.036.055.036.024 0 .015.004.05-.03l5.432-5.4.937-.928.937.929 5.433 5.399c.034.034.025.03.049.03.023 0 .014.004.054-.036l2.111-2.072c.013-.013.016-.02.016-.102 0-.063 0-.063-.016-.079l-5.402-5.368L26.2 24l.982-.975z"/>
</svg>
