<?xml version="1.0" encoding="UTF-8"?>
<svg width="44px" height="44px" viewBox="0 0 44 44" version="1.1" xmlns="http://www.w3.org/2000/svg" xmlns:xlink="http://www.w3.org/1999/xlink">
    <g stroke-width="1">
        <rect opacity="0" x="0" y="0" width="44" height="44"></rect>
        <path d="M32,0 C33.6568542,0 35,1.34314575 35,3 L35.0002622,25.0129457 L34.8545616,25.0064941 C39.936992,25.1929727 44,29.3720032 44,34.5 C44,39.7467051 39.7467051,44 34.5,44 C30.4376424,44 26.9708257,41.4501861 25.6126817,37.86369 L25.6659444,38.0010922 L11,38 C9.34314575,38 8,36.6568542 8,35 L8,3 C8,1.34314575 9.34314575,0 11,0 L32,0 Z M34.5,26 C29.8055796,26 26,29.8055796 26,34.5 C26,39.1944204 29.8055796,43 34.5,43 C39.1944204,43 43,39.1944204 43,34.5 C43,29.8055796 39.1944204,26 34.5,26 Z M34.435,28.249 C34.7437272,28.249 34.994,28.4992728 34.994,28.808 L34.994,28.808 L34.994,29.542 L35.2217653,29.5732755 C35.5496837,29.6295204 35.8485952,29.7232619 36.1185,29.8545 C36.5908333,30.0841667 36.957,30.4178333 37.217,30.8555 C37.477,31.2931667 37.607,31.8196667 37.607,32.435 C37.5426247,32.6295785 37.3574422,32.7268677 37.0514526,32.7268677 C36.7454631,32.7268677 36.5406455,32.6295785 36.437,32.435 C36.437,32.123 36.3676667,31.8261667 36.229,31.5445 C36.0903333,31.2628333 35.8758333,31.031 35.5855,30.849 C35.2951667,30.667 34.9116667,30.576 34.435,30.576 C34.0103333,30.576 33.6485,30.6431667 33.3495,30.7775 C33.0505,30.9118333 32.8208333,31.096 32.6605,31.33 C32.5001667,31.564 32.42,31.824 32.42,32.11 C32.42,32.4826667 32.5543333,32.8055 32.823,33.0785 C33.0916667,33.3515 33.5033333,33.514 34.058,33.566 L34.058,33.566 L34.916,33.644 C35.8433333,33.7306667 36.5865,34.0015 37.1455,34.4565 C37.7045,34.9115 37.984,35.529 37.984,36.309 C37.984,36.8463333 37.841,37.3165 37.555,37.7195 C37.269,38.1225 36.866,38.4366667 36.346,38.662 L36.346,38.662 L36.1170408,38.7516735 C35.8036259,38.8620408 35.4576667,38.935619 35.0791633,38.9724082 L35.0791633,38.9724082 L35.045,38.975 L35.0456717,40.1183283 C35.0456717,40.4268742 34.7955458,40.677 34.487,40.677 C34.1782197,40.677 33.9278531,40.4267803 33.9276718,40.1180001 L33.9276718,40.1180001 L33.927,38.974 L33.6960313,38.9478984 C33.2830104,38.8900078 32.914,38.783875 32.589,38.6295 C32.069,38.3825 31.6725,38.0315 31.3995,37.5765 C31.1265,37.1215 30.9899808,36.5863333 30.9899808,35.971 C30.9896141,35.7405368 31.169264,35.6253052 31.5289307,35.6253052 C31.8885973,35.6253052 32.0989538,35.7405368 32.16,35.971 C32.16,36.2656667 32.2315,36.5646667 32.3745,36.868 C32.5175,37.1713333 32.758,37.4248333 33.096,37.6285 C33.434,37.8321667 33.8976667,37.934 34.487,37.934 C35.267,37.934 35.8455,37.7693333 36.2225,37.44 C36.5995,37.1106667 36.788,36.7336667 36.788,36.309 C36.788,35.893 36.619,35.5463333 36.281,35.269 C35.943,34.9916667 35.4533333,34.8226667 34.812,34.762 L34.812,34.762 L33.954,34.684 C33.122,34.606 32.459,34.3546667 31.965,33.93 C31.471,33.5053333 31.224,32.8986667 31.224,32.11 C31.224,31.564 31.3561667,31.0981667 31.6205,30.7125 C31.8848333,30.3268333 32.2575,30.03 32.7385,29.822 L32.7385,29.822 L32.9498163,29.7392245 C33.1663061,29.6628163 33.3983163,29.6055102 33.6458469,29.5673061 L33.6458469,29.5673061 L33.875,29.539 L33.8755667,28.8079998 C33.875806,28.4992027 34.1262028,28.249 34.435,28.249 Z M32,1 L11,1 C9.9456382,1 9.08183488,1.81587779 9.00548574,2.85073766 L9,3 L9,35 C9,36.0543618 9.81587779,36.9181651 10.8507377,36.9945143 L11,37 L25.332608,37.0008388 L25.3446778,37.0447682 C25.120045,36.2348549 25,35.3814465 25,34.5 C25,32.281435 25.7604952,30.2404932 27.0350187,28.6236416 L27.0005002,28.6676965 L27,22.5 C27,22.2238576 27.2238576,22 27.5,22 L31.5,22 C31.7761424,22 32,22.2238576 32,22.5 L32.0001606,25.3323361 L31.9672041,25.3413657 C32.6641123,25.149064 33.3931345,25.0341749 34.1444386,25.0065308 L34.0007338,25.012894 L34,3 C34,1.9456382 33.1841222,1.08183488 32.1492623,1.00548574 L32,1 Z M15.5,30 C15.7761424,30 16,30.2238576 16,30.5 L16,34.5 C16,34.7761424 15.7761424,35 15.5,35 L11.5,35 C11.2238576,35 11,34.7761424 11,34.5 L11,30.5 C11,30.2238576 11.2238576,30 11.5,30 L15.5,30 Z M23.5,30 C23.7761424,30 24,30.2238576 24,30.5 L24,34.5 C24,34.7761424 23.7761424,35 23.5,35 L19.5,35 C19.2238576,35 19,34.7761424 19,34.5 L19,30.5 C19,30.2238576 19.2238576,30 19.5,30 L23.5,30 Z M15,31 L12,31 L12,34 L15,34 L15,31 Z M23,31 L20,31 L20,34 L23,34 L23,31 Z M31,23 L28,23 L28.0002301,27.5715396 L28.1473986,27.4362886 C28.9972877,26.67146 29.9859344,26.0578126 31.0709906,25.6376943 L30.999907,25.6655481 L31,23 Z M15.5,22 C15.7761424,22 16,22.2238576 16,22.5 L16,26.5 C16,26.7761424 15.7761424,27 15.5,27 L11.5,27 C11.2238576,27 11,26.7761424 11,26.5 L11,22.5 C11,22.2238576 11.2238576,22 11.5,22 L15.5,22 Z M23.5,22 C23.7761424,22 24,22.2238576 24,22.5 L24,26.5 C24,26.7761424 23.7761424,27 23.5,27 L19.5,27 C19.2238576,27 19,26.7761424 19,26.5 L19,22.5 C19,22.2238576 19.2238576,22 19.5,22 L23.5,22 Z M15,23 L12,23 L12,26 L15,26 L15,23 Z M23,23 L20,23 L20,26 L23,26 L23,23 Z M15.5,14 C15.7761424,14 16,14.2238576 16,14.5 L16,18.5 C16,18.7761424 15.7761424,19 15.5,19 L11.5,19 C11.2238576,19 11,18.7761424 11,18.5 L11,14.5 C11,14.2238576 11.2238576,14 11.5,14 L15.5,14 Z M23.5,14 C23.7761424,14 24,14.2238576 24,14.5 L24,18.5 C24,18.7761424 23.7761424,19 23.5,19 L19.5,19 C19.2238576,19 19,18.7761424 19,18.5 L19,14.5 C19,14.2238576 19.2238576,14 19.5,14 L23.5,14 Z M31.5,14 C31.7761424,14 32,14.2238576 32,14.5 L32,18.5 C32,18.7761424 31.7761424,19 31.5,19 L27.5,19 C27.2238576,19 27,18.7761424 27,18.5 L27,14.5 C27,14.2238576 27.2238576,14 27.5,14 L31.5,14 Z M15,15 L12,15 L12,18 L15,18 L15,15 Z M23,15 L20,15 L20,18 L23,18 L23,15 Z M31,15 L28,15 L28,18 L31,18 L31,15 Z M31.5,3 C31.7761424,3 32,3.22385763 32,3.5 L32,10.5 C32,10.7761424 31.7761424,11 31.5,11 L11.5,11 C11.2238576,11 11,10.7761424 11,10.5 L11,3.5 C11,3.22385763 11.2238576,3 11.5,3 L31.5,3 Z M31,4 L12,4 L12,10 L31,10 L31,4 Z"></path>
    </g>
</svg>