<svg width="32" height="32" viewBox="0 0 32 32" xmlns="http://www.w3.org/2000/svg">
    <g fill="none" fill-rule="evenodd">
        <path d="M0 0h32v32H0z"/>
        <path d="M16.888 1c1.237 0 2.236 1.022 2.236 2.285v.556c0 3.027-1.409 5.85-3.75 7.632l-.091.066 2.759 3.99h4.616c.917 0 1.784.411 2.377 1.121l.122.157 2.397 3.268a2.32 2.32 0 0 1-.446 3.198 2.207 2.207 0 0 1-3.132-.457l-1.993-2.718h-4.329l4.664 7.37a2.32 2.32 0 0 1-.53 3.067l-.132.094c-1.04.692-2.419.388-3.097-.678L10.266 16.84l-.01.112-.01.305v4.189c0 1.263-.998 2.284-2.235 2.284-1.237 0-2.236-1.021-2.236-2.284v-4.189c0-3.795 2.204-7.217 5.592-8.722l.25-.106c1.835-.752 3.035-2.566 3.035-4.588v-.556c0-1.263 1-2.285 2.236-2.285zM7.123 2.816c1.726 0 3.124 1.43 3.124 3.193 0 1.763-1.398 3.193-3.124 3.193C5.398 9.202 4 7.772 4 6.009c0-1.763 1.398-3.193 3.123-3.193z" fill="#326CB6" fill-rule="nonzero"/>
    </g>
</svg>
