<svg width="32" height="31" viewBox="0 0 32 31" fill="none" xmlns="http://www.w3.org/2000/svg">
    <path d="M24.0068 8.664C24.0068 13.1729 20.3516 16.828 15.8428 16.828C11.3339 16.828 7.67878 13.1729 7.67878 8.664C7.67878 4.15515 11.3339 0.5 15.8428 0.5C20.3516 0.5 24.0068 4.15515 24.0068 8.664Z" stroke="#9199A8"/>
    <path d="M27.4886 24.7162C24.3578 18.9234 18.7412 17.328 15.8427 17.328C9.57467 17.328 5.91329 21.1378 4.05037 24.7162" stroke="#9199A8"/>
    <path d="M15.8427 17.328V23.0405" stroke="#9199A8"/>
    <rect x="0.5" y="24.7973" width="5" height="5" rx="0.5" stroke="#9199A8"/>
    <rect x="13.4865" y="23.1216" width="5" height="5" rx="0.5" stroke="#9199A8"/>
    <rect x="25.6352" y="24.7973" width="5" height="5" rx="0.5" stroke="#9199A8"/>
</svg>
