<?xml version="1.0" encoding="UTF-8"?>
<svg width="22px" height="24px" viewBox="0 0 22 24" version="1.1" xmlns="http://www.w3.org/2000/svg" xmlns:xlink="http://www.w3.org/1999/xlink">
    <g id="Client-documents" stroke="none" stroke-width="1" fill="none" fill-rule="evenodd">
        <g id="Group" transform="translate(-2.000000, 0.000000)">
            <path d="M19.5,2.13162821e-14 C19.7454599,2.13162821e-14 19.9496084,0.176875161 19.9919443,0.410124368 L20,0.5 L19.9996782,12.3412977 C19.6780866,12.2276521 19.343913,12.1406446 18.9998085,12.0829263 L19,1 L6.95996094,1 L6.95996094,4.5 C6.95996094,4.74545989 6.78308578,4.94960837 6.54983657,4.99194433 L6.45996094,5 L3,5 L3,20 L12.3412977,19.9996782 C12.4649058,20.3494616 12.6200271,20.6843602 12.8032504,21.000963 L2.5,21 C2.25454011,21 2.05039163,20.8231248 2.00805567,20.5898756 L2,20.5 L2,4.5 C2,4.38822809 2.03667509,4.2850221 2.09909316,4.20198571 L2.12761678,4.16382555 L2.12761678,4.16382555 L2.1602478,4.12791519 L6.05287247,0.186920166 L6.09050829,0.152933194 L6.09050829,0.152933194 L6.13026896,0.124088074 C6.19627791,0.0661488956 6.27767604,0.0253189432 6.3675364,0.00852516562 L6.45996094,2.13162821e-14 L19.5,2.13162821e-14 Z M5.9603149,1.704 L3.6933149,4 L5.95996094,4 L5.9603149,1.704 Z" id="Shape" fill="#333333"></path>
            <path d="M18,12 C21.3137085,12 24,14.6862915 24,18 C24,21.3137085 21.3137085,24 18,24 C14.6862915,24 12,21.3137085 12,18 C12,14.6862915 14.6862915,12 18,12 Z M18,13 C15.2385763,13 13,15.2385763 13,18 C13,20.7614237 15.2385763,23 18,23 C20.7614237,23 23,20.7614237 23,18 C23,15.2385763 20.7614237,13 18,13 Z M19.8604658,15.5 C19.932393,15.5 19.9947639,15.5263507 20.0473311,15.5790374 L20.4252364,15.953351 C20.4751564,16.0032264 20.5,16.0669837 20.5,16.1445936 C20.5,16.2194796 20.4751564,16.2818677 20.4251782,16.3317722 L18.759,17.999 L20.4251782,19.6682278 C20.458497,19.7014975 20.4806449,19.7403154 20.491708,19.7846858 L20.5,19.8554064 C20.5,19.9071463 20.4889584,19.9527295 20.4668062,19.9921474 L20.4252364,20.046649 L20.0473311,20.4209626 C19.9947639,20.4736493 19.932393,20.5 19.8604658,20.5 C19.8124755,20.5 19.7688036,20.4882886 19.7294328,20.4648701 L19.6736004,20.4209626 L17.9792739,18.728358 L16.3264432,20.3724531 C16.2738614,20.4251108 16.2115633,20.4514614 16.1395342,20.4514614 C16.0915149,20.4514614 16.0478591,20.4397565 16.0084851,20.4163466 L15.9526252,20.3724531 L15.57472,19.9981978 C15.5248582,19.9482787 15.5,19.8844632 15.5,19.8068532 C15.5,19.7569001 15.5110869,19.7125793 15.5332261,19.673783 L15.57472,19.6197183 L17.2,18 L15.57472,16.3802817 C15.5249454,16.3303334 15.5,16.2680765 15.5,16.1931468 C15.5,16.1155368 15.5248582,16.0517213 15.57472,16.0018022 L15.9526252,15.6275469 C16.0052943,15.5748747 16.0675052,15.5485386 16.1395342,15.5485386 C16.2115633,15.5485386 16.2738614,15.5748892 16.3264432,15.6275469 L17.9792739,17.271642 L19.6736004,15.5790374 C19.7262113,15.5263507 19.7884803,15.5 19.8604658,15.5 Z" id="Combined-Shape" fill="#F33232"></path>
        </g>
    </g>
</svg>