<?xml version="1.0" encoding="UTF-8"?>
<svg width="24px" height="24px" viewBox="0 0 24 24" version="1.1" xmlns="http://www.w3.org/2000/svg" xmlns:xlink="http://www.w3.org/1999/xlink">
    <g id="Icons/24x24/expired3" stroke="none" stroke-width="1" fill="none" fill-rule="evenodd">
        <rect id="Rectangle" stroke="#979797" fill="#D8D8D8" opacity="0" x="0" y="0" width="24" height="24"></rect>
        <path d="M19.5,1.95399252e-14 C19.7454599,1.95399252e-14 19.9496084,0.176875161 19.9919443,0.410124368 L20,0.5 L19.9996782,10 L18.9998085,10 L19,1 L6.95996094,1 L6.95996094,4.5 C6.95996094,4.74545989 6.78308578,4.94960837 6.54983657,4.99194433 L6.45996094,5 L3,5 L3,20 L16.0639648,19.9996782 C16.187573,20.3494616 15.8807416,20.6843602 16.0639648,21.000963 L2.5,21 C2.25454011,21 2.05039163,20.8231248 2.00805567,20.5898756 L2,20.5 L2,4.5 C2,4.38822809 2.03667509,4.2850221 2.09909316,4.20198571 L2.12761678,4.16382555 L2.1602478,4.12791519 L6.05287247,0.186920166 L6.09050829,0.152933194 L6.13026896,0.124088074 C6.19627791,0.0661488956 6.27767604,0.0253189432 6.3675364,0.00852516562 L6.45996094,1.95399252e-14 L19.5,1.95399252e-14 Z M5.9603149,1.704 L3.6933149,4 L5.95996094,4 L5.9603149,1.704 Z" id="Shape" fill="#333333"></path>
        <path d="M22.5,10 C23.2796961,10 23.9204487,10.5900642 23.9931334,11.3445481 L24,11.4878367 L24,14.2082878 C24,14.4885786 23.8805888,14.753772 23.6746831,14.9404231 L23.5812382,15.0154228 L20.78,16.9997759 L23.5812382,18.9845772 C23.8440343,19.1707666 24,19.4713799 24,19.7917122 L24,22.5121633 C24,23.3338728 23.3284271,24 22.5,24 L17.5,24 C16.6715729,24 16,23.3338728 16,22.5121633 L16,19.7917122 C16,19.4713799 16.1559657,19.1707666 16.4187618,18.9845772 L19.22,16.9997759 L16.4187618,15.0154228 C16.1888152,14.8525071 16.0406606,14.6019856 16.0072149,14.3273031 L16,14.2082878 L16,11.4878367 C16,10.7144631 16.5948881,10.0789063 17.35554,10.0068109 L17.5,10 L22.5,10 Z M20,17.6667749 L17.2094301,19.6433703 C17.0780033,19.7364615 17,19.8867853 17,20.0469727 L17,22.5121633 C17,22.7860664 17.2238576,23.0081088 17.5,23.0081088 L22.5,23.0081088 C22.7761424,23.0081088 23,22.7860664 23,22.5121633 L23,20.0469727 C23,19.8867853 22.9219967,19.7364615 22.7905699,19.6433703 L20,17.6667749 Z M20.2880571,19.0910115 L21.7890138,20.1542172 C21.921348,20.2479565 22,20.400055 22,20.5622259 L22,21.5166658 C22,21.7928082 21.7761424,22.0166658 21.5,22.0166658 L18.5,22.0166658 C18.2238576,22.0166658 18,21.7928082 18,21.5166658 L18,20.5611892 C18,20.3990432 18.0786279,20.246965 18.2109285,20.1532214 L19.7099719,19.0910524 C19.8831313,18.9683577 20.1148803,18.9683413 20.2880571,19.0910115 Z M22.5,10.9918912 L17.5,10.9918912 C17.2545401,10.9918912 17.0503916,11.1673321 17.0080557,11.3986899 L17,11.4878367 L17,13.9530273 C17,14.0811772 17.0499221,14.2030144 17.1371815,14.294286 L17.2094301,14.3566297 L20,16.3332251 L22.7905699,14.3566297 C22.8957113,14.2821567 22.9666617,14.1710549 22.9908362,14.0475772 L23,13.9530273 L23,11.4878367 C23,11.2443672 22.8231248,11.0418742 22.5898756,10.9998815 L22.5,10.9918912 Z" id="Combined-Shape" fill="#F36C32" fill-rule="nonzero"></path>
    </g>
</svg>