<?xml version="1.0" encoding="UTF-8"?>
<svg width="22px" height="24px" viewBox="0 0 22 24" version="1.1" xmlns="http://www.w3.org/2000/svg" xmlns:xlink="http://www.w3.org/1999/xlink">
    <g id="Client-documents" stroke="none" stroke-width="1" fill="none" fill-rule="evenodd">
        <g id="02-Documents-list---filter" transform="translate(-1176.000000, -576.000000)">
            <g id="Group-9" transform="translate(241.000000, 473.000000)">
                <g id="Tables/Cell/Documents-list-Copy-3" transform="translate(0.000000, 103.000000)">
                    <g id="Icons/24x24/edit--Copy-3" transform="translate(933.000000, 0.000000)">
                        <path d="M19.5,2.13162821e-14 C19.7454599,2.13162821e-14 19.9496084,0.176875161 19.9919443,0.410124368 L20,0.5 L19.9996782,12.3412977 C19.6780866,12.2276521 19.343913,12.1406446 18.9998085,12.0829263 L19,1 L6.95996094,1 L6.95996094,4.5 C6.95996094,4.74545989 6.78308578,4.94960837 6.54983657,4.99194433 L6.45996094,5 L3,5 L3,20 L12.3412977,19.9996782 C12.4649058,20.3494616 12.6200271,20.6843602 12.8032504,21.000963 L2.5,21 C2.25454011,21 2.05039163,20.8231248 2.00805567,20.5898756 L2,20.5 L2,4.5 C2,4.38822809 2.03667509,4.2850221 2.09909316,4.20198571 L2.12761678,4.16382555 L2.12761678,4.16382555 L2.1602478,4.12791519 L6.05287247,0.186920166 L6.09050829,0.152933194 L6.09050829,0.152933194 L6.13026896,0.124088074 C6.19627791,0.0661488956 6.27767604,0.0253189432 6.3675364,0.00852516562 L6.45996094,2.13162821e-14 L19.5,2.13162821e-14 Z M5.9603149,1.704 L3.6933149,4 L5.95996094,4 L5.9603149,1.704 Z" id="Shape" fill="#333333"></path>
                        <path d="M18,12 C21.3137085,12 24,14.6862915 24,18 C24,21.3137085 21.3137085,24 18,24 C14.6862915,24 12,21.3137085 12,18 C12,14.6862915 14.6862915,12 18,12 Z" id="Combined-Shape" fill="#0064ad" fill-rule="nonzero"></path>
                        <path d="M17.4709835,18.1157316 L19.8430406,15.7122332 C19.9166958,15.637418 20.0038725,15.6 20.1046521,15.6 C20.2053502,15.6 20.2926694,15.637418 20.3662636,15.7122332 L20.895331,16.2437584 C20.9652189,16.3145815 21,16.4051168 21,16.515323 C21,16.6216611 20.9652189,16.7102521 20.8952495,16.7811166 L17.7383783,19.9877255 C17.6647231,20.0626027 17.5756322,20.1 17.4709224,20.1 C17.3701632,20.1 17.2829865,20.0626027 17.2093109,19.9877255 L15.1046079,17.85 C15.0349236,17.7790734 15,17.6906686 15,17.5842684 C15,17.4740623 15.0348014,17.3834443 15.1046079,17.3125591 L15.6336753,16.7811166 C15.707412,16.7063221 15.7945073,16.6689248 15.8953479,16.6689248 C15.9961886,16.6689248 16.083406,16.7063427 16.1570205,16.7811166 L17.4709835,18.1157316 Z" id="Path" fill="#FFFFFF" fill-rule="nonzero"></path>
                    </g>
                </g>
            </g>
        </g>
    </g>
</svg>