<?xml version="1.0" encoding="UTF-8"?>
<svg width="22px" height="24px" viewBox="0 0 22 24" version="1.1" xmlns="http://www.w3.org/2000/svg" xmlns:xlink="http://www.w3.org/1999/xlink">
    <g id="Client-documents" stroke="none" stroke-width="1" fill="none" fill-rule="evenodd">
        <g id="02-Documents-list---filter" transform="translate(-1176.000000, -726.000000)">
            <g id="Group-9" transform="translate(241.000000, 473.000000)">
                <g id="Tables/Cell/Documents-list-Copy-3" transform="translate(0.000000, 103.000000)">
                    <g id="Group" transform="translate(933.000000, 150.000000)">
                        <path d="M19.5,2.13162821e-14 C19.7454599,2.13162821e-14 19.9496084,0.176875161 19.9919443,0.410124368 L20,0.5 L19.9996782,13.9968262 C19.6780866,13.8831806 19.343913,13.7961731 18.9998085,13.7384548 L19,1 L6.95996094,1 L6.95996094,4.5 C6.95996094,4.74545989 6.78308578,4.94960837 6.54983657,4.99194433 L6.45996094,5 L3,5 L3,20 L10.9364848,19.9996782 C11.0600929,20.3494616 11.2152142,20.6843602 11.3984375,21.000963 L2.5,21 C2.25454011,21 2.05039163,20.8231248 2.00805567,20.5898756 L2,20.5 L2,4.5 C2,4.38822809 2.03667509,4.2850221 2.09909316,4.20198571 L2.12761678,4.16382555 L2.1602478,4.12791519 L6.05287247,0.186920166 L6.09050829,0.152933194 L6.13026896,0.124088074 C6.19627791,0.0661488956 6.27767604,0.0253189432 6.3675364,0.00852516562 L6.45996094,2.13162821e-14 L19.5,2.13162821e-14 Z M5.9603149,1.704 L3.6933149,4 L5.95996094,4 L5.9603149,1.704 Z" id="Shape" fill="#333333"></path>
                        <path d="M15.4724432,10.9443743 C15.8942298,10.1008011 16.9200067,9.75887546 17.76358,10.1806621 C18.0940691,10.3459067 18.3620476,10.6138852 18.5272922,10.9443743 L18.5272922,10.9443743 L23.8194474,21.5286848 C24.2412341,22.372258 23.8993084,23.3980349 23.0557352,23.8198215 C22.81861,23.9383841 22.5571369,24.0001095 22.2920229,24.0001095 L22.2920229,24.0001095 L11.7077125,24.0001095 C10.7645689,24.0001095 10,23.2355406 10,22.292397 C10,22.027283 10.0617254,21.7658099 10.180288,21.5286848 L10.180288,21.5286848 Z M17.219395,11.0351827 C16.8915487,10.9277739 16.5257771,11.0737745 16.3668704,11.3915879 L16.3668704,11.3915879 L11.0747152,21.9758984 C11.0255803,22.0741681 11,22.1825281 11,22.292397 C11,22.6832558 11.3168537,23.0001095 11.7077125,23.0001095 L11.7077125,23.0001095 L22.2920229,23.0001095 C22.4018918,23.0001095 22.5102519,22.9745292 22.6085216,22.9253943 C22.9581164,22.7505969 23.0998176,22.3254931 22.9250202,21.9758984 L22.9250202,21.9758984 L17.632865,11.3915879 C17.5643842,11.2546262 17.4533281,11.1435702 17.3163664,11.0750893 L17.3163664,11.0750893 Z M17.4834711,16.625 L17.4834711,20.3070764 C17.4834711,20.5752312 17.2660887,20.7926136 16.9979339,20.7926136 C16.7297791,20.7926136 16.5123967,20.5752312 16.5123967,20.3070764 L16.5123967,16.625 L17.4834711,16.625 Z M17.0041322,14.8181818 C17.174932,14.8181818 17.3078508,14.8664768 17.4028926,14.9630682 C17.4979344,15.0596596 17.5454545,15.1974423 17.5454545,15.3764205 C17.5454545,15.5468759 17.4979344,15.6811075 17.4028926,15.7791193 C17.3078508,15.8771312 17.174932,15.9261364 17.0041322,15.9261364 C16.8278228,15.9261364 16.6921492,15.8771312 16.5971074,15.7791193 C16.5020656,15.6811075 16.4545455,15.5468759 16.4545455,15.3764205 C16.4545455,15.1974423 16.5020656,15.0596596 16.5971074,14.9630682 C16.6921492,14.8664768 16.8278228,14.8181818 17.0041322,14.8181818 Z" id="Combined-Shape" fill="#F36C32" fill-rule="nonzero"></path>
                    </g>
                </g>
            </g>
        </g>
    </g>
</svg>