<?xml version="1.0" encoding="UTF-8"?>
<svg width="22px" height="23px" viewBox="0 0 22 23" version="1.1" xmlns="http://www.w3.org/2000/svg" xmlns:xlink="http://www.w3.org/1999/xlink">
    <g id="Client-documents" stroke="none" stroke-width="1" fill="none" fill-rule="evenodd">
        <g id="Group" transform="translate(-2.000000, 0.000000)" fill="#333333">
            <path d="M19.5,1.95399252e-14 C19.7454599,1.95399252e-14 19.9496084,0.176875161 19.9919443,0.410124368 L20,0.5 L19.9996782,9.5 C19.6780866,9.38635443 19.343913,9.29934695 18.9998085,9.24162863 L19,1 L6.95996094,1 L6.95996094,4.5 C6.95996094,4.74545989 6.78308578,4.94960837 6.54983657,4.99194433 L6.45996094,5 L3,5 L3,20 L15.6020122,19.9996782 C15.7256203,20.3494616 15.8807416,20.6843602 16.0639648,21.000963 L2.5,21 C2.25454011,21 2.05039163,20.8231248 2.00805567,20.5898756 L2,20.5 L2,4.5 C2,4.38822809 2.03667509,4.2850221 2.09909316,4.20198571 L2.12761678,4.16382555 L2.1602478,4.12791519 L6.05287247,0.186920166 L6.09050829,0.152933194 L6.13026896,0.124088074 C6.19627791,0.0661488956 6.27767604,0.0253189432 6.3675364,0.00852516562 L6.45996094,1.95399252e-14 L19.5,1.95399252e-14 Z M5.9603149,1.704 L3.6933149,4 L5.95996094,4 L5.9603149,1.704 Z" id="Shape"></path>
            <path d="M22,8.5 C22.7796961,8.5 23.4204487,9.09488808 23.4931334,9.85553999 L23.5,10 L23.5,12.7426911 C23.5,13.0252733 23.3805888,13.2926347 23.1746831,13.4808117 L23.0812382,13.5564245 L20.28,15.557 L23.0812382,17.5580273 C23.3440343,17.7457388 23.5,18.0488096 23.5,18.3717608 L23.5,21.1144518 C23.5,21.9428789 22.8284271,22.6144518 22,22.6144518 L17,22.6144518 C16.1715729,22.6144518 15.5,21.9428789 15.5,21.1144518 L15.5,18.3717608 C15.5,18.0488096 15.6559657,17.7457388 15.9187618,17.5580273 L18.72,15.557 L15.9187618,13.5564245 C15.6888152,13.3921769 15.5406606,13.1396074 15.5072149,12.8626793 L15.5,12.7426911 L15.5,10 C15.5,9.22030388 16.0948881,8.57955132 16.85554,8.50686658 L17,8.5 L22,8.5 Z M19.5,16.2294518 L16.7094301,18.2222061 C16.5780033,18.3160583 16.5,18.4676111 16.5,18.629108 L16.5,21.1144518 C16.5,21.3905942 16.7238576,21.6144518 17,21.6144518 L22,21.6144518 C22.2761424,21.6144518 22.5,21.3905942 22.5,21.1144518 L22.5,18.629108 C22.5,18.4676111 22.4219967,18.3160583 22.2905699,18.2222061 L19.5,16.2294518 Z M19.7896242,17.6664508 L21.2905806,18.7383482 C21.4220011,18.8322013 21.5,18.9837502 21.5,19.1452425 L21.5,20.1149036 C21.5,20.391046 21.2761424,20.6149036 21,20.6149036 L18,20.6149036 C17.7238576,20.6149036 17.5,20.391046 17.5,20.1149036 L17.5,19.1441976 C17.5,18.9827304 17.5779748,18.8312017 17.7093617,18.7373446 L19.2084052,17.6664921 C19.3822411,17.5423112 19.6157708,17.5422946 19.7896242,17.6664508 Z M22,9.5 L17,9.5 C16.7545401,9.5 16.5503916,9.67687516 16.5080557,9.91012437 L16.5,10 L16.5,12.4853438 C16.5,12.6145414 16.5499221,12.7373746 16.6371815,12.8293924 L16.7094301,12.8922457 L19.5,14.885 L22.2905699,12.8922457 C22.3957113,12.8171639 22.4666617,12.7051538 22.4908362,12.5806666 L22.5,12.4853438 L22.5,10 C22.5,9.75454011 22.3231248,9.55039163 22.0898756,9.50805567 L22,9.5 Z M21.2333421,11.6525879 C21.3806132,11.6525879 21.5,11.7719747 21.5,11.9192458 L21.5,11.9192458 C21.5,12.090057 21.4220011,12.2416059 21.2905806,12.335459 L21.2905806,12.335459 L19.7896242,13.4073564 C19.6157708,13.5315126 19.3822411,13.531496 19.2084052,13.4073152 L19.2084052,13.4073152 L17.7093617,12.3364626 C17.5779748,12.2426055 17.5,12.0910768 17.5,11.9296096 L17.5,11.9296096 L17.5,11.9197458 C17.5,11.7721985 17.6196106,11.6525879 17.7671579,11.6525879 L17.7671579,11.6525879 Z" id="Combined-Shape" fill-rule="nonzero"></path>
        </g>
    </g>
</svg>