<?xml version="1.0" encoding="UTF-8"?>
<svg width="22px" height="24px" viewBox="0 0 22 24" version="1.1" xmlns="http://www.w3.org/2000/svg" xmlns:xlink="http://www.w3.org/1999/xlink">
    <g id="Client-documents" stroke="none" stroke-width="1" fill="none" fill-rule="evenodd">
        <g id="02-Documents-list---filter" transform="translate(-1176.000000, -651.000000)" fill="#333333">
            <g id="Group-9" transform="translate(241.000000, 473.000000)">
                <g id="Tables/Cell/Documents-list-Copy-3" transform="translate(0.000000, 103.000000)">
                    <g id="Group" transform="translate(933.000000, 75.000000)">
                        <path d="M19.5,2.13162821e-14 C19.7454599,2.13162821e-14 19.9496084,0.176875161 19.9919443,0.410124368 L20,0.5 L19.9996782,12.3412977 C19.6780866,12.2276521 19.343913,12.1406446 18.9998085,12.0829263 L19,1 L6.95996094,1 L6.95996094,4.5 C6.95996094,4.74545989 6.78308578,4.94960837 6.54983657,4.99194433 L6.45996094,5 L3,5 L3,20 L12.3412977,19.9996782 C12.4649058,20.3494616 12.6200271,20.6843602 12.8032504,21.000963 L2.5,21 C2.25454011,21 2.05039163,20.8231248 2.00805567,20.5898756 L2,20.5 L2,4.5 C2,4.38822809 2.03667509,4.2850221 2.09909316,4.20198571 L2.12761678,4.16382555 L2.12761678,4.16382555 L2.1602478,4.12791519 L6.05287247,0.186920166 L6.09050829,0.152933194 L6.09050829,0.152933194 L6.13026896,0.124088074 C6.19627791,0.0661488956 6.27767604,0.0253189432 6.3675364,0.00852516562 L6.45996094,2.13162821e-14 L19.5,2.13162821e-14 Z M5.9603149,1.704 L3.6933149,4 L5.95996094,4 L5.9603149,1.704 Z" id="Shape"></path>
                        <path d="M18,12 C21.3137085,12 24,14.6862915 24,18 C24,21.3137085 21.3137085,24 18,24 C14.6862915,24 12,21.3137085 12,18 C12,14.6862915 14.6862915,12 18,12 Z M18,13 C15.2385763,13 13,15.2385763 13,18 C13,20.7614237 15.2385763,23 18,23 C20.7614237,23 23,20.7614237 23,18 C23,15.2385763 20.7614237,13 18,13 Z M17.5,15 C17.7761424,15 18,15.2238576 18,15.5 L18,17.999 L19.5,18 C19.7761424,18 20,18.2238576 20,18.5 C20,18.7761424 19.7761424,19 19.5,19 L17.5103176,18.9998957 C17.5068868,18.9999651 17.5034475,19 17.5,19 C17.2238576,19 17,18.7761424 17,18.5 L17,15.5 C17,15.2238576 17.2238576,15 17.5,15 Z" id="Combined-Shape"></path>
                    </g>
                </g>
            </g>
        </g>
    </g>
</svg>