<?xml version="1.0" encoding="UTF-8"?>
<svg width="22px" height="24px" viewBox="0 0 22 24" version="1.1" xmlns="http://www.w3.org/2000/svg" xmlns:xlink="http://www.w3.org/1999/xlink">
    <g id="Client-documents" stroke="none" stroke-width="1" fill="none" fill-rule="evenodd">
        <g id="opt3--Documents-list---View-document---view2-1" transform="translate(-182.000000, -282.000000)">
            <g id="Group-21" transform="translate(160.000000, 192.000000)">
                <g id="Group-16" transform="translate(0.000000, 81.000000)">
                    <g id="Group" transform="translate(20.000000, 9.000000)">
                        <rect id="Rectangle" stroke="#979797" fill="#D8D8D8" opacity="0" x="0" y="0" width="24" height="24"></rect>
                        <path d="M19.5,1.95399252e-14 C19.7454599,1.95399252e-14 19.9496084,0.176875161 19.9919443,0.410124368 L20,0.5 L19.9996782,14.498291 L18.9998085,14.498291 L19,1 L6.95996094,1 L6.95996094,4.5 C6.95996094,4.74545989 6.78308578,4.94960837 6.54983657,4.99194433 L6.45996094,5 L3,5 L3,20 L11.287,19.9996782 C11.4106081,20.3494616 10.8167767,20.6843602 11,21.000963 L2.5,21 C2.25454011,21 2.05039163,20.8231248 2.00805567,20.5898756 L2,20.5 L2,4.5 C2,4.38822809 2.03667509,4.2850221 2.09909316,4.20198571 L2.12761678,4.16382555 L2.1602478,4.12791519 L6.05287247,0.186920166 L6.09050829,0.152933194 L6.13026896,0.124088074 C6.19627791,0.0661488956 6.27767604,0.0253189432 6.3675364,0.00852516562 L6.45996094,1.95399252e-14 L19.5,1.95399252e-14 Z M5.9603149,1.704 L3.6933149,4 L5.95996094,4 L5.9603149,1.704 Z" id="Shape" fill="#333333"></path>
                        <path d="M9.32866073,10.5396907 C9.70895849,10.0723378 10.3350565,9.88895682 10.9045238,10.0668562 L10.9045238,10.0668562 L10.9618686,10.0866993 L11.0766245,10.1327301 L23.1490604,15.6721789 C23.6674177,15.9109234 24,16.428634 24,16.999576 C24,17.5116704 23.7320062,17.9844243 23.2454197,18.2771958 L23.2454197,18.2771958 L23.1468356,18.3275692 L11.0765524,23.8660286 C10.8834471,23.9548555 10.6750127,24 10.4645858,24 C10.0257687,24 9.6050535,23.8033997 9.32947695,23.4615995 C8.9443487,22.9909693 8.89285801,22.3319059 9.22887295,21.7552601 L9.22887295,21.7552601 L9.29485255,21.6592442 L12.81,16.999 L9.29643437,12.341999 C8.91997911,11.8456936 8.90354993,11.1722621 9.23779827,10.6633056 L9.23779827,10.6633056 Z M13.699859,17.4789542 L10.0931661,22.2614863 L10.0615082,22.3090819 C9.9669371,22.4724662 9.98182458,22.6797536 10.1033801,22.8282956 C10.1934494,22.9399958 10.328089,23 10.4645858,23 C10.5305127,23 10.5964397,22.9861529 10.6586525,22.9575355 L10.6586525,22.9575355 L22.549859,17.4999542 L13.6999512,17.5 L13.699859,17.4789542 Z M10.6063391,11.0213644 C10.4264615,10.9651713 10.2258642,11.0214754 10.1043087,11.1708565 C9.96966903,11.3351758 9.96502628,11.5687308 10.0931661,11.7376658 L10.0931661,11.7376658 L13.699859,16.5189542 L13.6999512,16.5 L22.555859,16.4999542 L10.6595811,11.0416166 Z" id="Combined-Shape" fill="#0064ad" fill-rule="nonzero"></path>
                    </g>
                </g>
            </g>
        </g>
    </g>
</svg>