<?xml version="1.0" encoding="UTF-8"?>
<svg width="22px" height="24px" viewBox="0 0 22 24" version="1.1" xmlns="http://www.w3.org/2000/svg" xmlns:xlink="http://www.w3.org/1999/xlink">
    <g id="Client-documents" stroke="none" stroke-width="1" fill="none" fill-rule="evenodd">
        <g id="02-Documents-list---filter" transform="translate(-1176.000000, -801.000000)">
            <g id="Group-9" transform="translate(241.000000, 473.000000)">
                <g id="Tables/Cell/Documents-list-Copy-2" transform="translate(0.000000, 305.000000)">
                    <g id="Group" transform="translate(933.000000, 23.000000)">
                        <path d="M19.5,2.13162821e-14 C19.7454599,2.13162821e-14 19.9496084,0.176875161 19.9919443,0.410124368 L20,0.5 L19.9996782,12.3412977 C19.6780866,12.2276521 19.343913,12.1406446 18.9998085,12.0829263 L19,1 L6.95996094,1 L6.95996094,4.5 C6.95996094,4.74545989 6.78308578,4.94960837 6.54983657,4.99194433 L6.45996094,5 L3,5 L3,20 L12.3412977,19.9996782 C12.4649058,20.3494616 12.6200271,20.6843602 12.8032504,21.000963 L2.5,21 C2.25454011,21 2.05039163,20.8231248 2.00805567,20.5898756 L2,20.5 L2,4.5 C2,4.38822809 2.03667509,4.2850221 2.09909316,4.20198571 L2.12761678,4.16382555 L2.12761678,4.16382555 L2.1602478,4.12791519 L6.05287247,0.186920166 L6.09050829,0.152933194 L6.09050829,0.152933194 L6.13026896,0.124088074 C6.19627791,0.0661488956 6.27767604,0.0253189432 6.3675364,0.00852516562 L6.45996094,2.13162821e-14 L19.5,2.13162821e-14 Z M5.9603149,1.704 L3.6933149,4 L5.95996094,4 L5.9603149,1.704 Z" id="Shape" fill="#333333"></path>
                        <path d="M18,12 C21.3137085,12 24,14.6862915 24,18 C24,21.3137085 21.3137085,24 18,24 C14.6862915,24 12,21.3137085 12,18 C12,14.6862915 14.6862915,12 18,12 Z" id="Combined-Shape" fill="#F33232"></path>
                        <path d="M20.2325589,15 C20.3188716,15 20.3937167,15.0316208 20.4567974,15.0948449 L20.9102837,15.5440212 C20.9701877,15.6038717 21,15.6803804 21,15.7735124 C21,15.8633756 20.9701877,15.9382412 20.9102139,15.9981267 L18.911,18 L20.9102139,20.0018733 C20.9551942,20.0467874 20.9832087,20.1001279 20.9944047,20.161902 L21,20.2264876 C21,20.3196196 20.9701877,20.3961283 20.9102837,20.4559788 L20.9102837,20.4559788 L20.4567974,20.9051551 C20.3937167,20.9683792 20.3188716,21 20.2325589,21 C20.1461764,21 20.0714535,20.9683792 20.0083205,20.9051551 L20.0083205,20.9051551 L17.9751287,18.8740296 L15.9917319,20.8469437 C15.9286337,20.9101329 15.8538759,20.9417537 15.7674411,20.9417537 C15.6810062,20.9417537 15.6063532,20.9101504 15.5431503,20.8469437 L15.5431503,20.8469437 L15.089664,20.3978374 C15.0298298,20.3379344 15,20.2613558 15,20.1682239 C15,20.0783082 15.0299345,20.0035999 15.089664,19.943662 L15.089664,19.943662 L17.04,18 L15.089664,16.056338 C15.0299345,15.9964001 15,15.9216918 15,15.8317761 C15,15.7386442 15.0298298,15.6620656 15.089664,15.6021626 L15.5431503,15.1530563 C15.6063532,15.0898496 15.6810062,15.0582463 15.7674411,15.0582463 C15.8538759,15.0582463 15.9286337,15.0898671 15.9917319,15.1530563 L17.9751287,17.1259704 L20.0083205,15.0948449 C20.0714535,15.0316208 20.1461764,15 20.2325589,15 Z" id="Path" fill="#FFFFFF" fill-rule="nonzero"></path>
                    </g>
                </g>
            </g>
        </g>
    </g>
</svg>