<svg xmlns="http://www.w3.org/2000/svg" width="24" height="24" viewBox="0 0 24 24">
    <g fill-rule="evenodd">
        <g>
            <g>
                <g>
                    <path fill-rule="nonzero" d="M23.415 8c.277 0 .5.224.5.5l-.006.078-2.04 13c-.039.243-.248.422-.494.422H2.625c-.246 0-.455-.18-.493-.422l-2.041-13c-.043-.273.143-.53.416-.572l.039-.004L23.416 8zM5.04 9.5l-3.286.001L3.48 20.5l12.578-.001L5.04 9.5zm17.206-.001H7.138l11.018 11 2.363.001 1.727-11.001zM10.444 2c.148 0 .288.066.383.18L12.351 4H21.5c.276 0 .5.224.5.5V8h-1.5V5.5h-8.85l-1.674-2H2.5v4.501H1V2.5c0-.276.224-.5.5-.5h8.944z" transform="translate(-577.000000, -914.000000) translate(569.000000, 906.000000) translate(8.000000, 8.000000)"/>
                </g>
            </g>
        </g>
    </g>
</svg>
