<svg width="32" height="32" viewBox="0 0 32 32" xmlns="http://www.w3.org/2000/svg">
    <g fill="none" fill-rule="evenodd">
        <path d="M6.593 24a2 2 0 0 0 2 2h17.47a2 2 0 0 0 2-2V8.726H14.56A2 2 0 0 1 12.8 7.674l-.874-1.622A2 2 0 0 0 10.165 5H4.623a2 2 0 0 0-1.957 1.588l-.664 3.153c1.849 3.06 3.38 7.812 4.59 14.259z" fill="#FFCA00"/>
        <rect stroke="#E0E0E0" stroke-width=".5" fill="#F9F9F9" x="5" y="7" width="19" height="7" rx="1"/>
        <path d="M30 25a2 2 0 0 1-2 2H4a2 2 0 0 1-2-2V9.726h16.44a2 2 0 0 0 1.76-1.052l.874-1.622A2 2 0 0 1 22.835 6H28a2 2 0 0 1 2 2v17z" fill="#FFE594"/>
    </g>
</svg>
