<svg xmlns="http://www.w3.org/2000/svg" width="24" height="24" viewBox="0 0 24 24">
    <g fill="none" fill-rule="evenodd">
        <g>
            <g>
                <g>
                    <g fill-rule="nonzero">
                        <path fill="#2481C4" d="M3.523 3.272c0-.053.02-.104.058-.142.037-.037.088-.058.14-.058h16.124c.053 0 .103.02.14.058.037.038.058.089.058.142v2.984h1.818V1.91c0-.095-.077-.173-.171-.173h-9.924c-.115 0-.225-.046-.306-.129L10.012.129C9.932.047 9.821 0 9.706 0H1.735c-.095 0-.172.078-.172.173v6.083h1.96V3.272z" transform="translate(-577.000000, -914.000000) translate(525.000000, 906.000000) translate(52.000000, 8.000000) translate(0.000000, 2.400000)"/>
                        <path fill="#FFF" d="M19.845 3.072H3.722c-.053 0-.104.02-.14.058-.038.038-.059.089-.059.142v2.984h16.52V3.272c0-.053-.02-.104-.058-.142-.037-.037-.087-.058-.14-.058z" transform="translate(-577.000000, -914.000000) translate(525.000000, 906.000000) translate(52.000000, 8.000000) translate(0.000000, 2.400000)"/>
                        <path fill="#02B0FD" d="M23.828 6.256H.197l4.796.01L18.992 20.4h2.849c.085 0 .157-.063.17-.148l1.987-13.798c.007-.05-.007-.1-.04-.138-.032-.038-.08-.06-.13-.06zM.029 6.454l1.987 13.798c.006.04.026.076.055.103L.03 6.45v.003z" transform="translate(-577.000000, -914.000000) translate(525.000000, 906.000000) translate(52.000000, 8.000000) translate(0.000000, 2.400000)"/>
                        <path fill="#1A508F" d="M.197 6.256H0l.029.195c-.007-.049.008-.098.04-.135.032-.038.079-.06.128-.06z" opacity=".2" transform="translate(-577.000000, -914.000000) translate(525.000000, 906.000000) translate(52.000000, 8.000000) translate(0.000000, 2.400000)"/>
                        <path fill="#02B0FD" d="M4.993 6.265L.197 6.256c-.05 0-.096.022-.128.06-.032.037-.047.086-.04.135L2.07 20.355c.032.029.073.045.115.045h16.806L4.993 6.265z" transform="translate(-577.000000, -914.000000) translate(525.000000, 906.000000) translate(52.000000, 8.000000) translate(0.000000, 2.400000)"/>
                        <path fill="#1A508F" d="M4.993 6.265L.197 6.256c-.05 0-.096.022-.128.06-.032.037-.047.086-.04.135L2.07 20.355c.032.029.073.045.115.045h16.806L4.993 6.265z" opacity=".2" transform="translate(-577.000000, -914.000000) translate(525.000000, 906.000000) translate(52.000000, 8.000000) translate(0.000000, 2.400000)"/>
                    </g>
                </g>
            </g>
        </g>
    </g>
</svg>
