<svg width="32" height="32" viewBox="0 0 32 32" xmlns="http://www.w3.org/2000/svg">
    <g fill="none" fill-rule="evenodd">
        <path d="M6.593 24a2 2 0 0 0 2 2h17.47a2 2 0 0 0 2-2V8.726H14.56A2 2 0 0 1 12.8 7.674l-.874-1.622A2 2 0 0 0 10.165 5H4.623a2 2 0 0 0-1.957 1.588l-.664 3.153c1.849 3.06 3.38 7.812 4.59 14.259z" fill="#FFCA00"/>
        <rect stroke="#E0E0E0" stroke-width=".5" fill="#F9F9F9" x="5" y="7" width="19" height="7" rx="1"/>
        <path d="M30 25a2 2 0 0 1-2 2H4a2 2 0 0 1-2-2V9.726h16.44a2 2 0 0 0 1.76-1.052l.874-1.622A2 2 0 0 1 22.835 6H28a2 2 0 0 1 2 2v17z" fill="#FFE594"/>
        <circle fill="#F33232" cx="23" cy="23" r="9"/>
        <path d="M26 21.333h-.5v-1.952C25.5 18.067 24.38 17 23 17s-2.5 1.067-2.5 2.381v1.952H20c-.552 0-1 .427-1 .953v4.762c0 .526.448.952 1 .952h6c.552 0 1-.426 1-.952v-4.762c0-.526-.448-.953-1-.953zm-3 4.286c-.552 0-1-.426-1-.952 0-.527.448-.953 1-.953s1 .426 1 .953c0 .526-.448.952-1 .952zm1.55-4.286h-3.1v-1.952c0-.814.695-1.476 1.55-1.476.855 0 1.55.662 1.55 1.476v1.952z" fill="#FFF" fill-rule="nonzero"/>
    </g>
</svg>
