<svg xmlns="http://www.w3.org/2000/svg" width="24" height="24" viewBox="0 0 24 24">
    <g fill="none" fill-rule="evenodd">
        <g>
            <g>
                <g>
                    <g>
                        <path fill="#0064ad" fill-rule="nonzero" d="M21.458 10.629l-6.944-6.903v4.089l-1.553.122c-5.584.483-10 5.096-10.427 10.795l-.02.318.048-.08c2.083-3.382 5.69-5.49 9.609-5.601l.327-.005 2.016-.001v4.17l6.944-6.904z" transform="translate(-821.000000, -350.000000) translate(501.000000, 132.000000) translate(312.000000, 210.000000) translate(8.000000, 8.000000)"/>
                        <path fill="#FFF" fill-rule="nonzero" d="M14.514 3.726l2.328 2.315v2.362l-1.868.143c-5.74.485-10.452 4.506-12.028 9.838l-.177.264-.255.402.02-.318c.42-5.59 4.674-10.134 10.107-10.763l.32-.032 1.553-.122V3.726z" opacity=".328" transform="translate(-821.000000, -350.000000) translate(501.000000, 132.000000) translate(312.000000, 210.000000) translate(8.000000, 8.000000)"/>
                    </g>
                </g>
            </g>
        </g>
    </g>
</svg>
