<svg xmlns="http://www.w3.org/2000/svg" width="24" height="24" viewBox="0 0 24 24">
    <g fill-rule="evenodd">
        <g>
            <g>
                <g>
                    <g>
                        <path fill-rule="nonzero" d="M13.962 2.061c.42-.132.878-.047 1.224.23l.111.098L22.59 9.64c.262.26.41.616.41.99 0 .326-.113.64-.316.887l-.093.1-7.292 7.251c-.387.387-.967.498-1.465.282-.455-.199-.765-.634-.813-1.131l-.007-.137v-3.018h-.515c-3.515 0-6.772 1.849-8.642 4.865l-.166.278-.15.268c-.24.443-.704.725-1.196.725-.11 0-.218-.014-.329-.042C1.425 20.8 1 20.27 1 19.64 1 12.83 6.047 7.19 12.527 6.472l.305-.03.182-.014v-3.05c0-.456.22-.876.576-1.13l.124-.079.12-.06.128-.048zm7.496 8.568l-6.944-6.903v4.089l-1.553.122c-5.584.483-10 5.096-10.427 10.795l-.02.318.048-.08c2.083-3.382 5.69-5.49 9.609-5.601l.327-.005 2.016-.001v4.17l6.944-6.904z" transform="translate(-821.000000, -350.000000) translate(501.000000, 132.000000) translate(312.000000, 210.000000) translate(8.000000, 8.000000)"/>
                    </g>
                </g>
            </g>
        </g>
    </g>
</svg>
