<svg width="56" height="56" viewBox="0 0 56 56" fill="none" xmlns="http://www.w3.org/2000/svg">
<path d="M36.985 0H7.963C7.155 0 6.5 0.655 6.5 1.926V55C6.5 55.345 7.155 56 7.963 56H48.037C48.845 56 49.5 55.345 49.5 55V12.978C49.5 12.282 49.407 12.058 49.243 11.893L37.607 0.257C37.442 0.093 37.218 0 36.985 0Z" fill="#E9E9E0"/>
<path d="M37.5 0.150999V12H49.349L37.5 0.150999Z" fill="#D9D7CA"/>
<path d="M48.037 56H7.963C7.155 56 6.5 55.345 6.5 54.537V39H49.5V54.537C49.5 55.345 48.845 56 48.037 56Z" fill="#0ECD7D"/>
<path d="M24.6406 51.708C24.2806 52.1774 23.7816 52.5329 23.1436 52.7744C22.5055 53.016 21.7809 53.1367 20.9697 53.1367C20.1357 53.1367 19.3975 52.9476 18.7549 52.5693C18.1123 52.1911 17.6156 51.651 17.2646 50.9492C16.9183 50.2428 16.7383 49.4202 16.7246 48.4814V47.7021C16.7246 46.1982 17.0846 45.0247 17.8047 44.1816C18.5247 43.334 19.5296 42.9102 20.8193 42.9102C21.9268 42.9102 22.8063 43.1836 23.458 43.7305C24.1097 44.2773 24.5016 45.0658 24.6338 46.0957H22.9385C22.7471 44.8971 22.0521 44.2979 20.8535 44.2979C20.0788 44.2979 19.4886 44.5781 19.083 45.1387C18.682 45.6947 18.4746 46.5127 18.4609 47.5928V48.3584C18.4609 49.4339 18.6865 50.2702 19.1377 50.8672C19.5934 51.4596 20.2246 51.7559 21.0312 51.7559C21.9154 51.7559 22.5443 51.5553 22.918 51.1543V49.2061H20.8672V47.8936H24.6406V51.708ZM29.9062 53H28.1836V43.0469H29.9062V53ZM39.3075 48.7822H35.3017V53H33.5722V43.0469H39.8954V44.4414H35.3017V47.4014H39.3075V48.7822Z" fill="white"/>
<path d="M6.5 39H17.5H49.5V28L39.5 18.5L29 30L23.517 24.517L6.5 39Z" fill="#7CD3AF"/>
<path d="M23.5 28V20.954V14L34.5 21L23.5 28Z" fill="#C8BDB8"/>
<path d="M17.929 18.998C20.4524 18.998 22.498 16.9524 22.498 14.429C22.498 11.9056 20.4524 9.86 17.929 9.86C15.4056 9.86 13.36 11.9056 13.36 14.429C13.36 16.9524 15.4056 18.998 17.929 18.998Z" fill="#F3D55B"/>
<circle cx="27.5" cy="20.5" r="12" stroke="#BDBDBD"/>
</svg>
