<svg xmlns="http://www.w3.org/2000/svg" width="24" height="24" viewBox="0 0 24 24">
    <g fill="none" fill-rule="evenodd">
        <g>
            <g>
                <path fill="#0064ad" fill-rule="nonzero" d="M22.25 18c.414 0 .75.336.75.75s-.336.75-.75.75H1.75c-.414 0-.75-.336-.75-.75s.336-.75.75-.75h20.5zm0-7c.414 0 .75.336.75.75s-.336.75-.75.75H1.75c-.414 0-.75-.336-.75-.75s.336-.75.75-.75h20.5zm0-7c.414 0 .75.336.75.75s-.336.75-.75.75H1.75c-.414 0-.75-.336-.75-.75S1.336 4 1.75 4h20.5z" transform="translate(-16 -20) translate(16 20)"/>
            </g>
        </g>
    </g>
</svg>
