<svg width="120" height="120" viewBox="0 0 120 120" xmlns="http://www.w3.org/2000/svg">
    <g fill="#FFFFFE" fill-rule="evenodd">
        <path d="M33.506 60.5h10.39V50.125h-10.39zM54.285 60.5h10.39V50.125h-10.39zM75.065 60.5h11.429V50.125H75.065zM54.285 83.326h10.39V71.913h-10.39zM75.065 83.326h11.429V71.913H75.065zM33.506 81.25h10.39V70.875h-10.39z"/>
        <path d="M96.991 93.731V32.334c0-1.19-.986-2.171-2.231-2.171H72.918v-3.359h-7.782V19H54.864v7.804h-7.782v3.359h-21.48c-1.244 0-2.23.982-2.23 2.17v61.398H20V102h80v-8.269h-3.009zM27.782 34.504h19.3v2.533h7.782v7.752h10.272v-7.752h7.782v-2.533h19.663v59.227H27.782V34.504z"/>
    </g>
</svg>
