<svg width="352" height="304" viewBox="0 0 352 304" fill="none" xmlns="http://www.w3.org/2000/svg">
<path d="M253.239 110.405L253.239 16.6796C253.239 11.1505 248.752 6.6707 243.223 6.67965L17.9849 7.04441C12.4762 7.05333 8.01215 11.5157 8.0011 17.0243L7.45899 287.273C7.44788 292.81 11.9382 297.302 17.4752 297.293L242.731 296.928C248.225 296.92 252.683 292.48 252.715 286.986L253.239 196.405" fill="none" stroke="#BDBDBD" stroke-width="10"/>
<line x1="137" y1="150" x2="352" y2="150" stroke="#BDBDBD" stroke-width="10"/>
<path d="M201 96L144.531 144.195C142.142 146.233 140.948 147.253 140.495 148.473C140.098 149.545 140.08 150.721 140.445 151.804C140.86 153.038 142.022 154.094 144.348 156.204L200.669 207.315" fill="none" stroke="#BDBDBD" stroke-width="10"/>
</svg>
