<svg height="657pt" viewBox="-20 -78 657.33212 657" width="657pt" xmlns="http://www.w3.org/2000/svg"><path d="m439.597656 217.191406c3.414063 3.414063 8.9375 3.414063 12.351563 0 3.410156-3.410156 3.410156-8.941406 0-12.351562l-41.40625-41.398438h115.640625c4.824218 0 8.730468-3.910156 8.730468-8.734375s-3.90625-8.730469-8.730468-8.730469h-115.640625l41.398437-41.402343c3.414063-3.410157 3.414063-8.941407 0-12.351563-3.410156-3.40625-8.9375-3.40625-12.347656 0l-56.3125 56.308594c-3.40625 3.414062-3.40625 8.9375 0 12.351562zm0 0"/><path d="m15.160156 477.507812c.390625.378907.8125.71875 1.273438 1.023438 11.027344 11.492188 26.261718 17.988281 42.191406 17.984375h349.296875c15.910156.003906 31.132813-6.476563 42.152344-17.941406.46875-.308594.902343-.664063 1.308593-1.054688.648438-.640625 1.199219-1.378906 1.617188-2.191406 8.769531-10.507813 13.566406-23.761719 13.550781-37.445313v-124.984374c83.3125-4.550782 149.699219-73.757813 149.699219-158.191407.003906-67.59375-42.878906-127.75-106.78125-149.785156-63.90625-22.035156-134.746094-1.101563-176.410156 52.132813-19.960938 25.324218-31.613282 56.195312-33.371094 88.390624h-241.0625c-29.460938.039063-54.332031 21.914063-58.128906 51.128907-.4687502 1.335937-.597656 2.757812-.394532 4.152343-.0624995 1.105469-.101562 2.222657-.101562 3.347657v233.808593c-.015625 13.675782 4.777344 26.921876 13.53125 37.425782.425781.8125.972656 1.554687 1.628906 2.199218zm43.464844 1.542969c-8.910156.011719-17.578125-2.890625-24.699219-8.253906l105.347657-107.75c2.230468-2.222656 3.09375-5.46875 2.261718-8.503906-.839844-3.035157-3.242187-5.386719-6.292968-6.15625-3.054688-.765625-6.285157.171875-8.453126 2.453125l-104.324218 106.703125c-3.289063-6.027344-5.011719-12.792969-5.003906-19.660157v-219.589843l181.210937 153.441406c19.988281 17.019531 49.382813 17.007813 69.359375-.03125l101.027344-85.679687c23.707031 16.125 51.394531 25.421874 80.027344 26.878906v124.980468c.011718 6.890626-1.722657 13.675782-5.039063 19.722657l-104.953125-106.785157c-3.390625-3.371093-8.867188-3.390624-12.277344-.039062-3.414062 3.355469-3.492187 8.828125-.175781 12.277344l105.925781 107.777344c-7.105468 5.339843-15.757812 8.226562-24.644531 8.214843zm288.179688-411.222656c47.648437-60.789063 135.34375-71.902344 196.648437-24.910156 61.296875 46.988281 73.347656 134.566406 27.019531 196.363281-46.328125 61.804688-133.769531 74.796875-196.0625 29.136719-.363281-.328125-.757812-.617188-1.171875-.882813-6.398437-4.832031-12.386719-10.195312-17.890625-16.023437-47.878906-50.691407-51.515625-128.769531-8.542968-183.6875zm-288.179688 95.082031h240.984375c1.878906 37.59375 17.148437 73.277344 43.042969 100.59375 3.867187 4.09375 7.941406 7.984375 12.214844 11.652344l-98.128907 83.226562c-13.476562 11.496094-33.304687 11.503907-46.78125.019532l-191.707031-162.328125c3.839844-19.261719 20.734375-33.140625 40.375-33.164063zm0 0"/></svg>