<svg width="50" height="50" viewBox="0 0 50 50" fill="none" xmlns="http://www.w3.org/2000/svg">
<path d="M21.6911 16.7023C26.8795 16.7023 31.0974 12.9574 31.0974 8.35615C31.0974 3.74949 26.8795 0 21.6911 0C16.5038 0 12.2836 3.74949 12.2836 8.35615C12.2839 12.9572 16.5038 16.7023 21.6911 16.7023ZM21.6911 1.14333C26.1657 1.14333 29.8087 4.37795 29.8087 8.35615C29.8087 12.3259 26.1668 15.5562 21.6911 15.5562C17.2133 15.5562 13.5726 12.3259 13.5726 8.35615C13.5726 4.37897 17.2133 1.14333 21.6911 1.14333Z" fill="#010002"/>
<path fill-rule="evenodd" clip-rule="evenodd" d="M30.0474 19.3551V18.211C29.7029 18.2497 12.478 18.211 12.478 18.211C8.04592 18.211 4.94389 19.7297 4.94389 19.7297C0.113042 22.3318 0.0837056 25.6737 0.0808077 26.0038C0.080695 26.0167 0.0806223 26.0249 0.0803084 26.0284L0.0545857 38.9077C0.0245279 39.0913 0.0505397 40.541 1.05372 41.5743C1.74996 42.2892 2.72424 42.6518 3.95401 42.6518H9.40719L9.40314 49.759H22.9768V48.6172H10.693L10.6971 42.6046H19.2254H21.9292C24.1364 42.6046 25.9312 41.0097 25.9312 39.0505C25.9312 37.0913 24.1367 35.5 21.9292 35.5H19.1572L14.315 19.3551H30.0474ZM3.95285 41.5082L4.50632 41.5054L4.9147 21.151C1.78782 23.0825 1.38667 25.909 1.36586 26.0879L1.33696 38.9938C1.3358 39.0305 1.32539 40.1913 2.1199 40.9136C2.55343 41.3072 3.16875 41.5082 3.95285 41.5082ZM6.21904 20.5179L5.79505 41.4615L19.2251 41.4618C19.3426 41.4618 19.3636 41.4358 19.3846 41.4099L19.3864 41.4077C19.8135 40.8285 19.0511 38.2987 18.0716 36.3018L12.989 19.3838C9.52482 19.6066 7.11788 20.2436 6.21904 20.5179ZM21.9289 36.6446H19.6213C20.1901 37.9184 21.028 40.1318 20.7072 41.4641L21.9289 41.4613C23.4245 41.4613 24.6419 40.3813 24.6419 39.0515C24.6419 37.7246 23.4245 36.6446 21.9289 36.6446Z" fill="#010002"/>
<path fill-rule="evenodd" clip-rule="evenodd" d="M42.933 21.7896H49.2699C49.4962 21.7896 49.7225 21.9887 49.7225 22.1878V48.8324C49.7225 49.0714 49.5415 49.2307 49.2699 49.2307H25.5972C25.3256 49.2307 25.1445 49.0714 25.1445 48.8324V22.1878C25.1445 21.9489 25.3256 21.7896 25.5972 21.7896H31.7982V21.0328C31.7982 20.7939 31.9793 20.6346 32.2509 20.6346H34.7856V20.4752C34.7856 19.2008 35.9625 18.2051 37.3656 18.2051C38.8141 18.2051 39.9456 19.2406 39.9456 20.4752V20.6346H42.4804C42.752 20.6346 42.933 20.7939 42.933 21.0328V21.7896ZM35.3288 21.4311H32.794V23.303H42.0278V21.4311H39.5835C39.312 21.4311 39.1309 21.2718 39.1309 21.0328V20.4752C39.1309 19.6389 38.3614 19.0016 37.4562 19.0016C36.5056 19.0016 35.7814 19.6787 35.7814 20.4752V21.0328C35.7814 21.2718 35.6004 21.4311 35.3288 21.4311ZM31.8888 22.5861H28.0866H26.0498V48.4342H48.8173V22.5861H42.933V23.7013C42.933 23.9402 42.752 24.0996 42.4804 24.0996H32.3414C32.0698 24.0996 31.8888 23.9402 31.8888 23.7013V22.5861Z" fill="black"/>
</svg>
