<svg xmlns="http://www.w3.org/2000/svg" width="24" height="24" viewBox="0 0 24 24">
    <path fill="#0064ad" fill-rule="evenodd" d="M13.058 20.167c2.481-.324 4.732-1.683 6.206-3.818 2.844-4.121 1.883-9.78-2.135-12.634C13.119.868 7.574 1.883 4.735 5.994c-2.82 4.084-1.9 9.686 2.044 12.564l.866.632-1.554 2.25 6.967-1.273zM17.766 2.82c4.511 3.204 5.588 9.54 2.403 14.154a10.037 10.037 0 0 1-6.968 4.285L3.678 23l2.453-3.553c-4.424-3.228-5.46-9.5-2.3-14.078C7.014.756 13.253-.386 17.765 2.82zM12.23 16.753a.918.918 0 0 1-.918-.918V9.112h1.836v6.723a.918.918 0 0 1-.918.918zm-1.027-9.93c0-.328.09-.58.27-.757.18-.177.436-.266.77-.266.322 0 .573.089.753.266.18.177.27.43.27.757 0 .313-.09.559-.27.739-.18.18-.43.27-.754.27-.333 0-.59-.09-.77-.27-.179-.18-.269-.426-.269-.739z"/>
</svg>
