<svg xmlns="http://www.w3.org/2000/svg" width="24" height="24" viewBox="0 0 24 24">
    <path fill="#0064ad" fill-rule="nonzero" d="M11.996 19a.89.89 0 0 1-.89-.89V8.327h1.78v9.783a.89.89 0 0 1-.89.89zM11 6.028c0-.33.087-.583.261-.761.175-.178.423-.267.747-.267.313 0 .556.089.73.267.175.178.262.431.262.76 0 .315-.087.562-.261.742-.175.18-.418.27-.731.27-.324 0-.572-.09-.747-.27-.174-.18-.261-.427-.261-.741zM12 22.8c5.965 0 10.8-4.835 10.8-10.8 0-5.965-4.835-10.8-10.8-10.8C6.035 1.2 1.2 6.035 1.2 12c0 5.965 4.835 10.8 10.8 10.8zm0 1.2C5.373 24 0 18.627 0 12S5.373 0 12 0s12 5.373 12 12-5.373 12-12 12z"/>
</svg>
