<svg xmlns="http://www.w3.org/2000/svg" width="32" height="32" viewBox="0 0 32 32">
    <g fill="none" fill-rule="evenodd">
        <g fill="#0064ad">
            <g>
                <g>
                    <path fill-rule="nonzero" d="M19 3c1.657 0 3 1.343 3 3v3.5h-1V6c0-1.054-.816-1.918-1.85-1.995L19 4H4c-1.054 0-1.918.816-1.995 1.85L2 6v20c0 1.054.816 1.918 1.85 1.995L4 28h15c1.054 0 1.918-.816 1.995-1.85L21 26v-3.5h1V26c0 1.657-1.343 3-3 3H4c-1.657 0-3-1.343-3-3V6c0-1.657 1.343-3 3-3h15z" transform="translate(-585 -534) translate(561 181) translate(24 353)"/>
                    <path d="M27.849 19.146L31 16l-3.151-3.146c-.196-.196-.513-.196-.708 0-.196.195-.196.512 0 .708l1.933 1.935h-18.57c-.279 0-.504.225-.504.503s.225.503.503.503h18.571l-1.933 1.935c-.196.196-.196.513 0 .708.195.196.512.196.708 0z" transform="translate(-585 -534) translate(561 181) translate(24 353)"/>
                </g>
            </g>
        </g>
    </g>
</svg>
