<svg xmlns="http://www.w3.org/2000/svg" width="44" height="44" viewBox="0 0 44 44">
    <path fill-rule="evenodd" d="M7 8v5h5V8H7zm0-1h5a1 1 0 0 1 1 1v5a1 1 0 0 1-1 1H7a1 1 0 0 1-1-1V8a1 1 0 0 1 1-1zm11 2.5v2h19v-2H18zm0-1h19a1 1 0 0 1 1 1v2a1 1 0 0 1-1 1H18a1 1 0 0 1-1-1v-2a1 1 0 0 1 1-1zM7 19v5h5v-5H7zm0-1h5a1 1 0 0 1 1 1v5a1 1 0 0 1-1 1H7a1 1 0 0 1-1-1v-5a1 1 0 0 1 1-1zm11 2.5v2h19v-2H18zm0-1h19a1 1 0 0 1 1 1v2a1 1 0 0 1-1 1H18a1 1 0 0 1-1-1v-2a1 1 0 0 1 1-1zM7 30v5h5v-5H7zm0-1h5a1 1 0 0 1 1 1v5a1 1 0 0 1-1 1H7a1 1 0 0 1-1-1v-5a1 1 0 0 1 1-1zm11 2.5v2h19v-2H18zm0-1h19a1 1 0 0 1 1 1v2a1 1 0 0 1-1 1H18a1 1 0 0 1-1-1v-2a1 1 0 0 1 1-1z"/>
</svg>