<svg fill="#0064ad" xmlns="http://www.w3.org/2000/svg" width="26" height="36" viewBox="10 4 25 36">
    <path fill-rule="evenodd" d="M22 5c-6.615 0-12 5.4-12 12.038 0 3.663 2.13 8.496 5.711 13.87a78.34 78.34 0 0 0 4.094 5.57 63.41 63.41 0 0 0 2.07 2.466.169.169 0 0 0 .25 0 63.409 63.409 0 0 0 2.07-2.465 78.34 78.34 0 0 0 4.094-5.571C31.869 25.534 34 20.701 34 17.038 34 10.4 28.615 5 22 5zm0-1c7.168 0 13 5.849 13 13.038 0 8.922-11.634 22.02-12.129 22.573a1.169 1.169 0 0 1-1.742 0C20.634 39.057 9 25.96 9 17.038 9 9.848 14.832 4 22 4zm0 18.127c2.784 0 5.053-2.284 5.053-5.09 0-2.804-2.269-5.088-5.053-5.088s-5.053 2.284-5.053 5.089c0 2.805 2.269 5.089 5.053 5.089zm0 1c-3.338 0-6.053-2.733-6.053-6.09 0-3.355 2.715-6.088 6.053-6.088s6.053 2.733 6.053 6.089c0 3.356-2.715 6.089-6.053 6.089z"/>
</svg>
