<svg xmlns="http://www.w3.org/2000/svg" viewBox="0 0 28 28">
    <g fill="none" fill-rule="evenodd">
        <g fill="#FFF">
            <g>
                <g>
                    <g>
                        <path d="M26 2.5v17c0 .276-.224.5-.5.5H14v5.5c0 .276-.224.5-.5.5h-11c-.276 0-.5-.224-.5-.5v-11c0-.276.224-.5.5-.5H8V2.5c0-.276.224-.5.5-.5h17c.276 0 .5.224.5.5zm-18 13H3.5v9h9V20h-4c-.276 0-.5-.224-.5-.5v-4zm4.5 0h-3v3h3v-3zm12-12h-15V14h4c.276 0 .5.224.5.5v4h10.5v-15zm-1.5 2v6c0 .276-.224.5-.5.5H22c-.276 0-.5-.224-.5-.5V7.56l-5.437 5.438c-.195.195-.512.195-.707 0l-.354-.354c-.195-.195-.195-.512 0-.707L20.438 6.5H16.5c-.276 0-.5-.224-.5-.5v-.5c0-.276.224-.5.5-.5h6c.276 0 .5.224.5.5z" transform="translate(-503 -153) translate(477 127) translate(16 16) translate(10 10)"/>
                    </g>
                </g>
            </g>
        </g>
    </g>
</svg>
