<svg width="120" height="120" viewBox="0 0 120 120" xmlns="http://www.w3.org/2000/svg">
    <path d="M91.124 55.791a20.023 20.023 0 0 0-8.446-5.036c.444-1.55.666-3.156.666-4.817 0-4.483-1.722-8.801-4.945-12.011C75.176 30.716 70.842 29 66.34 29c-4.556 0-8.89 1.716-12.113 4.927L28 60.109c-6.668 6.587-6.668 17.381 0 24.024a16.973 16.973 0 0 0 12.057 4.981c4.557 0 8.836-1.77 12.058-4.981l6.28-6.255c1 2.325 2.389 4.428 4.278 6.255C66.453 87.953 71.509 90 76.899 90c5.334 0 10.391-2.048 14.225-5.867 7.835-7.805 7.835-20.537 0-28.342zm-1.834 23.25L67.786 57.617c2.612-1.938 5.779-2.989 9.113-2.989 4.112 0 7.946 1.605 10.891 4.483 5.445 5.425 5.946 13.95 1.5 19.928zM57.562 37.247c2.334-2.326 5.445-3.599 8.779-3.599 3.279 0 6.39 1.273 8.724 3.599a12.202 12.202 0 0 1 3.612 8.69 12.33 12.33 0 0 1-.667 4.041c-.389-.056-.778-.056-1.11-.056a20.047 20.047 0 0 0-14.226 5.868 20.398 20.398 0 0 0-4.112 5.868L45.838 48.983l11.724-11.735z" fill="#FFFFFE" fill-rule="evenodd"/>
</svg>
