<svg width="120" height="120" viewBox="0 0 120 120" xmlns="http://www.w3.org/2000/svg">
    <g fill="#FFFFFE" fill-rule="evenodd">
        <path d="M87.828 31.775H64.886L62.969 25H51.033l-1.917 6.775H26.854c-4.329 0-7.854 3.543-7.854 7.893v36.857c0 4.35 3.525 7.893 7.854 7.893h1.422c0 4.163 3.401 7.582 7.607 7.582 4.142 0 7.544-3.419 7.544-7.582h31.724c0 4.163 3.34 7.582 7.544 7.582 4.144 0 7.546-3.419 7.546-7.582h2.906c4.328 0 7.853-3.543 7.853-7.893V58.624L87.828 31.775zm5.32 47.36h-5.01c-1.36-1.43-3.278-2.3-5.443-2.3-2.164 0-4.08.87-5.441 2.3h-35.93c-1.422-1.43-3.338-2.3-5.441-2.3-2.165 0-4.082.87-5.504 2.3h-3.525c-1.485 0-2.659-1.182-2.659-2.61V39.668c0-1.43 1.174-2.61 2.66-2.61H84.55l2.906 5.904H75.274v17.962h20.532v15.6c0 1.43-1.175 2.61-2.659 2.61z"/>
        <path d="M52.331 43.611h-9.817v7.72h-7.362v10.294h7.362v8.042h9.817v-8.042h7.67V51.33h-7.67z"/>
    </g>
</svg>
