<svg xmlns="http://www.w3.org/2000/svg" width="120" height="120" viewBox="0 0 120 120">
    <g fill="none" fill-rule="evenodd">
        <g>
            <g>
                <g>
                    <path fill="#F9F9F9" fill-rule="nonzero" d="M109.807 34H60.193c-4.98 0-9.048 3.96-9.19 8.878l-.003.264v25.497c0 4.951 3.98 8.998 8.927 9.139l.266.003h1.553l-2.254 12.454c-.116.64.192 1.274.768 1.583.536.288 1.18.228 1.648-.136l.114-.097 13.974-13.199c.367-.346.836-.555 1.334-.597l.188-.008h32.289c4.98 0 9.048-3.96 9.19-8.877l.003-.265V43.142c0-4.95-3.98-8.998-8.927-9.138l-.266-.004z" transform="translate(-801 -298) translate(749 298) translate(52) matrix(-1 0 0 1 170 0)"/>
                    <path fill="#F9F9F9" fill-rule="nonzero" d="M45.283 1H7.718C4.09 1 1.128 3.843 1.004 7.375L1 7.606V26.73c0 3.56 2.884 6.48 6.482 6.602l.236.004h1.468l-1.76 9.637c-.068.37.112.736.454.918.31.166.681.139.96-.056l.099-.081 10.58-9.9c.313-.292.71-.47 1.133-.51l.183-.008h24.447c3.628 0 6.59-2.843 6.714-6.375L52 26.73V7.606c0-3.56-2.884-6.48-6.482-6.602L45.283 1zM66.572 53.88H11.35c-5.61 0-10.193 4.492-10.342 10.066l-.003.28v28.523c0 5.61 4.49 10.193 10.065 10.342l.28.003h1.592l-2.483 13.791c-.138.767.228 1.528.914 1.898.642.347 1.414.27 1.972-.176l.116-.102 15.555-14.765c.389-.37.887-.592 1.417-.637l.2-.009h35.94c5.61 0 10.193-4.49 10.342-10.065l.003-.28V64.226c0-5.61-4.49-10.193-10.065-10.342l-.28-.003z" transform="translate(-801 -298) translate(749 298) translate(52)"/>
                    <path fill="#BFBDBD" d="M66.572 52.88c6.158 0 11.186 4.932 11.342 11.054l.003.292v28.523c0 6.158-4.931 11.186-11.053 11.342l-.292.003h-35.94c-.297 0-.582.097-.816.275l-.113.096-15.554 14.766c-.868.823-2.173 1.015-3.252.432-1.01-.544-1.577-1.64-1.451-2.767l.027-.188 2.272-12.614h-.396C5.19 104.094.163 99.163.007 93.041l-.003-.292V64.226c0-6.158 4.931-11.186 11.053-11.342l.292-.003h55.223zm0 1H11.35c-5.61 0-10.193 4.492-10.342 10.066l-.003.28v28.523c0 5.61 4.49 10.193 10.065 10.342l.28.003h1.592l-2.483 13.791c-.138.767.228 1.528.914 1.898.642.347 1.414.27 1.972-.176l.116-.102 15.555-14.765c.389-.37.887-.592 1.417-.637l.2-.009h35.94c5.61 0 10.193-4.49 10.342-10.065l.003-.28V64.226c0-5.61-4.49-10.193-10.065-10.342l-.28-.003zM109.807 33l.28.004c5.398.145 9.763 4.488 9.91 9.86l.003.278v25.497l-.004.28c-.146 5.37-4.51 9.713-9.909 9.859l-.28.003h-.356l2.04 11.276.027.178c.108 1.004-.4 1.979-1.305 2.464-.913.49-2.005.367-2.78-.263l-.141-.124-13.975-13.2-.101-.085c-.175-.133-.382-.215-.601-.238l-.133-.008H81.917v-1h10.565l.188.008c.436.037.85.201 1.192.474l.142.123 13.974 13.2.114.096c.469.364 1.112.424 1.648.136.535-.287.838-.855.786-1.446l-.018-.137-2.254-12.454h1.553l.266-.003c4.858-.138 8.785-4.045 8.923-8.874l.004-.265V43.142l-.004-.264c-.138-4.83-4.065-8.736-8.923-8.874l-.266-.004H60.193l-.266.004c-4.859.138-8.785 4.044-8.923 8.874l-.004.264v5.738h-1v-5.738l.004-.279c.146-5.371 4.51-9.714 9.909-9.86l.28-.003h49.614zM40.5 89c.276 0 .5.224.5.5s-.224.5-.5.5h-27c-.276 0-.5-.224-.5-.5s.224-.5.5-.5h27zm24-11c.276 0 .5.224.5.5s-.224.5-.5.5h-51c-.276 0-.5-.224-.5-.5s.224-.5.5-.5h51zm0-11c.276 0 .5.224.5.5s-.224.5-.5.5h-51c-.276 0-.5-.224-.5-.5s.224-.5.5-.5h51zm46-9c.276 0 .5.224.5.5s-.224.5-.5.5h-27c-.276 0-.5-.224-.5-.5s.224-.5.5-.5h27zm0-11c.276 0 .5.224.5.5s-.224.5-.5.5h-51c-.276 0-.5-.224-.5-.5s.224-.5.5-.5h51zM45.283 0c4.173 0 7.584 3.282 7.713 7.365l.004.241V26.73c0 4.113-3.33 7.475-7.473 7.602l-.245.004H20.835c-.197 0-.386.061-.542.175l-.09.074-10.581 9.9c-.59.551-1.478.68-2.212.29-.677-.36-1.06-1.078-.99-1.822l.022-.16 1.545-8.457h-.27c-4.173 0-7.584-3.282-7.713-7.365L0 26.73V7.606C0 3.493 3.33.132 7.473.004L7.718 0h37.565zm0 1H7.718C4.09 1 1.128 3.843 1.004 7.375L1 7.606V26.73c0 3.56 2.884 6.48 6.482 6.602l.236.004h1.468l-1.76 9.637c-.068.37.112.736.454.918.31.166.681.139.96-.056l.099-.081 10.58-9.9c.313-.292.71-.47 1.133-.51l.183-.008h24.447c3.628 0 6.59-2.843 6.714-6.375L52 26.73V7.606c0-3.56-2.884-6.48-6.482-6.602L45.283 1zM31.5 21c.276 0 .5.224.5.5s-.224.5-.5.5h-22c-.276 0-.5-.224-.5-.5s.224-.5.5-.5h22zm12-9c.276 0 .5.224.5.5s-.224.5-.5.5h-34c-.276 0-.5-.224-.5-.5s.224-.5.5-.5h34z" transform="translate(-801 -298) translate(749 298) translate(52)"/>
                </g>
            </g>
        </g>
    </g>
</svg>
