<svg xmlns="http://www.w3.org/2000/svg" width="80" height="80" viewBox="0 0 80 80">
    <g fill="none" fill-rule="evenodd">
        <g>
            <g>
                <g>
                    <g>
                        <path fill="#F9F9F9" fill-rule="nonzero" d="M66.572 1.88H11.35c-5.61 0-10.193 4.492-10.342 10.066l-.003.28v28.523c0 5.61 4.49 10.193 10.065 10.342l.28.003h1.592l-2.483 13.791c-.138.767.228 1.528.914 1.898.642.347 1.414.27 1.972-.176l.116-.102L29.015 51.74c.389-.37.887-.592 1.417-.637l.2-.009h35.94c5.61 0 10.193-4.49 10.342-10.065l.003-.28V12.226c0-5.61-4.49-10.193-10.065-10.342l-.28-.003z" transform="translate(-215 -338) translate(191 338) translate(24) translate(0 12)"/>
                        <path fill="#BFBDBD" d="M66.572.88c6.158 0 11.186 4.932 11.342 11.054l.003.292v28.523c0 6.158-4.931 11.186-11.053 11.342l-.292.003h-35.94c-.297 0-.582.097-.816.275l-.113.096L14.15 67.231c-.868.823-2.173 1.015-3.252.432-1.01-.544-1.577-1.64-1.451-2.767l.027-.188 2.272-12.614h-.396C5.19 52.094.163 47.163.007 41.041l-.003-.292V12.226C.004 6.068 4.935 1.04 11.057.884l.292-.003h55.223zm0 1H11.35c-5.61 0-10.193 4.492-10.342 10.066l-.003.28v28.523c0 5.61 4.49 10.193 10.065 10.342l.28.003h1.592l-2.483 13.791c-.138.767.228 1.528.914 1.898.642.347 1.414.27 1.972-.176l.116-.102L29.015 51.74c.389-.37.887-.592 1.417-.637l.2-.009h35.94c5.61 0 10.193-4.49 10.342-10.065l.003-.28V12.226c0-5.61-4.49-10.193-10.065-10.342l-.28-.003zM40.5 37c.276 0 .5.224.5.5s-.224.5-.5.5h-27c-.276 0-.5-.224-.5-.5s.224-.5.5-.5h27zm24-11c.276 0 .5.224.5.5s-.224.5-.5.5h-51c-.276 0-.5-.224-.5-.5s.224-.5.5-.5h51zm0-11c.276 0 .5.224.5.5s-.224.5-.5.5h-51c-.276 0-.5-.224-.5-.5s.224-.5.5-.5h51z" transform="translate(-215 -338) translate(191 338) translate(24) translate(0 12)"/>
                    </g>
                </g>
            </g>
        </g>
    </g>
</svg>
