<svg xmlns="http://www.w3.org/2000/svg" width="28" height="28" viewBox="0 0 28 28">
    <g fill="none" fill-rule="evenodd">
        <g fill="#FFF">
            <g>
                <g>
                    <g>
                        <path d="M4.074.675l17.924.001c1.937.052 3.509 1.594 3.608 3.52l.005.193v10.239l-.001.1c-.052 1.937-1.594 3.51-3.519 3.609l-.193.005H10.996l-.072.003c-.152.013-.297.066-.42.155l-.088.073L4.79 23.91c-.2.16-.477.188-.708.063-.215-.116-.343-.34-.338-.578l.01-.103.892-4.95-.672-.002C2.037 18.29.464 16.746.365 14.822l-.005-.194.002-10.34C.413 2.352 1.956.78 3.88.68l.194-.005zm17.804 1.5H4.074c-1.145 0-2.095.879-2.203 1.982l-.01.151v10.32c0 1.144.878 2.095 1.98 2.203l.153.01H6.44l-.747 4.146 3.69-3.501c.338-.321.762-.533 1.26-.614l.218-.026.135-.004h10.902c1.144 0 2.095-.879 2.203-1.982l.01-.152V4.388c0-1.144-.878-2.094-1.981-2.202l-.152-.01-.1-.001zm-8.91 10.472c.414 0 .75.336.75.75 0 .415-.336.75-.75.75H6.417c-.415 0-.75-.335-.75-.75 0-.414.335-.75.75-.75h6.55zM19.583 8.7c.415 0 .75.336.75.75s-.335.75-.75.75H6.417c-.415 0-.75-.336-.75-.75s.335-.75.75-.75h13.166zm0-3.949c.415 0 .75.336.75.75s-.335.75-.75.75H6.417c-.415 0-.75-.336-.75-.75s.335-.75.75-.75h13.166z" transform="translate(-823 -597) translate(813 587) translate(10 10) translate(1 2)"/>
                    </g>
                </g>
            </g>
        </g>
    </g>
</svg>
