<svg xmlns="http://www.w3.org/2000/svg" width="24" height="24" viewBox="0 0 24 24">
    <defs>
        <filter id="jcoo8235ta">
            <feColorMatrix in="SourceGraphic" values="0 0 0 0 0.709804 0 0 0 0 0.717647 0 0 0 0 0.729412 0 0 0 1.000000 0"/>
        </filter>
    </defs>
    <g fill="none" fill-rule="evenodd">
        <g>
            <g>
                <g>
                    <g>
                        <path fill="#B5B7BA" fill-rule="nonzero" d="M6.503 17.608H7.897V23.297H6.503z" transform="translate(-629.000000, -914.000000) translate(525.000000, 906.000000) translate(104.000000, 8.000000) translate(4.800000, 0.000000)"/>
                        <g fill-rule="nonzero">
                            <path fill="#8A8F95" d="M4.413 17.608H5.413V23.297H4.413z" transform="translate(-629.000000, -914.000000) translate(525.000000, 906.000000) translate(104.000000, 8.000000) translate(4.800000, 0.000000) translate(2.787097, 0.000000)"/>
                            <path fill="#FFB602" d="M5.342 15.469H3.484C1.563 15.469 0 13.892 0 11.953V3.516C0 1.577 1.563 0 3.484 0h1.858c1.92 0 3.484 1.577 3.484 3.516v8.437c0 1.939-1.563 3.516-3.484 3.516z" transform="translate(-629.000000, -914.000000) translate(525.000000, 906.000000) translate(104.000000, 8.000000) translate(4.800000, 0.000000) translate(2.787097, 0.000000)"/>
                        </g>
                        <path fill="#FF9502" fill-rule="nonzero" d="M8.129 0H7.2v15.469h.929c1.921 0 3.484-1.577 3.484-3.516V3.516C11.613 1.577 10.05 0 8.129 0z" transform="translate(-629.000000, -914.000000) translate(525.000000, 906.000000) translate(104.000000, 8.000000) translate(4.800000, 0.000000)"/>
                        <g filter="url(#jcoo8235ta)" transform="translate(-629.000000, -914.000000) translate(525.000000, 906.000000) translate(104.000000, 8.000000) translate(4.800000, 0.000000)">
                            <g fill-rule="nonzero" transform="translate(0.000000, 9.843750)">
                                <path fill="#B5B7BA" d="M8.129 8.438H6.271C2.813 8.438 0 5.598 0 2.109V.3C0 .134.134 0 .3 0h.794c.165 0 .3.134.3.3v1.81c0 2.713 2.188 4.921 4.877 4.921h1.858c2.69 0 4.877-2.208 4.877-4.922V.3c0-.166.135-.3.3-.3h.794c.166 0 .3.134.3.3v1.81c0 3.489-2.813 6.328-6.271 6.328z"/>
                                <rect width="11.148" height="1.406" x="1.626" y="12.75" fill="#DCF4FF" rx=".5"/>
                            </g>
                        </g>
                        <g fill="#8A8F95" fill-rule="nonzero">
                            <path d="M5.806.3v1.81C5.806 4.822 3.618 7.03.93 7.03H0v1.407h.929c3.458 0 6.271-2.84 6.271-6.329V.3c0-.166-.134-.3-.3-.3h-.794c-.165 0-.3.134-.3.3zM0 12.75h5.074c.276 0 .5.224.5.5v.406c0 .276-.224.5-.5.5H0V12.75z" transform="translate(-629.000000, -914.000000) translate(525.000000, 906.000000) translate(104.000000, 8.000000) translate(4.800000, 0.000000) translate(7.200000, 9.843750)"/>
                        </g>
                        <path fill="#6A6C6F" fill-rule="nonzero" d="M8.129 0H6.271C4.35 0 2.787 1.577 2.787 3.516v4.921h8.826V3.516C11.613 1.577 10.05 0 8.129 0z" transform="translate(-629.000000, -914.000000) translate(525.000000, 906.000000) translate(104.000000, 8.000000) translate(4.800000, 0.000000)"/>
                        <path fill="#4C4E51" fill-rule="nonzero" d="M8.129 0H7.2v8.438h4.413V3.516C11.613 1.577 10.05 0 8.129 0z" transform="translate(-629.000000, -914.000000) translate(525.000000, 906.000000) translate(104.000000, 8.000000) translate(4.800000, 0.000000)"/>
                    </g>
                </g>
            </g>
        </g>
    </g>
</svg>
