<svg xmlns="http://www.w3.org/2000/svg" width="24" height="24" viewBox="0 0 24 24">
    <g fill-rule="evenodd">
        <g>
            <g>
                <g>
                    <path fill-rule="nonzero" d="M19.5 9c-.387 0-.7.313-.7.7v2.057l-.004.238c-.123 3.652-3.128 6.562-6.796 6.562-3.756 0-6.8-3.044-6.8-6.8V9.7c0-.387-.313-.7-.7-.7-.387 0-.7.313-.7.7v2.057l.004.255c.126 4.138 3.328 7.531 7.432 7.91l.064.004v2.63l-2.8.001c-.387 0-.7.314-.7.7 0 .387.313.7.7.7h7c.387 0 .7-.313.7-.7l-.006-.095c-.047-.341-.34-.605-.694-.605h-2.801l.001-2.63-.187.015c4.309-.266 7.687-3.847 7.687-8.185V9.7c0-.387-.313-.7-.7-.7z" transform="translate(-629.000000, -914.000000) translate(569.000000, 906.000000) translate(60.000000, 8.000000)"/>
                    <path fill-rule="nonzero" d="M12 0c2.651 0 4.8 2.114 4.8 4.721v7.082c0 2.608-2.149 4.722-4.8 4.722s-4.8-2.114-4.8-4.722V4.721C7.2 2.114 9.349 0 12 0zm3.3 11.766H8.7v.037c0 1.774 1.472 3.222 3.3 3.222 1.765 0 3.198-1.35 3.295-3.04l.005-.182v-.037zM12 1.5c-1.765 0-3.198 1.35-3.295 3.04L8.7 4.72v5.545h6.6V4.721C15.3 2.948 13.828 1.5 12 1.5z" transform="translate(-629.000000, -914.000000) translate(569.000000, 906.000000) translate(60.000000, 8.000000)"/>
                </g>
            </g>
        </g>
    </g>
</svg>
