<svg xmlns="http://www.w3.org/2000/svg" width="28" height="28" viewBox="0 0 28 28">
    <g fill="none" fill-rule="evenodd">
        <g fill="#FFF">
            <g>
                <g>
                    <path d="M22.28 15c.397 0 .72.322.72.718l-.008.13-.007.07c-.436 4.293-3.9 7.695-8.232 8.051V26.5h6.02c.417 0 .753.336.753.75s-.336.75-.752.75H7.226c-.416 0-.752-.336-.752-.75 0-.38.283-.693.65-.743l.102-.007h6.021v-2.53c-4.241-.35-7.651-3.618-8.201-7.785l-.031-.267-.015-.2c0-.396.323-.718.72-.718.382 0 .704.268.779.631l.014.102.013.149.04.302c.558 3.498 3.541 6.191 7.18 6.312L14 22.5c3.752 0 6.864-2.736 7.433-6.316l.041-.302.013-.15c.031-.413.376-.732.792-.732zM14 0c3.314 0 6 2.686 6 6v8c0 3.314-2.686 6-6 6s-6-2.686-6-6V6c0-3.314 2.686-6 6-6zm0 1.5c-2.414 0-4.384 1.901-4.495 4.288L9.5 6v.25h1.75c.414 0 .75.336.75.75s-.336.75-.75.75H9.5v1.5h1.75c.414 0 .75.336.75.75s-.336.75-.75.75H9.5v1.5h1.75c.414 0 .75.336.75.75s-.336.75-.75.75H9.5V14c0 2.485 2.015 4.5 4.5 4.5 2.414 0 4.384-1.901 4.495-4.288L18.5 14v-.25h-1.75c-.414 0-.75-.336-.75-.75s.336-.75.75-.75h1.75v-1.5h-1.75c-.414 0-.75-.336-.75-.75s.336-.75.75-.75h1.75v-1.5h-1.75c-.414 0-.75-.336-.75-.75s.336-.75.75-.75h1.75V6c0-2.485-2.015-4.5-4.5-4.5z" transform="translate(-789 -571) translate(779 561) translate(10 10)"/>
                </g>
            </g>
        </g>
    </g>
</svg>
