<svg xmlns="http://www.w3.org/2000/svg" width="32" height="32" viewBox="0 0 32 32">
    <g fill="none" fill-rule="evenodd">
        <g fill="#0064ad" fill-rule="nonzero">
            <g>
                <g>
                    <path d="M25.5 12c.276 0 .5.224.5.5V15c0 5.355-4.209 9.727-9.499 9.988l-.001 4.511 3.5.001c.276 0 .5.224.5.5s-.224.5-.5.5h-8c-.276 0-.5-.224-.5-.5s.224-.5.5-.5l3.5-.001v-4.511C10.21 24.728 6 20.355 6 15v-2.5c0-.276.224-.5.5-.5s.5.224.5.5V15c0 4.97 4.03 9 9 9 4.882 0 8.856-3.887 8.996-8.735L25 15v-2.5c0-.276.224-.5.5-.5zM16 0c3.314 0 6 2.686 6 6v9c0 3.314-2.686 6-6 6s-6-2.686-6-6V6c0-3.314 2.686-6 6-6zm5 15H11c0 2.761 2.239 5 5 5 2.689 0 4.882-2.122 4.995-4.783L21 15zM16 1c-2.689 0-4.882 2.122-4.995 4.783L11 6v8h10V6c0-2.761-2.239-5-5-5z" transform="translate(-561 -689) translate(501 678) translate(60 11)"/>
                </g>
            </g>
        </g>
    </g>
</svg>
