<svg xmlns="http://www.w3.org/2000/svg" width="20" height="20" viewBox="0 0 20 20">
    <g fill="none" fill-rule="evenodd">
        <g fill="#FFF">
            <g>
                <path d="M10 0c2.367 0 4.286 1.919 4.286 4.286l-.001.662 3.196-3.195c.209-.209.548-.209.757 0 .19.19.208.488.052.698l-.052.06-3.953 3.953V10c0 2.367-1.918 4.286-4.285 4.286-.992 0-1.906-.337-2.632-.903l-1.144 1.144c.919.904 2.162 1.48 3.54 1.54l.236.004c2.68 0 4.903-1.954 5.31-4.511l.029-.216.01-.106c.021-.296.268-.524.565-.524.284 0 .515.23.515.513l-.006.093-.005.05c-.312 3.067-2.786 5.496-5.88 5.75v1.809h4.3c.297 0 .538.24.538.535 0 .296-.24.536-.538.536H5.162c-.297 0-.538-.24-.538-.536 0-.266.195-.487.45-.528l.088-.007h4.3V17.12c-1.553-.128-2.95-.804-3.997-1.834l-2.933 2.932c-.209.21-.548.21-.757 0-.19-.19-.208-.488-.052-.697l.052-.06 2.99-2.99c-.6-.828-1.006-1.804-1.154-2.861l-.03-.241-.01-.143c0-.283.231-.513.515-.513.264 0 .488.18.55.428l.016.096.01.106.029.216c.124.783.419 1.51.845 2.14l1.075-1.076c-.562-.725-.897-1.636-.897-2.624V4.286C5.714 1.919 7.634 0 10 0zm1.428 9.321l-3.294 3.296c.526.376 1.17.597 1.866.597 1.724 0 3.132-1.358 3.21-3.063l.004-.151v-.179h-1.357c-.237 0-.428-.191-.428-.428l-.001-.072zM10 1.071c-1.724 0-3.132 1.358-3.21 3.063l-.004.152v.178h1.357c.237 0 .428.192.428.429v.214c0 .237-.191.429-.428.429l-1.358-.001v1.072h1.358c.237 0 .428.192.428.429v.214c0 .237-.191.429-.428.429l-1.358-.001V8.75h1.358c.237 0 .428.192.428.429v.214c0 .237-.191.428-.428.428H6.785V10c0 .692.22 1.334.592 1.858l4.248-4.248c-.118-.076-.196-.209-.196-.36v-.214c0-.237.191-.429.428-.429h.77l.586-.586v-.486h-1.356c-.237 0-.428-.191-.428-.428v-.214c0-.237.191-.429.428-.429h1.356l.001-.178c0-1.775-1.439-3.215-3.214-3.215zm1.999 7.679h1.214V7.678h-.142L11.999 8.75z" transform="translate(-912 -155) translate(912 155)"/>
            </g>
        </g>
    </g>
</svg>
