<svg xmlns="http://www.w3.org/2000/svg" width="44" height="44" viewBox="0 0 44 44">
    <path fill-rule="evenodd" d="M10.059 31H33.94V11H10.06v20zm0 1v4.265a3.176 3.176 0 0 0 3.176 3.176h17.53a3.176 3.176 0 0 0 3.176-3.176V32H10.06zm0-22H33.94V7.735a3.176 3.176 0 0 0-3.176-3.176h-17.53a3.176 3.176 0 0 0-3.176 3.176V10zm3.176-6.5h17.53A4.235 4.235 0 0 1 35 7.735v28.53a4.235 4.235 0 0 1-4.235 4.235h-17.53A4.235 4.235 0 0 1 9 36.265V7.735A4.235 4.235 0 0 1 13.235 3.5zM19 34.5v2h6v-2h-6zm0-1h6a1 1 0 0 1 1 1v2a1 1 0 0 1-1 1h-6a1 1 0 0 1-1-1v-2a1 1 0 0 1 1-1zM18.5 7h7a.5.5 0 1 1 0 1h-7a.5.5 0 1 1 0-1zm11 0h1a.5.5 0 1 1 0 1h-1a.5.5 0 1 1 0-1z"/>
</svg>
