<svg xmlns="http://www.w3.org/2000/svg" width="44" height="44" viewBox="0 0 44 44">
    <g fill-rule="evenodd">
        <path d="M9.14 6.722V4.905v1.817zM10.489 6.722l.01-1.817-.01.025v1.792z"/>
        <path d="M17.52 5.205c.018.15.027.3.027.454v4.995c0 1.267-1.02 2.297-2.273 2.297-1.252 0-2.273-1.03-2.273-2.297V7.93c0-.266.213-.481.475-.481.261 0 .474.215.474.48v2.725a1.33 1.33 0 0 0 1.324 1.335c.73 0 1.324-.599 1.324-1.335V5.66c0-.154-.013-.306-.038-.454h-6.549a1 1 0 0 0-1 1V38.3a1 1 0 0 0 1 1h24.98a1 1 0 0 0 1-1V6.205a1 1 0 0 0-1-1H17.518zm-6.918-1C11.166 2.901 12.462 2 13.925 2c1.486 0 2.766.909 3.324 2.205H34.99a2 2 0 0 1 2 2V38.3a2 2 0 0 1-2 2H10.011a2 2 0 0 1-2-2V6.205a2 2 0 0 1 2-2h.591zm1.074 0h4.5a2.667 2.667 0 0 0-2.25-1.243 2.68 2.68 0 0 0-2.25 1.243zM13.5 16.3h19a.5.5 0 1 1 0 1h-19a.5.5 0 1 1 0-1zm0 4h19a.5.5 0 1 1 0 1h-19a.5.5 0 1 1 0-1zm0 4h19a.5.5 0 1 1 0 1h-19a.5.5 0 1 1 0-1zm0 4h14a.5.5 0 1 1 0 1h-14a.5.5 0 1 1 0-1z"/>
    </g>
</svg>
