<svg width="120" height="120" viewBox="0 0 120 120" xmlns="http://www.w3.org/2000/svg">
    <path d="M59.5 18c15.84 0 23.067 6.206 23.324 6.454.717.596.922 1.539.563 2.333l-7.176 16.631c.057.614.105 1.235.15 1.86l.044.626c.08 1.15.154 2.31.252 3.467l.057.63c.594 6.295 2.102 12.375 9.544 15.758 0 0-8.158 1.492-15.823 2.537l-.729.098-.723.095a15.35 15.35 0 0 1-3.332 2.433l.82 4.27C71.187 80.552 90 80.901 90 102H29c0-21.497 19.428-21.447 23.784-27.107l.718-3.872a15.488 15.488 0 0 1-3.485-2.532c-.601-.078-1.208-.159-1.818-.243l-.732-.102c-.732-.103-1.466-.21-2.192-.317l-.724-.109c-6.251-.942-11.81-1.96-11.81-1.96 7.855-3.552 9.104-10.077 9.633-16.703l.049-.631c.093-1.263.167-2.526.262-3.77l.05-.62.054-.616-7.177-16.63c-.359-.746-.154-1.689.462-2.285C36.33 24.255 42.942 18 59.5 18zm0 4.22c-10.97 0-16.967 2.978-19.223 4.468l6.715 15.638c2.307-.248 6.767-.645 12.2-.645 5.639 0 10.406.397 12.815.645l6.715-15.589c-2.46-1.489-8.662-4.517-19.222-4.517zM62.476 26v3.852h4.14v5.296h-4.14V39h-5.952v-3.852h-4.141v-5.296h4.14V26h5.953z" fill="#FFFFFE" fill-rule="evenodd"/>
</svg>
