<svg width="49" height="30" viewBox="0 0 49 30" fill="none" xmlns="http://www.w3.org/2000/svg">
<path fill-rule="evenodd" clip-rule="evenodd" d="M17.1358 15.3122L23.9232 21.8722C24.0108 21.9546 24.1277 22 24.2524 22C24.3771 22 24.494 21.9546 24.5816 21.8722L24.8605 21.6101C25.042 21.4393 25.042 21.1617 24.8605 20.9912L18.6801 15.0017L24.864 9.00884C24.9516 8.92643 25 8.81658 25 8.69944C25 8.58217 24.9516 8.47232 24.864 8.38985L24.5851 8.1278C24.4975 8.0454 24.3806 8 24.2559 8C24.1312 8 24.0143 8.0454 23.9267 8.1278L17.1358 14.6911C17.048 14.7738 16.9997 14.8841 17 15.0015C16.9997 15.1193 17.048 15.2296 17.1358 15.3122Z" fill="#898989"/>
<path fill-rule="evenodd" clip-rule="evenodd" d="M23.1358 15.3122L29.9232 21.8722C30.0108 21.9546 30.1277 22 30.2524 22C30.3771 22 30.494 21.9546 30.5816 21.8722L30.8605 21.6101C31.042 21.4393 31.042 21.1617 30.8605 20.9912L24.6801 15.0017L30.864 9.00884C30.9516 8.92643 31 8.81658 31 8.69944C31 8.58217 30.9516 8.47232 30.864 8.38985L30.5851 8.1278C30.4975 8.0454 30.3806 8 30.2559 8C30.1312 8 30.0143 8.0454 29.9267 8.1278L23.1358 14.6911C23.048 14.7738 22.9997 14.8841 23 15.0015C22.9997 15.1193 23.048 15.2296 23.1358 15.3122Z" fill="#898989"/>
<rect x="0.5" y="0.5" width="48" height="29" rx="4.5" stroke="#898989"/>
</svg>
