<svg width="22" height="30" viewBox="0 0 22 30" fill="none" xmlns="http://www.w3.org/2000/svg">
<path d="M1 0.543215C6.33328 0.486612 12.4042 0.49591 16.5467 0.513564C19.2913 0.525262 21.5 2.75601 21.5 5.50071C21.5 12.3746 21.5 17.6326 21.5 24.4997C21.5 27.2612 19.2614 29.5 16.5 29.5H1" stroke="#ffffff"/>
<path fill-rule="evenodd" clip-rule="evenodd" d="M14.677 14.6878L8.05121 8.1278C7.96569 8.0454 7.85154 8 7.72983 8C7.60811 8 7.49396 8.0454 7.40845 8.1278L7.13617 8.38991C6.959 8.56071 6.959 8.8383 7.13617 9.00884L13.1694 14.9983L7.13273 20.9912C7.04721 21.0736 7 21.1834 7 21.3006C7 21.4178 7.04721 21.5277 7.13273 21.6101L7.405 21.8722C7.49058 21.9546 7.60466 22 7.72638 22C7.8481 22 7.96225 21.9546 8.04776 21.8722L14.677 15.3089C14.7627 15.2262 14.8098 15.1159 14.8095 14.9985C14.8098 14.8807 14.7627 14.7704 14.677 14.6878Z" fill="#ffffff"/>
</svg>
