<svg width="378" height="304" viewBox="0 0 378 304" fill="none" xmlns="http://www.w3.org/2000/svg">
<path d="M253.239 110.405L253.239 16.6796C253.239 11.1505 248.752 6.67069 243.223 6.67964L17.9849 7.0444C12.4762 7.05332 8.01215 11.5156 8.0011 17.0243L7.45899 287.273C7.44788 292.81 11.9382 297.302 17.4752 297.293L242.731 296.928C248.225 296.92 252.683 292.48 252.715 286.986L253.239 196.405" fill="none" stroke="#BDBDBD" stroke-width="10"/>
<line x1="375" y1="153.741" x2="160" y2="153.741" stroke="#BDBDBD" stroke-width="10"/>
<path d="M311 207.741L367.469 159.547C369.858 157.508 371.052 156.489 371.505 155.268C371.902 154.196 371.92 153.021 371.555 151.937C371.14 150.703 369.977 149.648 367.652 147.537L311.331 96.4265" fill="none" stroke="#BDBDBD" stroke-width="10"/>
</svg>
