<svg width="120" height="120" viewBox="0 0 120 120" xmlns="http://www.w3.org/2000/svg">
    <g fill="#FFFFFE" fill-rule="evenodd">
        <path d="M91.935 85.426 100 46.476h-7.957v-3.734a7.875 7.875 0 0 0-7.902-7.898H53.559L44.9 27H27.903A7.875 7.875 0 0 0 20 34.898v50.204A7.875 7.875 0 0 0 27.903 93h56.4c4.114-.162 7.47-3.462 7.632-7.574m-7.903 3.03H35.21l4.113-21.37 3.41-15.742 46.766-.27h4.872l-6.983 33.54c0 .109 0 .217-.054.326v.162c0 1.84-1.461 3.353-3.302 3.353"/>
        <path d="M69.46 58.377h-9.19v6.762h-6.757v9.197h6.758v6.762h9.188v-6.762h6.757v-9.197h-6.757z"/>
    </g>
</svg>
