<svg xmlns="http://www.w3.org/2000/svg" width="24" height="24" viewBox="0 0 24 24">
    <path fill-rule="evenodd" d="M16.618 1.94a3.213 3.213 0 0 1 4.544 0l.899.9a3.216 3.216 0 0 1 0 4.543L8.395 21.047a.532.532 0 0 1-.234.137L1.674 22.98a.533.533 0 0 1-.655-.655l1.797-6.487a.532.532 0 0 1 .137-.234L16.618 1.94zm-.978 2.483L4.125 15.937l3.938 3.938L19.578 8.36 15.64 4.423zm-8.573 15.96l-3.45-3.45-1.321 4.772 4.77-1.322zM21.309 6.63a2.151 2.151 0 0 0 0-3.04l-.9-.898a2.149 2.149 0 0 0-3.038 0l-.813.812-.166.166 3.939 3.938.978-.978z"/>
</svg>
