<?xml version="1.0" encoding="UTF-8"?>
<svg width="16px" height="16px" viewBox="0 0 16 16" version="1.1" xmlns="http://www.w3.org/2000/svg" xmlns:xlink="http://www.w3.org/1999/xlink">
    <g id="document-template" stroke="none" stroke-width="1" fill="none" fill-rule="evenodd">
        <g id="Create-Template---view1" transform="translate(-1068.000000, -325.000000)">
            <g id="edit" transform="translate(1068.000000, 325.000000)">
                <rect id="Rectangle" fill="#D8D8D8" opacity="0" x="0" y="0" width="16" height="16"></rect>
                <path d="M1,15 L5.32714844,13.9199219 L14.3300781,4.91699219 C14.5488281,4.69824219 14.7151693,4.44759115 14.8291016,4.16503906 C14.9430339,3.88248698 15,3.59082031 15,3.29003906 C15,2.97558594 14.9396159,2.67936198 14.8188477,2.40136719 C14.6980794,2.1233724 14.5340169,1.88069661 14.3266602,1.67333984 C14.1193034,1.46598307 13.8766276,1.30192057 13.5986328,1.18115234 C13.320638,1.06038411 13.0244141,1 12.7099609,1 C12.4091797,1 12.117513,1.05696615 11.8349609,1.17089844 C11.5524089,1.28483073 11.3017578,1.45117188 11.0830078,1.66992188 L11.0830078,1.66992188 L2.08007812,10.6728516 L1,15 Z M13.25,4.75292969 L11.2470703,2.75 C11.3610026,2.63606771 11.468099,2.52669271 11.5683594,2.421875 C11.6686198,2.31705729 11.7745768,2.22363281 11.8862305,2.14160156 C11.9978841,2.05957031 12.1186523,1.99462891 12.2485352,1.94677734 C12.378418,1.89892578 12.5299479,1.875 12.703125,1.875 C12.8990885,1.875 13.0825195,1.91259766 13.253418,1.98779297 C13.4243164,2.06298828 13.574707,2.16552734 13.7045898,2.29541016 C13.8344727,2.42529297 13.9370117,2.57568359 14.012207,2.74658203 C14.0874023,2.91748047 14.125,3.10091146 14.125,3.296875 C14.125,3.47005208 14.1010742,3.62158203 14.0532227,3.75146484 C14.0053711,3.88134766 13.9404297,4.00211589 13.8583984,4.11376953 C13.7763672,4.22542318 13.6829427,4.33138021 13.578125,4.43164062 C13.4733073,4.53190104 13.3639323,4.6389974 13.25,4.75292969 L13.25,4.75292969 Z M5.23828125,12.7714844 C5.07877604,12.2884115 4.82470703,11.8725586 4.47607422,11.5239258 C4.12744141,11.175293 3.71158854,10.921224 3.22851562,10.7617188 L3.22851562,10.7617188 L10.625,3.37207031 L12.6279297,5.375 L5.23828125,12.7714844 Z M2.203125,13.796875 L2.76367188,11.5478516 C2.97330729,11.5934245 3.17154948,11.6674805 3.35839844,11.7700195 C3.5452474,11.8725586 3.71158854,11.9967448 3.85742188,12.1425781 C4.00325521,12.2884115 4.12744141,12.4547526 4.22998047,12.6416016 C4.33251953,12.8284505 4.40657552,13.0266927 4.45214844,13.2363281 L4.45214844,13.2363281 L2.203125,13.796875 Z" id="îœ" fill="#222222" fill-rule="nonzero"></path>
            </g>
        </g>
    </g>
</svg>