<?xml version="1.0" encoding="UTF-8"?>
<svg width="16px" height="16px" viewBox="0 0 16 16" version="1.1" xmlns="http://www.w3.org/2000/svg" xmlns:xlink="http://www.w3.org/1999/xlink">
    <g id="document-template" stroke="none" stroke-width="1" fill="none" fill-rule="evenodd">
        <g id="Create-Template---view1" transform="translate(-1025.000000, -325.000000)">
            <g id="non-edit" transform="translate(1025.000000, 325.000000)">
                <rect id="Rectangle" fill="#D8D8D8" opacity="0" x="0" y="0" width="16" height="16"></rect>
                <path d="M10.7070312,8.54003906 L14.3300781,4.91699219 C14.5488281,4.69824219 14.7151693,4.44873047 14.8291016,4.16845703 C14.9430339,3.88818359 15,3.59765625 15,3.296875 C15,2.97786458 14.9396159,2.67936198 14.8188477,2.40136719 C14.6980794,2.1233724 14.5340169,1.88069661 14.3266602,1.67333984 C14.1193034,1.46598307 13.8766276,1.30192057 13.5986328,1.18115234 C13.320638,1.06038411 13.0244141,1 12.7099609,1 C12.4046224,1 12.1118164,1.05696615 11.831543,1.17089844 C11.5512695,1.28483073 11.3040365,1.45117188 11.0898437,1.66992188 L11.0898437,1.66992188 L11.0830078,1.66992188 L7.45996094,5.29980469 L8.08203125,5.91503906 L10.625,3.37207031 L12.6347656,5.375 L10.0849609,7.92480469 L10.7070312,8.54003906 Z M1,15 L5.32714844,13.9199219 L9.3125,9.93457031 L14.2548828,14.8701172 L14.8701172,14.2548828 L1.74511719,1.12988281 L1.12988281,1.74511719 L6.07226562,6.6875 L2.08007812,10.6728516 L1,15 Z M13.25,4.75292969 L11.2470703,2.75 C11.3610026,2.63606771 11.468099,2.52669271 11.5683594,2.421875 C11.6686198,2.31705729 11.7745768,2.22363281 11.8862305,2.14160156 C11.9978841,2.05957031 12.1186523,1.99462891 12.2485352,1.94677734 C12.378418,1.89892578 12.5299479,1.875 12.703125,1.875 C12.8990885,1.875 13.0836589,1.91259766 13.2568359,1.98779297 C13.430013,2.06298828 13.5804036,2.16438802 13.7080078,2.29199219 C13.835612,2.41959635 13.9370117,2.56998698 14.012207,2.74316406 C14.0874023,2.91634115 14.125,3.10091146 14.125,3.296875 C14.125,3.48372396 14.0885417,3.66373698 14.015625,3.83691406 C13.9427083,4.01009115 13.8401693,4.16276042 13.7080078,4.29492188 L13.7080078,4.29492188 L13.25,4.75292969 Z M5.23828125,12.7714844 C5.16080729,12.5345052 5.05826823,12.3100586 4.93066406,12.0981445 C4.8030599,11.8862305 4.65266927,11.6936849 4.47949219,11.5205078 C4.3063151,11.3473307 4.11376953,11.1969401 3.90185547,11.0693359 C3.68994141,10.9417318 3.46549479,10.8391927 3.22851562,10.7617188 L3.22851562,10.7617188 L6.6875,7.30957031 L8.69726562,9.3125 L5.23828125,12.7714844 Z M2.203125,13.796875 L2.76367188,11.5478516 C2.97330729,11.5934245 3.17154948,11.6674805 3.35839844,11.7700195 C3.5452474,11.8725586 3.71158854,11.9967448 3.85742187,12.1425781 C4.00325521,12.2884115 4.12744141,12.4547526 4.22998047,12.6416016 C4.33251953,12.8284505 4.40657552,13.0266927 4.45214844,13.2363281 L4.45214844,13.2363281 L2.203125,13.796875 Z" id="" fill="#222222" fill-rule="nonzero"></path>
            </g>
        </g>
    </g>
</svg>