<svg xmlns="http://www.w3.org/2000/svg" width="44" height="44" viewBox="0 0 44 44">
    <path fill-rule="evenodd" d="M12.211 36.676v-1.1a5.19 5.19 0 0 1 2.735-4.563l5.837-3.155a2.357 2.357 0 0 0 1.243-2.072v-2.37s-1.713-2.029-2.367-4.85a1.94 1.94 0 0 1-.905-1.63v-2.593c0-.57.256-1.08.654-1.437v-3.07l-.05-.07c-.912-.575-2.072-.905-3.58-.905-2.403 0-3.902.804-4.783 2.143-.309.468-.52.974-.65 1.48a4.422 4.422 0 0 0-.11.562v3.685l-.334.298c-.21.189-.321.38-.321.495v2.24c0 .227.12.438.321.567l.343.22.091.396c.18.775.534 1.54 1.013 2.266.258.392.535.747.811 1.057.162.181.282.303.341.358l.321.297v2.483c0 1.114-.614 2.139-1.545 2.64L6.837 32.8A3.484 3.484 0 0 0 5 35.863v.813h7.211zm28.789 1H4v-1.813c0-1.643.906-3.154 2.362-3.941l4.386-2.724a2.036 2.036 0 0 0 1.073-1.79v-2.046s-1.895-1.753-2.46-4.19a1.676 1.676 0 0 1-.781-1.408v-2.24c0-.492.31-.932.654-1.24v-3.238s.286-5.185 6.543-5.185c1.561 0 2.733.332 3.612.776.03-1.43.71-5.313 7.217-5.313 7.973 0 7.197 5.833 7.197 5.833v3.749c.398.356.654.866.654 1.437v2.592c0 .872-.59 1.606-1.392 1.85a14.183 14.183 0 0 1-1.942 3.879 9.27 9.27 0 0 1-.592.753v2.429c0 .894.51 1.712 1.318 2.112l6.25 3.096A5.195 5.195 0 0 1 41 35.704v1.972zm-1-1v-.972a4.195 4.195 0 0 0-2.345-3.754l-6.25-3.096a3.36 3.36 0 0 1-1.874-3.008v-2.809l.252-.284c.156-.175.336-.404.526-.671a13.18 13.18 0 0 0 1.805-3.606l.161-.496.499-.152a.946.946 0 0 0 .683-.893v-2.592a.926.926 0 0 0-.32-.692l-.334-.298V9.157l.009-.132.004-.05a4.125 4.125 0 0 0-.498-2.252c-.816-1.484-2.57-2.399-5.712-2.399-3.143 0-4.897.915-5.713 2.399a4.124 4.124 0 0 0-.497 2.252l.004.05.008.132v4.196l-.333.298a.926.926 0 0 0-.32.692v2.592a.94.94 0 0 0 .443.79l.343.22.092.396c.206.887.542 1.755.972 2.582.265.51.549.972.832 1.376.165.237.29.398.353.473l.236.279v2.735a3.357 3.357 0 0 1-1.767 2.952l-5.838 3.155a4.19 4.19 0 0 0-2.21 3.684v1.099H40z"/>
</svg>
