<svg xmlns="http://www.w3.org/2000/svg" width="23" height="22" viewBox="0 1 23 22">
    <path fill="#0064ad" fill-rule="nonzero" d="M22.752 19.623l-1.066 1.772a3.007 3.007 0 0 1-1.784 1.373 6.69 6.69 0 0 1-1.774.232c-3.08 0-6.735-1.874-10.99-6.131C1.954 11.684.325 7.431 1.241 4.093a3.004 3.004 0 0 1 1.366-1.777l1.777-1.068a1.733 1.733 0 0 1 2.336.526l2.835 4.252c.5.757.335 1.771-.38 2.332l-1.594 1.24c-.012.01-.015.026-.005.044l.13.236c.668 1.225 1.254 2.022 2.827 3.596 1.573 1.574 2.37 2.16 3.596 2.829l.237.13c.012.008.028.004.04-.012l1.24-1.593a1.74 1.74 0 0 1 2.33-.378l4.25 2.835a1.735 1.735 0 0 1 .525 2.338zm-1.08-1.506l-4.247-2.834a.74.74 0 0 0-.99.16L15.2 17.03c-.309.408-.871.527-1.318.279l-.233-.13c-1.306-.711-2.18-1.354-3.822-2.998-1.642-1.644-2.285-2.518-2.998-3.823l-.126-.23a1.029 1.029 0 0 1 .269-1.322L8.56 7.57a.741.741 0 0 0 .162-.99L5.889 2.327a.734.734 0 0 0-.99-.223l-1.78 1.07a2.006 2.006 0 0 0-.914 1.186c-.808 2.942.689 6.847 5.64 11.8C11.927 20.248 15.346 22 18.13 22a5.688 5.688 0 0 0 1.507-.196c.499-.14.924-.468 1.19-.92l1.068-1.776a.735.735 0 0 0-.222-.99z"/>
</svg>
