<svg xmlns="http://www.w3.org/2000/svg" xmlns:xlink="http://www.w3.org/1999/xlink" width="24" height="24" viewBox="0 0 24 24">
    <defs>
        <path id="vztk4cqmpa" d="M12.692 1.058l-1.958 4.675c-.344.83.01 1.787.813 2.197l1.79.906c.012.006.019.021.012.04l-.196.605-.119.335-.126.326c-.088.215-.182.429-.29.649l-.17.335-.093.174-.205.362-.232.386-.264.418-.298.456-.164.244c-.112.166-.22.323-.323.472l-.3.423-.28.38c-.408.54-.765.952-1.138 1.324l-.251.242-.26.237-.275.236-.35.291c-.01.01-.027.01-.042-.004l-1.51-1.317c-.68-.59-1.7-.558-2.345.074L.512 19.086c-.655.646-.685 1.692-.069 2.375l1.375 1.523c.511.578 1.226.936 2 .999.595.043 1.192.006 1.775-.11 3.003-.582 6.212-3.097 9.555-8.046 4.07-6.026 4.854-10.473 3.328-13.549-.347-.688-.947-1.216-1.67-1.47L14.871.103c-.865-.314-1.825.106-2.179.954z"/>
        <path id="ydhfxfyesc" d="M8.691 0C3.546.365-.332 4.827.022 9.973c.035.49.46.859.95.825.49-.034.858-.46.824-.949-.287-4.167 2.854-7.78 7.02-8.075.49-.035.859-.46.825-.95-.028-.392-.308-.712-.692-.802L8.817 0 8.69 0zm.197 2.811c-3.593.256-6.301 3.371-6.054 6.965.034.49.459.86.949.825.49-.034.859-.459.825-.948-.18-2.615 1.79-4.882 4.405-5.068.49-.034.859-.459.824-.949-.027-.392-.307-.713-.692-.803l-.132-.021h-.125zm.197 2.812c-2.041.145-3.58 1.915-3.44 3.957.035.49.46.859.95.825.448-.032.796-.391.824-.828v-.12c-.069-1.004.642-1.882 1.616-2.04l.174-.02c.49-.035.86-.46.825-.95-.027-.392-.308-.713-.692-.802l-.132-.022h-.125z"/>
    </defs>
    <g fill="none" fill-rule="evenodd">
        <g>
            <g>
                <g>
                    <g>
                        <g transform="translate(-1160.000000, -136.000000) translate(501.000000, 128.000000) translate(651.000000, 0.000000) translate(8.000000, 8.000000) translate(2.400000, 0.000000)">
                            <mask id="a38d430dqb" fill="#fff">
                                <use xlink:href="#vztk4cqmpa"/>
                            </mask>
                            <use fill="#999CA0" fill-rule="nonzero" xlink:href="#vztk4cqmpa"/>
                            <path fill="#FFF" fill-rule="nonzero" d="M10.679-3.584L8.476 1.793c-.387.955.01 2.054.914 2.526l2.013 1.042c.015.007.022.025.015.047l-.221.695-.134.385-.142.375c-.098.248-.205.493-.325.746l-.192.386-.105.2-.23.416-.261.445-.297.48-.336.524-.184.28c-.126.192-.247.372-.364.544l-.337.486-.315.437c-.459.62-.86 1.095-1.28 1.522l-.283.28-.293.271-.308.272-.393.335c-.013.01-.03.01-.048-.006L3.67 12.968c-.766-.678-1.913-.642-2.638.084l-4.057 4.097c-.737.743-.771 1.946-.077 2.731l1.547 1.752c.574.664 1.379 1.076 2.25 1.148.668.05 1.34.007 1.996-.126 3.379-.67 6.988-3.562 10.75-9.253 4.58-6.93 5.46-12.044 3.743-15.58-.39-.792-1.065-1.4-1.878-1.693L13.13-4.68c-.973-.362-2.053.121-2.451 1.096z" mask="url(#a38d430dqb)" opacity=".276"/>
                        </g>
                        <path fill="#4C4E51" fill-rule="nonzero" d="M6.518 15.524c.644-.632 1.664-.663 2.345-.074l1.457 1.272c-2.046 2.041-4.028 3.183-5.927 3.551-.583.116-1.18.153-1.775.11-.073-.006-.145-.015-.217-.026-.013-.46.159-.923.511-1.27zm8.574-14.466c.354-.848 1.314-1.268 2.18-.954l.565.206c.52 2.481-.18 5.656-2.437 9.597l.034-.091.119-.335.196-.604c.007-.02 0-.035-.013-.041l-1.79-.906c-.803-.41-1.156-1.366-.812-2.197z" transform="translate(-1160.000000, -136.000000) translate(501.000000, 128.000000) translate(651.000000, 0.000000) translate(8.000000, 8.000000)"/>
                        <g transform="translate(-1160.000000, -136.000000) translate(501.000000, 128.000000) translate(651.000000, 0.000000) translate(8.000000, 8.000000) translate(0.050891, 0.921476)">
                            <mask id="xibo6w3jid" fill="#fff">
                                <use xlink:href="#ydhfxfyesc"/>
                            </mask>
                            <use fill="#FFB602" fill-rule="nonzero" xlink:href="#ydhfxfyesc"/>
                            <path fill="#FFF" fill-rule="nonzero" d="M8.53.364C3.713.706.084 4.88.415 9.696c.011.16.15.28.309.268.159-.01.279-.149.268-.308C.683 5.159 4.073 1.26 8.569.94c.16-.01.28-.149.269-.308C8.83.53 8.772.444 8.702.402L8.65.38l-.12-.015z" mask="url(#xibo6w3jid)" opacity=".337"/>
                            <path fill="#FFF" fill-rule="nonzero" d="M8.63 3.304l-.24.024c-3.134.357-5.46 3.123-5.242 6.3.011.16.15.28.309.269.159-.012.279-.15.268-.31C3.522 6.644 5.742 4.09 8.687 3.88c.159-.01.279-.149.268-.308-.007-.101-.066-.188-.136-.23l-.092-.036-.096-.002zM8.927 6.003l-.18.02c-1.612.216-2.8 1.65-2.687 3.296.01.16.149.28.308.268.116-.008.212-.084.25-.166l.017-.061.001-.081c-.085-1.246.747-2.354 1.96-2.64l.185-.037.202-.023c.16-.011.28-.15.268-.308-.007-.101-.066-.188-.135-.23l-.054-.023-.039-.013-.096-.002z" mask="url(#xibo6w3jid)" opacity=".337"/>
                        </g>
                    </g>
                </g>
            </g>
        </g>
    </g>
</svg>
