<svg xmlns="http://www.w3.org/2000/svg" width="32" height="32" viewBox="0 0 32 32">
    <g>
        <g>
            <g>
                <path d="M9.281 2.985l3.608 5.412c.636.963.427 2.254-.484 2.967l-2.028 1.58c-.015.01-.02.032-.006.055l.164.3c.078.142.154.28.23.413l.232.393.239.38c.162.25.334.495.522.747l.297.381.16.196.346.406c.122.139.25.282.387.43l.434.463.487.5.265.268c.182.182.356.354.523.516l.48.46.446.41c.645.58 1.195 1.013 1.754 1.39l.376.244c.127.08.255.158.386.235l.402.23.511.282c.016.009.036.004.052-.016l1.577-2.028c.711-.91 2.002-1.12 2.967-.48l5.407 3.607c.983.654 1.277 1.965.669 2.976l-1.357 2.255c-.5.853-1.312 1.479-2.27 1.747-.737.2-1.497.3-2.258.296-3.92 0-8.571-2.385-13.988-7.803-6.595-6.6-8.669-12.012-7.504-16.26.268-.952.893-1.764 1.74-2.262l2.261-1.36c1.01-.607 2.321-.312 2.973.67zm-2.345.128l-.113.06-2.27 1.364c-.624.367-1.086.967-1.281 1.664-1.112 4.053 1.163 9.202 7.247 15.289C15.592 26.565 20.047 29 23.803 29c.672.003 1.343-.085 1.984-.259.644-.18 1.198-.578 1.576-1.13l.108-.17 1.356-2.255c.31-.516.19-1.175-.264-1.552l-.103-.076-5.404-3.606c-.492-.325-1.137-.25-1.538.16l-.088.1-1.57 2.02c-.277.364-.771.525-1.22.34l-.111-.054-.297-.164c-1.65-.9-2.717-1.709-4.501-3.47l-.304-.301c-1.867-1.868-2.727-2.947-3.62-4.534l-.309-.561c-.223-.399-.173-.913.165-1.247l.1-.087 2.026-1.577c.464-.364.597-1 .336-1.51l-.068-.115L8.45 3.538c-.333-.5-.98-.674-1.513-.425zm11.032 1.883c5.235.005 9.476 4.247 9.482 9.48 0 .277-.223.5-.5.5-.275 0-.498-.223-.498-.5-.005-4.682-3.8-8.477-8.484-8.482-.275 0-.499-.224-.499-.5 0-.275.224-.498.5-.498zm0 2.994c3.582.004 6.484 2.906 6.488 6.487 0 .276-.224.499-.5.499-.275 0-.498-.223-.498-.5-.004-3.03-2.46-5.485-5.49-5.488-.275 0-.499-.224-.499-.5 0-.275.224-.498.5-.498zm0 2.994c1.929.002 3.491 1.565 3.494 3.493 0 .276-.224.499-.5.499-.275 0-.498-.223-.498-.5-.002-1.376-1.118-2.493-2.496-2.494-.275 0-.499-.224-.499-.5 0-.275.224-.498.5-.498z" transform="translate(-1160 -135) translate(1160 135)"/>
            </g>
        </g>
    </g>
</svg>
