<svg xmlns="http://www.w3.org/2000/svg" width="24" height="24" viewBox="0 0 24 24">
    <g fill-rule="evenodd">
        <g>
            <g>
                <g>
                    <g>
                        <g fill-rule="nonzero">
                            <path d="M5.721.774l2.835 4.252c.5.757.335 1.771-.38 2.332l-1.594 1.24c-.012.01-.015.026-.005.044l.31.56.182.309.188.298c.128.197.262.39.41.587l.233.3.126.154.272.319.304.338.34.363.383.394.209.21c.143.143.28.278.41.405l.378.362.35.322c.507.456.939.796 1.379 1.092l.295.192.303.184.316.181.402.222c.012.007.028.003.04-.013l1.24-1.593c.559-.715 1.573-.88 2.33-.378l4.25 2.835c.771.513 1.003 1.543.525 2.338l-1.066 1.772c-.394.67-1.031 1.162-1.784 1.373-.579.156-1.177.234-1.774.232-3.08 0-6.735-1.874-10.99-6.131C.954 10.684-.675 6.43.241 3.093c.21-.748.7-1.386 1.366-1.777L3.385.248C4.179-.23 5.208.002 5.72.774zm-1.25.83c-.056-.086-.162-.122-.258-.095l-.056.025L2.37 2.609c-.332.195-.578.515-.68.881-.793 2.886.892 6.699 5.51 11.318 3.864 3.867 7.204 5.692 9.934 5.692.464.002.928-.059 1.364-.177.331-.093.617-.292.821-.575l.082-.126 1.066-1.772c.054-.09.041-.202-.026-.277l-.046-.04L16.15 14.7c-.088-.058-.2-.052-.277.006l-.043.041-1.229 1.581c-.412.542-1.156.778-1.826.484l-.133-.066-.422-.233-.35-.2-.342-.21-.316-.205c-.424-.286-.833-.601-1.281-.99l-.275-.242-.371-.343-.387-.37-.429-.423-.22-.222-.4-.412-.363-.388-.33-.367-.35-.413-.09-.113-.248-.32c-.11-.147-.216-.294-.322-.449l-.16-.24-.209-.335-.202-.343-.306-.553c-.334-.595-.251-1.369.273-1.86l.119-.101 1.59-1.238c.083-.065.113-.174.082-.266l-.025-.053-2.836-4.254z" transform="translate(-1160.000000, -136.000000) translate(501.000000, 128.000000) translate(651.000000, 0.000000) translate(8.000000, 8.000000) translate(1.000000, 1.000000)"/>
                            <path d="M12.547 2.004c4.306.004 7.795 3.493 7.8 7.8 0 .41-.333.741-.743.741s-.742-.332-.742-.741c-.004-3.487-2.83-6.312-6.315-6.316-.41 0-.742-.332-.742-.742 0-.329.214-.612.53-.71l.108-.025.104-.007zm0 2.352c3.007.004 5.443 2.44 5.447 5.447 0 .41-.332.742-.742.742s-.742-.332-.742-.741c-.003-2.188-1.776-3.961-3.963-3.964-.41 0-.742-.332-.742-.742 0-.328.214-.612.53-.709l.108-.025.104-.008zm0 2.353c1.708.002 3.092 1.386 3.094 3.094 0 .41-.332.742-.742.742-.375 0-.686-.279-.735-.64l-.007-.101c0-.84-.644-1.53-1.464-1.604l-.146-.007c-.41 0-.742-.332-.742-.742 0-.329.214-.612.53-.71l.108-.025.104-.007z" transform="translate(-1160.000000, -136.000000) translate(501.000000, 128.000000) translate(651.000000, 0.000000) translate(8.000000, 8.000000) translate(1.000000, 1.000000)"/>
                        </g>
                    </g>
                </g>
            </g>
        </g>
    </g>
</svg>
