<svg xmlns="http://www.w3.org/2000/svg" width="16" height="16" viewBox="0 0 16 16">
    <g fill="none" fill-rule="evenodd">
        <g fill="#4C4E51">
            <g>
                <g>
                    <g>
                        <g>
                            <g>
                                <path d="M16 14V2h-4.29l-1-1H5.29l-1 1H0v12h16zm-1-1H1V3h3.71l1-1h4.58l1 1H15v10zm-7-1c.552 0 1.072-.104 1.559-.313.487-.208.911-.493 1.273-.855.362-.362.647-.786.855-1.273C11.896 9.072 12 8.552 12 8s-.104-1.072-.313-1.559c-.208-.487-.493-.911-.855-1.273-.362-.362-.786-.647-1.273-.856C9.072 4.104 8.552 4 8 4s-1.072.104-1.559.313c-.487.208-.911.493-1.273.855-.362.362-.647.786-.856 1.273C4.104 6.928 4 7.448 4 8s.104 1.072.313 1.559c.208.487.493.911.855 1.273.362.362.786.647 1.273.855C6.928 11.896 7.448 12 8 12zM2.5 5c.135 0 .253-.05.352-.148.099-.1.148-.217.148-.352 0-.135-.05-.253-.148-.352C2.752 4.05 2.635 4 2.5 4c-.135 0-.253.05-.352.148-.099.1-.148.217-.148.352 0 .135.05.253.148.352.1.099.217.148.352.148zM8 11c-.411 0-.8-.08-1.164-.238-.365-.16-.682-.374-.953-.645-.271-.27-.486-.588-.645-.953C5.08 8.8 5 8.411 5 8c0-.411.08-.8.238-1.164.16-.365.374-.682.645-.953.27-.271.588-.486.953-.645C7.2 5.08 7.589 5 8 5c.411 0 .8.08 1.164.238.365.16.682.374.953.645.271.27.486.588.645.953C10.92 7.2 11 7.589 11 8c0 .411-.08.8-.238 1.164-.16.365-.374.682-.645.953-.27.271-.588.486-.953.645C8.8 10.92 8.411 11 8 11z" transform="translate(-105 -353) translate(35 128) translate(0 194) translate(10) translate(60) translate(0 31)"/>
                            </g>
                        </g>
                    </g>
                </g>
            </g>
        </g>
    </g>
</svg>
