<svg xmlns="http://www.w3.org/2000/svg" width="32" height="32" viewBox="0 0 32 32">
    <g fill="none" fill-rule="evenodd">
        <g fill="#0064ad" fill-rule="nonzero">
            <g>
                <g>
                    <path d="M26.666 4c.642 0 1.191.224 1.648.673.402.395.628.86.676 1.395l-.005-.047c.506.061.95.28 1.33.652.406.4.631.87.677 1.412l.008.207v17.416c0 .63-.229 1.17-.686 1.619-.406.399-.885.62-1.437.665l-.21.008H5.333c-.641 0-1.19-.224-1.648-.673-.39-.383-.613-.833-.67-1.348l.013.003c-.512-.06-.96-.28-1.343-.655-.406-.4-.631-.87-.677-1.412L1 23.708V6.292c0-.63.228-1.17.685-1.619.407-.399.886-.62 1.438-.665L3.333 4h23.333zm2.335 3.036L29 23.708c0 .63-.229 1.17-.686 1.619-.406.399-.885.62-1.437.665l-.21.008H4.03c.05.23.166.427.356.613.231.228.483.35.79.38l.157.007h23.334c.38 0 .677-.122.947-.387.228-.224.349-.464.379-.755l.007-.15V8.292c0-.36-.12-.644-.386-.905-.186-.182-.384-.297-.613-.35zM26.666 5H3.333c-.38 0-.677.122-.947.386-.228.225-.349.464-.379.756L2 6.292v17.416c0 .361.12.644.386.905.231.228.483.35.79.38l.157.007h23.334c.38 0 .677-.122.947-.387.228-.224.349-.464.379-.755l.007-.15V6.292c0-.36-.12-.644-.386-.905-.232-.228-.483-.35-.79-.38L26.666 5zm-7.87 5L25 16.26V23H4v-2.889l4.773-4.815 2.386 2.408L18.795 10zm-.001 1.42l-7.636 7.704-2.387-2.408L5 20.521V22h19v-5.329l-5.205-5.251zM8 8c.833 0 1.542.292 2.125.875S11 10.167 11 11s-.292 1.542-.875 2.125S8.833 14 8 14s-1.542-.292-2.125-.875S5 11.833 5 11s.292-1.542.875-2.125S7.167 8 8 8zm0 1c-.569 0-1.023.187-1.418.582C6.187 9.977 6 10.432 6 11c0 .57.187 1.023.582 1.418.395.395.85.582 1.418.582.569 0 1.023-.187 1.418-.582.395-.395.582-.85.582-1.418 0-.569-.187-1.023-.582-1.418C9.023 9.187 8.568 9 8 9z" transform="translate(-513 -689) translate(501 678) translate(12 11)"/>
                </g>
            </g>
        </g>
    </g>
</svg>
