<svg xmlns="http://www.w3.org/2000/svg" width="24" height="24" viewBox="0 0 24 24">
    <g fill="none" fill-rule="evenodd">
        <g>
            <g>
                <g transform="translate(-525.000000, -914.000000) translate(525.000000, 906.000000) translate(0.000000, 8.000000)">
                    <path fill="#C4E0F3" d="M13.485 1.813l8.603 7.502.167.146c.336.345.545.828.545 1.362V20.9c0 1.05-.806 1.9-1.8 1.9H3c-.994 0-1.8-.85-1.8-1.9V10.823c0-.502.185-.959.486-1.299l.136-.137 8.694-7.573c.87-.686 2.098-.686 2.97-.001z" opacity=".833"/>
                    <rect width="14.4" height="14.4" x="4.8" y="3.6" fill="#FFF" rx="1"/>
                    <path fill="#FFCE55" d="M1.315 10.154l9.479 6.568-.711 6.077L3 22.8c-.994 0-1.8-.85-1.8-1.9V10.823c0-.235.04-.46.115-.669zm21.485.67V20.9c0 1.05-.806 1.9-1.8 1.9h-7.091l-.71-6.078 9.485-6.57c.075.208.116.435.116.671z" opacity=".833"/>
                    <path fill="#FFB602" d="M12.849 14.79l9.573 7.275c-.33.447-.844.735-1.422.735H3c-.578 0-1.093-.288-1.422-.735l9.573-7.275c.47-.406 1.229-.406 1.698 0z"/>
                    <path fill="#4C4E51" d="M7.277 11.472L7.2 8.006c-.002-.113.037-.221.108-.299.07-.077.17-.118.272-.115l.037.002c.28.01 4.52.08 6.001.123.495.013.926.197 1.215.515.215.237.337.53.343.825.008.316-.12.62-.348.835-.27.253-.668.38-1.152.367-1.263-.036-4.43-.072-4.496-.075-.105-.005-.2-.052-.273-.132-.077-.085-.12-.195-.12-.312-.002-.234.17-.416.383-.406.006 0 3.181.037 4.487.074.497.014.752-.177.748-.373-.002-.073-.037-.15-.1-.22-.08-.088-.273-.237-.667-.248-1.166-.033-4.951-.083-5.63-.109h-.027l.058 2.608h.027c.79.015 4.934.049 6.126.082.657.019 1.154-.238 1.478-.764.276-.45.365-1.001.358-1.337-.006-.23-.125-.947-.607-1.478-.356-.393-.828-.6-1.403-.617-1.276-.036-4.93-.086-5.24-.099l-.073-.003c-.105 0-.205-.048-.281-.132-.074-.08-.116-.186-.12-.298-.004-.114.032-.22.102-.3.07-.078.166-.121.269-.12l.089.003c.338.014 3.976.063 5.235.099.79.022 1.446.315 1.95.87.569.627.837 1.505.85 2.097.012.48-.11 1.208-.483 1.816-.323.526-.95 1.146-2.105 1.114-1.583-.045-6.518-.09-6.535-.09-.103-.002-.203-.049-.28-.132-.073-.082-.117-.192-.12-.305z"/>
                </g>
            </g>
        </g>
    </g>
</svg>
