<svg xmlns="http://www.w3.org/2000/svg" width="24" height="24" viewBox="0 0 24 24">
    <g fill-rule="evenodd">
        <g>
            <g>
                <g>
                    <path fill-rule="nonzero" d="M22.122 2.55c.517 0 .958.178 1.326.533.327.316.509.689.545 1.118l.007.163v15.238c0 .5-.184.926-.552 1.282-.327.316-.712.491-1.156.526l-.17.007H1.878c-.517 0-.959-.178-1.326-.533-.327-.316-.509-.689-.545-1.118L0 19.602V4.364c0-.498.184-.925.552-1.28.327-.317.712-.492 1.156-.527l.17-.007h20.244zM1.937 4.05l-.11.002c-.09.007-.147.033-.224.107-.058.056-.082.092-.09.145l-.004.06-.001 15.176.002.1c.006.064.024.101.093.168.069.066.124.096.207.105l.068.004h20.185l.11-.002c.09-.007.147-.033.224-.107.058-.056.082-.092.09-.146l.004-.06.001-15.175-.002-.1c-.006-.064-.024-.1-.094-.168-.068-.066-.123-.096-.206-.105l-.068-.004H1.937zm13.479 3.022l5.726 5.457v6.14H2.693v-3.177l4.56-4.345 1.944 1.851 6.219-5.926zm-.002 1.855l-6.217 5.926-1.944-1.852-3.213 3.062v1.267h15.754v-4.229l-4.38-4.174zM5.95 4.97c.792 0 1.486.284 2.044.838.557.553.842 1.243.842 2.031 0 .789-.285 1.478-.842 2.032-.557.554-1.251.838-2.044.838-.793 0-1.487-.284-2.044-.838-.557-.553-.843-1.243-.843-2.032 0-.788.286-1.478.843-2.032.557-.553 1.25-.837 2.044-.837zm0 1.339c-.437 0-.788.144-1.092.445-.303.302-.448.651-.448 1.085 0 .434.145.783.448 1.085.304.302.655.446 1.092.446.436 0 .787-.144 1.09-.446.305-.302.45-.65.45-1.085 0-.434-.146-.783-.449-1.084-.304-.302-.655-.446-1.091-.446z" transform="translate(-525.000000, -914.000000) translate(517.000000, 906.000000) translate(8.000000, 8.000000)"/>
                </g>
            </g>
        </g>
    </g>
</svg>
