<svg xmlns="http://www.w3.org/2000/svg" width="16" height="16" viewBox="0 0 16 16">
    <g fill="none" fill-rule="evenodd">
        <g fill="#4C4E51">
            <g>
                <g>
                    <g>
                        <g>
                            <path d="M8 0c4.418 0 8 3.582 8 8s-3.582 8-8 8-8-3.582-8-8 3.582-8 8-8zm0 1C4.134 1 1 4.134 1 8s3.134 7 7 7 7-3.134 7-7-3.134-7-7-7zM6 4l6 4-6 4V4zm1 1.869v4.261L10.196 8 7 5.869z" transform="translate(-105 -603) translate(35 128) translate(0 443) translate(70) translate(0 32)"/>
                        </g>
                    </g>
                </g>
            </g>
        </g>
    </g>
</svg>
