<svg xmlns="http://www.w3.org/2000/svg" width="44" height="44" viewBox="0 0 44 44">
    <path fill-rule="evenodd" d="M37.657 30.844A7.967 7.967 0 0 0 40 25.178c0-1.999-.74-3.914-2.08-5.393l-6.666-7.339c-.603-.599-1.628-.6-2.262.03a1.62 1.62 0 0 0-.484 1.158c0 .433.169.842.475 1.149l.076.076a.894.894 0 0 1 0 1.261.888.888 0 0 1-1.24.018l-.01-.007-1.866-1.87a1.63 1.63 0 0 0-2.302 2.306l1.857 1.86a.89.89 0 0 1 .001 1.262.89.89 0 0 1-1.258 0l-3.639-3.645A1.63 1.63 0 0 0 18.3 18.35l3.637 3.643a.89.89 0 0 1 .002 1.263.89.89 0 0 1-1.258 0l-8.906-8.923a1.62 1.62 0 0 0-2.293-.002 1.633 1.633 0 0 0-.01 2.308L22.83 30.02a.894.894 0 0 1-.491 1.51l-8.928 1.406a2.205 2.205 0 0 0-1.892 2.172c0 .492.399.892.89.892h16.785a7.95 7.95 0 0 0 5.664-2.35l2.8-2.806zm-15.686-.268L8.765 17.346a2.634 2.634 0 0 1 1.863-4.489c.69 0 1.356.271 1.854.77l4.525 4.533a2.638 2.638 0 0 1 .597-2.823 2.622 2.622 0 0 1 3.706 0l1.037 1.04a2.638 2.638 0 0 1 .597-2.823 2.622 2.622 0 0 1 3.706 0l1.039 1.04a2.624 2.624 0 0 1 .597-2.826 2.626 2.626 0 0 1 3.709.006l6.665 7.34A9.016 9.016 0 0 1 41 25.177a8.966 8.966 0 0 1-2.635 6.373l-2.8 2.805A8.95 8.95 0 0 1 29.193 37H12.408a1.891 1.891 0 0 1-1.89-1.892 3.202 3.202 0 0 1 2.737-3.16l8.716-1.372zM9.5 8A6.5 6.5 0 0 0 7 20.502c.32.176.463.41.426.705-.036.293-.179.415-.426.366A7.5 7.5 0 1 1 16.573 12c.008.24-.15.359-.473.359-.322 0-.522-.12-.598-.359A6.502 6.502 0 0 0 9.5 8z"/>
</svg>
