<svg width="16" height="16" viewBox="0 0 16 16" xmlns="http://www.w3.org/2000/svg">
    <path d="M14 6.25V1.875H8.75V6.25H14zM4.402 4.5a4.44 4.44 0 0 1 1.227-.65 4.207 4.207 0 0 1 1.809-.201c.145.016.291.038.437.065v-.889a7.166 7.166 0 0 0-.438-.054 5.162 5.162 0 0 0-2.577.434A5.206 5.206 0 0 0 3.097 4.5h1.305zm8.723.875h-3.5V2.75h3.5v2.625zM5.25 9.75V5.375H0V9.75h5.25zm-.875-.875h-3.5V6.25h3.5v2.625zm7.8 0c.023-.146.04-.292.054-.438a4.685 4.685 0 0 0 0-.874 7.166 7.166 0 0 0-.054-.438h-.889c.027.146.05.292.065.438a4.02 4.02 0 0 1 0 .875 5.788 5.788 0 0 1-.065.437h.889zM14 14.125V9.75H8.75v4.375H14zm-7-.875c.146 0 .292-.007.438-.02.145-.014.291-.032.437-.055v-.889a5.788 5.788 0 0 1-.438.065 4.24 4.24 0 0 1-1.442-.096 4.382 4.382 0 0 1-2.474-1.63H2.46c.232.406.513.77.84 1.094.329.323.689.599 1.08.827A5.209 5.209 0 0 0 7 13.25zm6.125 0h-3.5v-2.625h3.5v2.625z" fill="#FFF" fill-rule="nonzero"/>
</svg>
