<svg width="50" height="50" viewBox="0 0 50 50" xmlns="http://www.w3.org/2000/svg">
<path d="M24.9678 4.23612C25.3932 4.23612 25.7381 3.89128 25.7381 3.4659C25.7381 3.04052 25.3932 2.69568 24.9678 2.69568C24.5425 2.69568 24.1976 3.04052 24.1976 3.4659C24.1976 3.89128 24.5425 4.23612 24.9678 4.23612Z"/>
<path fill-rule="evenodd" clip-rule="evenodd" d="M32.7985 5.77664H41.7844C42.1053 5.77664 42.4262 6.09756 42.4262 6.41849V49.3582C42.4262 49.7433 42.1695 50 41.7844 50H8.2157C7.83059 50 7.57385 49.7433 7.57385 49.3582V6.41849C7.57385 6.03338 7.83059 5.77664 8.2157 5.77664H17.009V4.55713C17.009 4.17202 17.2658 3.91528 17.6509 3.91528H21.2452V3.65854C21.2452 1.60462 22.914 0 24.9038 0C26.9577 0 28.5623 1.66881 28.5623 3.65854V3.91528H32.1567C32.5418 3.91528 32.7985 4.17202 32.7985 4.55713V5.77664ZM22.0154 5.19897H18.4211V8.21566H31.5148V5.19897H28.0488C27.6637 5.19897 27.407 4.94223 27.407 4.55713V3.65854C27.407 2.31065 26.3158 1.2837 25.0321 1.2837C23.6842 1.2837 22.6573 2.37484 22.6573 3.65854V4.55713C22.6573 4.94223 22.4006 5.19897 22.0154 5.19897ZM17.1374 7.06033H11.7459H8.85755V48.7163H41.1425V7.06033H32.7985V8.85751C32.7985 9.24262 32.5418 9.49936 32.1567 9.49936H17.7792C17.3941 9.49936 17.1374 9.24262 17.1374 8.85751V7.06033Z"/>
<path d="M35.36 42H14.64C14.2865 42 14 42.2865 14 42.64C14 42.9935 14.2865 43.28 14.64 43.28H35.36C35.7135 43.28 36 42.9935 36 42.64C36 42.2865 35.7135 42 35.36 42Z"/>
<path d="M35.36 35H14.64C14.2865 35 14 35.2865 14 35.64C14 35.9935 14.2865 36.28 14.64 36.28H35.36C35.7135 36.28 36 35.9935 36 35.64C36 35.2865 35.7135 35 35.36 35Z"/>
<path d="M35.36 28H14.64C14.2865 28 14 28.2865 14 28.64C14 28.9935 14.2865 29.28 14.64 29.28H35.36C35.7135 29.28 36 28.9935 36 28.64C36 28.2865 35.7135 28 35.36 28Z"/>
<path d="M35.36 21H14.64C14.2865 21 14 21.2865 14 21.64C14 21.9935 14.2865 22.28 14.64 22.28H35.36C35.7135 22.28 36 21.9935 36 21.64C36 21.2865 35.7135 21 35.36 21Z"/>
<path d="M35.36 14H14.64C14.2865 14 14 14.2865 14 14.64C14 14.9935 14.2865 15.28 14.64 15.28H35.36C35.7135 15.28 36 14.9935 36 14.64C36 14.2865 35.7135 14 35.36 14Z"/>
</svg>
