<svg width="50" height="50" viewBox="0 0 50 50" xmlns="http://www.w3.org/2000/svg">
<path d="M35.0947 28H14.9053C14.3621 28 14 28.2 14 28.5C14 28.8 14.3621 29 14.9053 29H35.0947C35.6379 29 36 28.8 36 28.5C36 28.2 35.6379 28 35.0947 28Z"/>
<path d="M35.0947 33H14.9053C14.3621 33 14 33.2 14 33.5C14 33.8 14.3621 34 14.9053 34H35.0947C35.6379 34 36 33.8 36 33.5C36 33.2 35.6379 33 35.0947 33Z"/>
<path d="M35.0947 38H14.9053C14.3621 38 14 38.2 14 38.5C14 38.8 14.3621 39 14.9053 39H35.0947C35.6379 39 36 38.8 36 38.5C36 38.2 35.6379 38 35.0947 38Z"/>
<path d="M35.0947 43H14.9053C14.3621 43 14 43.2 14 43.5C14 43.8 14.3621 44 14.9053 44H35.0947C35.6379 44 36 43.8 36 43.5C36 43.2 35.6379 43 35.0947 43Z"/>
<path d="M24.9678 4.23612C25.3932 4.23612 25.7381 3.89128 25.7381 3.4659C25.7381 3.04052 25.3932 2.69568 24.9678 2.69568C24.5425 2.69568 24.1976 3.04052 24.1976 3.4659C24.1976 3.89128 24.5425 4.23612 24.9678 4.23612Z"/>
<path fill-rule="evenodd" clip-rule="evenodd" d="M32.7985 5.77664H41.7844C42.1053 5.77664 42.4262 6.09756 42.4262 6.41849V49.3582C42.4262 49.7433 42.1695 50 41.7844 50H8.2157C7.83059 50 7.57385 49.7433 7.57385 49.3582V6.41849C7.57385 6.03338 7.83059 5.77664 8.2157 5.77664H17.009V4.55713C17.009 4.17202 17.2658 3.91528 17.6509 3.91528H21.2452V3.65854C21.2452 1.60462 22.914 0 24.9038 0C26.9577 0 28.5623 1.66881 28.5623 3.65854V3.91528H32.1567C32.5418 3.91528 32.7985 4.17202 32.7985 4.55713V5.77664ZM22.0154 5.19897H18.4211V8.21566H31.5148V5.19897H28.0488C27.6637 5.19897 27.407 4.94223 27.407 4.55713V3.65854C27.407 2.31065 26.3158 1.2837 25.0321 1.2837C23.6842 1.2837 22.6573 2.37484 22.6573 3.65854V4.55713C22.6573 4.94223 22.4006 5.19897 22.0154 5.19897ZM17.1374 7.06033H11.7459H8.85755V48.7163H41.1425V7.06033H32.7985V8.85751C32.7985 9.24262 32.5418 9.49936 32.1567 9.49936H17.7792C17.3941 9.49936 17.1374 9.24262 17.1374 8.85751V7.06033Z"/>
<path d="M14.2793 18.5142C13.3949 18.2599 12.7503 17.9484 12.3457 17.5796C11.9447 17.2072 11.7441 16.7489 11.7441 16.2046C11.7441 15.5887 11.9894 15.0802 12.48 14.6792C12.9741 14.2746 13.6151 14.0723 14.4028 14.0723C14.9399 14.0723 15.418 14.1761 15.8369 14.3838C16.2594 14.5915 16.5853 14.8779 16.8145 15.2432C17.0472 15.6084 17.1636 16.0076 17.1636 16.4409H16.127C16.127 15.9683 15.9766 15.5977 15.6758 15.3291C15.375 15.057 14.9507 14.9209 14.4028 14.9209C13.8944 14.9209 13.4969 15.0337 13.2104 15.2593C12.9276 15.4813 12.7861 15.791 12.7861 16.1885C12.7861 16.5072 12.9204 16.7775 13.189 16.9995C13.4611 17.2179 13.9212 17.4185 14.5693 17.6011C15.221 17.7837 15.7295 17.986 16.0947 18.208C16.4635 18.4264 16.7357 18.6825 16.9111 18.9761C17.0902 19.2697 17.1797 19.6152 17.1797 20.0127C17.1797 20.6465 16.9326 21.1549 16.4385 21.5381C15.9443 21.9176 15.2837 22.1074 14.4565 22.1074C13.9194 22.1074 13.4181 22.0054 12.9526 21.8013C12.4871 21.5936 12.1273 21.3107 11.873 20.9526C11.6224 20.5946 11.4971 20.1882 11.4971 19.7334H12.5337C12.5337 20.2061 12.7074 20.5802 13.0547 20.856C13.4056 21.1281 13.8729 21.2642 14.4565 21.2642C15.0008 21.2642 15.418 21.1532 15.708 20.9312C15.998 20.7091 16.1431 20.4066 16.1431 20.0234C16.1431 19.6403 16.0088 19.3449 15.7402 19.1372C15.4717 18.9259 14.9847 18.7183 14.2793 18.5142ZM18.5063 22V14.1797H20.7139C21.3942 14.1797 21.9958 14.3301 22.5186 14.6309C23.0413 14.9316 23.4442 15.3595 23.7271 15.9146C24.0135 16.4696 24.1585 17.1069 24.1621 17.8267V18.3262C24.1621 19.0638 24.0189 19.7101 23.7324 20.2651C23.4495 20.8201 23.0431 21.2463 22.5132 21.5435C21.9868 21.8407 21.3727 21.9928 20.6709 22H18.5063ZM19.5376 15.0283V21.1567H20.6226C21.4175 21.1567 22.0352 20.9097 22.4756 20.4155C22.9196 19.9214 23.1416 19.2178 23.1416 18.3047V17.8481C23.1416 16.9601 22.9321 16.2708 22.5132 15.7803C22.0978 15.2861 21.507 15.0355 20.7407 15.0283H19.5376ZM25.3062 19.0405C25.3062 18.4712 25.4172 17.9591 25.6392 17.5044C25.8647 17.0496 26.1763 16.6987 26.5737 16.4517C26.9748 16.2046 27.4313 16.0811 27.9434 16.0811C28.7347 16.0811 29.3739 16.355 29.8608 16.9028C30.3514 17.4507 30.5967 18.1794 30.5967 19.0889V19.1587C30.5967 19.7244 30.4875 20.2329 30.269 20.6841C30.0542 21.1317 29.7445 21.4808 29.3398 21.7314C28.9388 21.9821 28.4769 22.1074 27.9541 22.1074C27.1663 22.1074 26.5272 21.8335 26.0366 21.2856C25.5496 20.7378 25.3062 20.0127 25.3062 19.1104V19.0405ZM26.3052 19.1587C26.3052 19.8032 26.4538 20.3206 26.751 20.7109C27.0518 21.1012 27.4528 21.2964 27.9541 21.2964C28.459 21.2964 28.86 21.0994 29.1572 20.7056C29.4544 20.3081 29.603 19.7531 29.603 19.0405C29.603 18.4032 29.4508 17.8875 29.1465 17.4937C28.8457 17.0962 28.4447 16.8975 27.9434 16.8975C27.4528 16.8975 27.0571 17.0926 26.7563 17.4829C26.4556 17.8732 26.3052 18.4318 26.3052 19.1587ZM38.0088 22H36.9722V18.3853H33.0298V22H31.9985V14.1797H33.0298V17.542H36.9722V14.1797H38.0088V22Z"/>
</svg>
