<svg width="24" height="24" xmlns="http://www.w3.org/2000/svg">
    <path d="M12 22a9.85 9.85 0 0 0 2.656-.356c.853-.238 1.65-.573 2.393-1.006a9.93 9.93 0 0 0 2.026-1.563 9.93 9.93 0 0 0 1.563-2.026c.433-.742.768-1.54 1.006-2.393A9.85 9.85 0 0 0 22 12a9.85 9.85 0 0 0-.356-2.656 10.113 10.113 0 0 0-1.006-2.393 9.93 9.93 0 0 0-1.563-2.026 9.93 9.93 0 0 0-2.026-1.563 10.113 10.113 0 0 0-2.393-1.006A9.85 9.85 0 0 0 12 2c-.911 0-1.797.12-2.656.361-.86.241-1.669.585-2.427 1.03a9.966 9.966 0 0 0-2.075 1.627A9.691 9.691 0 0 0 3.25 7.176V4.5H2v5h5V8.25H4.1a8.437 8.437 0 0 1 1.367-2.065 8.938 8.938 0 0 1 1.86-1.578 8.732 8.732 0 0 1 6.992-1.045 8.75 8.75 0 0 1 3.863 2.256 8.75 8.75 0 0 1 2.256 3.862c.208.746.312 1.52.312 2.32a8.56 8.56 0 0 1-.313 2.324 8.772 8.772 0 0 1-2.255 3.858 8.75 8.75 0 0 1-3.862 2.256 8.576 8.576 0 0 1-2.32.312 8.505 8.505 0 0 1-2.822-.474 8.848 8.848 0 0 1-2.471-1.323 8.922 8.922 0 0 1-1.929-2.026 8.472 8.472 0 0 1-1.206-2.593l-1.2.332a9.58 9.58 0 0 0 1.371 2.969 10.062 10.062 0 0 0 5.03 3.828A9.775 9.775 0 0 0 12 22z" fill="#0064ad" fill-rule="nonzero"/>
</svg>
