<svg width="44px" height="44px" viewBox="0 0 44 44" version="1.1" xmlns="http://www.w3.org/2000/svg" xmlns:xlink="http://www.w3.org/1999/xlink">
    <path d="M32.2843842,5.5 C34.1298552,5.5 36.1558838,6.86555255 36.855855,8.58034589 L36.855855,8.58034589 L38.888,13.558 L40.5796023,13.0907017 C40.7520994,13.0427604 40.9260955,13.0124344 41.0989488,13.0002676 L41.0989488,13.0002676 L41.2713235,12.9941742 C42.5557312,12.9941742 43.5,13.9933763 43.5,15.3234227 L43.5,15.3234227 L43.5,16.5798417 C43.5,17.9246282 42.5324208,19.0467234 41.258669,19.2794756 L41.258669,19.2794756 L41.226,19.284 L41.3167302,19.504659 C41.8803558,20.8848142 42.3394581,23.1250619 42.3981667,24.7171813 L42.3981667,24.7171813 L42.4045109,25.0478798 L42.4045109,35.756074 C42.4045109,37.2690146 41.1800416,38.5 39.6724629,38.5 L39.6724629,38.5 L36.7574083,38.5 C35.2498296,38.5 34.0253603,37.2690146 34.0253603,35.756074 L34.0253603,35.756074 L34.025,33.581 L9.945,33.581 L9.94535521,35.756074 C9.94535521,37.2129798 8.80990772,38.4084291 7.37960312,38.4949824 L7.37960312,38.4949824 L7.21330726,38.5 L4.29807406,38.5 C2.79061851,38.5 1.5660261,37.2689588 1.5660261,35.756074 L1.5660261,35.756074 L1.5660261,25.0478798 C1.5660261,23.4495208 2.04984085,20.9836145 2.65361045,19.5047024 L2.65361045,19.5047024 L2.745,19.28 C1.52055758,19.0564321 0.581155322,18.0166386 0.504991142,16.7467377 L0.504991142,16.7467377 L0.5,16.5798417 L0.5,15.3234227 C0.5,13.9934352 1.4443931,12.9941742 2.7286765,12.9941742 C2.95716364,12.9941742 3.18987532,13.0268432 3.41978496,13.0905812 L3.41978496,13.0905812 L5.084,13.551 L7.11448035,8.58040231 C7.78857045,6.92901275 9.69213656,5.60162728 11.4802432,5.50556771 L11.4802432,5.50556771 L11.6859742,5.5 Z M32.2843842,6.5 L11.6859742,6.5 C10.2472974,6.5 8.58698742,7.61909011 8.04028999,8.9583924 L8.04028999,8.9583924 L5.67414416,14.7525795 L3.15275409,14.0542692 C3.0083891,14.0142468 2.8654057,13.9941742 2.7286765,13.9941742 C2.00970008,13.9941742 1.5,14.5334871 1.5,15.3234227 L1.5,15.3234227 L1.5,16.5798417 C1.5,17.5416822 2.2779456,18.3237677 3.23204796,18.3237677 L3.23204796,18.3237677 L4.21588074,18.3237677 L3.57942651,19.8826768 C3.02465413,21.2415719 2.5660261,23.5791066 2.5660261,25.0478798 L2.5660261,25.0478798 L2.5660261,35.756074 C2.5660261,36.7178464 3.34408242,37.5 4.29807406,37.5 L4.29807406,37.5 L7.21330726,37.5 C8.16740961,37.5 8.94535521,36.7179145 8.94535521,35.756074 L8.94535521,35.756074 L8.94535521,32.5818528 L35.0253603,32.5818528 L35.0253603,35.756074 C35.0253603,36.7179145 35.8033059,37.5 36.7574083,37.5 L36.7574083,37.5 L39.6724629,37.5 C40.6265653,37.5 41.4045109,36.7179145 41.4045109,35.756074 L41.4045109,35.756074 L41.4045109,25.0478798 C41.4045109,23.5790953 40.9458109,21.2414143 40.3909345,19.8826833 L40.3909345,19.8826833 L39.7544777,18.3237677 L40.767952,18.3237677 C41.7219437,18.3237677 42.5,17.5416141 42.5,16.5798417 L42.5,16.5798417 L42.5,15.3234227 C42.5,14.533413 41.990407,13.9941742 41.2713235,13.9941742 C41.1340348,13.9941742 40.9913433,14.0141714 40.8469419,14.054304 L40.8469419,14.054304 L38.2990604,14.7599408 L35.9300409,8.95832504 C35.3833954,7.61914995 33.7229469,6.5 32.2843842,6.5 L32.2843842,6.5 Z M13.5194677,23.4681026 C14.2420924,23.4681026 14.8382599,24.0247091 14.9058968,24.7314908 L14.9122869,24.865673 L14.9122869,27.9172328 C14.9122869,28.6411987 14.3586267,29.2403915 13.6533798,29.3083797 L13.5194677,29.3148032 L7.19473662,29.3148032 C6.47211194,29.3148032 5.8759444,28.7581966 5.80830748,28.051415 L5.80191744,27.9172328 L5.80191744,24.865673 C5.80191744,24.1417071 6.35557764,23.5425143 7.06082457,23.4745261 L7.19473662,23.4681026 L13.5194677,23.4681026 Z M36.7159815,23.4681026 C37.4386061,23.4681026 38.0347737,24.0247091 38.1024106,24.7314908 L38.1088006,24.865673 L38.1088006,27.9172328 C38.1088006,28.6411987 37.5551404,29.2403915 36.8498935,29.3083797 L36.7159815,29.3148032 L30.3914289,29.3148032 C29.6688043,29.3148032 29.0726367,28.7581966 29.0049998,28.051415 L28.9986098,27.9172328 L28.9986098,24.865673 C28.9986098,24.1417071 29.55227,23.5425143 30.2575169,23.4745261 L30.3914289,23.4681026 L36.7159815,23.4681026 Z M13.5194677,24.4681026 L7.19473662,24.4681026 C7.00721329,24.4681026 6.8471036,24.6054992 6.81000623,24.7859674 L6.80191744,24.865673 L6.80191744,27.9172328 C6.80191744,28.1080822 6.93858671,28.269335 7.11632658,28.3066661 L7.19473662,28.3148032 L13.5194677,28.3148032 C13.706991,28.3148032 13.8671007,28.1774066 13.9041981,27.9969384 L13.9122869,27.9172328 L13.9122869,24.865673 C13.9122869,24.6748235 13.7756176,24.5135708 13.5978778,24.4762396 L13.5194677,24.4681026 Z M36.7159815,24.4681026 L30.3914289,24.4681026 C30.2039056,24.4681026 30.0437959,24.6054992 30.0066985,24.7859674 L29.9986098,24.865673 L29.9986098,27.9172328 C29.9986098,28.1080822 30.135279,28.269335 30.3130189,28.3066661 L30.3914289,28.3148032 L36.7159815,28.3148032 C36.9035048,28.3148032 37.0636145,28.1774066 37.1007119,27.9969384 L37.1088006,27.9172328 L37.1088006,24.865673 C37.1088006,24.6748235 36.9721314,24.5135708 36.7943915,24.4762396 L36.7159815,24.4681026 Z M31.1976447,7.79119147 C32.1797458,7.79119147 33.2884486,8.53850857 33.6612899,9.4518762 L36.9906126,17.6048671 C37.3636325,18.5182347 36.8652608,19.2655518 35.8831597,19.2655518 L8.0875558,19.2655518 C7.1054547,19.2655518 6.60708303,18.5182347 6.97992432,17.6048671 L10.3092471,9.4518762 C10.6822669,8.53850857 11.7909698,7.79119147 12.7730709,7.79119147 L31.1976447,7.79119147 Z M31.1976447,8.79119147 L12.7730709,8.79119147 C12.2389535,8.79119147 11.5599815,9.22312598 11.2898586,9.71541799 L11.2350323,9.82992614 L7.90575843,17.9827972 L7.85843952,18.1109893 C7.82275804,18.2319513 7.85968225,18.2595667 8.01406812,18.2645805 L35.8831597,18.2655518 C36.1259576,18.2655518 36.1639619,18.2449713 36.0925522,18.0533369 L32.7354558,9.82980637 C32.5316426,9.33051518 31.8763279,8.86293866 31.3232189,8.79868942 L31.1976447,8.79119147 Z" id="Combined-Shape" fill="#BFBDBD" fill-rule="nonzero"></path>
</svg>