<svg xmlns="http://www.w3.org/2000/svg" viewBox="0 0 213 540">
    <g fill="none" fill-rule="evenodd" opacity=".05">
        <g fill="#FFF">
            <g>
                <path d="M548.725 36.073c2.062-.94 4.5-.076 5.491 1.943 4.085 8.331 15.925 30.717 40.633 65.491 32.132 45.23 63.337 55.698 95.652 55.925 32.315-.227 63.52-10.695 95.653-55.925 24.706-34.774 36.544-57.16 40.629-65.49.992-2.02 3.432-2.883 5.494-1.942l39.298 17.917c1.775.812 2.78 2.752 2.31 4.634-3.12 12.468-17.567 24.16-52.114 91.784-33.085 64.777-51.174 123.326-31.923 204.728 19.616 82.957 49.542 146.552 60.818 179.421.914 2.672-1.083 5.441-3.941 5.441h-56.33c-1.709 0-3.249-1.034-3.862-2.613-5.221-13.228-30.227-73.514-46.737-107.944-16.758-34.946-30.344-59.39-44.153-65.161-3.288-1.374-6.982-1.374-10.27 0-13.822 5.77-27.409 30.215-44.166 65.16-16.51 34.431-41.518 94.717-46.73 107.945-.622 1.579-2.16 2.613-3.875 2.613h-56.32c-2.857 0-4.857-2.77-3.94-5.442 11.272-32.87 41.196-96.463 60.812-179.42 19.249-81.403 1.159-139.951-31.925-204.73-34.536-67.622-48.99-79.314-52.114-91.784-.47-1.88.535-3.821 2.317-4.632zM691.558 0c33.177 0 60.075 27.214 60.075 60.783 0 33.57-26.898 60.784-60.075 60.784-33.176 0-60.075-27.214-60.075-60.784S658.383 0 691.558 0z" transform="translate(-984 -127) translate(477 127)"/>
            </g>
        </g>
    </g>
</svg>
