<svg width="33" height="42" viewBox="0 0 33 42" fill="black" xmlns="http://www.w3.org/2000/svg">
<g clip-path="url(#clip0)">
<path d="M24.3004 24.2465H8.69959C8.27983 24.2465 8 24.4776 8 24.8242C8 25.1708 8.27983 25.4018 8.69959 25.4018H24.3004C24.7202 25.4018 25 25.1708 25 24.8242C25 24.5354 24.7202 24.2465 24.3004 24.2465Z"/>
<path d="M24.3004 28.3479H8.69959C8.27983 28.3479 8 28.579 8 28.9256C8 29.2722 8.27983 29.5032 8.69959 29.5032H24.3004C24.7202 29.5032 25 29.2722 25 28.9256C25 28.579 24.7202 28.3479 24.3004 28.3479Z"/>
<path d="M24.3004 32.3916H8.69959C8.27983 32.3916 8 32.6227 8 32.9693C8 33.3159 8.27983 33.5469 8.69959 33.5469H24.3004C24.7202 33.5469 25 33.3159 25 32.9693C25 32.6804 24.7202 32.3916 24.3004 32.3916Z"/>
<path d="M31.6059 2.19899H23.5186V1.10143C23.5186 0.754827 23.2875 0.523762 22.9409 0.523762H19.706L16.5 0.523782L13.1206 0.523762H9.88573C9.53913 0.523762 9.30806 0.754827 9.30806 1.10143V2.19899H1.39407C1.04747 2.19899 0.816406 2.43005 0.816406 2.77665V41.4224C0.816406 41.769 1.04747 42 1.39407 42H31.6059C31.9525 42 32.1835 41.769 32.1835 41.4224V2.77665C32.1835 2.48782 31.8947 2.19899 31.6059 2.19899ZM10.5789 1.67909H13.8138H16.5H16.4133H19.2439H22.3633V4.39411H10.5789V1.67909ZM1.97173 3.35431H9.42359V4.97177C9.42359 5.31837 9.65466 5.54944 10.0013 5.54944H22.9409C23.2875 5.54944 23.5186 5.31837 23.5186 4.97177V3.35431H31.0282V40.8447H16.5H1.97173V3.35431ZM31.0282 40.8447H1.97173C1.62514 40.8447 1.97173 41.1913 1.97173 40.8447H16.5H27.7188H31.0282Z"/>
<path d="M8.55859 16.0615C8.55859 16.6963 8.3291 17.1943 7.87012 17.5557C7.41113 17.917 6.77799 18.0977 5.9707 18.0977C5.16341 18.0977 4.5026 17.9723 3.98828 17.7217V16.6182C4.3138 16.7712 4.65885 16.8916 5.02344 16.9795C5.39128 17.0674 5.73307 17.1113 6.04883 17.1113C6.51107 17.1113 6.85124 17.0234 7.06934 16.8477C7.29069 16.6719 7.40137 16.4359 7.40137 16.1396C7.40137 15.8727 7.30046 15.6465 7.09863 15.4609C6.89681 15.2754 6.48014 15.0557 5.84863 14.8018C5.19759 14.5381 4.73861 14.237 4.47168 13.8984C4.20475 13.5599 4.07129 13.153 4.07129 12.6777C4.07129 12.082 4.28288 11.6133 4.70605 11.2715C5.12923 10.9297 5.69727 10.7588 6.41016 10.7588C7.09375 10.7588 7.77409 10.9085 8.45117 11.208L8.08008 12.1602C7.44531 11.8932 6.87891 11.7598 6.38086 11.7598C6.00326 11.7598 5.7168 11.8428 5.52148 12.0088C5.32617 12.1715 5.22852 12.388 5.22852 12.6582C5.22852 12.8438 5.26758 13.0033 5.3457 13.1367C5.42383 13.2669 5.55241 13.3906 5.73145 13.5078C5.91048 13.625 6.23275 13.7796 6.69824 13.9717C7.22233 14.1898 7.60645 14.3932 7.85059 14.582C8.09473 14.7708 8.27376 14.984 8.3877 15.2217C8.50163 15.4593 8.55859 15.7393 8.55859 16.0615ZM15.7461 14.3623C15.7461 15.5407 15.4189 16.4424 14.7646 17.0674C14.1104 17.6891 13.168 18 11.9375 18H9.94043V10.8613H12.1475C13.2835 10.8613 14.1673 11.1673 14.7988 11.7793C15.4303 12.3913 15.7461 13.2523 15.7461 14.3623ZM14.5156 14.4014C14.5156 12.6924 13.7165 11.8379 12.1182 11.8379H11.1074V17.0186H11.9375C13.6562 17.0186 14.5156 16.1462 14.5156 14.4014ZM21.9521 15.29C21.9521 16.1722 21.7259 16.8607 21.2734 17.3555C20.821 17.8503 20.1911 18.0977 19.3838 18.0977C18.8792 18.0977 18.4333 17.9837 18.0459 17.7559C17.6585 17.528 17.3607 17.2008 17.1523 16.7744C16.944 16.348 16.8398 15.8532 16.8398 15.29C16.8398 14.4144 17.0645 13.7308 17.5137 13.2393C17.9629 12.7477 18.596 12.502 19.4131 12.502C20.1943 12.502 20.8128 12.7542 21.2686 13.2588C21.7243 13.7601 21.9521 14.4372 21.9521 15.29ZM18.0215 15.29C18.0215 16.5368 18.4821 17.1602 19.4033 17.1602C20.3148 17.1602 20.7705 16.5368 20.7705 15.29C20.7705 14.0563 20.3115 13.4395 19.3936 13.4395C18.9118 13.4395 18.5618 13.599 18.3438 13.918C18.1289 14.237 18.0215 14.6943 18.0215 15.29ZM29.0273 18H27.8555V14.7822H24.5645V18H23.3975V10.8613H24.5645V13.7812H27.8555V10.8613H29.0273V18Z"/>
</g>
<defs>
<clipPath id="clip0">
<rect width="33" height="42" fill="white"/>
</clipPath>
</defs>
</svg>
