<svg xmlns="http://www.w3.org/2000/svg" width="32" height="32" viewBox="0 0 32 32">
    <g fill="none" fill-rule="evenodd">
        <g fill="#BFBDBD">
            <g>
                <g>
                    <path d="M2.396 2.05l.123.048 27.795 12.828c.378.176.62.554.62.97 0 .376-.196.72-.512.913l-.11.059L2.517 29.696c-.144.066-.295.098-.447.098-.315 0-.625-.138-.832-.397-.28-.344-.314-.824-.096-1.203l.073-.11 9.14-12.187L1.215 3.71c-.296-.391-.285-.932.025-1.313.28-.346.742-.476 1.156-.346zm26.548 14.347H11.228l-9.215 12.29c-.018.023-.017.057.005.084.012.015.03.023.052.023l.014-.001 26.86-12.396zM2.042 3.007l-.024.019c-.015.018-.02.038-.016.057l.013.027 9.215 12.287h17.719L2.105 3.008c-.02-.01-.044-.009-.063 0z" transform="translate(-1212 -689) translate(501 678) translate(711 11)"/>
                </g>
            </g>
        </g>
    </g>
</svg>
