<svg xmlns="http://www.w3.org/2000/svg" width="24" height="24" viewBox="0 0 24 24">
    <g fill-rule="evenodd">
        <g>
            <g>
                <g>
                    <path fill-rule="nonzero" d="M1.12 1.04l.098.036 22.285 10.155c.303.139.497.438.497.768 0 .297-.157.57-.41.722l-.089.047L1.216 22.922c-.115.053-.237.078-.358.078-.252 0-.5-.11-.667-.315-.225-.272-.252-.652-.077-.952l.058-.087L7.5 12 .172 2.352c-.237-.31-.228-.738.02-1.039.225-.274.595-.377.927-.274zm18.805 11.71H8.813l-5.886 7.744 16.998-7.744zM2.927 3.5l5.888 7.75H19.93L2.927 3.5z" transform="translate(-1212.000000, -914.000000) translate(501.000000, 899.000000) translate(711.000000, 15.000000)"/>
                </g>
            </g>
        </g>
    </g>
</svg>
