<svg xmlns="http://www.w3.org/2000/svg" width="24" height="24" viewBox="0 0 24 24">
    <g fill="none" fill-rule="evenodd">
        <g>
            <g>
                <g>
                    <g fill-rule="nonzero">
                        <path fill="#C4E0F3" d="M0 0L0 7.654 9.188 12 24 12z" transform="translate(-1213.000000, -914.000000) translate(501.000000, 899.000000) translate(712.000000, 15.000000)"/>
                        <path fill="#7DBAE2" d="M24 12L9.188 12 0 16.346 0 24z" transform="translate(-1213.000000, -914.000000) translate(501.000000, 899.000000) translate(712.000000, 15.000000)"/>
                        <path fill="#3B97D3" d="M2.671 12L0 16.006 0 16.346 24 12 9.188 11.063z" transform="translate(-1213.000000, -914.000000) translate(501.000000, 899.000000) translate(712.000000, 15.000000)"/>
                        <path fill="#7DBAE2" d="M0 7.654L0 7.994 2.671 12 24 12z" transform="translate(-1213.000000, -914.000000) translate(501.000000, 899.000000) translate(712.000000, 15.000000)"/>
                    </g>
                </g>
            </g>
        </g>
    </g>
</svg>
