<svg xmlns="http://www.w3.org/2000/svg" width="44" height="44" viewBox="0 0 44 44">
    <path fill-rule="evenodd" d="M30.355 28.848a7.187 7.187 0 0 1 1.392-2.42l.099-.1a7.248 7.248 0 0 1 2.48-1.408c.406-.112.78-.32 1.086-.606.09-.402.083-.827-.031-1.276a7.302 7.302 0 0 1 0-2.816l.036-.135a7.135 7.135 0 0 1 1.425-2.421c.306-.31.53-.689.65-1.104a2.725 2.725 0 0 0-.691-1.147 7.077 7.077 0 0 1-1.384-2.378l-.037-.136a7.348 7.348 0 0 1 .014-2.875c.103-.4.11-.818.018-1.218a2.72 2.72 0 0 0-1.142-.624 7.198 7.198 0 0 1-2.423-1.39l-.099-.1a7.244 7.244 0 0 1-1.41-2.476 2.606 2.606 0 0 0-.607-1.086 2.71 2.71 0 0 0-1.28.032 7.356 7.356 0 0 1-2.816 0l-.136-.037a7.145 7.145 0 0 1-2.423-1.422c-.31-.307-.69-.53-1.108-.651a2.73 2.73 0 0 0-1.148.691 7.091 7.091 0 0 1-2.38 1.383l-.137.036a7.388 7.388 0 0 1-2.877-.013 2.58 2.58 0 0 0-1.222-.019 2.713 2.713 0 0 0-.624 1.14 7.187 7.187 0 0 1-1.392 2.421l-.1.1A7.248 7.248 0 0 1 9.61 8.2c-.407.112-.78.32-1.087.607-.09.401-.083.826.032 1.276.182.93.182 1.885 0 2.815l-.037.136a7.135 7.135 0 0 1-1.424 2.42c-.307.31-.53.69-.652 1.105.123.416.352.8.692 1.146a7.077 7.077 0 0 1 1.385 2.379l.036.135c.183.93.183 1.886-.013 2.876-.104.4-.11.817-.019 1.218.308.286.688.497 1.142.624.891.3 1.714.773 2.423 1.39l.1.099a7.238 7.238 0 0 1 1.409 2.477c.112.406.321.779.608 1.086.401.09.82.085 1.22-.019l.102-.02a12.099 12.099 0 0 1 1.55-.134c.431-.005.86.046 1.356.177.875.3 1.683.77 2.423 1.422.31.307.693.531 1.11.652a2.731 2.731 0 0 0 1.15-.692 7.087 7.087 0 0 1 2.38-1.382l.136-.037a7.32 7.32 0 0 1 2.822.001l.058.013c.4.103.819.109 1.22.018.286-.307.497-.686.624-1.14zm-4.527 2.112c-.75.258-1.442.66-2.037 1.183-.5.495-1.134.834-1.824.978a3.639 3.639 0 0 1-1.832-.978A6.08 6.08 0 0 0 18.1 30.96a3.887 3.887 0 0 0-1.01-.12c-.472.01-.943.05-1.41.121-.659.17-1.353.15-2.002-.056a3.633 3.633 0 0 1-1.067-1.73 6.17 6.17 0 0 0-1.195-2.077 6.17 6.17 0 0 0-2.078-1.192 3.629 3.629 0 0 1-1.73-1.066 3.595 3.595 0 0 1-.057-2.003c.157-.799.157-1.621 0-2.42a6.054 6.054 0 0 0-1.184-2.035 3.642 3.642 0 0 1-.978-1.822c.142-.69.481-1.325.978-1.826a6.065 6.065 0 0 0 1.184-2.033c.157-.8.157-1.622 0-2.421a3.605 3.605 0 0 1 .056-2 3.634 3.634 0 0 1 1.732-1.066 6.18 6.18 0 0 0 2.079-1.194 6.164 6.164 0 0 0 1.193-2.075 3.626 3.626 0 0 1 1.067-1.729 3.603 3.603 0 0 1 2.006-.056c.8.157 1.623.157 2.424 0A6.068 6.068 0 0 0 20.144.977 3.648 3.648 0 0 1 21.967 0a3.64 3.64 0 0 1 1.828.977 6.076 6.076 0 0 0 2.036 1.182c.8.156 1.624.156 2.424 0 .66-.17 1.354-.15 2.002.057a3.63 3.63 0 0 1 1.068 1.73 6.176 6.176 0 0 0 1.194 2.076c.608.53 1.315.934 2.078 1.192a3.632 3.632 0 0 1 1.73 1.066c.209.649.228 1.344.057 2.003a6.279 6.279 0 0 0 0 2.421c.258.75.66 1.44 1.184 2.034.496.5.836 1.133.979 1.822a3.632 3.632 0 0 1-.979 1.826 6.065 6.065 0 0 0-1.183 2.034 6.279 6.279 0 0 0 0 2.42 3.61 3.61 0 0 1-.056 2 3.635 3.635 0 0 1-1.732 1.067 6.18 6.18 0 0 0-2.08 1.193 6.164 6.164 0 0 0-1.193 2.076 3.626 3.626 0 0 1-1.067 1.728 3.615 3.615 0 0 1-2.001.057 6.297 6.297 0 0 0-2.428 0zm5.864 2.203l-.092.067-.104.046c-.913.399-1.908.555-2.849.467l4.396 7.782 1.075-2.747 2.89.443-4.094-7.271a5.83 5.83 0 0 1-1.222 1.213zm1.176-3.381l6.063 10.768-4.158-.636-1.562 3.99L26.77 32.5c.426.004.85.038 1.27.102a4.778 4.778 0 0 0 3.045-.265 4.805 4.805 0 0 0 1.77-2.53l.012-.026zM11.02 31.949l-4.094 7.272 2.89-.443 1.074 2.746 4.396-7.787a5.804 5.804 0 0 1-2.847-.461l-.104-.046-.092-.067a5.83 5.83 0 0 1-1.223-1.214zm.059-2.14a4.802 4.802 0 0 0 1.77 2.53 4.78 4.78 0 0 0 3.04.264c.42-.064.845-.098 1.27-.102l-6.438 11.403-1.56-3.99-4.157.636 6.062-10.77.013.029zM22 19.199l3.741 2.236-.99-4.215 3.295-2.828-4.342-.37L22 10.042l-1.704 3.982-4.342.369 3.295 2.828-.99 4.215L22 19.2zm0 1.162L16.747 23.5l1.39-5.92L13.5 13.6l6.112-.52L22 7.5l2.388 5.58 6.112.52-4.637 3.98 1.39 5.92L22 20.361zm0 7.139c6.075 0 11-4.925 11-11s-4.925-11-11-11-11 4.925-11 11 4.925 11 11 11zm0 1c-6.627 0-12-5.373-12-12s5.373-12 12-12 12 5.373 12 12-5.373 12-12 12z"/>
</svg>
