<svg width="32" height="32" viewBox="0 0 32 32" xmlns="http://www.w3.org/2000/svg">
    <path d="M30.871 14.436c-1.87 0-3.538-1.104-4.239-2.815a4.564 4.564 0 0 1 1.07-5.001 14.837 14.837 0 0 0-2.232-2.255c-1.25 1.315-3.367 1.773-5.049 1.072a4.555 4.555 0 0 1-2.777-4.349 14.974 14.974 0 0 0-3.172-.008 4.56 4.56 0 0 1-2.814 4.272c-1.666.68-3.766.22-5.01-1.08a14.9 14.9 0 0 0-2.281 2.256 4.545 4.545 0 0 1 1.068 5.05c-.702 1.672-2.396 2.742-4.346 2.774a15.038 15.038 0 0 0 .003 3.299c-.003-.113.033-.087.032-.087 1.825-.046 3.53 1.079 4.243 2.813a4.557 4.557 0 0 1-1.069 5.002 14.895 14.895 0 0 0 2.23 2.257c1.254-1.317 3.37-1.776 5.045-1.073a4.548 4.548 0 0 1 2.782 4.348 14.91 14.91 0 0 0 3.172.009 4.556 4.556 0 0 1 2.813-4.271c1.672-.683 3.768-.222 5.01 1.079a14.934 14.934 0 0 0 2.283-2.257 4.545 4.545 0 0 1-1.07-5.047c.7-1.67 2.379-2.783 4.221-2.782l.127.004c.12-1.092.119-2.205-.005-3.31.014.127-.023.1-.035.1zm1.029-.213a16.014 16.014 0 0 1-.007 3.64c-.056.467-.478.82-.937.783l-.198-.005c-1.414 0-2.729.872-3.273 2.17a3.545 3.545 0 0 0 .897 3.99c.349.317.39.85.095 1.217a15.93 15.93 0 0 1-2.588 2.559.894.894 0 0 1-1.208-.101c-.952-1.046-2.646-1.44-3.963-.902a3.556 3.556 0 0 0-2.189 3.412.89.89 0 0 1-.792.917 15.875 15.875 0 0 1-3.6-.01.889.889 0 0 1-.785-.935 3.548 3.548 0 0 0-2.165-3.472c-1.318-.554-3.031-.162-3.988.897a.89.89 0 0 1-1.218.096 15.89 15.89 0 0 1-2.531-2.56.89.89 0 0 1 .097-1.206 3.558 3.558 0 0 0 .895-3.956c-.562-1.366-1.9-2.229-3.293-2.193-.458 0-.999-.335-1.049-.787a16.028 16.028 0 0 1 .007-3.639.87.87 0 0 1 .924-.785c1.564 0 2.93-.848 3.482-2.163a3.545 3.545 0 0 0-.895-3.992.89.89 0 0 1-.095-1.216 15.893 15.893 0 0 1 2.588-2.56.892.892 0 0 1 1.208.102c.951 1.047 2.652 1.437 3.96.902a3.56 3.56 0 0 0 2.191-3.414.89.89 0 0 1 .793-.915 15.975 15.975 0 0 1 3.6.01c.468.054.812.463.784.934a3.554 3.554 0 0 0 2.162 3.474c1.324.552 3.037.16 3.99-.897a.89.89 0 0 1 1.216-.098 15.833 15.833 0 0 1 2.535 2.56.889.889 0 0 1-.097 1.207 3.564 3.564 0 0 0-.895 3.956c.546 1.332 1.847 2.193 3.313 2.193.454 0 .978.338 1.029.787zm-15.875 7.148a5.343 5.343 0 0 0 5.337-5.337 5.343 5.343 0 0 0-5.337-5.337 5.343 5.343 0 0 0-5.337 5.337 5.343 5.343 0 0 0 5.337 5.337zm0 1a6.343 6.343 0 0 1-6.337-6.337 6.343 6.343 0 0 1 6.337-6.337 6.343 6.343 0 0 1 6.337 6.337 6.343 6.343 0 0 1-6.337 6.337z" fill="#0064AD" fill-rule="evenodd"/>
</svg>
