<svg xmlns="http://www.w3.org/2000/svg" width="34" height="34" viewBox="0 0 34 34">
    <path fill-rule="evenodd" d="M32.867 18.7l-3.854-.004c.497-.86.591-1.894.258-2.83h.196c.626 0 1.133-.507 1.133-1.133v-11.9A2.837 2.837 0 0 0 27.767 0H2.833A2.837 2.837 0 0 0 0 2.833V27.2a2.837 2.837 0 0 0 2.833 2.833h11.9c.626 0 1.134-.507 1.134-1.133l.021-3.585a3.39 3.39 0 0 0 3.961-1.373c.286-.11.383-.135.372-.135a2.3 2.3 0 0 1 2.401 1.802 2.26 2.26 0 0 1-.473 1.899 2.313 2.313 0 0 1-2.486.703 1.175 1.175 0 0 0-1.06.15c-.296.208-.471.55-.47.912v3.594c0 .626.508 1.133 1.134 1.133h11.9A2.837 2.837 0 0 0 34 31.167V19.833c0-.626-.507-1.133-1.133-1.133zm-3.4-15.867v11.9H28.6A3.375 3.375 0 0 0 26.02 13.6a3.48 3.48 0 0 0-.323-2.125 3.363 3.363 0 0 0-2.276-1.76 3.404 3.404 0 0 0-4.153 3.318c-.003.601.164 1.19.48 1.7H15.87l.022-3.584a3.39 3.39 0 0 0 4.2-1.823 3.3 3.3 0 0 0 .284-.964 3.4 3.4 0 0 0-4.51-3.635V1.133h11.9a1.7 1.7 0 0 1 1.7 1.7zM23.147 18.7h-3.88c-.303 0-.592.121-.805.336a3.404 3.404 0 0 0-2.595-.143v-3.026h3.88c.398.004.767-.207.964-.552.201-.358.198-.794-.008-1.148a2.266 2.266 0 0 1 2.476-3.344c.65.142 1.201.567 1.503 1.16.295.59.322 1.279.075 1.89A3.375 3.375 0 0 0 22.667 17c-.003.6.164 1.19.48 1.7zM1.134 2.833a1.7 1.7 0 0 1 1.7-1.7h11.9v3.594c-.002.362.172.703.468.912.308.218.703.274 1.06.15a2.314 2.314 0 0 1 2.44.644c.322.362.519.82.56 1.304.013.163.01.327-.01.49a2.297 2.297 0 0 1-2.008 1.964 2.277 2.277 0 0 1-.982-.113 1.167 1.167 0 0 0-1.058.15c-.296.208-.472.548-.47.91v3.598l-3.87.02c.03-.052.049-.109.076-.161a3.371 3.371 0 0 0-1.917-4.782 3.35 3.35 0 0 0-.417-.113 3.554 3.554 0 0 0-.377-.05H8.22a3.45 3.45 0 0 0-.283-.014c-.017 0-.034.004-.051.004a3.498 3.498 0 0 0-.474.04c-.052.008-.102.02-.152.03-.133.026-.264.06-.392.102-.036.012-.071.02-.106.033a3.463 3.463 0 0 0-.565.272 3.33 3.33 0 0 0-.418.288l-.01.006a3.386 3.386 0 0 0-1.238 2.623c0 .534.136 1.06.393 1.53.03.056.057.113.089.17h-3.88v-11.9zm15.13 21.412a1.165 1.165 0 0 0-1.058.148 1.11 1.11 0 0 0-.472.914V28.9h-11.9a1.7 1.7 0 0 1-1.7-1.7V15.867h3.882a1.095 1.095 0 0 0 .96-.552c.158-.28.19-.613.091-.918a1.222 1.222 0 0 0-.098-.24 2.106 2.106 0 0 1-.13-.26 2.267 2.267 0 0 1 2.556-3.084c.108.021.215.05.319.087a2.256 2.256 0 0 1 1.213 3.196c-.014.028-.023.057-.04.085-.046.08-.081.164-.106.252 0 .006-.005.01-.007.016-.004.017 0 .034-.007.05-.06.269-.019.55.118.79.013.021.032.037.045.056.21.322.567.519.951.522h3.853v3.026a1.11 1.11 0 0 0 .469.914c.31.218.705.273 1.062.147a2.327 2.327 0 0 1 1.87.184v2.812c.003.318.14.62.378.833a2.261 2.261 0 0 1-2.249.462zm16.604 6.922a1.7 1.7 0 0 1-1.7 1.7h-11.9l.026-3.583a3.4 3.4 0 1 0 .845-6.607c-.303.048-.596.14-.871.273v-3.117h3.88c.398.004.767-.207.964-.552.201-.357.198-.794-.008-1.148a2.266 2.266 0 0 1 1.268-3.286h.008c.221-.075.454-.113.688-.114a2.282 2.282 0 0 1 1.813.907 2.268 2.268 0 0 1 .15 2.49 1.158 1.158 0 0 0-.005 1.151c.197.345.566.556.963.552h3.879v11.334z"/>
</svg>
