<svg width="194" height="24" viewBox="0 0 194 24" xmlns="http://www.w3.org/2000/svg">
    <defs>
        <linearGradient x1="0%" y1="39.605%" x2="100%" y2="39.605%" id="2bj1zky6pa">
            <stop stop-color="#00437D" offset="0%"/>
            <stop stop-color="#0083DB" offset="100%"/>
        </linearGradient>
        <linearGradient x1="0%" y1="39.605%" x2="100%" y2="39.605%" id="fskehl4zrb">
            <stop stop-color="#0095FF" offset="0%"/>
            <stop stop-color="#03F5F9" offset="100%"/>
        </linearGradient>
        <linearGradient x1="77.21%" y1="69.361%" x2="34.35%" y2="9.15%" id="ofbl38y49c">
            <stop stop-color="#00437D" offset="0%"/>
            <stop stop-color="#0083DB" offset="100%"/>
        </linearGradient>
        <linearGradient x1="77.052%" y1="69.361%" x2="34.441%" y2="9.15%" id="idr8zeeqsd">
            <stop stop-color="#0083DB" offset="0%"/>
            <stop stop-color="#00437D" offset="100%"/>
        </linearGradient>
    </defs>
    <g fill="none" fill-rule="evenodd">
        <path d="M1.92.013A2.163 2.163 0 0 0 .014 1.916 2.156 2.156 0 0 0 .596 3.65l-.002.001.015.014c.06.062.125.12.192.176l2.724 2.503a.326.326 0 0 0 .44 0l2.893-2.655A2.162 2.162 0 0 0 5.572.014a2.144 2.144 0 0 0-1.827.693A2.145 2.145 0 0 0 2.155 0c-.078 0-.156.004-.235.013" transform="translate(183.046)" fill="url(#2bj1zky6pa)"/>
        <path d="M69.757 6.768v6.903c0 1.7.886 2.259 2.252 2.259 1.24 0 2.227-.685 2.784-1.396V6.768h3.214v11.446c0 3.68-2.607 5.786-6.504 5.786-2.05 0-3.694-.584-5.111-1.827l1.442-2.31c.886 1.066 2.379 1.498 3.67 1.498 2.074 0 3.289-1.422 3.289-3.147v-1.269a5.806 5.806 0 0 1-4.302 1.852c-2.682 0-3.947-1.471-3.947-3.857V6.768h3.213zm-18.52-.305c3.138 0 5.415 2.335 5.415 6.421 0 4.087-2.277 6.447-5.415 6.447-1.443 0-2.758-.61-3.77-1.878v6.243h-3.214V6.768h3.214v1.548c.936-1.193 2.277-1.853 3.77-1.853zm96.729 0c3.669 0 6.123 2.742 6.123 6.726v.761h-9.084c.228 1.497 1.442 2.74 3.517 2.74 1.038 0 2.455-.43 3.24-1.192l1.441 2.132c-1.214 1.117-3.137 1.7-5.035 1.7-3.72 0-6.529-2.512-6.529-6.446 0-3.553 2.632-6.42 6.327-6.42zm24.947-3.045v3.35h2.48v2.817h-2.48v5.507c0 .787.405 1.37 1.113 1.37.481 0 .936-.177 1.113-.38l.684 2.462c-.481.431-1.341.787-2.682.787-2.253 0-3.442-1.168-3.442-3.376v-6.37h-2.024V6.768h2.024v-3.35h3.214zm-10.804 3.045c2.505 0 4.024 1.092 4.833 2.208l-2.1 1.98c-.582-.863-1.467-1.32-2.58-1.32-1.95 0-3.316 1.421-3.316 3.553 0 2.132 1.367 3.579 3.315 3.579 1.114 0 2-.508 2.581-1.346l2.1 1.98c-.81 1.117-2.328 2.234-4.833 2.234-3.745 0-6.478-2.665-6.478-6.447 0-3.756 2.733-6.421 6.478-6.421zM89.468 1.819c3.694 0 5.845 2.005 7.034 4.137l-3.087 1.523c-.708-1.371-2.227-2.462-3.947-2.462-3.087 0-5.314 2.36-5.314 5.558s2.227 5.558 5.314 5.558c1.72 0 3.239-1.092 3.947-2.462l3.087 1.497c-1.189 2.107-3.34 4.163-7.034 4.163-5.086 0-9.009-3.554-9.009-8.756 0-5.229 3.923-8.756 9.009-8.756zm-27.25.279v12.994c0 .787.404 1.37 1.113 1.37.481 0 .936-.177 1.114-.38l.682 2.462c-.48.431-1.366.787-2.682.787-2.252 0-3.441-1.168-3.441-3.376V2.098h3.214zm-55.26-.254c2.683 0 4.91.812 6.58 2.36l-2 2.691C10.174 5.625 8.35 5.042 6.63 5.042c-1.519 0-2.379.66-2.379 1.675 0 .86 1.009 1.255 2.375 1.607l.42.105c2.863.697 6.897 1.393 6.897 5.47 0 3.096-2.227 5.432-6.756 5.432-3.265 0-5.593-1.092-7.187-2.69l1.974-2.818c1.189 1.244 3.036 2.31 5.364 2.31 2 0 2.936-.888 2.936-1.878 0-2.944-9.717-.889-9.717-7.259 0-2.817 2.429-5.152 6.402-5.152zm97.286 4.619c4.049 0 6.478 2.944 6.478 6.421 0 3.477-2.43 6.447-6.478 6.447-4.023 0-6.452-2.97-6.452-6.447s2.429-6.421 6.452-6.421zm-66.77 0c2.251 0 3.592 1.193 3.592 3.706v8.857h-3.239v-7.74c0-1.143-.506-1.955-1.821-1.955-1.14 0-2.075.762-2.53 1.422v8.273h-3.24v-7.74c0-1.143-.506-1.955-1.822-1.955-1.113 0-2.05.762-2.53 1.422v8.273H22.67V6.768h3.214V8.34c.531-.71 2.125-1.878 3.998-1.878 1.797 0 2.96.838 3.39 2.208.71-1.091 2.329-2.208 4.201-2.208zm97.79 0c2.708 0 3.998 1.523 3.998 3.909v8.654h-3.239v-7.41c0-1.701-.885-2.285-2.252-2.285-1.265 0-2.226.71-2.783 1.422v8.273h-3.213V6.768h3.213V8.34c.784-.914 2.303-1.878 4.276-1.878zm-115.781.305v12.258h-3.214V6.768h3.214zm101.131-.305c2.708 0 3.999 1.523 3.999 3.909v8.654h-3.24v-7.41c0-1.701-.885-2.285-2.251-2.285-1.266 0-2.227.71-2.784 1.422v8.273h-3.213V6.768h3.213V8.34c.785-.914 2.303-1.878 4.276-1.878zm-16.37 2.868c-1.999 0-3.113 1.65-3.113 3.553 0 1.929 1.114 3.579 3.113 3.579 2.025 0 3.138-1.65 3.138-3.579 0-1.903-1.113-3.553-3.138-3.553zm-54.02 0c-1.037 0-2.201.584-2.757 1.396v4.314c.53.787 1.72 1.422 2.758 1.422 1.847 0 3.112-1.447 3.112-3.579 0-2.107-1.265-3.553-3.112-3.553zm97.742-.228c-2 0-2.86 1.395-2.986 2.614h6.022c-.101-1.168-.91-2.614-3.036-2.614zM17.863 1.616c1.063 0 1.923.837 1.923 1.903s-.86 1.93-1.923 1.93c-1.037 0-1.898-.864-1.898-1.93 0-1.066.86-1.903 1.898-1.903z" fill="#222"/>
        <path d="M10.304.708 7.948 3.033a1.05 1.05 0 0 1-1.476 0C5.706 2.276 5.02 1.6 4.582 1.17c1.967 2.88-.808 5.997-.808 5.997C3.731 7.208.613 10.34.57 10.39a2.422 2.422 0 0 0 .136 3.27c.879.88 2.267.94 3.213.175.067-.054 1.819-1.75 2.565-2.527.516-.538 1.059-.409 1.466-.006l1.885 1.859c-1.887-2.765.595-5.747.796-5.981 0 0 3.161-3.138 3.198-3.181a2.422 2.422 0 0 0-.117-3.292A2.397 2.397 0 0 0 12.008 0c-.617 0-1.233.236-1.704.708" transform="translate(179.582 4.962)" fill="url(#fskehl4zrb)"/>
        <path d="M.706.708a2.422 2.422 0 0 0 0 3.418l3.067 3.04h.001s2.772-3.114.811-5.993L4.114.708A2.397 2.397 0 0 0 2.41 0C1.793 0 1.176.236.706.708" transform="translate(179.582 4.962)" fill="url(#ofbl38y49c)"/>
        <path d="M.704 5.981c-.047-.046.47.499.47.499a2.404 2.404 0 0 0 3.407 0 2.422 2.422 0 0 0 0-3.418L1.5 0C1.299.234-1.183 3.217.704 5.981" transform="translate(188.713 12.143)" fill="url(#idr8zeeqsd)"/>
    </g>
</svg>
