<?xml version="1.0" encoding="UTF-8"?>
<svg width="132px" height="45px" viewBox="0 0 132 45" version="1.1" xmlns="http://www.w3.org/2000/svg" xmlns:xlink="http://www.w3.org/1999/xlink">
    <defs>
        <polygon id="path-1" points="0.00661101836 0.00858190709 131.932605 0.00858190709 131.932605 44.9933985 0.00661101836 44.9933985"></polygon>
    </defs>
    <g id="Page-1" stroke="none" stroke-width="1" fill="none" fill-rule="evenodd">
        <g id="SimplyConnect-Dashboard-Full-release--opt4" transform="translate(-40.000000, -1750.000000)">
            <g id="Group-8" transform="translate(0.000000, 1735.000000)">
                <g id="Group-7" transform="translate(40.000000, 15.000000)">
                    <g id="Group-5">
                        <mask id="mask-2" fill="white">
                            <use xlink:href="#path-1"></use>
                        </mask>
                        <g id="Clip-2"></g>
                        <path d="M121.60197,5.07289731 C121.60197,7.86982885 119.331085,10.1372127 116.530217,10.1372127 C113.729349,10.1372127 111.458464,7.86982885 111.458464,5.07289731 C111.458464,2.27596577 113.729349,0.00858190709 116.530217,0.00858190709 C119.331085,0.00858190709 121.60197,2.27596577 121.60197,5.07289731" id="Fill-1" fill="#BFBDBD" mask="url(#mask-2)"></path>
                        <path d="M123.9599,28.0769193 L119.156995,28.0769193 L119.156995,19.5484841 L123.770384,19.5484841 L123.770384,20.4722494 L120.259933,20.4722494 L120.259933,23.1674083 L123.579766,23.1674083 L123.579766,24.0784108 L120.259933,24.0784108 L120.259933,27.153154 L123.9599,27.153154 L123.9599,28.0769193 Z M116.6999,28.0769193 L116.48394,24.331467 C116.421135,23.1421027 116.345109,21.7122249 116.357229,20.6493888 L116.319766,20.6493888 C116.02778,21.6489609 115.672988,22.7119071 115.24217,23.8886186 L113.734858,28.0263081 L112.898564,28.0263081 L111.516861,23.9645355 C111.111386,22.7625183 110.769816,21.6616137 110.528514,20.6493888 L110.503172,20.6493888 C110.47783,21.7122249 110.415025,23.1421027 110.338998,24.4200367 L110.110588,28.0769193 L109.058775,28.0769193 L109.654317,19.5484841 L111.060701,19.5484841 L112.518431,23.6735208 C112.873222,24.7237042 113.164107,25.6601222 113.380067,26.5458191 L113.417529,26.5458191 C113.633489,25.6854279 113.937596,24.7490098 114.31773,23.6735208 L115.838264,19.5484841 L117.244207,19.5484841 L117.777496,28.0769193 L116.6999,28.0769193 Z M131.922871,4.89311736 C131.962538,4.73633252 131.877696,4.5747066 131.727846,4.50704156 L128.410217,3.01422983 C128.236127,2.93589242 128.030083,3.00773839 127.946344,3.17607579 C127.601469,3.87011002 126.602104,5.7352445 124.516327,8.63251834 C121.803606,12.4009658 119.169115,13.2731296 116.440968,13.2920538 C113.712821,13.2731296 111.078331,12.4009658 108.365609,8.63251834 C106.279723,5.7352445 105.280137,3.87011002 104.935262,3.17596577 C104.851633,3.00773839 104.645699,2.9357824 104.47172,3.0141198 L101.154421,4.50704156 C101.00402,4.57459658 100.919179,4.73633252 100.958845,4.89300733 C101.222624,5.93196822 102.442688,6.90612469 105.358477,12.5402567 C108.151523,17.9373961 109.678778,22.8154401 108.053679,29.5977873 C106.397619,36.5095232 103.871329,41.8079707 102.919673,44.5465892 C102.842324,44.7692787 103.011125,45 103.252317,45 L108.007072,45 C108.151853,45 108.28176,44.9138509 108.334317,44.7822616 C108.77428,43.6801467 110.885509,38.6573105 112.279332,35.788643 C113.69409,32.877066 114.841102,30.8404034 116.007947,30.3595966 C116.285609,30.2451711 116.597429,30.2451711 116.875092,30.3595966 C118.040835,30.8404034 119.187846,32.877066 120.602604,35.788643 C121.996427,38.6573105 124.107546,43.6801467 124.54828,44.7822616 C124.600067,44.9138509 124.730083,45 124.874424,45 L129.62995,45 C129.871252,45 130.039833,44.7692787 129.962705,44.5466993 C129.010718,41.8080807 126.484207,36.5095232 124.828147,29.5977873 C123.202938,22.8155501 124.730083,17.9373961 127.523239,12.5403667 C130.4398,6.90612469 131.659533,5.93196822 131.922871,4.89311736 Z" id="Fill-3" fill="#BFBDBD" mask="url(#mask-2)"></path>
                        <path d="M0.278764608,26.7356112 C0.773048414,27.0392787 1.49530217,27.292335 2.25567947,27.292335 C3.38340902,27.292335 4.04241736,26.6976528 4.04241736,25.8372616 C4.04241736,25.0400244 3.58614691,24.5845232 2.43296494,24.1416748 C1.0391419,23.6482152 0.177395659,22.9270049 0.177395659,21.7248778 C0.177395659,20.3963325 1.27989316,19.4093032 2.93991987,19.4093032 C3.81422705,19.4093032 4.44778297,19.6117482 4.82791653,19.826846 L4.52391987,20.7251956 C4.24504508,20.5734719 3.67484474,20.3203056 2.90190651,20.3203056 C1.73605342,20.3203056 1.29256427,21.0163203 1.29256427,21.5983496 C1.29256427,22.3954768 1.81208013,22.787824 2.99060434,23.2433252 C4.43511185,23.8000489 5.17014691,24.4959535 5.17014691,25.7486919 C5.17014691,27.0646944 4.1943606,28.2034474 2.17954257,28.2034474 C1.35591987,28.2034474 0.456270451,27.963044 0,27.6592665 L0.278764608,26.7356112" id="Fill-4" fill="#BFBDBD" mask="url(#mask-2)"></path>
                    </g>
                    <polygon id="Fill-6" fill="#BFBDBD" points="7.71285476 28.1127873 8.81535225 28.1127873 8.81535225 19.5843521 7.71285476 19.5843521"></polygon>
                    <path d="M19.1049616,24.367335 C19.041606,23.1779707 18.9656895,21.7480929 18.9783606,20.6852567 L18.9402371,20.6852567 C18.6489115,21.6848289 18.29401,22.7477751 17.863192,23.9244866 L16.3552187,28.062176 L15.5189249,28.062176 L14.1376628,24.0004034 C13.7322972,22.7983863 13.3900668,21.6974817 13.1493155,20.6852567 L13.1239733,20.6852567 C13.0986311,21.7480929 13.0352755,23.1779707 12.9592487,24.4559046 L12.7311686,28.1127873 L11.6794658,28.1127873 L12.2750083,19.5843521 L13.6816127,19.5843521 L15.1387913,23.7093888 C15.4935826,24.7595721 15.7851285,25.6959902 16.0005376,26.581687 L16.0384407,26.581687 C16.2538497,25.7212958 16.5579566,24.7848778 16.9380902,23.7093888 L18.4587346,19.5843521 L19.8653389,19.5843521 L20.3975259,28.1127873 L19.3203706,28.1127873 L19.1049616,24.367335" id="Fill-7" fill="#BFBDBD"></path>
                    <path d="M24.2410618,23.751198 C24.481813,23.8144621 24.7859199,23.8397677 25.1533823,23.8397677 C26.4839599,23.8397677 27.2949115,23.1943643 27.2949115,22.0176528 C27.2949115,20.8915526 26.4965209,20.3473716 25.2800935,20.3473716 C24.798591,20.3473716 24.4311285,20.3854401 24.2410618,20.4360513 L24.2410618,23.751198 Z M23.1385643,19.6388142 C23.6708614,19.5502445 24.367773,19.4743276 25.2547513,19.4743276 C26.3444674,19.4743276 27.1428581,19.7273839 27.6497028,20.1828851 C28.1185342,20.5878851 28.3972988,21.2078729 28.3972988,21.9670416 C28.3972988,22.7388631 28.1692187,23.3463081 27.7384007,23.7891565 C27.1555292,24.4091443 26.2051953,24.7254645 25.1280401,24.7254645 C24.798591,24.7254645 24.494374,24.7128117 24.2410618,24.6496577 L24.2410618,28.0660269 L23.1385643,28.0660269 L23.1385643,19.6388142 Z" id="Fill-8" fill="#BFBDBD"></path>
                    <polyline id="Fill-9" fill="#BFBDBD" points="30.9616027 19.5843521 32.0641002 19.5843521 32.0641002 27.189022 35.7134925 27.189022 35.7134925 28.1127873 30.9616027 28.1127873 30.9616027 19.5843521"></polyline>
                    <path d="M38.8392922,28.1127873 L38.8392922,24.4938631 L36.1402337,19.5843521 L37.3947846,19.5843521 L38.5984307,21.9378851 C38.92799,22.5831785 39.1814124,23.1020538 39.4475058,23.6967359 L39.4728481,23.6967359 C39.7135993,23.1400122 40.0050351,22.5831785 40.3344841,21.9378851 L41.5636928,19.5843521 L42.8181336,19.5843521 L39.9543506,24.4812103 L39.9543506,28.1127873 L38.8392922,28.1127873" id="Fill-10" fill="#BFBDBD"></path>
                    <path d="M50.4385442,27.8635819 C50.0329583,28.0660269 49.2220067,28.2684719 48.182975,28.2684719 C45.7752421,28.2684719 43.9632721,26.7500244 43.9632721,23.953643 C43.9632721,21.2837897 45.7752421,19.4743276 48.4237262,19.4743276 C49.4881002,19.4743276 50.1596694,19.7020782 50.4512154,19.853912 L50.1850117,20.7523716 C49.7668648,20.5498166 49.1713222,20.3980929 48.4616294,20.3980929 C46.4594825,20.3980929 45.129015,21.6760269 45.129015,23.9156846 C45.129015,26.0035086 46.3328815,27.3448166 48.4109449,27.3448166 C49.0826244,27.3448166 49.7668648,27.2056357 50.2103539,26.9904279 L50.4385442,27.8635819" id="Fill-11" fill="#BFBDBD"></path>
                    <path d="M53.2952755,23.9283374 C53.2952755,25.7504523 54.2836227,27.382665 56.0196761,27.382665 C57.7684007,27.382665 58.7568581,25.7757579 58.7568581,23.8397677 C58.7568581,22.1441809 57.8697696,20.3727873 56.0323472,20.3727873 C54.2077062,20.3727873 53.2952755,22.0556112 53.2952755,23.9283374 Z M59.922601,23.7891565 C59.922601,26.7247188 58.1358631,28.2811247 55.9564307,28.2811247 C53.7007513,28.2811247 52.1168614,26.5349267 52.1168614,23.953643 C52.1168614,21.2458313 53.8021202,19.4743276 56.0830317,19.4743276 C58.4146277,19.4743276 59.922601,21.2584841 59.922601,23.7891565 Z" id="Fill-12" fill="#BFBDBD"></path>
                    <path d="M62.4741235,28.1127873 L62.4741235,19.5843521 L63.6778798,19.5843521 L66.4149516,23.8991809 C67.0486177,24.8987531 67.5427913,25.7972127 67.9482671,26.6702567 L67.9736093,26.6576039 C67.8722404,25.5188509 67.8468982,24.4812103 67.8468982,23.152665 L67.8468982,19.5843521 L68.8860401,19.5843521 L68.8860401,28.1127873 L67.7708715,28.1127873 L65.0591419,23.7853056 C64.4634891,22.8362347 63.8932888,21.8619682 63.4624708,20.938313 L63.4245676,20.9509658 C63.487813,22.0264548 63.5131553,23.0514425 63.5131553,24.4685575 L63.5131553,28.1127873 L62.4741235,28.1127873" id="Fill-13" fill="#BFBDBD"></path>
                    <path d="M71.8397329,28.1127873 L71.8397329,19.5843521 L73.0435993,19.5843521 L75.7806711,23.8991809 C76.4143372,24.8987531 76.9084007,25.7972127 77.3139866,26.6702567 L77.3392187,26.6576039 C77.2378497,25.5188509 77.2126177,24.4812103 77.2126177,23.152665 L77.2126177,19.5843521 L78.2517596,19.5843521 L78.2517596,28.1127873 L77.1364808,28.1127873 L74.4247513,23.7853056 C73.8292087,22.8362347 73.2590083,21.8619682 72.8281903,20.938313 L72.790177,20.9509658 C72.8534224,22.0264548 72.8788748,23.0514425 72.8788748,24.4685575 L72.8788748,28.1127873 L71.8397329,28.1127873" id="Fill-14" fill="#BFBDBD"></path>
                    <polyline id="Fill-15" fill="#BFBDBD" points="85.7378564 24.1142787 82.4180234 24.1142787 82.4180234 27.189022 86.1181002 27.189022 86.1181002 28.1127873 81.3155259 28.1127873 81.3155259 19.5843521 85.9280334 19.5843521 85.9280334 20.5081174 82.4180234 20.5081174 82.4180234 23.2032763 85.7378564 23.2032763 85.7378564 24.1142787"></polyline>
                    <path d="M94.6220735,27.8635819 C94.2165977,28.0660269 93.4055359,28.2684719 92.3666144,28.2684719 C89.9588815,28.2684719 88.1469115,26.7500244 88.1469115,23.953643 C88.1469115,21.2837897 89.9588815,19.4743276 92.6072554,19.4743276 C93.6717396,19.4743276 94.3433088,19.7020782 94.6348548,19.853912 L94.3686511,20.7523716 C93.9505042,20.5498166 93.3549616,20.3980929 92.6452688,20.3980929 C90.6431219,20.3980929 89.3126544,21.6760269 89.3126544,23.9156846 C89.3126544,26.0035086 90.5165209,27.3448166 92.5945843,27.3448166 C93.2662638,27.3448166 93.9505042,27.2056357 94.3939933,26.9904279 L94.6220735,27.8635819" id="Fill-16" fill="#BFBDBD"></path>
                    <polyline id="Fill-17" fill="#BFBDBD" points="99.008374 20.5206601 96.4106845 20.5206601 96.4106845 19.5843521 102.733793 19.5843521 102.733793 20.5206601 100.123543 20.5206601 100.123543 28.1127873 99.008374 28.1127873 99.008374 20.5206601"></polyline>
                    <path d="M103.792988,27.423044 C103.792988,26.95489 104.109766,26.6259169 104.553255,26.6259169 C104.996855,26.6259169 105.300851,26.95489 105.300851,27.423044 C105.300851,27.8786553 105.009416,28.2202812 104.540584,28.2202812 C104.097095,28.2202812 103.792988,27.8786553 103.792988,27.423044" id="Fill-18" fill="#BFBDBD"></path>
                </g>
            </g>
        </g>
    </g>
</svg>