<svg xmlns="http://www.w3.org/2000/svg" width="45" height="60" viewBox="0 0 45 60">
    <g fill="none" fill-rule="evenodd">
        <path fill="#4C4E51" d="M16.532 13.707V5.962c-.1-1.107.71-2.09 1.822-2.212h9.111a2.045 2.045 0 0 1 1.822 2.212v7.745M29.287 47.198v7.04a1.923 1.923 0 0 1-1.822 2.012h-9.11a1.924 1.924 0 0 1-1.823-2.011v-7.04"/>
        <path fill="#FFF" d="M23.82 9.181h-1.822a.908.908 0 0 1-.91-.905c0-.5.407-.905.91-.905h1.823c.503 0 .91.405.91.905s-.407.905-.91.905zM23.82 52.63h-1.822a.908.908 0 0 1-.91-.906c0-.5.407-.905.91-.905h1.823c.503 0 .91.405.91.905s-.407.905-.91.905z"/>
        <path fill="#898989" d="M33.56 20.107l-.929-2.78-1.033-3.688a2.393 2.393 0 0 0-2.31-1.742H16.531c-1.076 0-2.02.712-2.309 1.742l-1.035 3.689-.93 2.779M12.259 39.893l.93 2.78 1.032 3.688a2.393 2.393 0 0 0 2.31 1.742h12.756c1.076 0 2.02-.712 2.31-1.742l1.034-3.689.93-2.779"/>
        <path fill="#41767F" fill-rule="nonzero" d="M22.91 15.517C15.91 15.516 9.9 20.455 8.586 27.284A14.864 14.864 0 0 0 8.332 30c0 .902.086 1.802.255 2.688v.028c.843 4.4 3.69 8.163 7.708 10.192a14.698 14.698 0 0 1-.857-2.064 5.786 5.786 0 0 1-.173-.561 9.978 9.978 0 0 1-.3-1.276 3.398 3.398 0 0 1-.073-.417 7.353 7.353 0 0 1-.082-.624 5.971 5.971 0 0 1-.055-.58 10.14 10.14 0 0 1-.046-1.05c0-.244.01-.488.019-.733l.027-.444c.01-.144.027-.307.046-.461.018-.127.027-.244.045-.371 0-.018.01-.036.01-.054.036-.218.063-.435.109-.652.045-.254.1-.507.164-.76.009-.028.009-.046.018-.073 0-.009.01-.027.01-.036a.053.053 0 0 0 .008-.036c.064-.254.146-.507.228-.76.027-.118.073-.236.11-.345.008-.036.026-.072.036-.109.067-.203.147-.402.237-.597.009-.036.027-.072.036-.1a2.33 2.33 0 0 1 .155-.343c0-.01.01-.019.01-.027.017-.046.035-.082.054-.127.09-.19.182-.38.273-.562.018-.027.027-.063.046-.09.036-.063.063-.118.1-.181.05-.106.108-.21.173-.308v-.018c.055-.1.118-.199.182-.299.03-.056.064-.11.1-.163.046-.072.1-.144.146-.226.082-.126.173-.253.265-.39.118-.171.245-.343.373-.515a7.19 7.19 0 0 1 .41-.498c.045-.063.1-.117.146-.181a.374.374 0 0 0 .054-.063l.037-.036c.191-.227.4-.444.62-.661.145-.145.3-.3.464-.444.319-.29.647-.56.984-.824.137-.108.274-.207.41-.307a.568.568 0 0 0 .091-.063c.183-.118.364-.245.556-.363.191-.117.364-.226.556-.334l.246-.136c0-.01.009 0 .009 0a.583.583 0 0 1 .127-.073.763.763 0 0 1 .119-.063 9.151 9.151 0 0 1 .91-.435c.179-.084.362-.16.547-.226h.01c0-.005.004-.01.009-.01a.134.134 0 0 1 .054-.017c.146-.064.295-.118.447-.163.146-.054.292-.1.446-.145.069-.025.139-.046.21-.063.146-.055.3-.09.446-.136.11-.018.21-.045.32-.072l.5-.109c.164-.027.337-.063.502-.09.109-.018.218-.037.327-.046l.183-.027.491-.054h.019c.219-.018.446-.036.674-.046.228-.008.446-.018.674-.018.353-.003.706.012 1.057.046.2.009.392.027.583.054.21.018.42.045.629.081.138.016.275.04.41.073 0 0 .01-.01.01 0 .433.072.862.171 1.284.299.19.047.38.105.564.172a14.642 14.642 0 0 1 2.078.85c-2.485-4.858-7.507-7.916-12.993-7.91zm-8.337 16.628l.546.57h-4.054a.908.908 0 0 1-.91-.905c0-.5.407-.905.91-.905h2.597c.248.45.555.868.911 1.24z"/>
        <path fill="#F9F9F9" d="M16.295 42.908a14.479 14.479 0 0 1-7.708-10.192v-.028A14.498 14.498 0 0 1 8.332 30c.001-.91.087-1.82.255-2.716 1.166-6.084 6.097-10.759 12.27-11.63 6.172-.871 12.22 2.253 15.045 7.774a15.034 15.034 0 0 0-2.078-.85 5.769 5.769 0 0 0-.564-.172c-.422-.128-.85-.227-1.285-.3 0-.008-.01 0-.01 0a3.288 3.288 0 0 0-.41-.072c.137.018.274.046.41.073 0 0 .01-.01.01 0 .434.076.862.176 1.285.299.191.054.382.108.564.172a14.642 14.642 0 0 1 2.078.85A14.378 14.378 0 0 1 37.487 30c.001 5.038-2.634 9.715-6.958 12.349a14.66 14.66 0 0 1-14.234.559zm-1.13-10.192h3.19a.903.903 0 0 0 .782-.444l1.76-2.915 2.067 5.486a.936.936 0 0 0 .775.588h.082a.903.903 0 0 0 .783-.443l2.47-4.083h5.083a6.015 6.015 0 0 0 .656-1.81h-6.259a.905.905 0 0 0-.784.443l-1.758 2.915-2.068-5.486a.937.937 0 0 0-.775-.588.923.923 0 0 0-.865.444l-2.47 4.082h-2.058c.009-.036.027-.072.036-.1.055-.117.1-.235.155-.343 0-.01.01-.019.01-.027.017-.046.035-.082.054-.127.09-.19.182-.38.273-.562.018-.027.027-.063.046-.09.036-.063.063-.118.1-.181.054-.1.11-.208.173-.308v-.018c.055-.1.118-.199.182-.299.03-.056.064-.11.1-.163.046-.072.092-.153.146-.226.082-.126.173-.253.265-.39.118-.171.245-.343.373-.515.172-.236.358-.463.556-.679a.374.374 0 0 0 .054-.063h.01a.126.126 0 0 1 .027-.036c.2-.227.41-.444.62-.661.154-.154.31-.3.464-.444.319-.29.647-.56.984-.824.137-.099.274-.199.41-.307a.568.568 0 0 0 .091-.063c.183-.118.364-.245.556-.363.191-.117.364-.226.556-.334l.246-.136a.304.304 0 0 1 .073-.045c.018-.01.045-.019.063-.028a.763.763 0 0 1 .119-.063.223.223 0 0 1 .064-.036 5.555 5.555 0 0 0-3.927-1.62 5.654 5.654 0 0 0-4.082 1.765 6.235 6.235 0 0 0-.911 7.286h-2.597a.908.908 0 0 0-.91.905c0 .5.407.906.91.906h4.054l-.546-.57a5.946 5.946 0 0 1-.911-1.24h2.114c-.09.194-.17.393-.237.596-.01.037-.028.073-.037.11-.036.108-.082.226-.11.343-.081.254-.163.507-.227.76zm10.65-10.448l.101-.025-.102.025z"/>
        <path fill="#4C4E51" d="M8.587 32.716H5.599a.908.908 0 0 1-.912-.906v-3.62c0-.5.409-.906.912-.906h2.988v5.432z"/>
        <path fill="#F33232" d="M15.502 31.611c-.036.109-.082.227-.11.344-.081.254-.163.507-.227.76h3.19a.903.903 0 0 0 .782-.443l1.76-2.915 2.067 5.486a.936.936 0 0 0 .775.588h.082a.903.903 0 0 0 .783-.443l2.47-4.083h5.083a5.96 5.96 0 0 1-.91 1.24l-.174.181-8.164 8.536-7.753-8.11-.037-.036-.546-.57a5.946 5.946 0 0 1-.911-1.24 6.235 6.235 0 0 1 .911-7.287 5.654 5.654 0 0 1 4.082-1.766c1.473 0 2.887.583 3.927 1.62.055.044.107.093.155.146l.172.18.174-.18c.27-.286.57-.544.892-.77h.01c0-.005.004-.01.009-.01a5.56 5.56 0 0 1 3.17-.986c.254-.001.507.02.756.064h.019c1.264.18 2.43.78 3.307 1.702a6.208 6.208 0 0 1 1.567 5.476h-6.259a.905.905 0 0 0-.784.443l-1.758 2.915-2.068-5.486a.937.937 0 0 0-.775-.588.923.923 0 0 0-.865.444l-2.47 4.082h-2.058c-.09.195-.17.394-.237.597-.01.037-.028.073-.037.11zm2.956-4.96c.053-.06.108-.117.163-.175-.055.055-.11.113-.163.175z"/>
        <path fill="#BFBDBD" d="M22.91 14.612c-7.496.006-13.911 5.343-15.234 12.672a14.594 14.594 0 0 0 0 5.432c1.45 8.013 8.934 13.517 17.072 12.553 8.138-.964 14.11-8.062 13.623-16.19-.487-8.127-7.266-14.47-15.462-14.467zm0 28.966a13.573 13.573 0 0 1-7.235-2.064c-5.774-3.587-8.007-10.85-5.235-17.03 2.772-6.18 9.701-9.387 16.246-7.52 6.546 1.867 10.707 8.239 9.756 14.938-.95 6.699-6.723 11.68-13.533 11.676z"/>
        <path fill="#FFF" d="M15.165 32.716h-4.1a.908.908 0 0 1-.91-.906c0-.5.407-.905.91-.905H17.835l2.469-4.082c.18-.3.515-.472.865-.444a.937.937 0 0 1 .775.588l2.068 5.486 1.758-2.915a.905.905 0 0 1 .784-.443h8.2c.503 0 .91.405.91.905s-.407.905-.91.905h-7.68l-2.47 4.083a.903.903 0 0 1-.783.443h-.082a.936.936 0 0 1-.775-.588l-2.068-5.486-1.759 2.915a.903.903 0 0 1-.783.444h-3.189z"/>
    </g>
</svg>
