<svg xmlns="http://www.w3.org/2000/svg" width="45" height="56" viewBox="0 0 45 56">
    <g fill="none" fill-rule="evenodd" transform="translate(0 6.176)">
        <circle cx="22.5" cy="22.5" r="22.5" fill="#898989"/>
        <path fill="#D8D8D8" d="M17.934 41.77l1.498-7.046a12.523 12.523 0 0 1-3.32-1.361l-4.245 5.842a19.688 19.688 0 0 0 6.067 2.566zm9.985-.22a19.713 19.713 0 0 0 5.782-2.72L29.467 33a12.549 12.549 0 0 1-3.05 1.48l1.502 7.07zm7.218-3.807a19.903 19.903 0 0 0 4.165-4.763l-6.242-3.604c-.61.935-1.34 1.783-2.169 2.523l4.246 5.844zm5.049-6.331a19.66 19.66 0 0 0 1.9-5.996l-7.17-.753a12.508 12.508 0 0 1-.983 3.14l6.253 3.609zm2.083-7.786a19.827 19.827 0 0 0-.638-6.249l-6.865 2.23a12.636 12.636 0 0 1 .329 3.264l7.174.755zm-1.182-7.965a19.77 19.77 0 0 0-3.096-5.493l-5.366 4.831a12.577 12.577 0 0 1 1.605 2.89l6.857-2.228zm-4.28-6.849a19.87 19.87 0 0 0-5.072-3.83l-2.94 6.601a12.65 12.65 0 0 1 2.657 2.05l5.355-4.82zm-6.7-4.598a19.693 19.693 0 0 0-6.257-1.469v7.226c1.163.124 2.28.407 3.326.825l2.93-6.582zM22.05 2.705c-2.26.05-4.428.48-6.44 1.227l2.938 6.6a12.566 12.566 0 0 1 3.502-.624V2.705zm-8.098 1.93a19.848 19.848 0 0 0-5.364 3.776l5.366 4.83a12.627 12.627 0 0 1 2.929-2.023l-2.93-6.583zM7.366 9.732a19.787 19.787 0 0 0-3.361 5.685l6.863 2.23a12.595 12.595 0 0 1 1.853-3.093L7.366 9.732zm-3.928 7.394a19.816 19.816 0 0 0-.701 6.587l7.171-.753a12.623 12.623 0 0 1 .388-3.606l-6.858-2.228zm-.512 8.377a19.663 19.663 0 0 0 2.082 6.283l6.243-3.605a12.51 12.51 0 0 1-1.15-3.432l-7.175.754zm2.999 7.832a19.91 19.91 0 0 0 4.47 4.834l4.235-5.829a12.672 12.672 0 0 1-2.454-2.614l-6.251 3.609zM22.5 33.3c5.965 0 10.8-4.835 10.8-10.8 0-5.965-4.835-10.8-10.8-10.8-5.965 0-10.8 4.835-10.8 10.8 0 5.965 4.835 10.8 10.8 10.8zm0 11.7C10.074 45 0 34.926 0 22.5S10.074 0 22.5 0 45 10.074 45 22.5 34.926 45 22.5 45z"/>
        <path fill="#D8D8D8" d="M19.703 42.104a19.97 19.97 0 0 0 6.463-.143l-1.497-7.047a12.68 12.68 0 0 1-3.463.12l-1.503 7.07z"/>
        <circle cx="22.5" cy="22.5" r="10.8" fill="#4C4E51"/>
        <circle cx="31.95" cy="10.35" r="1.35" fill="#FFF"/>
        <circle cx="38.25" cy="21.15" r="1.35" fill="#FFF"/>
        <circle cx="34.65" cy="32.85" r="1.35" fill="#FFF"/>
        <circle cx="15.75" cy="37.35" r="1.35" fill="#FFF"/>
        <circle cx="8.55" cy="27.45" r="1.35" fill="#FFF"/>
        <circle cx="9.45" cy="14.85" r="1.35" fill="#FFF"/>
        <circle cx="20.25" cy="7.65" r="1.35" fill="#FFF"/>
        <path fill="#FFB602" d="M26.325 4.5c.621 0 1.125.504 1.125 1.125v2.7a1.125 1.125 0 0 1-2.25 0v-2.7c0-.621.504-1.125 1.125-1.125zM11.445 8.122a1.125 1.125 0 0 1 1.567-.277l2.212 1.549a1.125 1.125 0 0 1-1.29 1.843l-2.212-1.549a1.125 1.125 0 0 1-.277-1.566z"/>
        <path fill="#F33232" d="M4.71 18.517a1.125 1.125 0 0 1 1.583.167l1.699 2.098a1.125 1.125 0 1 1-1.749 1.416L4.544 20.1a1.125 1.125 0 0 1 .167-1.583zM27.923 35.691c.439-.44 1.151-.44 1.59 0l1.91 1.91a1.125 1.125 0 1 1-1.591 1.59l-1.91-1.909a1.125 1.125 0 0 1 0-1.59zM38.297 12.438c.468.408.518 1.118.11 1.587l-1.77 2.038a1.125 1.125 0 1 1-1.699-1.476l1.771-2.038a1.125 1.125 0 0 1 1.588-.11z"/>
        <path fill="#FFB602" d="M39.934 28.901c-.39.483-1.1.558-1.582.167l-2.098-1.7a1.125 1.125 0 1 1 1.416-1.748l2.098 1.7c.483.39.557 1.099.166 1.581zM8.128 33.593a1.125 1.125 0 0 1 .935-1.287l2.667-.422a1.125 1.125 0 0 1 .352 2.222l-2.667.422a1.125 1.125 0 0 1-1.287-.935z"/>
        <rect width="12.15" height="13.95" x="17.1" y="16.2" fill="#FFF" rx="1.8"/>
        <rect width="12.6" height="14.4" x="16.2" y="15.3" fill="#3F77C1" rx="1.8"/>
        <path fill="#27638F" d="M16.2 25.2h12.6v2.7a1.8 1.8 0 0 1-1.8 1.8h-9a1.8 1.8 0 0 1-1.8-1.8v-2.7z"/>
        <path fill="#FFF" d="M19.172 19.81c.32 0 .577.075.772.227a.735.735 0 0 1 .293.613.826.826 0 0 1-.141.475c-.094.139-.246.263-.456.373.25.14.428.285.537.437a.837.837 0 0 1 .163.498.843.843 0 0 1-.322.69c-.214.173-.496.26-.846.26-.365 0-.651-.08-.86-.243-.208-.161-.312-.39-.312-.688 0-.198.05-.374.152-.528.1-.154.263-.29.487-.407a1.274 1.274 0 0 1-.41-.403.912.912 0 0 1-.126-.469c0-.249.098-.45.296-.605.198-.153.456-.23.773-.23zm-.52 2.6c0 .136.046.242.137.319a.566.566 0 0 0 .374.114c.175 0 .306-.04.392-.118a.4.4 0 0 0 .13-.31.434.434 0 0 0-.128-.3 1.656 1.656 0 0 0-.419-.296c-.324.156-.486.352-.486.59zm.516-2.062a.427.427 0 0 0-.291.096.325.325 0 0 0-.11.258c0 .096.029.18.087.256a.967.967 0 0 0 .318.232.892.892 0 0 0 .313-.223.418.418 0 0 0 .089-.265.32.32 0 0 0-.114-.26.44.44 0 0 0-.292-.094zm1.6 2.647c0-.133.035-.234.104-.302.068-.068.168-.103.298-.103.127 0 .224.035.293.105.07.07.104.17.104.3a.408.408 0 0 1-.105.297.387.387 0 0 1-.292.108.399.399 0 0 1-.296-.106.406.406 0 0 1-.105-.299zm0-1.966c0-.134.035-.235.104-.303.068-.068.168-.102.298-.102.127 0 .224.035.293.105.07.07.104.17.104.3a.404.404 0 0 1-.106.298.393.393 0 0 1-.29.106.401.401 0 0 1-.297-.104c-.07-.07-.105-.17-.105-.3zm3.566.566c0 .608-.096 1.058-.286 1.35-.191.292-.485.438-.882.438-.385 0-.675-.15-.87-.452-.196-.302-.293-.747-.293-1.336 0-.614.095-1.067.285-1.358.19-.291.483-.437.878-.437.385 0 .675.152.872.457.197.305.296.75.296 1.338zm-1.631 0c0 .427.035.733.106.918.07.185.19.277.357.277.164 0 .283-.093.356-.28.073-.188.11-.493.11-.915 0-.427-.038-.733-.111-.92-.074-.187-.192-.28-.355-.28-.166 0-.284.093-.356.28-.071.187-.107.493-.107.92zm4.297 0c0 .608-.095 1.058-.286 1.35-.191.292-.485.438-.882.438-.384 0-.674-.15-.87-.452-.195-.302-.293-.747-.293-1.336 0-.614.095-1.067.285-1.358.19-.291.483-.437.878-.437.385 0 .676.152.873.457.197.305.295.75.295 1.338zm-1.63 0c0 .427.035.733.105.918.071.185.19.277.357.277.164 0 .283-.093.356-.28.073-.188.11-.493.11-.915 0-.427-.037-.733-.111-.92-.074-.187-.192-.28-.355-.28-.166 0-.284.093-.356.28-.071.187-.107.493-.107.92zM20.41 26.1v2.7L18 27.45l2.41-1.35zm4.18 0L27 27.45l-2.41 1.35v-2.7z"/>
    </g>
</svg>
