<svg xmlns="http://www.w3.org/2000/svg" width="16" height="15" viewBox="0 0 16 15">
    <g fill="none" fill-rule="evenodd">
        <g fill="#FFB602">
            <g>
                <g>
                    <g>
                        <path d="M79.547.247c.151-.302.647-.327.856-.076l.05.076 2.204 4.409 4.918.705c.375.054.541.456.336.732l-.054.06-3.573 3.44.845 4.861c.063.362-.315.633-.657.52l-.079-.033L80 12.66l-4.393 2.28c-.338.175-.74-.062-.742-.406l.006-.081.845-4.862-3.573-3.439c-.263-.253-.143-.668.199-.773l.083-.019 4.918-.705 2.204-4.41zm2.317 5.508L80 2.025l-1.863 3.73-4.071.583 2.942 2.831-.705 4.058L80 11.308l3.697 1.919-.704-4.057 2.941-2.832-4.07-.583z" transform="translate(-217 -600) translate(35 503) translate(0 84) translate(110 13)"/>
                    </g>
                </g>
            </g>
        </g>
    </g>
</svg>
