<svg xmlns="http://www.w3.org/2000/svg" width="16" height="15" viewBox="0 0 16 15">
    <g fill="none" fill-rule="evenodd">
        <g fill="#FFB602">
            <g>
                <g>
                    <g>
                        <path d="M51.575 5.361l-4.918-.705-2.205-4.41c-.165-.328-.74-.328-.905 0l-2.204 4.41-4.918.705c-.404.059-.566.52-.282.792l3.573 3.44-.845 4.86c-.067.387.372.677.736.487L44 12.66l4.393 2.28c.36.188.804-.096.736-.486l-.845-4.861 3.573-3.44c.284-.272.122-.733-.282-.792z" transform="translate(-181 -600) translate(35 503) translate(0 84) translate(110 13)"/>
                    </g>
                </g>
            </g>
        </g>
    </g>
</svg>
