<svg xmlns="http://www.w3.org/2000/svg" width="48" height="48" viewBox="0 0 48 48">
    <path fill-rule="evenodd" d="M34.84 5.294C31.531 3.363 27.927 2.4 24 2.4c-3.926 0-7.53.963-10.839 2.894-3.315 1.934-5.932 4.55-7.867 7.867C3.364 16.469 2.4 20.074 2.4 24s.963 7.53 2.894 10.84a21.504 21.504 0 0 0 7.867 7.866C16.47 44.636 20.074 45.6 24 45.6c3.926 0 7.53-.963 10.839-2.894 3.315-1.934 5.931-4.55 7.867-7.867C44.637 31.531 45.6 27.926 45.6 24s-.963-7.531-2.893-10.84a21.504 21.504 0 0 0-7.867-7.866zm9.076 7.16C45.972 15.979 47 19.828 47 24c0 4.173-1.028 8.02-3.084 11.545-2.057 3.524-4.847 6.314-8.37 8.37C32.022 45.972 28.173 47 24 47c-4.172 0-8.02-1.028-11.545-3.085a22.903 22.903 0 0 1-8.37-8.37C2.028 32.02 1 28.173 1 24s1.028-8.021 3.085-11.545c2.057-3.524 4.847-6.314 8.37-8.37C15.98 2.028 19.829 1 24.002 1c4.173 0 8.02 1.028 11.545 3.085a22.903 22.903 0 0 1 8.37 8.37zm-24.7 12.895l-3.586-3.642c-.034-.035-.025-.031-.049-.031-.023 0-.014-.004-.054.036l-2.111 2.12c-.013.014-.016.021-.016.105 0 .064 0 .064.016.08l8.42 8.552c.034.035.024.031.048.031.043 0 .04.001.072-.031L34.585 19.74c.015-.016.015-.015.015-.08 0-.083-.003-.09-.01-.098l-2.123-2.132c-.034-.035-.025-.031-.048-.031-.024 0-.015-.004-.05.032l-7.817 7.92-1.39 1.41-1.28 1.295-1.276-1.297-1.39-1.41zm2.668.714l9.488-9.614A1.42 1.42 0 0 1 32.42 16c.402 0 .752.15 1.046.449l2.116 2.126c.28.283.419.645.419 1.086 0 .426-.14.78-.419 1.063L22.954 33.551c-.295.3-.651.449-1.07.449-.403 0-.752-.15-1.047-.45L12.418 25A1.455 1.455 0 0 1 12 23.937c0-.44.14-.803.418-1.087l2.117-2.126a1.42 1.42 0 0 1 1.046-.448c.404 0 .753.15 1.047.448l5.256 5.339z"/>
</svg>
