<svg width="30" height="30" viewBox="0 0 30 30" fill="none" xmlns="http://www.w3.org/2000/svg">
    <path d="M26.3027 8.30769H15H4.51824C2.3727 8.30769 0.920745 6.12092 1.75334 4.14352L2.30394 2.83583C2.77234 1.72339 3.86182 1 5.06885 1H26.0274C27.446 1 28.6707 1.99374 28.963 3.38197L29.2383 4.68966C29.6309 6.5543 28.2082 8.30769 26.3027 8.30769Z" stroke="#9199A8"/>
    <path d="M2.30769 7.5V27" stroke="#9199A8"/>
    <path d="M28.4615 7.5V26.7692" stroke="#9199A8"/>
    <rect x="1.26923" y="27.2692" width="28.2308" height="2.07692" rx="1.03846" stroke="#9199A8"/>
    <line x1="2.30769" y1="20.8846" x2="28.4615" y2="20.8846" stroke="#9199A8"/>
    <path d="M10.7692 24.8462H20" stroke="#9199A8"/>
    <path d="M18.3462 14.0769C18.3462 15.7125 17.0202 17.0385 15.3846 17.0385C13.749 17.0385 12.4231 15.7125 12.4231 14.0769C12.4231 12.4413 13.749 11.1154 15.3846 11.1154C17.0202 11.1154 18.3462 12.4413 18.3462 14.0769Z" stroke="#9199A8"/>
    <path d="M11.3063 20.8846C11.5477 19.2738 12.9373 18.0385 14.6154 18.0385H16.1539C17.832 18.0385 19.2215 19.2738 19.4629 20.8846H11.3063Z" stroke="#9199A8"/>
</svg>
