<svg xmlns="http://www.w3.org/2000/svg" width="24" height="24" viewBox="0 0 24 24">
    <path fill="#0064ad" fill-rule="evenodd" d="M22.91 4.827l-6.738 6.664 1.75 1.735 4.987 4.947V4.827zm-6.858 1.998c0-.776-.265-1.409-.82-1.958-.55-.546-1.178-.804-1.947-.804H3.857c-.769 0-1.397.258-1.947.804-.554.549-.82 1.182-.82 1.958v9.35c0 .776.266 1.409.82 1.958.55.546 1.179.805 1.947.805h9.429c.768 0 1.396-.26 1.947-.805.554-.55.819-1.182.819-1.958V6.825zm1.09 2.191l1.092-1.079 4.306-4.26a.8.8 0 0 1 .603-.252.94.94 0 0 1 .335.066c.348.15.522.412.522.784v14.45c0 .372-.174.633-.522.784a.941.941 0 0 1-.335.066.8.8 0 0 1-.603-.252l-4.306-4.27-1.091-1.083v2.205c0 1.054-.377 1.954-1.132 2.703A3.73 3.73 0 0 1 13.286 20H3.857a3.731 3.731 0 0 1-2.725-1.122C.377 18.129 0 17.228 0 16.175v-9.35c0-1.054.377-1.954 1.132-2.703A3.731 3.731 0 0 1 3.857 3h9.428a3.73 3.73 0 0 1 2.726 1.122c.754.749 1.132 1.65 1.132 2.703v2.191z" class="videocall"/>
</svg>