<svg xmlns="http://www.w3.org/2000/svg" width="24" height="24" viewBox="0 0 24 24">
    <g fill-rule="evenodd">
        <g>
            <g>
                <g>
                    <g>
                        <path fill-rule="nonzero" d="M13.367 4c.923 0 1.691.324 2.35.993.621.63.946 1.363.986 2.234l.005.188v4.226L24 4.262V20.74l-7.293-7.398v4.244c0 .89-.282 1.64-.86 2.286l-.13.136c-.615.624-1.325.948-2.167.989l-.183.004H3.34c-.922 0-1.691-.324-2.35-.993-.62-.63-.945-1.363-.986-2.234L0 17.585V7.415c0-.953.325-1.748.99-2.422.615-.624 1.326-.948 2.168-.989L3.34 4h10.027zM3.376 5.5l-.146.003c-.462.022-.818.184-1.172.543-.345.35-.518.717-.552 1.188l-.006.181V17.55l.003.154c.023.498.193.882.555 1.25.336.341.677.507 1.114.54l.168.006h9.992l.146-.003c.404-.019.727-.146 1.022-.4l.125-.118.105-.11c.288-.322.438-.663.47-1.094l.008-.19V7.45l-.003-.154c-.023-.498-.193-.882-.555-1.25-.337-.341-.678-.507-1.115-.54l-.168-.006H3.376zM22.5 7.912l-4.525 4.579L22.5 17.08V7.912z" transform="translate(-1108.000000, -136.000000) translate(501.000000, 128.000000) translate(599.000000, 0.000000) translate(8.000000, 8.000000)"/>
                    </g>
                </g>
            </g>
        </g>
    </g>
</svg>
