<svg xmlns="http://www.w3.org/2000/svg" width="32" height="32" viewBox="0 0 32 32">
    <g>
        <g>
            <g>
                <path d="M17.823 5c1.23 0 2.255.42 3.134 1.285.828.815 1.26 1.764 1.314 2.89l.006.245v5.468L32 5.34v21.322l-9.724-9.573v5.491c0 1.152-.376 2.124-1.148 2.958l-.171.177c-.82.808-1.768 1.227-2.89 1.28l-.244.005H4.454c-1.23 0-2.255-.42-3.134-1.285C.492 24.9.06 23.951.006 22.825L0 22.58V9.42c0-1.234.433-2.262 1.32-3.135.82-.807 1.767-1.227 2.89-1.28L4.455 5h13.369zm0 1.062H4.453c-.95 0-1.707.31-2.387.98-.632.622-.951 1.313-.997 2.162l-.006.216v13.16c0 .949.319 1.704 1.003 2.378.628.618 1.32.93 2.172.974l.216.006h13.369c.951 0 1.708-.31 2.388-.98.631-.622.951-1.313.997-2.162l.005-.216v-6.537l-.056-.056.056-.056V9.42c0-.876-.27-1.587-.851-2.221l-.151-.157c-.628-.618-1.321-.93-2.172-.974l-.216-.006zm13.113 1.811l-8.263 8.114 8.263 8.136V7.873z" transform="translate(-1108 -135) translate(1108 135)"/>
            </g>
        </g>
    </g>
</svg>
