<svg xmlns="http://www.w3.org/2000/svg" width="24" height="24" viewBox="0 0 24 24">
    <g fill="none" fill-rule="evenodd">
        <g>
            <g>
                <g>
                    <g>
                        <g fill-rule="nonzero" transform="translate(-1108.000000, -136.000000) translate(501.000000, 128.000000) translate(599.000000, 0.000000) translate(8.000000, 8.000000) translate(0.000000, 4.800000)">
                            <path fill="#999CA0" d="M21.931 1.194L22.759 7.2 21.931 13.206 17.379 10.588 16.552 7.2 17.379 3.812z"/>
                            <rect width="17.379" height="14.4" fill="#3B97D3" rx="1.034"/>
                            <path fill="#FFF" d="M16.345 0c.571 0 1.034.463 1.034 1.034v3.6c0-.57-.463-1.034-1.034-1.034H1.035C.462 3.6 0 4.063 0 4.634v-3.6C0 .464.463 0 1.034 0h15.31z" opacity=".34"/>
                            <path fill="#4C4E51" d="M24 1.448v11.504c0 .3-.157.578-.41.73-.254.151-.567.154-.823.006l-.836-.482V1.194l.836-.482c.256-.148.57-.145.823.006.253.152.41.43.41.73z"/>
                        </g>
                        <path fill="#FFF" d="M12.306 12.447l-5.582 2.791c-.247.124-.548.024-.671-.223-.035-.07-.053-.146-.053-.224V9.209c0-.276.224-.5.5-.5.078 0 .154.018.224.053l5.582 2.79c.247.124.347.425.223.672-.048.096-.127.175-.223.223z" transform="translate(-1108.000000, -136.000000) translate(501.000000, 128.000000) translate(599.000000, 0.000000) translate(8.000000, 8.000000)"/>
                    </g>
                </g>
            </g>
        </g>
    </g>
</svg>
