<svg xmlns="http://www.w3.org/2000/svg" viewBox="0 0 24 24">
    <path fill="#0064ad" fill-rule="evenodd" d="M2.5 0h11.597L21.5 7.194V24h-19V0zm17.378 6.923l-5.503-5.347v5.347h5.503zM3.45 23.077h16.428l-3.569-3.468a5.689 5.689 0 0 1-3.619 1.29c-3.098 0-5.618-2.449-5.618-5.46 0-3.01 2.52-5.458 5.618-5.458 3.098 0 5.618 2.449 5.618 5.459 0 1.34-.5 2.566-1.327 3.516l3.569 3.468V7.846h-7.125V.923H3.45v22.154zm9.24-3.101c2.574 0 4.668-2.035 4.668-4.536 0-2.501-2.094-4.536-4.668-4.536-2.574 0-4.668 2.035-4.668 4.536 0 2.5 2.094 4.536 4.668 4.536zm-2.768-5.668a.468.468 0 0 1-.475-.462c0-.255.212-.461.475-.461h2.85c.263 0 .475.206.475.461a.468.468 0 0 1-.475.462h-2.85zm5.7 1.846c.263 0 .475.206.475.461a.468.468 0 0 1-.475.462h-5.7a.468.468 0 0 1-.475-.462c0-.255.212-.461.475-.461h5.7z"/>
</svg>
