<svg xmlns="http://www.w3.org/2000/svg" width="48" height="48" viewBox="0 0 48 48">
    <path fill-rule="evenodd" d="M46.186 38.68L26.497 6.371A2.945 2.945 0 0 0 24 4.979a2.945 2.945 0 0 0-2.498 1.393L1.814 38.679a2.834 2.834 0 0 0-.042 2.879 2.927 2.927 0 0 0 2.54 1.462h39.377a2.927 2.927 0 0 0 2.539-1.462 2.834 2.834 0 0 0-.042-2.879zm1.196-.73a4.234 4.234 0 0 1 .062 4.302 4.327 4.327 0 0 1-3.755 2.168H4.31a4.327 4.327 0 0 1-3.755-2.168 4.234 4.234 0 0 1 .062-4.301L20.307 5.643A4.345 4.345 0 0 1 24 3.579c1.502 0 2.917.791 3.693 2.064L47.382 37.95zM24.014 16.002c-.895 0-1.416.408-1.416 1.05 0 1.407.05 2.725.202 5.833.153 3.132.204 4.462.204 5.9 0 .356.316.563 1.01.563.548 0 .982-.266.982-.562 0-1.439.051-2.769.204-5.901.151-3.107.202-4.426.202-5.833 0-.63-.536-1.05-1.388-1.05zm0-1.4c1.56 0 2.788.96 2.788 2.45 0 1.439-.051 2.769-.204 5.9-.151 3.108-.202 4.427-.202 5.834 0 1.25-1.16 1.962-2.381 1.962-1.375 0-2.411-.68-2.411-1.962 0-1.407-.05-2.726-.202-5.833-.153-3.132-.204-4.462-.204-5.9 0-1.502 1.213-2.45 2.816-2.45zm.03 19.125c-.868 0-1.533.67-1.533 1.51 0 .821.676 1.508 1.533 1.508.795 0 1.503-.713 1.503-1.509 0-.813-.696-1.509-1.503-1.509zm0-1.4c1.58 0 2.903 1.322 2.903 2.91 0 1.566-1.332 2.908-2.903 2.908a2.921 2.921 0 0 1-2.933-2.909 2.903 2.903 0 0 1 2.933-2.909z"/>
</svg>
