<svg xmlns="http://www.w3.org/2000/svg" width="44" height="44" viewBox="0 0 44 44">
    <path fill="#BFBDBD" fill-rule="evenodd" d="M24.255 9.267l-.077-.13C23.223 7.525 22.708 7 22 7c-.776 0-1.266.523-2.28 2.304l-.014.024L7.897 31.29a325.2 325.2 0 0 0-.852 1.591l-.041.079a88.07 88.07 0 0 0-.764 1.465c-.103.203-.182.365-.235.48C6.08 36.113 6.957 37 8.025 37h27.95c1.068 0 1.946-.887 2.02-2.098a11.399 11.399 0 0 0-.123-.26c-.13-.266-.314-.63-.542-1.07-.377-.728-.864-1.647-1.256-2.374L24.284 9.315l-.03-.048zm.9-.442l11.8 21.899c.641 1.19 2.045 3.841 2.045 4.011C39 36.585 37.644 38 35.976 38H8.024C6.357 38 5 36.586 5 34.735c0-.17 1.384-2.743 2.016-3.918l11.81-21.962.032-.057C19.64 7.422 20.45 6 22 6c1.486 0 2.314 1.402 3.115 2.758l.04.067zM21.993 32a.73.73 0 0 1-.73-.73V20.368h1.459v10.904a.73.73 0 0 1-.73.729zm-.853-14.243c0-.334.082-.579.246-.734a.86.86 0 0 1 .615-.233.86.86 0 0 1 .607.237c.17.159.255.402.255.73 0 .328-.085.573-.255.734a.851.851 0 0 1-.607.241.843.843 0 0 1-.615-.241c-.164-.161-.246-.406-.246-.734z"/>
</svg>
