<?xml version="1.0" encoding="UTF-8"?>
<svg width="20px" height="20px" viewBox="0 0 20 20" version="1.1" xmlns="http://www.w3.org/2000/svg" xmlns:xlink="http://www.w3.org/1999/xlink">
    <title>ph:warning-light</title>
    <g id="Client-dashboad" stroke="none" stroke-width="1" fill="none" fill-rule="evenodd">
        <g id="ph:warning-light">
            <rect id="ViewBox" x="0" y="0" width="20" height="20"></rect>
            <path d="M18.922539,15.5346176 L11.6345138,2.62049273 C11.2939246,2.02953243 10.6722619,1.66666667 10.0004162,1.66666667 C9.32857054,1.66666667 8.70690786,2.02953243 8.36631862,2.62049273 L1.07829339,15.5346176 C0.75167998,16.1051555 0.75167998,16.8110198 1.07829339,17.3815577 C1.4145667,17.9770805 2.03972981,18.340926 2.71322428,18.3332131 L17.2876081,18.3332131 C17.9605091,18.3403084 18.5848922,17.976546 18.9208724,17.3815577 C19.2480008,16.8113268 19.2486378,16.1054623 18.922539,15.5346176 Z M18.0550757,16.8705029 C17.8965007,17.1487423 17.6029895,17.317849 17.2876081,17.3127953 L2.71322428,17.3127953 C2.39784293,17.317849 2.10433171,17.1487423 1.94575672,16.8705029 C1.79736085,16.6158005 1.79736085,16.2986741 1.94575672,16.0439717 L9.23294865,3.12984684 C9.39499238,2.85515623 9.68622064,2.68717834 10.0004162,2.68717834 C10.3146118,2.68717834 10.60584,2.85515623 10.7678838,3.12984684 L18.055909,16.0439717 C18.2040482,16.2988299 18.2037284,16.6159564 18.0550757,16.8705029 L18.0550757,16.8705029 Z M9.50043734,11.7004312 L9.50043734,8.29906822 C9.50043734,8.01729009 9.72428551,7.78886377 10.0004162,7.78886377 C10.2765469,7.78886377 10.5003951,8.01729009 10.5003951,8.29906822 L10.5003951,11.7004312 C10.5003951,11.9822093 10.2765469,12.2106356 10.0004162,12.2106356 C9.72428551,12.2106356 9.50043734,11.9822093 9.50043734,11.7004312 Z M10.8337143,14.7616579 C10.8337143,15.2312881 10.460634,15.6119986 10.0004162,15.6119986 C9.54019837,15.6119986 9.1671181,15.2312881 9.1671181,14.7616579 C9.1671181,14.2920276 9.54019837,13.9113171 10.0004162,13.9113171 C10.460634,13.9113171 10.8337143,14.2920276 10.8337143,14.7616579 Z" id="Shape" fill="#0064AD" fill-rule="nonzero"></path>
        </g>
    </g>
</svg>