<svg width="24" height="24" viewBox="0 0 24 24" xmlns="http://www.w3.org/2000/svg">
    <path d="M12 2c.918 0 1.803.119 2.656.356.853.238 1.65.573 2.393 1.006a9.93 9.93 0 0 1 2.026 1.563 9.93 9.93 0 0 1 1.563 2.026c.433.742.768 1.54 1.006 2.393.237.853.356 1.738.356 2.656 0 .918-.119 1.803-.356 2.656a10.115 10.115 0 0 1-1.006 2.393 9.93 9.93 0 0 1-1.563 2.026 9.93 9.93 0 0 1-2.026 1.563c-.742.433-1.54.768-2.393 1.006A9.848 9.848 0 0 1 12 22a9.848 9.848 0 0 1-2.656-.356 10.115 10.115 0 0 1-2.393-1.006 9.93 9.93 0 0 1-2.026-1.563 9.93 9.93 0 0 1-1.563-2.026 10.137 10.137 0 0 1-1.006-2.388A9.831 9.831 0 0 1 2 12c0-.918.119-1.803.356-2.656.238-.853.573-1.65 1.006-2.393a9.93 9.93 0 0 1 1.563-2.026A9.93 9.93 0 0 1 6.95 3.362a10.137 10.137 0 0 1 2.388-1.006A9.831 9.831 0 0 1 12 2zm3.644 13.64h-7.29l.08.373.041.176.047.185.11.404c.1.356.224.726.372 1.109s.318.761.51 1.134c.194.379.414.719.66 1.02.25.306.525.554.822.743.31.196.646.296 1.004.296s.694-.1 1.004-.296c.297-.19.571-.437.821-.743.247-.301.467-.641.662-1.02.191-.373.361-.751.51-1.134.147-.383.271-.753.372-1.109l.11-.404c.048-.19.09-.365.122-.523l.043-.21zm-8.23 0H3.678l.283.572.174.319a9.227 9.227 0 0 0 3.263 3.291c.52.311 1.065.565 1.633.761l.524.18-.324-.449-.17-.247a8.347 8.347 0 0 1-.462-.784 10.627 10.627 0 0 1-.504-1.13 11.792 11.792 0 0 1-.377-1.18c-.105-.4-.197-.797-.276-1.192l-.028-.14zm12.902 0h-3.728l-.114.538-.091.396-.101.4c-.105.398-.23.791-.377 1.18-.147.387-.315.764-.504 1.129a8.273 8.273 0 0 1-.632 1.031l-.324.45.524-.181.338-.125a8.754 8.754 0 0 0 1.295-.636 9.227 9.227 0 0 0 2.664-2.385c.364-.483.675-.999.932-1.546l.118-.25zm.35-6.36h-3.934l.07.62.04.417.03.417a20.132 20.132 0 0 1-.118 3.788l-.024.198h3.937l.037-.125.1-.359c.184-.72.276-1.466.276-2.236 0-.898-.125-1.763-.376-2.595l-.037-.125zm-4.864 0H8.196l-.067.58-.042.426-.034.425a18.236 18.236 0 0 0 0 2.578c.03.424.072.85.126 1.277l.019.154h7.604l.069-.58c.03-.285.055-.568.076-.85a18.236 18.236 0 0 0 0-2.58c-.03-.423-.072-.849-.126-1.276l-.019-.154zm-8.532 0H3.33l-.133.48-.085.364A9.09 9.09 0 0 0 2.92 12c0 .898.125 1.763.376 2.595l.037.125H7.27l-.024-.198-.049-.42a20.394 20.394 0 0 1-.07-3.368c.027-.417.066-.836.119-1.256l.024-.198zM12 2.92c-.358 0-.694.1-1.004.296-.297.19-.571.437-.821.743a5.755 5.755 0 0 0-.662 1.02c-.191.373-.361.751-.51 1.134a12.66 12.66 0 0 0-.372 1.109l-.11.404c-.048.19-.09.365-.122.523l-.043.21h7.288l-.079-.374a12.083 12.083 0 0 0-.087-.36l-.11-.403a12.66 12.66 0 0 0-.372-1.109 11.729 11.729 0 0 0-.51-1.134 5.755 5.755 0 0 0-.66-1.02 3.473 3.473 0 0 0-.822-.743A1.84 1.84 0 0 0 12 2.92zm2.445.316.324.45.17.247c.167.25.321.512.462.784.19.365.357.742.504 1.13.147.388.272.781.377 1.18.105.4.197.797.276 1.192l.028.14h3.73l-.118-.25-.16-.324a8.67 8.67 0 0 0-.773-1.222 9.227 9.227 0 0 0-2.663-2.385 8.733 8.733 0 0 0-1.633-.761l-.524-.18zm-4.89 0-.524.181-.338.125a8.754 8.754 0 0 0-1.295.636 9.227 9.227 0 0 0-2.664 2.385 8.669 8.669 0 0 0-.932 1.546l-.118.25h3.73l.111-.536c.059-.264.123-.53.193-.797.105-.398.23-.791.377-1.18.147-.387.315-.764.504-1.129.188-.363.399-.707.632-1.031l.324-.45z" fill="#0064AD" fill-rule="evenodd"/>
</svg>
