<svg width="16" height="16" viewBox="0 0 16 16" xmlns="http://www.w3.org/2000/svg">
    <path d="M8 15c.643 0 1.262-.083 1.86-.25a6.951 6.951 0 0 0 4.187-3.216c.302-.52.537-1.078.703-1.675.167-.597.25-1.216.25-1.859s-.083-1.262-.25-1.86a6.951 6.951 0 0 0-3.216-4.187A7.079 7.079 0 0 0 9.86 1.25 6.895 6.895 0 0 0 8 1c-.647 0-1.268.083-1.863.25a7.094 7.094 0 0 0-1.671.704 6.951 6.951 0 0 0-2.512 2.512A7.079 7.079 0 0 0 1.25 6.14 6.895 6.895 0 0 0 1 8c0 .647.083 1.268.25 1.863.166.595.4 1.152.704 1.671a6.951 6.951 0 0 0 2.512 2.512c.52.303 1.078.538 1.675.704.597.167 1.216.25 1.859.25zm2.358-9.625H5.642a8.997 8.997 0 0 1 .41-1.38c.1-.26.215-.517.345-.77.13-.253.277-.48.44-.68.165-.2.344-.362.538-.485a1.145 1.145 0 0 1 1.25 0c.194.123.373.284.537.485.164.2.311.427.441.68a8.589 8.589 0 0 1 .598 1.521c.069.242.12.451.157.629zm3.172 0h-2.276c-.055-.273-.119-.55-.191-.827a8.233 8.233 0 0 0-.264-.824 7.431 7.431 0 0 0-.352-.79 5.812 5.812 0 0 0-.444-.724c.383.132.75.303 1.1.513a6.227 6.227 0 0 1 1.798 1.61c.246.325.456.673.63 1.042zm-8.784 0H2.47c.173-.37.383-.717.629-1.042A6.227 6.227 0 0 1 5.997 2.21c-.164.228-.312.47-.444.725s-.25.518-.352.79c-.103.27-.19.545-.263.823-.073.278-.137.554-.192.827zm9.126 4.375h-2.481a14.247 14.247 0 0 0 .082-2.628c-.019-.29-.046-.58-.082-.872h2.481c.169.56.253 1.144.253 1.75 0 .606-.084 1.19-.253 1.75zm-3.363 0H5.49a16.336 16.336 0 0 1-.085-.872 12.424 12.424 0 0 1 0-1.756c.02-.29.049-.58.085-.872h5.018c.036.292.065.582.085.872a12.424 12.424 0 0 1 0 1.756c-.02.29-.049.58-.085.872zm-5.9 0H2.128A6.042 6.042 0 0 1 1.875 8c0-.606.084-1.19.253-1.75h2.481a14.247 14.247 0 0 0-.082 2.628c.019.29.046.58.082.872zM8 14.125c-.223 0-.432-.062-.625-.185a2.27 2.27 0 0 1-.537-.485 3.838 3.838 0 0 1-.441-.68 8.589 8.589 0 0 1-.598-1.521 8.997 8.997 0 0 1-.157-.629h4.716a8.997 8.997 0 0 1-.41 1.38c-.1.26-.215.517-.345.77-.13.253-.277.48-.44.68a2.27 2.27 0 0 1-.538.485 1.145 1.145 0 0 1-.625.185zm-2.003-.335a5.887 5.887 0 0 1-1.1-.513 6.227 6.227 0 0 1-1.798-1.61 5.843 5.843 0 0 1-.63-1.042h2.277c.055.273.119.55.191.827.073.278.161.553.264.824.102.271.22.534.352.79.132.255.28.496.444.724zm4.006 0c.164-.228.312-.47.444-.725s.25-.518.352-.79c.103-.27.19-.545.264-.823.072-.278.136-.554.19-.827h2.277c-.173.37-.383.717-.629 1.042a6.227 6.227 0 0 1-2.898 2.123z" fill="#FFF" fill-rule="nonzero"/>
</svg>
