<svg xmlns="http://www.w3.org/2000/svg" width="44" height="44" viewBox="0 0 44 44">
    <path fill-rule="evenodd" d="M16 19h9.5a.5.5 0 1 1 0 1H16v2.5a.5.5 0 1 1-1 0V15H7v14.333C7 30.253 7.746 31 8.667 31H15v-4.5a.5.5 0 1 1 1 0V31h5.5a.5.5 0 1 1 0 1H8.667A2.667 2.667 0 0 1 6 29.333V7.666A2.666 2.666 0 0 1 8.667 5h26.667A2.665 2.665 0 0 1 38 7.666v26.667A2.666 2.666 0 0 1 35.334 37H29.5a.5.5 0 0 1-.5-.5v-5a.5.5 0 1 1 1 0V36h5.334c.92 0 1.666-.746 1.666-1.667V20h-7.5a.5.5 0 0 1-.5-.5v-6a.5.5 0 1 1 1 0V19h7V7.666C37 6.746 36.255 6 35.334 6H8.667C7.746 6 7 6.746 7 7.666V14h8V8.5a.5.5 0 1 1 1 0V19z"/>
</svg>
