<svg width="30" height="30" viewBox="0 0 30 30" xmlns="http://www.w3.org/2000/svg">
    <g fill="none" fill-rule="evenodd">
        <path d="M28 .5c.414 0 .79.168 1.06.44.272.27.44.646.44 1.06v26c0 .414-.168.79-.44 1.06-.27.272-.646.44-1.06.44H1.935a1.4 1.4 0 0 1-1.009-.433A1.529 1.529 0 0 1 .5 28V2c0-.416.162-.794.426-1.067A1.4 1.4 0 0 1 1.936.5H28z" stroke="#E0E0E0" fill="#FFF"/>
        <path d="M11.136 15.312a.422.422 0 0 1 0-.62l5.79-5.564a.478.478 0 0 1 .33-.128c.125 0 .241.045.33.128l.278.262a.422.422 0 0 1 0 .619l-5.184 4.993 5.18 4.99a.42.42 0 0 1 0 .618l-.278.262a.478.478 0 0 1-.33.128.478.478 0 0 1-.329-.128l-5.787-5.56z" fill="#4C4E51"/>
    </g>
</svg>
