<?xml version="1.0" encoding="UTF-8"?>
<svg width="32px" height="32px" viewBox="0 0 32 32" version="1.1" xmlns="http://www.w3.org/2000/svg" xmlns:xlink="http://www.w3.org/1999/xlink">
    <!-- Generator: Sketch 48.2 (47327) - http://www.bohemiancoding.com/sketch -->
    <title>pin_5</title>
    <desc>Created with Sketch.</desc>
    <defs></defs>
    <g id="Page-1" stroke="none" stroke-width="1" fill="none" fill-rule="evenodd">
        <g id="pin_5">
            <circle id="Oval-2" fill="#FFFFFF" cx="16" cy="11" r="8"></circle>
            <g id="Group" transform="translate(5.000000, 0.000000)" fill="#44597D">
                <g id="map-placeholder" fill-rule="nonzero">
                    <path d="M21.7697059,10.964 C21.7697059,4.90866667 16.8971324,0 10.8863235,0 C4.87617647,0 0.00360294118,4.90866667 0.00360294118,10.964 C0.00360294118,12.1473333 0.192205882,13.2866667 0.536985294,14.3546667 C0.536985294,14.3546667 1.45286765,18.496 10.8181618,30.8493333 C16.1804412,23.7753333 18.77125,19.3973333 20.0067647,16.9446667 C21.1198529,15.224 21.7697059,13.1706667 21.7697059,10.964 Z M10.7658824,18.0293333 C6.95941176,18.0293333 3.87294118,14.9206667 3.87294118,11.0853333 C3.87294118,7.25066667 6.95941176,4.142 10.7658824,4.142 C14.5723529,4.142 17.6588235,7.25066667 17.6588235,11.0853333 C17.6581618,14.9206667 14.5723529,18.0293333 10.7658824,18.0293333 Z" id="Shape"></path>
                    <path d="M10.8863235,30.9413333 C10.8625,30.91 10.84,30.88 10.8168382,30.8486667 C10.7930147,30.88 10.7705147,30.9093333 10.7466912,30.9413333 L10.8863235,30.9413333 Z" id="Shape"></path>
                </g>
                <path d="M13.664,8.004 L10.196,8.004 L9.86,9.912 L9.884,9.936 C10.1160012,9.70399884 10.3639987,9.5380005 10.628,9.438 C10.8920013,9.3379995 11.1919983,9.288 11.528,9.288 C11.9440021,9.288 12.3119984,9.36399924 12.632,9.516 C12.9520016,9.66800076 13.2219989,9.87199872 13.442,10.128 C13.6620011,10.3840013 13.8299994,10.6859983 13.946,11.034 C14.0620006,11.3820017 14.12,11.751998 14.12,12.144 C14.12,12.5760022 14.0360008,12.9779981 13.868,13.35 C13.6999992,13.7220019 13.4740014,14.0439986 13.19,14.316 C12.9059986,14.5880014 12.5760019,14.7979993 12.2,14.946 C11.8239981,15.0940007 11.4240021,15.164 11,15.156 C10.591998,15.156 10.2020019,15.1020005 9.83,14.994 C9.45799814,14.8859995 9.12800144,14.7200011 8.84,14.496 C8.55199856,14.2719989 8.32200086,13.9940017 8.15,13.662 C7.97799914,13.3299983 7.88800004,12.9440022 7.88,12.504 L9.584,12.504 C9.6240002,12.8880019 9.76799876,13.1939989 10.016,13.422 C10.2640012,13.6500011 10.5799981,13.764 10.964,13.764 C11.1880011,13.764 11.3899991,13.7180005 11.57,13.626 C11.7500009,13.5339995 11.9019994,13.4140007 12.026,13.266 C12.1500006,13.1179993 12.2459997,12.946001 12.314,12.75 C12.3820003,12.553999 12.416,12.352001 12.416,12.144 C12.416,11.9279989 12.3840003,11.724001 12.32,11.532 C12.2559997,11.339999 12.1600006,11.1720007 12.032,11.028 C11.9039994,10.8839993 11.7520009,10.7720004 11.576,10.692 C11.3999991,10.6119996 11.1960012,10.572 10.964,10.572 C10.6599985,10.572 10.412001,10.6259995 10.22,10.734 C10.027999,10.8420005 9.84800084,11.0119988 9.68,11.244 L8.144,11.244 L8.972,6.6 L13.664,6.6 L13.664,8.004 Z" id="5"></path>
            </g>
        </g>
    </g>
</svg>