<?xml version="1.0" encoding="UTF-8"?>
<svg width="32px" height="32px" viewBox="0 0 32 32" version="1.1" xmlns="http://www.w3.org/2000/svg" xmlns:xlink="http://www.w3.org/1999/xlink">
    <!-- Generator: Sketch 48.2 (47327) - http://www.bohemiancoding.com/sketch -->
    <title>pin_3green</title>
    <desc>Created with Sketch.</desc>
    <defs></defs>
    <g id="Page-1" stroke="none" stroke-width="1" fill="none" fill-rule="evenodd">
        <g id="pin_3green">
            <circle id="Oval-2" fill="#FFFFFF" cx="16" cy="11" r="8"></circle>
            <g id="Group" transform="translate(5.000000, 0.000000)" fill="#009288">
                <g id="map-placeholder" fill-rule="nonzero">
                    <path d="M21.7697059,10.964 C21.7697059,4.90866667 16.8971324,0 10.8863235,0 C4.87617647,0 0.00360294118,4.90866667 0.00360294118,10.964 C0.00360294118,12.1473333 0.192205882,13.2866667 0.536985294,14.3546667 C0.536985294,14.3546667 1.45286765,18.496 10.8181618,30.8493333 C16.1804412,23.7753333 18.77125,19.3973333 20.0067647,16.9446667 C21.1198529,15.224 21.7697059,13.1706667 21.7697059,10.964 Z M10.7658824,18.0293333 C6.95941176,18.0293333 3.87294118,14.9206667 3.87294118,11.0853333 C3.87294118,7.25066667 6.95941176,4.142 10.7658824,4.142 C14.5723529,4.142 17.6588235,7.25066667 17.6588235,11.0853333 C17.6581618,14.9206667 14.5723529,18.0293333 10.7658824,18.0293333 Z" id="Shape"></path>
                    <path d="M10.8863235,30.9413333 C10.8625,30.91 10.84,30.88 10.8168382,30.8486667 C10.7930147,30.88 10.7705147,30.9093333 10.7466912,30.9413333 L10.8863235,30.9413333 Z" id="Shape"></path>
                </g>
                <path d="M10.4,9.996 C10.5840009,10.0120001 10.779999,10.0120001 10.988,9.996 C11.196001,9.97999992 11.3899991,9.93400038 11.57,9.858 C11.7500009,9.78199962 11.8979994,9.67200072 12.014,9.528 C12.1300006,9.38399928 12.188,9.1920012 12.188,8.952 C12.188,8.5919982 12.0680012,8.31600096 11.828,8.124 C11.5879988,7.93199904 11.3120016,7.836 11,7.836 C10.5679978,7.836 10.2420011,7.97799858 10.022,8.262 C9.8019989,8.54600142 9.69599996,8.90399784 9.704,9.336 L8.084,9.336 C8.10000008,8.90399784 8.1779993,8.51000178 8.318,8.154 C8.4580007,7.79799822 8.65399874,7.49200128 8.906,7.236 C9.15800126,6.97999872 9.45999824,6.7820007 9.812,6.642 C10.1640018,6.5019993 10.5559978,6.432 10.988,6.432 C11.3240017,6.432 11.6599983,6.4819995 11.996,6.582 C12.3320017,6.6820005 12.6339987,6.831999 12.902,7.032 C13.1700013,7.232001 13.3879992,7.47599856 13.556,7.764 C13.7240008,8.05200144 13.808,8.38399812 13.808,8.76 C13.808,9.16800204 13.710001,9.52799844 13.514,9.84 C13.317999,10.1520016 13.024002,10.3639994 12.632,10.476 L12.632,10.5 C13.0960023,10.6040005 13.4599987,10.8279983 13.724,11.172 C13.9880013,11.5160017 14.12,11.9279976 14.12,12.408 C14.12,12.8480022 14.0340009,13.2399983 13.862,13.584 C13.6899991,13.9280017 13.4600014,14.2159988 13.172,14.448 C12.8839986,14.6800012 12.5520019,14.8559994 12.176,14.976 C11.7999981,15.0960006 11.408002,15.156 11,15.156 C10.5279976,15.156 10.0980019,15.0880007 9.71,14.952 C9.32199806,14.8159993 8.99200136,14.6180013 8.72,14.358 C8.44799864,14.0979987 8.23800074,13.7800019 8.09,13.404 C7.94199926,13.0279981 7.87199996,12.5960024 7.88,12.108 L9.5,12.108 C9.50800004,12.3320011 9.54399968,12.545999 9.608,12.75 C9.67200032,12.954001 9.7639994,13.1299993 9.884,13.278 C10.0040006,13.4260007 10.1539991,13.5439996 10.334,13.632 C10.5140009,13.7200004 10.7279988,13.764 10.976,13.764 C11.3600019,13.764 11.6839987,13.6460012 11.948,13.41 C12.2120013,13.1739988 12.344,12.852002 12.344,12.444 C12.344,12.1239984 12.2820006,11.8800008 12.158,11.712 C12.0339994,11.5439992 11.876001,11.4220004 11.684,11.346 C11.491999,11.2699996 11.2820011,11.2260001 11.054,11.214 C10.8259989,11.2019999 10.608001,11.196 10.4,11.196 L10.4,9.996 Z" id="3"></path>
            </g>
        </g>
    </g>
</svg>