<?xml version="1.0" encoding="UTF-8"?>
<svg width="32px" height="32px" viewBox="0 0 32 32" version="1.1" xmlns="http://www.w3.org/2000/svg" xmlns:xlink="http://www.w3.org/1999/xlink">
    <!-- Generator: Sketch 48.2 (47327) - http://www.bohemiancoding.com/sketch -->
    <title>pin_2green</title>
    <desc>Created with Sketch.</desc>
    <defs></defs>
    <g id="Page-1" stroke="none" stroke-width="1" fill="none" fill-rule="evenodd">
        <g id="pin_2green">
            <circle id="Oval-2" fill="#FFFFFF" cx="16" cy="11" r="8"></circle>
            <g id="Group" transform="translate(5.000000, 0.000000)" fill="#009288">
                <g id="map-placeholder" fill-rule="nonzero">
                    <path d="M21.7697059,10.964 C21.7697059,4.90866667 16.8971324,0 10.8863235,0 C4.87617647,0 0.00360294118,4.90866667 0.00360294118,10.964 C0.00360294118,12.1473333 0.192205882,13.2866667 0.536985294,14.3546667 C0.536985294,14.3546667 1.45286765,18.496 10.8181618,30.8493333 C16.1804412,23.7753333 18.77125,19.3973333 20.0067647,16.9446667 C21.1198529,15.224 21.7697059,13.1706667 21.7697059,10.964 Z M10.7658824,18.0293333 C6.95941176,18.0293333 3.87294118,14.9206667 3.87294118,11.0853333 C3.87294118,7.25066667 6.95941176,4.142 10.7658824,4.142 C14.5723529,4.142 17.6588235,7.25066667 17.6588235,11.0853333 C17.6581618,14.9206667 14.5723529,18.0293333 10.7658824,18.0293333 Z" id="Shape"></path>
                    <path d="M10.8863235,30.9413333 C10.8625,30.91 10.84,30.88 10.8168382,30.8486667 C10.7930147,30.88 10.7705147,30.9093333 10.7466912,30.9413333 L10.8863235,30.9413333 Z" id="Shape"></path>
                </g>
                <path d="M8.108,9.828 C8.09199992,9.3479976 8.14799936,8.90200206 8.276,8.49 C8.40400064,8.07799794 8.59599872,7.71800154 8.852,7.41 C9.10800128,7.10199846 9.42999806,6.86200086 9.818,6.69 C10.2060019,6.51799914 10.6519975,6.432 11.156,6.432 C11.5400019,6.432 11.9059983,6.4919994 12.254,6.612 C12.6020017,6.7320006 12.9079987,6.90399888 13.172,7.128 C13.4360013,7.35200112 13.6459992,7.62799836 13.802,7.956 C13.9580008,8.28400164 14.036,8.65199796 14.036,9.06 C14.036,9.48400212 13.9680007,9.84799848 13.832,10.152 C13.6959993,10.4560015 13.5160011,10.7259988 13.292,10.962 C13.0679989,11.1980012 12.8140014,11.411999 12.53,11.604 C12.2459986,11.796001 11.9600014,11.9859991 11.672,12.174 C11.3839986,12.3620009 11.1040014,12.5639989 10.832,12.78 C10.5599986,12.9960011 10.320001,13.2479986 10.112,13.536 L14.084,13.536 L14.084,15 L7.916,15 C7.916,14.5119976 7.9859993,14.0880018 8.126,13.728 C8.2660007,13.3679982 8.4559988,13.0460014 8.696,12.762 C8.9360012,12.4779986 9.21799838,12.2160012 9.542,11.976 C9.86600162,11.7359988 10.2079982,11.4920012 10.568,11.244 C10.7520009,11.1159994 10.947999,10.9860007 11.156,10.854 C11.364001,10.7219993 11.5539991,10.5760008 11.726,10.416 C11.8980009,10.2559992 12.0419994,10.076001 12.158,9.876 C12.2740006,9.675999 12.332,9.44800128 12.332,9.192 C12.332,8.78399796 12.2140012,8.46600114 11.978,8.238 C11.7419988,8.00999886 11.4400018,7.896 11.072,7.896 C10.8239988,7.896 10.6140009,7.95399942 10.442,8.07 C10.2699991,8.18600058 10.1320005,8.33799906 10.028,8.526 C9.92399948,8.71400094 9.85000022,8.92199886 9.806,9.15 C9.76199978,9.37800114 9.74,9.60399888 9.74,9.828 L8.108,9.828 Z" id="2"></path>
            </g>
        </g>
    </g>
</svg>