<?xml version="1.0" encoding="UTF-8"?>
<svg width="32px" height="32px" viewBox="0 0 32 32" version="1.1" xmlns="http://www.w3.org/2000/svg" xmlns:xlink="http://www.w3.org/1999/xlink">
    <!-- Generator: Sketch 48.2 (47327) - http://www.bohemiancoding.com/sketch -->
    <title>pin_5_</title>
    <desc>Created with Sketch.</desc>
    <defs></defs>
    <g id="Page-1" stroke="none" stroke-width="1" fill="none" fill-rule="evenodd">
        <g id="pin_5_">
            <circle id="Oval-2" fill="#FFFFFF" cx="16" cy="11" r="8"></circle>
            <g id="Group" transform="translate(5.000000, 0.000000)" fill="#44597D">
                <g id="map-placeholder" fill-rule="nonzero">
                    <path d="M21.7697059,10.964 C21.7697059,4.90866667 16.8971324,0 10.8863235,0 C4.87617647,0 0.00360294118,4.90866667 0.00360294118,10.964 C0.00360294118,12.1473333 0.192205882,13.2866667 0.536985294,14.3546667 C0.536985294,14.3546667 1.45286765,18.496 10.8181618,30.8493333 C16.1804412,23.7753333 18.77125,19.3973333 20.0067647,16.9446667 C21.1198529,15.224 21.7697059,13.1706667 21.7697059,10.964 Z M10.7658824,18.0293333 C6.95941176,18.0293333 3.87294118,14.9206667 3.87294118,11.0853333 C3.87294118,7.25066667 6.95941176,4.142 10.7658824,4.142 C14.5723529,4.142 17.6588235,7.25066667 17.6588235,11.0853333 C17.6581618,14.9206667 14.5723529,18.0293333 10.7658824,18.0293333 Z" id="Shape"></path>
                    <path d="M10.8863235,30.9413333 C10.8625,30.91 10.84,30.88 10.8168382,30.8486667 C10.7930147,30.88 10.7705147,30.9093333 10.7466912,30.9413333 L10.8863235,30.9413333 Z" id="Shape"></path>
                </g>
                <path d="M10.52,8.67 L7.63,8.67 L7.35,10.26 L7.37,10.28 C7.5633343,10.0866657 7.7699989,9.94833375 7.99,9.865 C8.2100011,9.78166625 8.4599986,9.74 8.74,9.74 C9.0866684,9.74 9.393332,9.8033327 9.66,9.93 C9.926668,10.0566673 10.1516657,10.2266656 10.335,10.44 C10.5183342,10.6533344 10.6583328,10.9049986 10.755,11.195 C10.8516671,11.4850015 10.9,11.7933317 10.9,12.12 C10.9,12.4800018 10.8300007,12.8149985 10.69,13.125 C10.5499993,13.4350015 10.3616678,13.7033322 10.125,13.93 C9.88833215,14.1566678 9.6133349,14.331666 9.3,14.455 C8.9866651,14.578334 8.6533351,14.6366667 8.3,14.63 C7.9599983,14.63 7.63500155,14.5850004 7.325,14.495 C7.01499845,14.4049995 6.7400012,14.2666676 6.5,14.08 C6.2599988,13.8933324 6.06833405,13.661668 5.925,13.385 C5.78166595,13.108332 5.7066667,12.7866685 5.7,12.42 L7.12,12.42 C7.1533335,12.7400016 7.2733323,12.9949991 7.48,13.185 C7.6866677,13.375001 7.9499984,13.47 8.27,13.47 C8.4566676,13.47 8.62499925,13.431667 8.775,13.355 C8.92500075,13.2783329 9.05166615,13.1783339 9.155,13.055 C9.25833385,12.9316661 9.33833305,12.7883342 9.395,12.625 C9.45166695,12.4616658 9.48,12.2933342 9.48,12.12 C9.48,11.9399991 9.4533336,11.7700008 9.4,11.61 C9.3466664,11.4499992 9.2666672,11.3100006 9.16,11.19 C9.0533328,11.0699994 8.9266674,10.976667 8.78,10.91 C8.6333326,10.843333 8.4633343,10.81 8.27,10.81 C8.0166654,10.81 7.8100008,10.8549996 7.65,10.945 C7.4899992,11.0350005 7.3400007,11.1766657 7.2,11.37 L5.92,11.37 L6.61,7.5 L10.52,7.5 L10.52,8.67 Z M14.266,11.746 L16.057,11.746 L16.057,12.709 L14.266,12.709 L14.266,14.5 L13.303,14.5 L13.303,12.709 L11.512,12.709 L11.512,11.746 L13.303,11.746 L13.303,9.955 L14.266,9.955 L14.266,11.746 Z" id="5+"></path>
            </g>
        </g>
    </g>
</svg>