<?xml version="1.0" encoding="UTF-8"?>
<svg width="32px" height="32px" viewBox="0 0 32 32" version="1.1" xmlns="http://www.w3.org/2000/svg" xmlns:xlink="http://www.w3.org/1999/xlink">
    <!-- Generator: Sketch 48.2 (47327) - http://www.bohemiancoding.com/sketch -->
    <title>pin_4green</title>
    <desc>Created with Sketch.</desc>
    <defs></defs>
    <g id="Page-1" stroke="none" stroke-width="1" fill="none" fill-rule="evenodd">
        <g id="pin_4green">
            <circle id="Oval-2" fill="#FFFFFF" cx="16" cy="11" r="8"></circle>
            <g id="Group" transform="translate(5.000000, 0.000000)" fill="#009288">
                <g id="map-placeholder" fill-rule="nonzero">
                    <path d="M21.7697059,10.964 C21.7697059,4.90866667 16.8971324,0 10.8863235,0 C4.87617647,0 0.00360294118,4.90866667 0.00360294118,10.964 C0.00360294118,12.1473333 0.192205882,13.2866667 0.536985294,14.3546667 C0.536985294,14.3546667 1.45286765,18.496 10.8181618,30.8493333 C16.1804412,23.7753333 18.77125,19.3973333 20.0067647,16.9446667 C21.1198529,15.224 21.7697059,13.1706667 21.7697059,10.964 Z M10.7658824,18.0293333 C6.95941176,18.0293333 3.87294118,14.9206667 3.87294118,11.0853333 C3.87294118,7.25066667 6.95941176,4.142 10.7658824,4.142 C14.5723529,4.142 17.6588235,7.25066667 17.6588235,11.0853333 C17.6581618,14.9206667 14.5723529,18.0293333 10.7658824,18.0293333 Z" id="Shape"></path>
                    <path d="M10.8863235,30.9413333 C10.8625,30.91 10.84,30.88 10.8168382,30.8486667 C10.7930147,30.88 10.7705147,30.9093333 10.7466912,30.9413333 L10.8863235,30.9413333 Z" id="Shape"></path>
                </g>
                <path d="M10.908,8.736 L10.872,8.736 L8.7,11.652 L10.908,11.652 L10.908,8.736 Z M10.908,13.056 L7.356,13.056 L7.356,11.496 L11.004,6.6 L12.528,6.6 L12.528,11.652 L13.644,11.652 L13.644,13.056 L12.528,13.056 L12.528,15 L10.908,15 L10.908,13.056 Z" id="4"></path>
            </g>
        </g>
    </g>
</svg>